<svg width="390" height="369" viewBox="0 0 390 369" fill="none" xmlns="http://www.w3.org/2000/svg"><path d="M63.313 109.649L35.36 93.479c-4.886-2.822-8.848.173-8.848 6.69v32.356c0 6.516 3.962 14.086 8.848 16.907l27.953 16.171c4.888 2.821 8.85-.174 8.85-6.69v-32.356c0-6.517-3.962-14.086-8.85-16.908z" fill="#F4FBFE"/><path d="M67.874 106.976L39.92 90.806c-2.092-1.209-4.012-1.343-5.528-.598l-.048-.052-4.836 2.839.019.06c1.557-.928 3.596-.868 5.833.424l27.954 16.171c4.888 2.821 8.849 10.39 8.849 16.908v32.356c0 3.166-.941 5.492-2.464 6.732l2.696-1.776c2.268-1.299 4.328-3.32 4.328-7.631v-32.356c0-6.516-3.961-14.085-8.85-16.907z" fill="#AED2F0"/><path d="M72.163 126.557c0-6.517-3.962-14.087-8.85-16.908L35.36 93.479c-4.886-2.822-8.848.173-8.848 6.69l45.65 26.388z" fill="#FBC907"/><path d="M76.723 123.882c0-6.516-3.961-14.085-8.85-16.906L39.92 90.806c-2.092-1.209-4.012-1.343-5.528-.598l-.048-.052-4.836 2.838.019.06c1.557-.928 3.596-.868 5.833.424l27.954 16.171c4.888 2.821 8.849 10.391 8.849 16.908l4.56-2.675z" fill="#FAB40A"/><path d="M68.959 165.947c1.62-1.204 2.624-3.588 2.624-6.868v-32.356c0-.168-.003-.336-.007-.506l.587.34v32.356c0 .338-.01.666-.032.983-.163 2.472-.944 4.349-2.141 5.493a4.476 4.476 0 0 1-1.031.558z" fill="#FCFEFF"/><path d="M69.99 165.389c1.197-1.144 1.978-3.021 2.14-5.493.022-.317.033-.646.033-.983v-32.356l.497-.292v32.234c0 3.308-1.025 5.699-2.67 6.89z" fill="#E9F5FC"/><path d="M29.633 92.887a4.48 4.48 0 0 1 1.042-.578l-.892.524-.15.054zm42.53 33.67c0-6.517-3.962-14.087-8.85-16.908L35.36 93.479a9.663 9.663 0 0 0-.663-.35c-1-.477-1.952-.705-2.83-.705-.56 0-1.092.093-1.586.272a4.411 4.411 0 0 0-.498.137l.892-.524a4.595 4.595 0 0 1 1.673-.305c1.076 0 2.263.341 3.51 1.061l27.953 16.169c4.886 2.823 8.85 10.392 8.85 16.908v.123l-.498.292z" fill="#fff"/><path d="M34.412 137.138c0-2.209.308-3.925.925-5.146.616-1.22 1.72-2.328 3.314-3.324 1.565-1.012 2.65-2.022 3.254-3.028.603-1.007.906-2.247.906-3.72 0-1.327-.187-2.356-.559-3.087a4.108 4.108 0 0 0-1.637-1.719c-1.464-.845-2.196-.25-2.196 1.783v3.316l-4.007-2.313v-3.007c0-2.504.54-4.115 1.619-4.835 1.078-.717 2.645-.484 4.7.703 2.054 1.187 3.621 2.76 4.7 4.724 1.077 1.964 1.617 4.199 1.617 6.703 0 1.888-.392 3.502-1.175 4.846-.784 1.347-2.138 2.628-4.064 3.844-1.26.807-2.106 1.562-2.542 2.267-.438.705-.656 1.604-.656 2.695v.662l8.052 4.648v4.422l-12.25-7.074v-3.36zM51.4 148.737c-1.079-1.962-1.617-4.198-1.617-6.702v-2.431l4.006 2.313v2.784c0 2.004.732 3.428 2.195 4.274 1.464.845 2.196.266 2.196-1.739v-6.94c0-2.033-.732-3.472-2.196-4.318-1.463-.845-2.195-.25-2.195 1.783v.266l-4.006-2.314.77-16.838 11.171 6.45v4.42l-7.396-4.27-.347 7.181.078.044c.794-1.043 2.016-1.089 3.66-.14 1.541.889 2.71 2.168 3.505 3.835.796 1.669 1.193 3.653 1.193 5.95v6.984c0 2.506-.538 4.118-1.617 4.835-1.079.719-2.645.484-4.701-.701-2.054-1.187-3.62-2.762-4.699-4.726z" fill="#5191D4"/><path d="M58.043 148.472c.526-.177.796-.856.796-2.059v-6.939c0-2.034-.732-3.473-2.196-4.318-1.088-.628-1.771-.457-2.05.507.35-.119.81-.019 1.39.316 1.465.845 2.197 2.284 2.197 4.317v6.94c0 .501-.045.912-.137 1.236zm-3.057-23.82l-.057 1.169 6.795 3.924v-1.203l-6.737-3.89zm-1.196 13.11c0-.346.027-.634.07-.896l-3.419-1.975.716-15.668-.605-.348-.77 16.839 4.007 2.313v-.265zm7.669 15.58c-1.079.718-2.647.483-4.702-.702-2.053-1.187-3.62-2.762-4.698-4.726-1.079-1.962-1.618-4.198-1.618-6.702v-1.228l-.658-.38v2.431c0 2.504.538 4.74 1.617 6.702 1.079 1.964 2.645 3.539 4.7 4.726 2.055 1.185 3.621 1.42 4.7.701.355-.235.645-.577.883-1.005l-.224.183zm-23.04-32.218l-2.69-1.553v-3.007c0-2.504.54-4.115 1.618-4.835l.141-.073c-.557-.005-1.044.128-1.457.403-1.079.72-1.619 2.33-1.619 4.834v3.007l4.007 2.312v-1.088z" fill="#386FB2"/><path d="M35.728 140.17v-3.36c0-2.21.308-3.925.924-5.146.617-1.222 1.721-2.33 3.315-3.326 1.565-1.012 2.65-2.021 3.255-3.028.602-1.006.905-2.245.905-3.72 0-1.326-.187-2.356-.559-3.086a4.113 4.113 0 0 0-1.637-1.719c-.896-.517-1.514-.488-1.862.072a4.108 4.108 0 0 1 2.183 1.976c.372.731.559 1.76.559 3.087 0 1.473-.303 2.713-.906 3.72-.604 1.006-1.689 2.016-3.254 3.028-1.594.996-2.698 2.104-3.314 3.324-.617 1.221-.925 2.937-.925 5.146v3.36l12.25 7.074v-1.09l-10.934-6.312z" fill="#386FB2"/><path d="M41.684 99.448c-1.655-.955-2.996-.19-2.996 1.708 0 1.899 1.341 4.213 2.996 5.168 1.655.956 2.996.191 2.996-1.708s-1.341-4.212-2.996-5.168zm17.656 10.5c-1.654-.955-2.996-.191-2.996 1.708 0 1.9 1.342 4.213 2.996 5.168 1.655.956 2.996.191 2.996-1.708s-1.341-4.212-2.996-5.168z" fill="#fff"/><path d="M44.152 105.008c-1.655-.955-2.996-3.268-2.996-5.168 0-.22.021-.421.056-.61-1.43-.563-2.524.213-2.524 1.926 0 1.899 1.341 4.213 2.996 5.168 1.463.845 2.677.341 2.94-1.097a3.563 3.563 0 0 1-.472-.219zm17.655 10.5c-1.655-.955-2.996-3.268-2.996-5.167 0-.221.023-.422.057-.61-1.43-.564-2.524.213-2.524 1.926 0 1.899 1.342 4.212 2.996 5.167 1.463.845 2.678.341 2.94-1.097a3.667 3.667 0 0 1-.473-.219z" fill="#DFA10A"/><path d="M58.175 162.629L35.36 149.432c-2.157-1.245-4.133-3.416-5.67-6.012 1.537 2.596 3.513 4.767 5.67 6.012l22.815 13.197z" fill="#D2DEED"/><path d="M58.175 162.629L35.36 149.432c-2.157-1.245-4.133-3.416-5.67-6.012-1.942-3.287-3.178-7.255-3.178-10.895v-16.772l15.827 8.994c-.11.289-.242.562-.392.821l-.041.072c-.605 1.007-1.69 2.016-3.255 3.028a6.46 6.46 0 0 0-.184.117c-1.495.966-2.538 2.035-3.13 3.207-.617 1.221-.925 2.937-.925 5.147v3.36l12.25 7.073v-4.421l-8.051-4.648v-.663c0-1.091.219-1.989.656-2.695.436-.705 1.282-1.46 2.542-2.266 1.926-1.216 3.28-2.498 4.065-3.844a8.135 8.135 0 0 0 .778-1.838l3.43 1.95-.266 5.83-.033.736 4.006 2.314v-.267c0-.344.029-.632.071-.895l-.01-.005c.109-.68.357-1.084.746-1.211l-.002.014a.94.94 0 0 1 .305-.048c.3 0 .661.118 1.085.364.258.148.492.316.704.501.995.868 1.492 2.14 1.492 3.816v7.035l-.001.042v.048c-.002.007-.002.014-.002.02v.046l-.002.044a4.077 4.077 0 0 1-.132.941c-.166.585-.481.879-.948.879-.307 0-.676-.126-1.11-.376-1.463-.846-2.196-2.27-2.196-4.274v-2.784l-3.348-1.933-.658-.38v2.431c0 2.504.539 4.74 1.617 6.702 1.079 1.964 2.646 3.539 4.699 4.726.813.469 1.55.789 2.21.96.002 1.764.002 3.362-.006 4.67a60.385 60.385 0 0 1-.128 3.536z" fill="#C7DAEE"/><path d="M46.663 146.482l-10.935-6.312v-3.36c0-2.21.308-3.925.924-5.146.617-1.222 1.721-2.33 3.315-3.326 1.565-1.012 2.65-2.021 3.255-3.028l.027-.046 3.403 1.933c-.19.66-.45 1.273-.779 1.837-.784 1.347-2.138 2.628-4.064 3.844-1.26.807-2.106 1.562-2.542 2.267-.438.705-.656 1.604-.656 2.695v.662l8.052 4.648v3.332zm-12.25-5.984v-3.36c0-2.209.307-3.925.924-5.146-.617 1.221-.925 2.937-.925 5.146v3.36zm4.054-11.713c.06-.04.121-.079.184-.117 1.565-1.012 2.65-2.022 3.254-3.028l.042-.072-.042.072c-.604 1.006-1.689 2.016-3.254 3.028a5.053 5.053 0 0 0-.184.117z" fill="#4682CB"/><path d="M54.059 132.7l-.078-.044.06-1.26 1.011.575c-.383.121-.715.364-.993.729z" fill="#C7DAEE"/><path d="M58.31 154.423c-.66-.171-1.398-.491-2.211-.96-2.054-1.187-3.62-2.761-4.699-4.725 1.079 1.964 2.645 3.538 4.7 4.725.812.468 1.55.789 2.21.96zm-.002-1.033a10.673 10.673 0 0 1-1.55-.75c-2.054-1.186-3.62-2.761-4.7-4.725-1.078-1.963-1.617-4.199-1.617-6.703v-1.228l3.348 1.934v2.784c0 2.004.732 3.428 2.195 4.273.435.251.804.376 1.11.376.467 0 .783-.293.949-.879a.823.823 0 0 0 .256-.141c.002 1.74.006 3.455.009 5.059zm-.13-5.947v-.001.001zm0-.021v-.003.003zm0-.046v-.002.002zm.002-.045v-.004.004zm0-.024v-.001.001zm0-.023v-.004.004zm0-.021v-.005.005zm0-.027v-6.94c0-1.676-.497-2.948-1.492-3.816.995.868 1.492 2.14 1.492 3.816v6.94zm-4.39-9.474v-.002.002zm4.52-.85a4.087 4.087 0 0 0-1.667-1.756c-.43-.246-.795-.37-1.098-.37-.462 0-.778.288-.949.864-.39.126-.637.53-.745 1.21l-3.41-1.969.247-5.4 3.353 1.905-.06 1.26.078.044c.278-.365.61-.608.993-.729l3.299 1.873c-.019.886-.031 1.923-.04 3.068zm-8.527-1.198l.033-.736-.033.736z" fill="#4682CB"/><path d="M58.043 148.472a4.11 4.11 0 0 0 .132-.941v-.044c.002-.015.002-.03.002-.044v-.001c0-.007 0-.014.002-.021v-7.125c0-1.676-.496-2.948-1.491-3.816a4.417 4.417 0 0 0-.704-.501c-.424-.246-.785-.364-1.085-.364a.94.94 0 0 0-.306.048.053.053 0 0 0 .003-.014c.17-.576.487-.864.95-.864.302 0 .667.124 1.097.371a4.088 4.088 0 0 1 1.668 1.756c-.026 3.267-.022 7.413-.012 11.419a.844.844 0 0 1-.256.141zm-4.253-10.445l-4.007-2.313.033-.736.267-5.831.605.344-.247 5.4 3.41 1.969.01.006c-.044.262-.072.55-.072.894v.267zm4.52 16.396c-.66-.171-1.398-.492-2.21-.96-2.055-1.187-3.621-2.761-4.7-4.725-1.079-1.963-1.617-4.199-1.617-6.703v-2.431l.658.38v1.228c0 2.504.54 4.74 1.618 6.703 1.078 1.964 2.645 3.539 4.698 4.725.552.319 1.07.568 1.551.75l.001 1.033zm-11.647-6.851l-12.25-7.074v-3.36c0-2.209.307-3.925.924-5.146.592-1.172 1.635-2.242 3.13-3.207.06-.04.121-.079.184-.117 1.565-1.012 2.65-2.022 3.254-3.028l.042-.072a5.61 5.61 0 0 0 .392-.822l.91.518-.028.046c-.603 1.007-1.689 2.016-3.254 3.028-1.593.996-2.698 2.104-3.315 3.326-.616 1.221-.924 2.936-.924 5.146v3.36l10.935 6.312v1.09z" fill="#3366AD"/><path d="M38.056 179.907c3.227 1.841 7.363 1.073 9.616-1.88 3.599-4.717 5.019-10.52 5.063-18.72.035-6.284-.073-19.256.048-25.248L6.926 108.003c-.116 6.104-.011 18.891-.044 25.141-.048 8.743-1.659 14.76-5.807 19.643-1.784 2.099-1.299 5.277 1.093 6.643l35.888 20.477z" fill="#F4FBFE"/><path d="M15.123 150.003c0-2.223.31-3.947.93-5.176.62-1.228 1.73-2.343 3.332-3.343 1.575-1.02 2.667-2.032 3.275-3.047.605-1.013.91-2.26.91-3.741 0-1.335-.188-2.369-.562-3.105a4.13 4.13 0 0 0-1.647-1.728c-1.47-.848-2.208-.252-2.208 1.793v3.333l-4.03-2.325v-3.024c0-2.519.544-4.139 1.628-4.863 1.085-.721 2.66-.486 4.727.707 2.064 1.193 3.642 2.777 4.727 4.753 1.086 1.976 1.627 4.222 1.627 6.742 0 1.896-.393 3.521-1.183 4.876-.788 1.35-2.148 2.64-4.086 3.862-1.266.812-2.12 1.572-2.556 2.282-.442.709-.66 1.613-.66 2.709v.668l8.098 4.675v4.445l-12.322-7.115v-3.378zM37.83 156.4v-12.139l-.08-.045-4.183 9.722 4.263 2.462zm0 4.444l-8.14-4.697v-4.446l7.75-16.557 4.65 2.687v21.029l2.014 1.161v4.446l-2.014-1.163v5.648l-4.26-2.46v-5.648z" fill="#5191D4"/><path d="M20.516 140.687c1.45-.967 2.477-1.928 3.053-2.891.607-1.015.912-2.261.912-3.743 0-1.334-.19-2.369-.562-3.105a4.141 4.141 0 0 0-1.647-1.728c-.997-.575-1.648-.469-1.97.283.297.01.646.121 1.06.36a4.13 4.13 0 0 1 1.646 1.728c.375.736.563 1.77.563 3.105 0 1.481-.306 2.728-.911 3.741-.45.75-1.167 1.499-2.144 2.25zm18.223 2.932l-.079-.046-.83 1.931v9.728l.909.525v-12.138zm-14.74 1.093c-.179.12-.336.244-.525.363-.378.241-.706.477-1.01.71l.099-.068c.524-.331.996-.665 1.436-1.005z" fill="#386FB2"/><path d="M38.739 165.849v-5.648l-8.137-4.697v-4.445l7.318-15.638-.48-.277-7.75 16.557v4.446l8.14 4.697v5.648l4.26 2.46v-1.168l-3.351-1.935zM43 162.661v1.168l1.104.638v-1.168L43 162.661zm-23.847-28.838l-3.12-1.8v-3.026c0-2.125.39-3.604 1.166-4.45a2.367 2.367 0 0 0-.448.23c-1.084.724-1.628 2.344-1.628 4.863v3.024l4.03 2.325v-1.166zm-3.12 18.916v-3.379c0-2.221.31-3.947.93-5.176.457-.905 1.185-1.747 2.174-2.528-1.461.957-2.498 2.011-3.084 3.171-.62 1.229-.93 2.953-.93 5.176v3.378l12.322 7.115v-1.168l-11.412-6.589z" fill="#386FB2"/><path d="M210.129 63.353c0-4.48-3.164-9.937-7.066-12.19-1.022-.59-1.99-.895-2.866-.954l.008-.178c0-8.672-6.126-19.239-13.684-23.603-4.242-2.45-7.937-2.121-10.537-.384l-4.365 2.492c-2.467-1.28-4.671-1.27-6.226-.197l-5.201 3.048c1.591-.695 3.68-.47 5.969.853.487.281.962.612 1.428.967 1.786-5.26 6.93-6.84 13.007-3.331 7.557 4.363 13.684 14.93 13.684 23.603l-.008.177c.876.059 1.844.364 2.865.953 3.903 2.255 7.067 7.712 7.067 12.191 0 1.895-.568 3.31-1.517 4.141l5.152-2.918-.007-.012c1.412-.668 2.297-2.288 2.297-4.658z" fill="#E5F6FF"/><path d="M197.137 54.61c-1.021-.59-1.989-.895-2.865-.954l.008-.177c0-8.672-6.127-19.24-13.684-23.603-6.077-3.51-11.221-1.93-13.007 3.33a13.689 13.689 0 0 0-1.428-.966c-4.982-2.877-9.022-.575-9.022 5.144 0 5.717 4.04 12.684 9.022 15.561l30.976 17.884c3.903 2.254 7.067.45 7.067-4.029s-3.164-9.936-7.067-12.19z" fill="#D6EEFB"/><path d="M374.713 74.136c0-5.803-4.097-12.872-9.153-15.79-1.323-.765-2.576-1.16-3.712-1.237l.01-.23c0-11.232-7.935-24.92-17.725-30.572-5.496-3.174-10.281-2.748-13.649-.498l-5.655 3.227c-3.194-1.657-6.05-1.645-8.062-.255l-6.739 3.947c2.061-.899 4.767-.607 7.732 1.105.631.366 1.247.794 1.851 1.254 2.312-6.814 8.975-8.86 16.847-4.315 9.79 5.652 17.726 19.34 17.726 30.572l-.011.23c1.135.078 2.39.473 3.711 1.237 5.056 2.918 9.155 9.989 9.155 15.79 0 2.455-.736 4.286-1.966 5.364l6.674-3.78-.01-.017c1.83-.864 2.976-2.963 2.976-6.032z" fill="#E5F6FF"/><path d="M357.884 62.81c-1.321-.764-2.576-1.158-3.71-1.236l.01-.23c0-11.232-7.936-24.92-17.725-30.572-7.872-4.545-14.536-2.499-16.848 4.315a17.82 17.82 0 0 0-1.851-1.254c-6.454-3.726-11.686-.742-11.686 6.664s5.232 16.43 11.686 20.157c3.227 1.863 36.306 20.96 40.124 23.166 5.056 2.92 9.155.583 9.155-5.219 0-5.801-4.099-12.872-9.155-15.79z" fill="#D6EEFB"/><path d="M306.511 85.101c0-23.918-16.899-53.066-37.743-65.101-10.05-5.803-19.184-6.567-25.946-3.121l-.022-.036-5.852 3.26 2.716 4.666c-1.264 3.598-1.95 7.834-1.95 12.65 0 23.92 16.898 53.068 37.744 65.102 4.281 2.472 8.394 4.028 12.23 4.735l2.77 4.759 3.916-2.104c7.462-3.604 12.137-12.23 12.137-24.81z" fill="#5191D4"/><path d="M302.092 87.51c0 23.918-16.899 33.553-37.744 21.518-20.845-12.035-37.744-41.183-37.744-65.101 0-23.92 16.899-33.555 37.744-21.52 20.845 12.034 37.744 41.182 37.744 65.102z" fill="#fff"/><path d="M301.252 87.965c0 23.92-16.897 33.554-37.742 21.519-20.846-12.035-37.744-41.181-37.744-65.101s16.898-33.555 37.744-21.52c20.845 12.035 37.742 41.182 37.742 65.102z" fill="#AED2F0"/><path d="M295.717 84.77c0 20.41-14.42 28.633-32.208 18.362-17.788-10.27-32.208-35.143-32.208-55.553 0-20.412 14.42-28.634 32.208-18.364 17.788 10.27 32.208 35.142 32.208 55.554z" fill="#fff"/><path d="M264.821 102.476c-17.788-10.27-32.208-35.143-32.208-55.553 0-10.222 3.616-17.384 9.459-20.7-6.607 2.953-10.771 10.392-10.771 21.356 0 20.41 14.42 45.284 32.208 55.553 8.882 5.128 16.923 5.644 22.75 2.337-5.695 2.546-13.204 1.76-21.438-2.993z" fill="#7FB7E7"/><path d="M265.271 67.19c0 1.117-.79 1.566-1.762 1.005-.973-.562-1.761-1.922-1.761-3.038 0-1.117.788-1.566 1.761-1.005.972.563 1.762 1.923 1.762 3.039z" fill="#23366A"/><path d="M264.001 34.77c-.269-.155-.488-.573-.488-.933V32.2c0-.36.219-.526.488-.37.27.156.488.574.488.932v1.64c0 .359-.218.524-.488.37zm0 65.747c-.269-.154-.488-.572-.488-.932v-1.638c0-.36.219-.526.488-.37.27.156.488.574.488.932v1.64c0 .359-.218.524-.488.368zm-27.368-50.144c0 .31-.188.452-.42.318l-1.722-.995c-.232-.133-.42-.493-.42-.803 0-.31.188-.45.42-.317l1.722.995c.232.133.42.493.42.802zm57.298 33.08c0 .31-.188.452-.42.317l-1.723-.993c-.232-.135-.42-.493-.42-.802 0-.311.188-.453.42-.32l1.723.995c.232.135.42.494.42.803zm-43.614-52.376c-.233.02-.532-.244-.666-.59l-.794-2.035c-.134-.346-.054-.642.179-.662.233-.02.532.244.667.59l.793 2.034c.135.347.055.643-.179.663zm28.648 73.48c-.233.019-.532-.245-.666-.59l-.794-2.035c-.134-.345-.054-.643.179-.661.235-.02.532.244.668.589l.792 2.035c.136.345.056.642-.179.662zM240.3 68.192c.135.345.055.641-.179.661l-1.373.118c-.233.02-.532-.244-.666-.59-.135-.346-.055-.642.178-.662l1.373-.118c.234-.02.532.246.667.59zm49.622-4.225c.134.345.054.641-.179.661l-1.375.118c-.233.02-.532-.245-.666-.59-.135-.347-.055-.643.178-.663l1.375-.117c.233-.02.532.244.667.59zM240.3 36.788c-.135.19-.433.11-.667-.18l-1.373-1.703c-.233-.29-.313-.678-.178-.87.134-.188.433-.108.666.18l1.373 1.705c.234.29.314.679.179.868zm49.622 61.522c-.135.191-.434.11-.667-.18l-1.375-1.704c-.233-.289-.313-.677-.178-.868.134-.189.433-.109.666.18l1.375 1.704c.233.29.313.678.179.868zm-39.605-12.84c.234.289.314.678.179.869l-.793 1.117c-.135.19-.434.11-.667-.179-.233-.29-.313-.678-.179-.869l.794-1.119c.134-.189.433-.109.666.18zm28.648-40.4c.235.29.315.68.179.869l-.792 1.118c-.136.191-.433.11-.668-.18-.233-.289-.313-.678-.179-.867l.794-1.12c.134-.19.433-.108.666.18z" fill="#7FB7E7"/><path d="M264.36 67.947l-1.702-.983V39.677l1.702.983v27.287z" fill="#23366A"/><path d="M263.812 65.812l-.522.734 23.016 28.536.521-.735-23.015-28.535z" fill="#23366A"/><path d="M264.389 66.683c0 .557-.394.782-.88.501-.486-.28-.881-.961-.881-1.519 0-.558.395-.782.881-.502.486.281.88.961.88 1.52z" fill="#fff"/><path d="M270.281 63.43l-.925-1.598-3.752 2.139.243.419-23.263 13.262.441.76 23.263-13.263.243.42 3.75-2.14z" fill="#FBC907"/><path d="M119.7 162.907l-.046-.002a23.184 23.184 0 0 0-2.587-.033c-.383.028-.679-.27-.695-.638a.667.667 0 0 1 .638-.694c.925-.04 1.84-.027 2.734.035a.668.668 0 0 1-.044 1.332zm-9.196 1.131a.667.667 0 0 1-.206-1.3c.849-.277 1.74-.513 2.645-.698a.668.668 0 0 1 .268 1.306c-.857.175-1.697.398-2.499.659l-.208.033zm15.611.474l-.296-.071a13.494 13.494 0 0 0-2.369-.899.666.666 0 0 1-.46-.822c.1-.355.46-.562.822-.462.936.264 1.811.596 2.6.99a.667.667 0 0 1-.297 1.264zm-21.563 2.459a.664.664 0 0 1-.577-.334.665.665 0 0 1 .244-.911l2.259-1.304c.314-.181.74-.09.925.219.189.31.117.7-.188.895l-2.329 1.346-.334.089zm27.336.85l-.333-.089-2.305-1.331a.667.667 0 0 1 .666-1.155l2.306 1.331a.665.665 0 0 1-.334 1.244zm-33.101 2.477a.666.666 0 0 1-.333-1.244l2.306-1.332a.664.664 0 0 1 .91.246.665.665 0 0 1-.243.91l-2.307 1.331-.333.089zm38.865.851l-.333-.089-2.307-1.332a.666.666 0 1 1 .667-1.155l2.307 1.332a.665.665 0 0 1 .242.911.662.662 0 0 1-.576.333zm-44.628 2.477a.667.667 0 0 1-.333-1.244l2.307-1.332a.663.663 0 0 1 .909.244.666.666 0 0 1-.243.911l-2.306 1.332-.334.089zm50.391.85l-.333-.09-2.307-1.33a.666.666 0 0 1-.243-.911.67.67 0 0 1 .911-.244l2.305 1.331a.666.666 0 0 1-.333 1.244zm-56.153 2.477a.667.667 0 0 1-.334-1.243l2.306-1.332a.665.665 0 0 1 .91.244.665.665 0 0 1-.244.911l-2.305 1.331-.333.089zm61.916.851l-.334-.09-2.305-1.33a.667.667 0 0 1 .667-1.155l2.305 1.331a.666.666 0 1 1-.333 1.244zm-67.68 2.476a.662.662 0 0 1-.576-.334.663.663 0 0 1 .244-.909l2.305-1.33a.667.667 0 0 1 .667 1.153l-2.306 1.33-.334.09zm73.444.85l-.334-.089-2.305-1.331a.666.666 0 1 1 .667-1.154l2.305 1.33a.666.666 0 0 1-.333 1.244zm-79.207 2.478a.663.663 0 0 1-.576-.333.664.664 0 0 1 .243-.91l2.305-1.331a.663.663 0 0 1 .91.243.665.665 0 0 1-.243.911l-2.306 1.33-.333.09zm84.969.85l-.333-.089-2.305-1.332a.666.666 0 1 1 .666-1.153l2.306 1.332a.665.665 0 0 1-.334 1.242zm-90.732 2.478a.666.666 0 0 1-.333-1.244l2.305-1.331a.661.661 0 0 1 .91.244.663.663 0 0 1-.243.909l-2.305 1.331-.334.091zm96.495.849l-.333-.089-2.304-1.331a.664.664 0 0 1-.244-.911.664.664 0 0 1 .91-.242l2.304 1.33a.666.666 0 0 1-.333 1.243zM64.21 190.264a.666.666 0 0 1-.334-1.244l2.304-1.331a.663.663 0 0 1 .911.244.662.662 0 0 1-.244.909l-2.304 1.331-.333.091zm108.021.848l-.333-.09-2.306-1.33a.668.668 0 0 1 .667-1.154l2.305 1.331c.32.184.43.591.244.909a.66.66 0 0 1-.577.334zM58.446 193.59a.666.666 0 0 1-.334-1.244l2.306-1.33a.665.665 0 1 1 .667 1.153l-2.306 1.331-.333.09zm119.549.851l-.333-.091-2.307-1.33a.666.666 0 1 1 .667-1.154l2.306 1.331a.666.666 0 0 1-.333 1.244zm-125.313 2.477a.666.666 0 0 1-.333-1.244l2.306-1.33a.663.663 0 0 1 .91.244.663.663 0 0 1-.243.909l-2.307 1.332-.333.089zm131.076.85l-.334-.091-2.306-1.331a.663.663 0 0 1-.243-.909.664.664 0 0 1 .909-.244l2.307 1.331c.319.184.428.59.243.91a.663.663 0 0 1-.576.334zM46.92 200.245a.667.667 0 0 1-.335-1.244l2.306-1.331a.665.665 0 0 1 .91.244.665.665 0 0 1-.243.911l-2.306 1.331-.332.089zm142.6.851l-.333-.091-2.305-1.331a.662.662 0 0 1-.244-.909.664.664 0 0 1 .91-.244l2.306 1.331a.667.667 0 0 1-.334 1.244zm-148.364 2.477a.666.666 0 0 1-.333-1.243l2.305-1.333a.667.667 0 0 1 .667 1.155l-2.305 1.332-.334.089zm154.127.849l-.333-.09-2.304-1.331a.665.665 0 1 1 .666-1.153l2.304 1.33a.666.666 0 1 1-.333 1.244zM35.393 206.9a.665.665 0 0 1-.335-1.243l2.306-1.331a.666.666 0 1 1 .667 1.154l-2.305 1.33-.332.09zm165.654.85l-.333-.089-2.306-1.333a.664.664 0 0 1-.242-.91.668.668 0 0 1 .909-.244l2.305 1.332a.666.666 0 0 1-.333 1.244zm-170.992 3.051a.666.666 0 0 1-.517-1.087 11.483 11.483 0 0 1 2.05-1.934.666.666 0 1 1 .798 1.07 10.076 10.076 0 0 0-1.814 1.704.66.66 0 0 1-.517.247zm176.755.276l-.334-.089-2.305-1.331a.666.666 0 1 1 .667-1.155l2.305 1.331a.667.667 0 0 1-.333 1.244zm5.764 3.328l-.334-.089-2.305-1.332a.665.665 0 0 1-.244-.911.669.669 0 0 1 .911-.244l2.305 1.333a.665.665 0 0 1-.333 1.243zm-183.307 2.557a.665.665 0 0 1-.573-.325 5.35 5.35 0 0 1-.784-2.779l.668-.094.666.012c-.001.81.199 1.516.594 2.178a.668.668 0 0 1-.23.915l-.341.093zm189.069.77l-.333-.09-2.305-1.33a.667.667 0 0 1 .666-1.154l2.306 1.331a.667.667 0 1 1-.334 1.243zm-183.842 3.213l-.334-.089-2.304-1.331a.665.665 0 0 1-.244-.911.663.663 0 0 1 .911-.242l2.304 1.33a.666.666 0 0 1-.333 1.243zm189.606.113l-.333-.089-2.307-1.331a.664.664 0 0 1-.242-.91.664.664 0 0 1 .909-.243l2.307 1.331c.318.182.428.59.242.909a.662.662 0 0 1-.576.333zm-183.844 3.215l-.332-.089-2.305-1.331a.667.667 0 1 1 .667-1.153l2.305 1.33a.666.666 0 0 1-.335 1.243zm189.607.113l-.333-.089-2.306-1.331a.665.665 0 1 1 .668-1.153l2.304 1.331a.665.665 0 0 1-.333 1.242zM46.02 227.601l-.333-.091-2.305-1.33a.666.666 0 1 1 .666-1.154l2.306 1.331a.667.667 0 0 1-.334 1.244zm189.606.113l-.334-.09-2.304-1.331a.663.663 0 0 1-.244-.909.665.665 0 0 1 .911-.244l2.304 1.33a.666.666 0 0 1-.333 1.244zm-183.843 3.215l-.333-.091-2.304-1.332a.664.664 0 0 1-.244-.909.667.667 0 0 1 .91-.244l2.304 1.332a.665.665 0 0 1-.333 1.244zm189.605.113l-.332-.09-2.305-1.331a.665.665 0 1 1 .667-1.153l2.304 1.33a.665.665 0 0 1-.334 1.244zm-183.841 3.214l-.333-.091-2.306-1.331a.663.663 0 0 1-.242-.909.665.665 0 0 1 .909-.244l2.305 1.331a.665.665 0 0 1 .243.91.664.664 0 0 1-.576.334zm189.605.113l-.333-.091-2.305-1.33a.666.666 0 1 1 .666-1.154l2.306 1.331a.665.665 0 0 1 .242.911.662.662 0 0 1-.576.333zM63.31 237.582l-.334-.089-2.305-1.332a.663.663 0 0 1-.243-.909.665.665 0 0 1 .91-.244l2.305 1.33a.667.667 0 0 1-.333 1.244zm189.606.115l-.333-.091-2.305-1.33a.666.666 0 1 1 .666-1.155l2.306 1.332a.668.668 0 0 1-.334 1.244zM69.074 240.91l-.334-.089-2.305-1.331a.664.664 0 0 1-.244-.91.663.663 0 0 1 .91-.244l2.306 1.33a.666.666 0 0 1-.333 1.244zm189.278.543a.664.664 0 0 1-.525-.257c-.455-.584-1.065-1.123-1.817-1.599a.668.668 0 0 1 .716-1.125c.88.558 1.605 1.2 2.153 1.906a.664.664 0 0 1-.527 1.075zm-183.516 2.784l-.333-.089-2.305-1.331a.667.667 0 0 1 .666-1.155l2.306 1.332a.667.667 0 1 1-.333 1.243zm5.764 3.328l-.333-.089-2.307-1.331a.666.666 0 1 1 .667-1.153l2.307 1.33a.664.664 0 0 1 .242.91.662.662 0 0 1-.576.333zm177.771.067a.665.665 0 0 1-.551-1.042c.484-.712.788-1.441.899-2.165a.667.667 0 1 1 1.319.203c-.144.921-.519 1.834-1.116 2.712a.667.667 0 0 1-.551.292zm-172.008 3.26l-.333-.09-2.306-1.33a.667.667 0 0 1 .668-1.154l2.304 1.331a.665.665 0 0 1-.333 1.243zm166.859.85a.668.668 0 0 1-.334-1.244l1.339-.773c.316-.183.617-.372.904-.565a.667.667 0 0 1 .748 1.104c-.311.209-.639.413-.983.614l-1.341.775-.333.089zm-161.096 2.479l-.334-.091-2.304-1.332a.664.664 0 0 1-.244-.91.668.668 0 0 1 .911-.243l2.304 1.332a.666.666 0 1 1-.333 1.244zm155.332.849a.663.663 0 0 1-.576-.333.663.663 0 0 1 .242-.909l2.306-1.332a.666.666 0 1 1 .666 1.153l-2.305 1.332-.333.089zm-149.57 2.478l-.332-.091-2.305-1.331a.665.665 0 1 1 .667-1.153l2.304 1.331a.666.666 0 1 1-.333 1.244zm143.807.849a.666.666 0 0 1-.333-1.243l2.305-1.33a.66.66 0 0 1 .909.242.665.665 0 0 1-.242.911l-2.306 1.331-.333.089zm-138.041 2.479l-.334-.091-2.306-1.332a.665.665 0 1 1 .666-1.153l2.307 1.332c.319.184.428.59.243.91a.663.663 0 0 1-.576.334zm132.277.848a.665.665 0 0 1-.333-1.243l2.305-1.331a.666.666 0 1 1 .667 1.154l-2.306 1.33-.333.09zm-126.515 2.478l-.333-.09-2.305-1.331a.666.666 0 0 1 .666-1.153l2.306 1.33a.668.668 0 0 1-.334 1.244zm120.751.85a.663.663 0 0 1-.576-.334.664.664 0 0 1 .243-.909l2.306-1.331a.667.667 0 0 1 .667 1.154l-2.307 1.33-.333.09zm-114.988 2.477l-.333-.091-2.306-1.329a.666.666 0 1 1 .667-1.155l2.305 1.331c.32.184.43.592.244.911a.664.664 0 0 1-.577.333zm109.225.851a.663.663 0 0 1-.576-.334.664.664 0 0 1 .243-.91l2.305-1.331a.663.663 0 0 1 .91.244.663.663 0 0 1-.243.909l-2.305 1.331-.334.091zm-103.461 2.477l-.333-.089-2.306-1.331a.668.668 0 0 1-.244-.911.67.67 0 0 1 .911-.244l2.305 1.331a.666.666 0 0 1-.333 1.244zm97.699.851a.668.668 0 0 1-.334-1.244l2.306-1.332a.663.663 0 0 1 .909.244.663.663 0 0 1-.243.909l-2.305 1.332-.333.091zm-91.936 2.476l-.334-.09-2.305-1.33a.666.666 0 1 1 .667-1.154l2.305 1.33a.666.666 0 0 1-.333 1.244zm86.173.85a.666.666 0 0 1-.333-1.244l2.304-1.33a.662.662 0 0 1 .91.244.665.665 0 0 1-.244.909l-2.304 1.332-.333.089zm-80.411 2.478l-.333-.09-2.304-1.33a.666.666 0 1 1 .667-1.154l2.304 1.331a.665.665 0 0 1-.334 1.243zm74.647.849a.667.667 0 0 1-.333-1.244l2.305-1.331a.666.666 0 1 1 .667 1.154l-2.306 1.332-.333.089zm-68.884 2.477l-.333-.089-2.304-1.331a.666.666 0 1 1 .666-1.153l2.304 1.331c.32.182.43.59.244.909a.662.662 0 0 1-.577.333zm63.12.851a.666.666 0 0 1-.333-1.244l2.306-1.331a.666.666 0 1 1 .667 1.155l-2.307 1.331-.333.089zm-57.355 2.477l-.333-.089-2.307-1.332a.668.668 0 0 1-.244-.911.668.668 0 0 1 .911-.242l2.307 1.332c.318.184.428.59.242.909a.664.664 0 0 1-.576.333zm51.592.85a.665.665 0 0 1-.333-1.243l2.305-1.332a.666.666 0 0 1 .911.244.665.665 0 0 1-.244.911l-2.305 1.33-.334.09zm-45.829 2.478l-.333-.09-2.307-1.331a.666.666 0 1 1 .667-1.153l2.306 1.33a.667.667 0 0 1-.333 1.244zm40.067.85a.667.667 0 0 1-.334-1.243l2.304-1.331a.666.666 0 1 1 .667 1.154l-2.304 1.33-.333.09zm-34.304 2.478l-.334-.09-2.305-1.332a.667.667 0 0 1 .667-1.154l2.305 1.332a.667.667 0 0 1-.333 1.244zm28.54.848a.666.666 0 0 1-.334-1.242l2.306-1.331a.662.662 0 0 1 .909.243.665.665 0 0 1-.243.91l-2.305 1.331-.333.089zm-22.744 2.504l-.299-.076-.083-.048-2.289-1.322a.666.666 0 1 1 .667-1.154l2.304 1.331c.316.183.452.597.274.916a.662.662 0 0 1-.574.353zm16.845.55a.666.666 0 0 1-.228-1.292c.827-.302 1.619-.65 2.352-1.034a.666.666 0 1 1 .62 1.18c-.788.414-1.633.786-2.516 1.106l-.228.04zm-10.484 1.305l-.067-.004a20.404 20.404 0 0 1-2.712-.448.665.665 0 0 1-.494-.801c.086-.36.45-.59.802-.496.802.19 1.655.33 2.536.42a.665.665 0 0 1-.065 1.329zm3.988.048a.667.667 0 0 1-.047-1.332 24.493 24.493 0 0 0 2.571-.319.665.665 0 1 1 .235 1.312c-.892.159-1.804.272-2.711.338l-.048.001z" fill="#AED2F0"/><path d="M161.451 285.823L41.803 216.744c-2.106-1.215-3.155-2.835-3.19-4.536v-5.928c.02-1.069.438-.627 1.243-.184.753.413 1.847.828 3.27.005l67.903-39.202c5.456-3.151 13.708-3.492 18.434-.764l119.648 69.078c.762.44 1.424-.237 1.95-.914.562-.723.968-1.446 1.18-.812.136.409.05 5.832.059 6.257.044 2.119-1.485 4.364-4.513 6.111l-67.903 39.204c-5.456 3.15-13.708 3.492-18.433.764z" fill="#386FB2"/><path d="M161.451 280.005L41.803 210.927c-4.726-2.728-4.132-7.492 1.324-10.643l67.902-39.203c5.456-3.15 13.708-3.492 18.434-.765l119.648 69.08c4.724 2.728 4.132 7.492-1.324 10.643l-67.903 39.202c-5.456 3.151-13.708 3.492-18.433.764z" fill="#D6EEFB"/><path d="M169.456 287.666c-3 0-5.865-.607-8.005-1.843 2.141 1.236 5.005 1.843 8.006 1.843 3.623 0 7.443-.884 10.427-2.607-2.984 1.724-6.804 2.607-10.428 2.607z" fill="#A5CCEB"/><path d="M169.457 287.666c-3.001 0-5.865-.607-8.006-1.843v-5.817a8.3 8.3 0 0 0 .329.182c1.401.743 3.084 1.234 4.895 1.478.9.121 1.83.181 2.776.182h.014c3.582-.001 7.355-.865 10.323-2.55l.096-.056v5.817c-2.984 1.723-6.804 2.607-10.427 2.607z" fill="#4480C5"/><path d="M169.458 281.848h.008-.008zm-.007 0zm-7.671-1.66a12.26 12.26 0 0 1-.228-.125l.023.013.004.003.201.109zm18.008-.891z" fill="#91C1EA"/><path d="M161.451 280.005L41.803 210.927c-2.284-1.319-3.315-3.115-3.164-4.974-.015.09-.023.196-.026.327v5.928c.035 1.7 1.084 3.321 3.19 4.536l119.648 69.079v-5.818z" fill="#5191D4"/><path d="M247.787 239.051l-67.903 39.202c-5.456 3.151-13.708 3.492-18.433.766l-119.648-69.08c-1.96-1.131-2.99-2.615-3.153-4.187-.246 1.929.786 3.808 3.153 5.175l119.648 69.078c4.725 2.728 12.977 2.387 18.433-.764l67.903-39.202c3.193-1.844 4.707-4.239 4.477-6.456-.244 1.922-1.754 3.896-4.477 5.468z" fill="#fff"/><path d="M135.66 256.207c-.541 0-1.058-.11-1.445-.332l-42.583-24.586c-.852-.492-.745-1.352.24-1.92l15.987-9.23c.539-.311 1.228-.471 1.881-.471.543 0 1.059.109 1.446.332l42.582 24.585c.852.492.746 1.352-.24 1.922l-15.986 9.229c-.539.311-1.228.471-1.882.471z" fill="#E4F4FC"/><path d="M91.872 230.379l15.987-9.231c.984-.568 2.474-.631 3.326-.137l42.583 24.584c.173.101.297.22.393.345.322-.48.207-1.008-.393-1.355L111.185 220c-.852-.492-2.342-.429-3.326.139l-15.987 9.229c-.784.453-1.001 1.087-.632 1.576a1.84 1.84 0 0 1 .632-.565z" fill="#AED2F0"/><path d="M199.668 253.116l-2.929-1.692c-1.084-.626-2.836-.63-3.915-.007l-2.91 1.68c-1.078.623-1.072 1.635.012 2.26l2.929 1.692c1.085.626 2.837.629 3.915.007l2.91-1.68c1.078-.623 1.072-1.635-.012-2.26zm-8.884-5.13l-2.928-1.69c-1.085-.627-2.837-.63-3.914-.008l-2.911 1.681c-1.077.621-1.072 1.634.012 2.26l2.929 1.691c1.084.625 2.836.629 3.915.006l2.911-1.679c1.077-.623 1.072-1.635-.014-2.261zm-8.701-5.023l-2.929-1.693c-1.084-.625-2.838-.629-3.915-.006l-2.911 1.68c-1.077.622-1.072 1.634.012 2.26l2.93 1.692c1.084.625 2.837.629 3.914.006l2.911-1.68c1.077-.622 1.072-1.634-.012-2.259zm-8.703-5.026L118.236 206.1c-1.084-.625-2.837-.628-3.914-.007l-2.911 1.681c-1.077.622-1.072 1.634.012 2.26l55.144 31.836c1.084.627 2.837.63 3.915.008l2.91-1.681c1.078-.621 1.072-1.633-.012-2.26zm-60.917-35.17l-2.929-1.691c-1.084-.626-2.838-.63-3.915-.007l-2.911 1.68c-1.077.623-1.072 1.635.012 2.26l2.93 1.692c1.084.625 2.837.628 3.914.007l2.911-1.682c1.077-.621 1.072-1.633-.012-2.259zm-8.703-5.025l-2.929-1.69c-1.084-.627-2.836-.63-3.915-.007l-2.91 1.68c-1.078.623-1.072 1.633.013 2.26l2.928 1.691c1.085.626 2.837.629 3.915.008l2.91-1.681c1.078-.622 1.072-1.634-.012-2.261zm-8.702-5.024l-6.79-3.921c-1.086-.625-2.838-.629-3.916-.007l-2.91 1.681c-1.078.622-1.072 1.634.012 2.259l6.792 3.922c1.084.626 2.836.629 3.913.006l2.91-1.68c1.08-.622 1.074-1.634-.011-2.26zm112.67 55.743l-2.929-1.691c-1.084-.626-2.836-.629-3.913-.006l-2.911 1.68c-1.079.622-1.072 1.634.012 2.26l2.929 1.69c1.084.627 2.836.63 3.914.008l2.91-1.681c1.079-.621 1.074-1.633-.012-2.26zm-18.637-2.893l2.929 1.69c1.084.627 2.838.63 3.915.009l2.911-1.682c1.077-.621 1.072-1.633-.012-2.26l-2.93-1.691c-1.084-.625-2.837-.629-3.914-.006l-2.911 1.68c-1.077.622-1.072 1.634.012 2.26zm-8.703-5.024l2.93 1.69c1.084.627 2.837.63 3.914.008l2.911-1.681c1.077-.621 1.072-1.633-.012-2.26l-2.929-1.691c-1.084-.626-2.838-.629-3.915-.006l-2.911 1.68c-1.077.621-1.072 1.633.012 2.26zm-8.702-5.024l2.929 1.69c1.084.626 2.837.63 3.915.007l2.91-1.68c1.078-.623 1.072-1.635-.012-2.26l-2.929-1.691c-1.084-.626-2.837-.629-3.915-.008l-2.91 1.682c-1.078.621-1.072 1.633.012 2.26zm-8.702-5.026l2.928 1.692c1.086.626 2.838.63 3.915.007l2.911-1.68c1.077-.623 1.072-1.635-.012-2.26l-2.93-1.692c-1.084-.625-2.836-.629-3.914-.007l-2.911 1.68c-1.077.623-1.072 1.635.013 2.26zm-8.702-5.024l2.929 1.691c1.084.627 2.836.629 3.913.008l2.911-1.681c1.079-.622 1.073-1.634-.012-2.26l-2.928-1.691c-1.085-.627-2.837-.629-3.915-.007l-2.91 1.68c-1.079.623-1.072 1.635.012 2.26zm-8.703-5.024l2.929 1.691c1.084.627 2.836.629 3.915.007l2.911-1.68c1.077-.623 1.072-1.634-.014-2.26l-2.928-1.691c-1.085-.627-2.837-.629-3.914-.008l-2.911 1.681c-1.077.622-1.072 1.634.012 2.26zm-8.703-5.024l2.93 1.691c1.084.625 2.837.629 3.914.007l2.911-1.68c1.077-.623 1.072-1.635-.012-2.26l-2.929-1.691c-1.084-.627-2.838-.629-3.915-.008l-2.911 1.681c-1.077.622-1.072 1.634.012 2.26zm-8.702-5.025l2.929 1.692c1.084.625 2.837.629 3.915.007l2.91-1.68c1.078-.623 1.072-1.635-.012-2.26l-2.929-1.692c-1.084-.626-2.837-.63-3.915-.007l-2.91 1.68c-1.078.623-1.072 1.635.012 2.26zm-8.702-5.024l2.928 1.691c1.084.626 2.838.629 3.915.008l2.911-1.682c1.077-.621 1.072-1.633-.012-2.26l-2.93-1.69c-1.084-.627-2.836-.629-3.914-.007l-2.911 1.68c-1.077.623-1.072 1.635.013 2.26zm-8.702-5.024l2.928 1.691c1.085.626 2.837.629 3.914.006l2.911-1.679c1.079-.623 1.072-1.634-.012-2.26l-2.929-1.691c-1.084-.627-2.836-.629-3.914-.008l-2.91 1.681c-1.079.621-1.074 1.633.012 2.26zm-21.256-12.272l15.482 8.939c1.084.625 2.836.629 3.914.006l2.912-1.68c1.077-.622 1.072-1.634-.014-2.26l-15.48-8.938c-1.085-.627-2.838-.629-3.916-.007l-2.91 1.68c-1.078.623-1.072 1.635.012 2.26zm126.692 55.749l-8.594-4.961c-.96-.553-2.51-.557-3.465-.005l-3.359 1.939c-.953.55-.949 1.446.011 2l8.595 4.962c.96.553 2.51.556 3.465.006l3.359-1.939c.953-.551.948-1.447-.012-2.002zm-24.108-6.052l3.378 1.951c.96.555 2.512.558 3.466.007l3.358-1.939c.955-.551.95-1.447-.01-2.001l-3.38-1.951c-.96-.555-2.511-.557-3.466-.007l-3.358 1.94c-.954.551-.948 1.446.012 2zm-1.859-3.066l3.359-1.939c.954-.551.949-1.447-.011-2.001l-3.38-1.951c-.96-.555-2.511-.557-3.465-.007l-3.358 1.939c-.954.551-.949 1.447.011 2.001l3.379 1.951c.96.555 2.512.557 3.465.007zm-8.701-5.024l3.357-1.94c.955-.551.949-1.446-.011-2l-3.378-1.952c-.96-.554-2.512-.556-3.466-.006l-3.358 1.939c-.955.551-.95 1.447.01 2.001l3.38 1.951c.96.555 2.511.557 3.466.007zm-8.703-5.026l3.359-1.938c.953-.551.948-1.447-.012-2l-3.379-1.952c-.96-.554-2.512-.558-3.465-.007l-3.359 1.94c-.955.551-.949 1.447.011 2l3.38 1.952c.96.553 2.51.556 3.465.005zm-8.703-5.024l3.359-1.938c.953-.551.949-1.447-.011-2.002l-3.38-1.95c-.96-.555-2.512-.558-3.465-.007l-3.359 1.939c-.953.552-.949 1.446.011 2.001l3.38 1.951c.96.554 2.511.557 3.465.006zm-8.702-5.024l3.358-1.938c.954-.551.95-1.447-.01-2.002l-3.38-1.95c-.96-.555-2.511-.558-3.466-.007l-3.358 1.939c-.954.55-.95 1.446.01 2.001l3.38 1.951c.96.554 2.512.557 3.466.006zm-8.703-5.024l3.359-1.94c.954-.55.949-1.446-.011-2l-3.38-1.952c-.96-.553-2.511-.556-3.465-.005l-3.359 1.939c-.953.55-.948 1.446.012 2l3.379 1.952c.96.554 2.512.557 3.465.006zm-15.547-6.982l3.379 1.952c.96.553 2.512.556 3.465.005l3.359-1.939c.955-.55.949-1.446-.011-2l-3.38-1.951c-.958-.555-2.51-.558-3.464-.007l-3.358 1.94c-.955.551-.95 1.446.01 2zm-8.702-5.024l3.38 1.95c.96.555 2.51.558 3.465.007l3.357-1.939c.955-.55.95-1.446-.01-2.001l-3.379-1.951c-.96-.554-2.512-.557-3.465-.006l-3.359 1.938c-.955.552-.949 1.447.011 2.002zm-8.703-5.024l3.38 1.951c.96.554 2.511.557 3.465.006l3.359-1.938c.953-.552.948-1.447-.012-2.002l-3.379-1.951c-.96-.554-2.512-.557-3.465-.006l-3.359 1.938c-.953.551-.949 1.447.011 2.002zm-16.233-9.374l10.91 6.3c.96.554 2.512.558 3.466.007l3.358-1.94c.954-.551.95-1.447-.01-2l-10.912-6.3c-.96-.555-2.511-.557-3.466-.007l-3.358 1.94c-.954.551-.948 1.446.012 2zm126.725 55.991l-3.38-1.951c-.96-.554-2.512-.557-3.465-.006l-3.359 1.938c-.953.551-.949 1.447.011 2.002l3.38 1.95c.96.555 2.512.558 3.465.007l3.359-1.939c.953-.55.949-1.446-.011-2.001zm-12.232-1.189l3.359-1.939c.954-.551.949-1.447-.011-2l-3.38-1.952c-.96-.555-2.511-.557-3.465-.007l-3.358 1.94c-.954.551-.949 1.447.011 2l3.379 1.952c.96.554 2.512.556 3.465.006zm-8.701-5.024l3.357-1.939c.955-.551.949-1.447-.011-2.001l-3.378-1.951c-.96-.555-2.512-.557-3.466-.007l-3.358 1.939c-.955.552-.95 1.447.01 2.001l3.38 1.951c.96.555 2.511.557 3.466.007zm-12.2-10.922l-3.359 1.939c-.955.551-.949 1.447.011 2.001l3.38 1.951c.96.555 2.51.557 3.465.007l3.359-1.939c.953-.552.948-1.447-.012-2.001l-3.379-1.951c-.96-.555-2.512-.557-3.465-.007zm-8.703-5.024l-3.359 1.939c-.953.551-.949 1.447.011 2l3.38 1.952c.96.555 2.511.557 3.465.007l3.359-1.94c.953-.551.949-1.447-.011-2l-3.38-1.952c-.96-.554-2.512-.556-3.465-.006zm-8.703-5.025l-3.358 1.94c-.954.551-.95 1.447.01 2l3.38 1.952c.96.554 2.512.556 3.466.005l3.358-1.938c.954-.551.95-1.447-.01-2l-3.38-1.952c-.96-.555-2.511-.558-3.466-.007zm-8.702-5.024l-3.359 1.939c-.953.55-.948 1.446.012 2.001l3.379 1.951c.96.554 2.512.557 3.465.006l3.359-1.938c.954-.551.949-1.447-.011-2.002l-3.38-1.95c-.96-.555-2.511-.557-3.465-.007zm-8.703-5.024l-3.357 1.939c-.955.55-.95 1.446.01 2.001l3.379 1.951c.96.555 2.512.557 3.465.006l3.359-1.938c.955-.552.949-1.447-.011-2.002l-3.38-1.95c-.958-.555-2.51-.558-3.465-.007zm-8.885-4.919l-2.991 1.727c-1.056.609-1.051 1.601.012 2.215l3.009 1.737c1.062.613 2.779.616 3.835.007l2.991-1.727c1.054-.609 1.049-1.601-.012-2.213l-3.011-1.739c-1.061-.612-2.779-.616-3.833-.007zm-8.672.654c1.062.613 2.778.617 3.834.008l2.991-1.727c1.055-.609 1.049-1.601-.012-2.215l-3.009-1.737c-1.063-.613-2.779-.616-3.835-.007l-2.991 1.727c-1.056.609-1.05 1.6.012 2.214l3.01 1.737zm-8.703-5.024c1.063.613 2.779.616 3.835.006l2.99-1.726c1.055-.609 1.05-1.6-.012-2.214l-3.009-1.737c-1.063-.613-2.779-.616-3.835-.006l-2.99 1.726c-1.056.61-1.051 1.6.012 2.213l3.009 1.738zm-11.712-6.762l3.009 1.738c1.063.613 2.779.616 3.835.006l2.991-1.726c1.056-.609 1.05-1.6-.012-2.214l-3.01-1.737c-1.062-.613-2.778-.617-3.834-.008l-2.991 1.727c-1.055.609-1.049 1.601.012 2.214zm-12.564-7.254l6.872 3.968c1.061.613 2.779.616 3.833.006l2.991-1.726c1.056-.61 1.051-1.601-.012-2.213l-6.872-3.969c-1.061-.613-2.779-.616-3.833-.006l-2.991 1.726c-1.056.61-1.051 1.6.012 2.214zm126.355 55.777l-6.872-3.968c-1.062-.613-2.779-.616-3.834-.007l-2.99 1.727c-1.056.61-1.051 1.6.012 2.213l6.87 3.969c1.063.613 2.78.615 3.835.006l2.991-1.727c1.056-.609 1.05-1.6-.012-2.213zm-12.746-7.359l-3.009-1.737c-1.063-.613-2.779-.617-3.835-.008l-2.99 1.727c-1.056.609-1.051 1.601.012 2.214l3.009 1.738c1.063.613 2.779.616 3.835.006l2.99-1.726c1.055-.61 1.05-1.6-.012-2.214zm-18.525-2.829l3.009 1.739c1.063.612 2.779.616 3.835.006l2.991-1.726c1.056-.61 1.05-1.602-.012-2.215l-3.01-1.737c-1.062-.614-2.778-.616-3.834-.007l-2.991 1.727c-1.055.609-1.049 1.601.012 2.213zm1.12-7.22l-3.009-1.737c-1.063-.614-2.779-.616-3.835-.007l-2.991 1.727c-1.054.609-1.049 1.6.012 2.213l3.01 1.737c1.062.614 2.78.618 3.834.007l2.991-1.727c1.056-.609 1.051-1.6-.012-2.213zm-8.703-5.024l-3.009-1.737c-1.061-.614-2.779-.616-3.833-.007l-2.991 1.727c-1.056.609-1.051 1.6.012 2.213l3.009 1.738c1.062.613 2.779.615 3.834.006l2.99-1.727c1.056-.609 1.051-1.599-.012-2.213zm-8.702-5.024l-3.01-1.737c-1.061-.614-2.778-.618-3.833-.008l-2.991 1.726c-1.056.61-1.05 1.602.012 2.215l3.01 1.737c1.061.614 2.778.617 3.834.007l2.991-1.727c1.055-.609 1.049-1.6-.013-2.213zm-8.702-5.025l-3.009-1.738c-1.063-.613-2.779-.616-3.835-.006l-2.99 1.726c-1.056.61-1.051 1.6.012 2.214l3.009 1.737c1.063.614 2.779.617 3.835.008l2.99-1.727c1.055-.609 1.05-1.601-.012-2.214zm-8.702-5.024l-3.01-1.737c-1.062-.614-2.778-.617-3.834-.007l-2.991 1.726c-1.056.61-1.051 1.601.012 2.214l3.009 1.737c1.063.614 2.779.616 3.835.007l2.991-1.727c1.054-.609 1.049-1.6-.012-2.213zm-8.703-5.024l-3.009-1.738c-1.063-.613-2.779-.615-3.835-.006l-2.991 1.727c-1.054.609-1.049 1.599.012 2.213l3.01 1.737c1.062.613 2.778.616 3.834.007l2.991-1.727c1.056-.609 1.051-1.6-.012-2.213zm-18.525-2.828l3.009 1.737c1.063.613 2.78.616 3.835.007l2.99-1.727c1.056-.609 1.051-1.6-.012-2.213l-3.009-1.739c-1.061-.612-2.779-.616-3.835-.007l-2.99 1.727c-1.055.61-1.05 1.601.012 2.215zm-8.702-5.026l3.01 1.738c1.061.613 2.778.617 3.833.008l2.991-1.727c1.056-.609 1.05-1.601-.012-2.214l-3.01-1.738c-1.061-.613-2.778-.616-3.833-.007l-2.991 1.727c-1.056.609-1.05 1.6.012 2.213zm-1.858-3.28l2.99-1.726c1.055-.61 1.05-1.6-.012-2.214l-3.01-1.737c-1.062-.613-2.779-.616-3.834-.007l-2.99 1.727c-1.056.609-1.051 1.6.012 2.214l3.009 1.737c1.061.613 2.779.616 3.835.006zm-15.547-6.768l3.009 1.738c1.063.613 2.779.616 3.835.006l2.991-1.726c1.054-.609 1.049-1.6-.012-2.214l-3.01-1.737c-1.062-.613-2.778-.617-3.834-.008l-2.991 1.727c-1.056.611-1.051 1.601.012 2.214zm116.3 57.839l3.476 2.007c.933.538 2.441.541 3.369.005.927-.534.923-1.405-.01-1.945l-3.476-2.007c-.934-.538-2.443-.541-3.37-.005-.928.534-.922 1.405.011 1.945zm-8.884-5.129l3.476 2.007c.933.538 2.441.541 3.369.006.928-.536.923-1.407-.01-1.945l-3.476-2.007c-.934-.54-2.442-.543-3.37-.007-.926.536-.922 1.407.011 1.946zm-8.703-5.024l3.476 2.006c.934.539 2.443.542 3.37.006.928-.535.922-1.406-.011-1.944l-3.476-2.008c-.933-.539-2.441-.542-3.369-.006-.927.535-.923 1.406.01 1.946zm-8.702-5.026l3.477 2.008c.932.539 2.441.542 3.368.006.928-.535.923-1.407-.011-1.946l-3.476-2.006c-.933-.539-2.441-.542-3.368-.007-.928.536-.924 1.407.01 1.945zm-8.702-5.024l3.476 2.007c.934.539 2.442.542 3.368.007.928-.536.924-1.407-.009-1.946l-3.477-2.006c-.932-.539-2.442-.542-3.368-.007-.928.536-.923 1.407.01 1.945zm-8.702-5.024l3.476 2.007c.933.539 2.441.541 3.369.007.927-.536.923-1.407-.011-1.946l-3.476-2.006c-.933-.54-2.442-.543-3.369-.007-.928.536-.923 1.407.011 1.945zm-8.703-5.024l3.476 2.007c.933.539 2.441.541 3.369.006.927-.535.923-1.406-.01-1.946l-3.476-2.007c-.934-.538-2.442-.541-3.37-.005-.928.535-.922 1.405.011 1.945zm-8.703-5.025l3.476 2.007c.934.54 2.442.542 3.37.006.928-.536.922-1.406-.011-1.945l-3.476-2.006c-.933-.539-2.441-.542-3.369-.007-.927.536-.923 1.406.01 1.945zm-8.702-5.024l3.476 2.007c.933.538 2.442.541 3.369.007.928-.536.923-1.407-.011-1.946l-3.476-2.007c-.933-.538-2.441-.541-3.369-.006-.927.536-.923 1.406.011 1.945zm-8.703-5.024l3.477 2.007c.934.539 2.442.541 3.368.006.928-.536.923-1.406-.01-1.945l-3.476-2.008c-.934-.539-2.442-.541-3.368-.005-.928.534-.923 1.406.009 1.945zm-8.701-5.025l3.476 2.008c.933.538 2.441.541 3.369.005.927-.535.923-1.405-.011-1.945l-3.476-2.007c-.933-.539-2.442-.541-3.369-.005-.928.534-.923 1.405.011 1.944zm-8.703-5.024l3.476 2.006c.933.54 2.441.543 3.369.007.927-.536.923-1.407-.01-1.945l-3.476-2.007c-.934-.539-2.443-.541-3.37-.006-.928.536-.922 1.406.011 1.945zm-12.565-7.255l7.338 4.237c.934.539 2.442.542 3.37.007.926-.536.922-1.407-.011-1.945l-7.339-4.238c-.933-.538-2.441-.541-3.369-.005-.927.535-.923 1.405.011 1.944z" fill="#7FB7E7"/><path d="M199.668 252.305l-2.929-1.692c-1.084-.625-2.836-.629-3.915-.006l-2.91 1.68c-1.078.622-1.072 1.634.012 2.26l2.929 1.692c1.085.625 2.837.629 3.915.006l2.91-1.68c1.078-.622 1.072-1.634-.012-2.26zm-8.884-5.129l-2.928-1.691c-1.085-.626-2.837-.629-3.914-.008l-2.911 1.682c-1.077.621-1.072 1.633.012 2.26l2.929 1.69c1.084.627 2.836.63 3.915.007l2.911-1.68c1.077-.623 1.072-1.635-.014-2.26zm-8.701-5.024l-2.929-1.692c-1.084-.625-2.838-.629-3.915-.007l-2.911 1.68c-1.077.623-1.072 1.635.012 2.26l2.93 1.692c1.084.626 2.837.63 3.914.007l2.911-1.68c1.077-.623 1.072-1.635-.012-2.26zm-8.703-5.025l-55.144-31.836c-1.084-.627-2.837-.63-3.914-.008l-2.911 1.681c-1.077.621-1.072 1.633.012 2.26l55.144 31.836c1.084.627 2.837.629 3.915.008l2.91-1.681c1.078-.622 1.072-1.634-.012-2.26zm-60.917-35.17l-2.929-1.692c-1.084-.625-2.838-.629-3.915-.006l-2.911 1.68c-1.077.622-1.072 1.634.012 2.26l2.93 1.692c1.084.625 2.837.629 3.914.006l2.911-1.68c1.077-.622 1.072-1.634-.012-2.26zm-8.703-5.025l-2.929-1.691c-1.084-.626-2.836-.629-3.915-.006l-2.91 1.68c-1.078.622-1.072 1.634.013 2.26l2.928 1.69c1.085.627 2.837.63 3.915.008l2.91-1.681c1.078-.621 1.072-1.633-.012-2.26zm-8.702-5.024l-6.79-3.921c-1.086-.626-2.838-.63-3.916-.007l-2.91 1.68c-1.078.623-1.072 1.635.012 2.26l6.792 3.921c1.084.627 2.836.63 3.913.007l2.91-1.68c1.08-.623 1.074-1.633-.011-2.26zm112.67 55.743l-2.929-1.691c-1.084-.625-2.836-.629-3.913-.007l-2.911 1.68c-1.079.623-1.072 1.635.012 2.26l2.929 1.691c1.084.627 2.836.629 3.914.008l2.91-1.681c1.079-.622 1.074-1.634-.012-2.26zm-18.637-2.894l2.929 1.692c1.084.626 2.838.628 3.915.007l2.911-1.681c1.077-.622 1.072-1.634-.012-2.26l-2.93-1.691c-1.084-.625-2.837-.629-3.914-.007l-2.911 1.68c-1.077.623-1.072 1.635.012 2.26zm-8.703-5.024l2.93 1.691c1.084.627 2.837.629 3.914.008l2.911-1.681c1.077-.622 1.072-1.634-.012-2.26l-2.929-1.691c-1.084-.627-2.838-.629-3.915-.007l-2.911 1.68c-1.077.623-1.072 1.634.012 2.26zm-8.702-5.024l2.929 1.691c1.084.627 2.837.629 3.915.007l2.91-1.68c1.078-.623 1.072-1.635-.012-2.26l-2.929-1.691c-1.084-.627-2.837-.629-3.915-.008l-2.91 1.681c-1.078.622-1.072 1.634.012 2.26zm-8.702-5.025l2.928 1.692c1.086.625 2.838.629 3.915.007l2.911-1.68c1.077-.623 1.072-1.635-.012-2.26l-2.93-1.692c-1.084-.626-2.836-.63-3.914-.007l-2.911 1.68c-1.077.623-1.072 1.635.013 2.26zm-8.702-5.024l2.929 1.691c1.084.626 2.836.629 3.913.008l2.911-1.682c1.079-.621 1.073-1.633-.012-2.26l-2.928-1.69c-1.085-.626-2.837-.63-3.915-.007l-2.91 1.68c-1.079.623-1.072 1.635.012 2.26zm-8.703-5.024l2.929 1.691c1.084.626 2.836.629 3.915.008l2.911-1.682c1.077-.621 1.072-1.633-.014-2.26l-2.928-1.69c-1.085-.627-2.837-.63-3.914-.007l-2.911 1.68c-1.077.621-1.072 1.633.012 2.26zm-8.703-5.024l2.93 1.691c1.084.625 2.837.629 3.914.006l2.911-1.68c1.077-.622 1.072-1.634-.012-2.26l-2.929-1.69c-1.084-.627-2.838-.63-3.915-.008l-2.911 1.681c-1.077.621-1.072 1.633.012 2.26zm-8.702-5.025l2.929 1.692c1.084.625 2.837.629 3.915.006l2.91-1.68c1.078-.622 1.072-1.634-.012-2.26l-2.929-1.692c-1.084-.625-2.837-.629-3.915-.006l-2.91 1.68c-1.078.622-1.072 1.634.012 2.26zm-8.702-5.024l2.928 1.69c1.084.627 2.838.63 3.915.008l2.911-1.681c1.077-.621 1.072-1.633-.012-2.26l-2.93-1.691c-1.084-.625-2.836-.629-3.914-.006l-2.911 1.68c-1.077.622-1.072 1.634.013 2.26zm-8.702-5.024l2.928 1.69c1.085.627 2.837.63 3.914.007l2.911-1.68c1.079-.623 1.072-1.633-.012-2.26l-2.929-1.691c-1.084-.626-2.836-.629-3.914-.008l-2.91 1.682c-1.079.621-1.074 1.633.012 2.26zm-21.256-12.272l15.482 8.938c1.084.626 2.836.63 3.914.007l2.912-1.68c1.077-.623 1.072-1.635-.014-2.26l-15.48-8.939c-1.085-.626-2.838-.629-3.916-.006l-2.91 1.68c-1.078.622-1.072 1.634.012 2.26zm126.692 55.75l-8.594-4.962c-.96-.554-2.51-.556-3.465-.006l-3.359 1.939c-.953.551-.949 1.447.011 2l8.595 4.963c.96.553 2.51.556 3.465.005l3.359-1.939c.953-.55.948-1.446-.012-2zm-24.108-6.053l3.378 1.952c.96.553 2.512.556 3.466.005l3.358-1.938c.955-.551.95-1.447-.01-2.002l-3.38-1.95c-.96-.555-2.511-.558-3.466-.007l-3.358 1.94c-.954.551-.948 1.445.012 2zm-1.859-3.067l3.359-1.938c.954-.551.949-1.447-.011-2.002l-3.38-1.95c-.96-.555-2.511-.558-3.465-.007l-3.358 1.939c-.954.55-.949 1.446.011 2.001l3.379 1.951c.96.554 2.512.557 3.465.006zm-8.701-5.024l3.357-1.94c.955-.55.949-1.445-.011-2l-3.378-1.95c-.96-.555-2.512-.558-3.466-.007l-3.358 1.939c-.955.55-.95 1.446.01 2.001l3.38 1.951c.96.554 2.511.557 3.466.006zm-8.703-5.025l3.359-1.939c.953-.55.948-1.446-.012-2l-3.379-1.952c-.96-.553-2.512-.557-3.465-.005l-3.359 1.939c-.955.55-.949 1.446.011 2l3.38 1.952c.96.553 2.51.557 3.465.005zm-8.703-5.024l3.359-1.939c.953-.55.949-1.446-.011-2.001l-3.38-1.951c-.96-.554-2.512-.557-3.465-.006l-3.359 1.94c-.953.55-.949 1.445.011 2l3.38 1.95c.96.555 2.511.558 3.465.007zm-8.702-5.024l3.358-1.939c.954-.55.95-1.446-.01-2.001l-3.38-1.951c-.96-.554-2.511-.557-3.466-.006l-3.358 1.938c-.954.551-.95 1.447.01 2.002l3.38 1.95c.96.555 2.512.558 3.466.007zm-8.703-5.024l3.359-1.94c.954-.551.949-1.445-.011-2l-3.38-1.952c-.96-.553-2.511-.556-3.465-.005l-3.359 1.938c-.953.551-.948 1.447.012 2.002l3.379 1.95c.96.555 2.512.558 3.465.007zm-15.547-6.983l3.379 1.952c.96.554 2.512.556 3.465.006l3.359-1.939c.955-.551.949-1.447-.011-2l-3.38-1.952c-.958-.553-2.51-.557-3.464-.005l-3.358 1.938c-.955.551-.95 1.447.01 2zm-8.702-5.024l3.38 1.951c.96.555 2.51.557 3.465.007l3.357-1.939c.955-.551.95-1.447-.01-2.001l-3.379-1.951c-.96-.555-2.512-.557-3.465-.007l-3.359 1.94c-.955.551-.949 1.446.011 2zm-8.703-5.024l3.38 1.951c.96.555 2.511.557 3.465.007l3.359-1.939c.953-.551.948-1.447-.012-2.001l-3.379-1.951c-.96-.555-2.512-.557-3.465-.007l-3.359 1.939c-.953.551-.949 1.447.011 2.001zm-16.233-9.373l10.91 6.3c.96.555 2.512.557 3.466.007l3.358-1.94c.954-.551.95-1.447-.01-2l-10.912-6.3c-.96-.555-2.511-.558-3.466-.007l-3.358 1.94c-.954.551-.948 1.447.012 2zm126.725 55.991l-3.38-1.951c-.96-.555-2.512-.557-3.465-.007l-3.359 1.939c-.953.552-.949 1.447.011 2.001l3.38 1.951c.96.555 2.512.557 3.465.007l3.359-1.939c.953-.551.949-1.447-.011-2.001zm-12.232-1.19l3.359-1.938c.954-.551.949-1.447-.011-2l-3.38-1.952c-.96-.554-2.511-.558-3.465-.006l-3.358 1.939c-.954.551-.949 1.447.011 2l3.379 1.952c.96.553 2.512.556 3.465.005zm-8.701-5.024l3.357-1.938c.955-.551.949-1.447-.011-2.002l-3.378-1.95c-.96-.555-2.512-.558-3.466-.007l-3.358 1.94c-.955.551-.95 1.445.01 2l3.38 1.951c.96.554 2.511.557 3.466.006zm-12.2-10.921l-3.359 1.939c-.955.55-.949 1.446.011 2.001l3.38 1.951c.96.554 2.51.557 3.465.006l3.359-1.938c.953-.551.948-1.447-.012-2.002l-3.379-1.95c-.96-.555-2.512-.558-3.465-.007zm-8.703-5.024l-3.359 1.939c-.953.55-.949 1.446.011 2.001l3.38 1.951c.96.554 2.511.557 3.465.006l3.359-1.94c.953-.55.949-1.446-.011-2l-3.38-1.952c-.96-.553-2.512-.556-3.465-.005zm-8.703-5.025l-3.358 1.94c-.954.55-.95 1.446.01 2l3.38 1.952c.96.553 2.512.556 3.466.005l3.358-1.939c.954-.55.95-1.446-.01-2l-3.38-1.952c-.96-.553-2.511-.557-3.466-.006zm-8.702-5.024l-3.359 1.938c-.953.552-.948 1.447.012 2.002l3.379 1.95c.96.555 2.512.558 3.465.007l3.359-1.939c.954-.55.949-1.446-.011-2.001l-3.38-1.951c-.96-.554-2.511-.557-3.465-.006zm-8.703-5.024l-3.357 1.938c-.955.551-.95 1.447.01 2.002l3.379 1.95c.96.555 2.512.558 3.465.007l3.359-1.939c.955-.55.949-1.446-.011-2.001l-3.38-1.951c-.958-.554-2.51-.557-3.465-.006zm-8.885-4.919l-2.991 1.727c-1.056.609-1.051 1.601.012 2.214l3.009 1.738c1.062.613 2.779.616 3.835.006l2.991-1.726c1.054-.61 1.049-1.6-.012-2.214l-3.011-1.737c-1.061-.613-2.779-.617-3.833-.008zm-8.672.653c1.062.614 2.778.618 3.834.008l2.991-1.726c1.055-.61 1.049-1.602-.012-2.215l-3.009-1.737c-1.063-.614-2.779-.616-3.835-.007l-2.991 1.727c-1.056.609-1.05 1.6.012 2.213l3.01 1.737zm-8.703-5.024c1.063.614 2.779.616 3.835.007l2.99-1.727c1.055-.609 1.05-1.6-.012-2.213l-3.009-1.737c-1.063-.614-2.779-.616-3.835-.007l-2.99 1.727c-1.056.609-1.051 1.6.012 2.213l3.009 1.737zm-11.712-6.761l3.009 1.737c1.063.614 2.779.616 3.835.007l2.991-1.727c1.056-.609 1.05-1.6-.012-2.213l-3.01-1.737c-1.062-.614-2.778-.618-3.834-.007l-2.991 1.727c-1.055.609-1.049 1.6.012 2.213zm-12.564-7.255l6.872 3.968c1.061.614 2.779.616 3.833.007l2.991-1.727c1.056-.609 1.051-1.601-.012-2.213l-6.872-3.968c-1.061-.613-2.779-.616-3.833-.007l-2.991 1.727c-1.056.609-1.051 1.6.012 2.213zm126.355 55.778l-6.872-3.968c-1.062-.614-2.779-.616-3.834-.007l-2.99 1.727c-1.056.609-1.051 1.601.012 2.213l6.87 3.968c1.063.613 2.78.616 3.835.007l2.991-1.727c1.056-.609 1.05-1.6-.012-2.213zm-12.746-7.359l-3.009-1.737c-1.063-.614-2.779-.618-3.835-.008l-2.99 1.726c-1.056.611-1.051 1.602.012 2.215l3.009 1.737c1.063.614 2.779.616 3.835.007l2.99-1.727c1.055-.609 1.05-1.6-.012-2.213zm-18.525-2.829l3.009 1.738c1.063.614 2.779.616 3.835.007l2.991-1.727c1.056-.609 1.05-1.601-.012-2.213l-3.01-1.739c-1.062-.613-2.778-.616-3.834-.006l-2.991 1.726c-1.055.61-1.049 1.602.012 2.214zm1.12-7.22l-3.009-1.738c-1.063-.613-2.779-.616-3.835-.006l-2.991 1.726c-1.054.61-1.049 1.6.012 2.214l3.01 1.737c1.062.613 2.78.617 3.834.008l2.991-1.727c1.056-.609 1.051-1.601-.012-2.214zm-8.703-5.024l-3.009-1.738c-1.061-.613-2.779-.616-3.833-.006l-2.991 1.726c-1.056.61-1.051 1.6.012 2.214l3.009 1.737c1.062.613 2.779.616 3.834.007l2.99-1.727c1.056-.609 1.051-1.6-.012-2.213zm-8.702-5.024l-3.01-1.738c-1.061-.613-2.778-.617-3.833-.008l-2.991 1.727c-1.056.609-1.05 1.601.012 2.215l3.01 1.737c1.061.613 2.778.616 3.834.007l2.991-1.727c1.055-.609 1.049-1.6-.013-2.213zm-8.702-5.026l-3.009-1.737c-1.063-.613-2.779-.616-3.835-.007l-2.99 1.727c-1.056.609-1.051 1.601.012 2.213l3.009 1.739c1.063.612 2.779.616 3.835.007l2.99-1.727c1.055-.609 1.05-1.601-.012-2.215zm-8.702-5.024l-3.01-1.737c-1.062-.613-2.778-.616-3.834-.007l-2.991 1.727c-1.056.609-1.051 1.6.012 2.213l3.009 1.738c1.063.613 2.779.617 3.835.006l2.991-1.726c1.054-.61 1.049-1.6-.012-2.214zm-8.703-5.024l-3.009-1.737c-1.063-.613-2.779-.616-3.835-.007l-2.991 1.727c-1.054.609-1.049 1.6.012 2.213l3.01 1.738c1.062.613 2.778.616 3.834.006l2.991-1.726c1.056-.61 1.051-1.6-.012-2.214zm-18.525-2.828l3.009 1.738c1.063.613 2.78.616 3.835.006l2.99-1.726c1.056-.61 1.051-1.6-.012-2.214l-3.009-1.737c-1.061-.613-2.779-.617-3.835-.008l-2.99 1.727c-1.055.609-1.05 1.601.012 2.214zm-8.702-5.025l3.01 1.739c1.061.612 2.778.616 3.833.006l2.991-1.726c1.056-.61 1.05-1.602-.012-2.215l-3.01-1.737c-1.061-.614-2.778-.616-3.833-.007l-2.991 1.727c-1.056.609-1.05 1.6.012 2.213zm-1.858-3.28l2.99-1.727c1.055-.609 1.05-1.6-.012-2.213l-3.01-1.737c-1.062-.614-2.779-.616-3.834-.007l-2.99 1.727c-1.056.609-1.051 1.6.012 2.213l3.009 1.737c1.061.614 2.779.616 3.835.007zm-15.547-6.768l3.009 1.737c1.063.614 2.779.616 3.835.007l2.991-1.727c1.054-.609 1.049-1.6-.012-2.213l-3.01-1.737c-1.062-.614-2.778-.616-3.834-.007l-2.991 1.727c-1.056.609-1.051 1.6.012 2.213zm116.3 57.839l3.476 2.006c.933.539 2.441.542 3.369.006.927-.535.923-1.406-.01-1.944l-3.476-2.008c-.934-.539-2.443-.542-3.37-.006-.928.535-.922 1.406.011 1.946zm-8.884-5.13l3.476 2.007c.933.539 2.441.541 3.369.007.928-.536.923-1.407-.01-1.946l-3.476-2.006c-.934-.539-2.442-.543-3.37-.007-.926.536-.922 1.407.011 1.945zm-8.703-5.024l3.476 2.007c.934.539 2.443.541 3.37.005.928-.534.922-1.405-.011-1.944l-3.476-2.008c-.933-.538-2.441-.541-3.369-.005-.927.535-.923 1.407.01 1.945zm-8.702-5.025l3.477 2.008c.932.539 2.441.541 3.368.005.928-.534.923-1.406-.011-1.945l-3.476-2.007c-.933-.538-2.441-.541-3.368-.005-.928.535-.924 1.405.01 1.944zm-8.702-5.024l3.476 2.007c.934.538 2.442.542 3.368.006.928-.536.924-1.406-.009-1.945l-3.477-2.007c-.932-.538-2.442-.541-3.368-.006-.928.536-.923 1.406.01 1.945zm-8.702-5.024l3.476 2.007c.933.538 2.441.541 3.369.006.927-.536.923-1.406-.011-1.945l-3.476-2.007c-.933-.54-2.442-.542-3.369-.006-.928.536-.923 1.406.011 1.945zm-8.703-5.024l3.476 2.007c.933.538 2.441.541 3.369.005.927-.535.923-1.405-.01-1.944l-3.476-2.008c-.934-.539-2.442-.541-3.37-.005-.928.534-.922 1.405.011 1.945zm-8.703-5.025l3.476 2.008c.934.538 2.442.541 3.37.005.928-.535.922-1.407-.011-1.945l-3.476-2.007c-.933-.539-2.441-.541-3.369-.005-.927.534-.923 1.405.01 1.944zm-8.702-5.024l3.476 2.006c.933.539 2.442.542 3.369.007.928-.536.923-1.407-.011-1.945l-3.476-2.007c-.933-.539-2.441-.541-3.369-.007-.927.536-.923 1.407.011 1.946zm-8.703-5.024l3.477 2.006c.934.539 2.442.542 3.368.007.928-.536.923-1.407-.01-1.945l-3.476-2.007c-.934-.54-2.442-.543-3.368-.007-.928.536-.923 1.407.009 1.946zm-8.701-5.024l3.476 2.006c.933.539 2.441.542 3.369.006.927-.535.923-1.406-.011-1.946l-3.476-2.006c-.933-.539-2.442-.542-3.369-.006-.928.535-.923 1.406.011 1.946zm-8.703-5.026l3.476 2.007c.933.54 2.441.543 3.369.007.927-.536.923-1.407-.01-1.946l-3.476-2.006c-.934-.539-2.443-.542-3.37-.007-.928.536-.922 1.407.011 1.945zm-12.565-7.253l7.338 4.236c.934.539 2.442.541 3.37.007.926-.536.922-1.407-.011-1.946l-7.339-4.237c-.933-.539-2.441-.541-3.369-.005-.927.534-.923 1.405.011 1.945zm125.541 60.093l-115.282-66.596c-4.464-2.577-8.081-9.49-8.081-15.441V56.004c0-5.95 3.617-8.687 8.081-6.11l115.282 66.598c4.462 2.576 8.081 9.489 8.081 15.44v90.436c0 5.951-3.619 8.687-8.081 6.109z" fill="#AED2F0"/><path d="M248.256 223.829L134.204 157.95c-3.592-2.282-5.813-6.844-5.813-11.51V55.565a1.433 1.433 0 0 1 2.157-1.235l.253.148 114.143 65.943c4.276 2.465 5.813 6.844 5.813 11.511v90.664c0 1.185-1.282 1.929-2.313 1.341l-.188-.108z" fill="#254A98"/><path d="M249.849 222.596a.641.641 0 0 1-.641.638l-.315-.085-114.236-65.984c-3.242-2.063-5.358-6.28-5.358-10.725V55.565c0-.324.273-.525.528-.525l.262.074 114.4 66.092c4.431 2.554 5.36 7.243 5.36 10.726v90.664zm-4.905-102.175L130.801 54.478l-.253-.148a1.433 1.433 0 0 0-2.157 1.235v90.875c0 4.666 2.221 9.228 5.813 11.51l114.052 65.879.188.108c1.031.588 2.313-.156 2.313-1.341v-90.664c0-4.667-1.537-9.046-5.813-11.511z" fill="#1B294C"/><path d="M249.505 115.275L134.224 48.679c-1.767-1.02-3.4-1.208-4.729-.695-.17.066-2.423 1.263-2.582 1.35l-.008.005c1.378-.668 3.124-.543 5.028.556l115.282 66.597c4.462 2.576 8.081 9.489 8.081 15.44v90.436c0 3.715-1.409 6.175-3.553 6.875.174.009.392-.059.708-.242l2.644-1.506c1.536-1.075 2.492-3.284 2.492-6.343v-90.436c0-5.951-3.619-12.864-8.082-15.441z" fill="#5191D4"/><path d="M249.505 115.275L134.224 48.679c-1.767-1.02-3.4-1.208-4.729-.695-.17.066-2.423 1.263-2.582 1.35l-.008.005c1.378-.668 3.124-.543 5.028.556l115.282 66.597 2.29-1.217z" fill="#5F9FDB"/><path d="M255.186 224.093v-.001.001zm.005-.038v-.002.002zm.009-.076v-.004.004zm.006-.04v-.003.003zm.008-.075l.001-.008-.001.008zm.005-.04v-.009.009zm.004-.04v-.007.007zm.004-.037l.001-.01-.001.01zm.004-.04l.001-.012-.001.012zm.004-.042l.001-.009-.001.009zm.004-.036v-.012.012zm.004-.042v-.011.011zm.003-.04l.001-.012-.001.012zm.004-.038l.001-.012-.001.012zm.002-.042c.002-.004.002-.01.002-.014 0 .004 0 .01-.002.014zm.004-.042c0-.005 0-.009.002-.013-.002.004-.002.009-.002.013zm.003-.036l.001-.014-.001.014zm.003-.044l.001-.014-.001.014zm.002-.038c.002-.007.002-.012.002-.019 0 .007 0 .012-.002.019zm.003-.04l.001-.015-.001.015zm.003-.044l.001-.015-.001.015zm.004-.046v-.012.012zm.001-.034l.001-.014-.001.014zm.003-.043v-.016.016zm.001-.041l.001-.02-.001.02zm.003-.04v-.018.018zm.001-.046l.001-.014-.001.014zm.003-.044v-.014.014zm.001-.037v-.016.016zm.001-.044v-.015.015zm.002-.045v-.014.014zm.001-.039v-.013.013zm.001-.043v-.016.016zm0-.046c.002-.004.002-.008.002-.012 0 .004 0 .008-.002.012zm.002-.039v-.015.015zm.001-.044v-.012.012zm0-.045v-.012.012zm0-.044l.001-.006-.001.006zm.001-.042v-.009.009zm0-.045v-.009.009zm0-.047v-50.286 50.285" fill="#fff"/><path d="M251.5 229.197c1.949-.842 3.215-3.221 3.215-6.732v-50.724l.581.342v50.414l-.001.006v.089c-.002.009-.002.02-.002.029v.042l-.001.012v.046l-.001.03v.013l-.002.025v.014l-.001.03v.015l-.001.028v.016l-.002.023v.014l-.001.03-.001.014c0 .01 0 .019-.002.028v.018l-.001.02-.001.02c0 .008 0 .017-.002.025v.016l-.001.029-.001.014-.002.022v.012l-.002.031c0 .005 0 .011-.002.015l-.001.029-.001.015c0 .006 0 .014-.002.021l-.001.019-.001.024c0 .005 0 .01-.002.014l-.001.03-.001.014c-.002.007-.002.015-.002.023l-.001.013c-.001.01-.001.019-.003.028l-.001.014-.001.03c-.002.004-.002.008-.002.012l-.002.026c0 .004 0 .008-.002.012l-.002.029v.011l-.004.03v.012a.131.131 0 0 0-.003.027l-.001.009-.003.03-.001.012a.153.153 0 0 0-.003.03l-.001.01-.004.03v.007a.329.329 0 0 0-.004.031v.009a.35.35 0 0 0-.004.032l-.002.008-.008.072v.003l-.005.036v.004l-.009.074v.002c-.003.012-.004.025-.006.037v.001c-.317 2.343-1.292 4.007-2.682 4.81-.318.14-.652.238-1.003.294zm3.796-91.684l-.581-.342.581.342zM131.934 49.895zm123.351 81.477l-.605-.356c-.376-5.703-3.836-11.996-8.047-14.427L131.352 49.992c-1.139-.657-2.221-.967-3.204-.967a4.7 4.7 0 0 0-.412.019 4.305 4.305 0 0 1 1-.115c.925 0 1.941.276 3.009.86.063.034.126.07.188.106l115.282 66.597c4.324 2.496 7.854 9.061 8.07 14.88z" fill="#fff"/><path d="M252.503 228.903c1.39-.803 2.365-2.467 2.682-4.809v-.002c.002-.012.003-.025.006-.037v-.002l.009-.074v-.004l.005-.036v-.003l.008-.072.002-.008.004-.032v-.009a.329.329 0 0 1 .004-.031v-.006a.377.377 0 0 1 .005-.04c0-.011.001-.02.003-.031l.001-.012c.001-.009.001-.02.003-.029l.001-.01c0-.009.001-.017.003-.026v-.013l.004-.03v-.011l.003-.029.001-.012.002-.025.002-.012.001-.031.001-.014.003-.027.001-.014c0-.008 0-.016.002-.022l.001-.015.001-.029c.002-.004.002-.01.002-.015l.001-.024.001-.019c.002-.006.002-.014.002-.021l.001-.015.001-.029c.002-.004.002-.009.002-.015l.003-.03v-.012l.001-.023.001-.013.001-.03v-.016c.002-.008.002-.017.002-.025l.001-.02.002-.02v-.018l.001-.027.001-.015.001-.029v-.015l.002-.023v-.016l.001-.028v-.014l.001-.031v-.013l.002-.026v-.013l.001-.029v-.047l.001-.012v-.041c0-.01 0-.02.002-.03v-.089l.001-.005v-50.415l.388.226v49.866c0 3.493-1.248 5.876-3.181 6.728zm3.181-91.16l-.388-.23.388.23zm-.001-6.137l-.398-.234c-.216-5.818-3.746-12.384-8.07-14.88l.377-.2.011.006c4.429 2.558 8.026 9.386 8.08 15.308z" fill="#fff"/><path d="M247.215 116.492L131.934 49.895a8.704 8.704 0 0 0-.188-.106c-1.068-.584-2.084-.86-3.01-.86-.346 0-.681.04-1 .115a3.68 3.68 0 0 0-.282.035 4.214 4.214 0 0 1 1.681-.339c.977 0 2.053.307 3.187.962l115.27 66.59-.377.2z" fill="#fff"/><path d="M101.709 292.562a.665.665 0 0 1-.101-1.325 17.053 17.053 0 0 1 2.6-.195h.167a.666.666 0 1 1 0 1.334h-.167c-.823 0-1.629.06-2.395.178l-.104.008zm9.182 1.11l-.256-.051a15.92 15.92 0 0 0-2.439-.784.663.663 0 0 1-.496-.8.657.657 0 0 1 .801-.496c.928.219 1.819.504 2.647.848a.667.667 0 1 1-.257 1.283zm-15.282 1.48a.666.666 0 0 1-.333-1.244l2.29-1.323a.676.676 0 0 1 .911.217c.19.307.116.7-.184.9l-.13.074-2.22 1.285-.334.091zm21.12 1.762l-.333-.089-2.315-1.337a.668.668 0 0 1 .667-1.155l2.315 1.337a.665.665 0 0 1-.334 1.244zm-26.909 1.579a.67.67 0 0 1-.579-.333.669.669 0 0 1 .246-.912l2.316-1.336a.669.669 0 0 1 .912.245.669.669 0 0 1-.246.911l-2.316 1.336-.333.089zm32.699 1.763l-.334-.091-2.314-1.336a.667.667 0 0 1 .666-1.155l2.315 1.338a.666.666 0 0 1-.333 1.244zm-38.487 1.578a.665.665 0 0 1-.333-1.242l2.314-1.338a.664.664 0 0 1 .911.243.665.665 0 0 1-.244.911l-2.315 1.337-.333.089zm44.275 1.763l-.334-.091-2.314-1.336a.666.666 0 0 1 .666-1.153l2.315 1.336a.667.667 0 0 1-.333 1.244zm-50.063 1.579a.664.664 0 0 1-.576-.334.663.663 0 0 1 .243-.909l2.314-1.337a.664.664 0 0 1 .91.242.665.665 0 0 1-.243.911l-2.315 1.337-.333.09zm55.851 1.764l-.334-.091-2.314-1.337a.665.665 0 1 1 .666-1.154l2.315 1.338c.319.184.428.59.243.91a.663.663 0 0 1-.576.334zm-61.639 1.577a.663.663 0 0 1-.576-.333.664.664 0 0 1 .243-.91l2.316-1.336a.666.666 0 1 1 .667 1.154l-2.317 1.336-.333.089zm67.427 1.763l-.334-.09-2.316-1.336a.664.664 0 0 1-.242-.91.664.664 0 0 1 .909-.243l2.316 1.336a.663.663 0 0 1 .243.909.663.663 0 0 1-.576.334zm-73.214 1.58a.667.667 0 0 1-.333-1.244l2.315-1.338a.665.665 0 0 1 .909.244.666.666 0 0 1-.243.911l-2.314 1.337-.334.09zm79 1.762l-.333-.089-2.315-1.337a.665.665 0 0 1-.242-.911.664.664 0 0 1 .909-.243l2.315 1.338c.32.182.429.59.244.909a.668.668 0 0 1-.578.333zm-83.305 2.883h-.007a.667.667 0 0 1-.66-.673c.011-1.024.415-2.01 1.167-2.851a.668.668 0 0 1 .995.888c-.542.607-.82 1.271-.828 1.976a.667.667 0 0 1-.667.66zm89.095.459l-.334-.09-2.316-1.337a.667.667 0 0 1 .667-1.153l2.316 1.336a.666.666 0 1 1-.333 1.244zm5.788 3.341l-.334-.089-2.314-1.336a.665.665 0 0 1-.244-.911.664.664 0 0 1 .91-.244l2.315 1.336a.667.667 0 0 1-.333 1.244zm-90.934 1.201l-.333-.088-.39-.225a10.74 10.74 0 0 1-1.917-1.391.668.668 0 0 1 .907-.978c.467.432 1.03.84 1.676 1.214l.39.224a.667.667 0 0 1-.333 1.244zm96.722 2.142l-.334-.091-2.314-1.337a.663.663 0 0 1-.244-.91.668.668 0 0 1 .91-.244l2.315 1.338a.666.666 0 0 1-.333 1.244zm-90.934 1.201l-.333-.089-2.316-1.338a.665.665 0 1 1 .667-1.153l2.316 1.337a.664.664 0 0 1 .242.91.663.663 0 0 1-.576.333zm96.722 2.14l-.334-.091-2.316-1.336a.663.663 0 0 1-.242-.909.66.66 0 0 1 .909-.244l2.316 1.336a.666.666 0 0 1-.333 1.244zm-90.934 1.201l-.333-.089-2.316-1.336a.666.666 0 0 1-.243-.911.663.663 0 0 1 .91-.244l2.316 1.336a.666.666 0 0 1-.334 1.244zm96.722 2.14l-.334-.089-2.316-1.337a.664.664 0 0 1-.242-.91.665.665 0 0 1 .909-.244l2.316 1.338c.319.184.428.59.243.909a.663.663 0 0 1-.576.333zm-90.934 1.203l-.333-.091-2.315-1.336a.666.666 0 1 1 .667-1.154l2.315 1.337a.665.665 0 0 1-.334 1.244zm96.72 2.139l-.333-.09-2.315-1.337a.668.668 0 0 1-.244-.911.668.668 0 0 1 .911-.242l2.315 1.337c.32.183.429.591.244.909a.665.665 0 0 1-.578.334zm-90.932 1.202l-.333-.09-2.315-1.336a.666.666 0 1 1 .667-1.154l2.315 1.336a.667.667 0 0 1-.334 1.244zm96.722 2.139l-.334-.089-2.314-1.336a.667.667 0 0 1 .666-1.154l2.315 1.336a.666.666 0 0 1-.333 1.243zm-90.934 1.204l-.333-.091-2.315-1.337a.666.666 0 1 1 .667-1.153l2.315 1.337a.667.667 0 0 1-.334 1.244zm96.595 2.324a.672.672 0 0 1-.452-.176 9.18 9.18 0 0 0-1.655-1.196l-.414-.24a.665.665 0 0 1-.244-.911.663.663 0 0 1 .91-.242l.414.238a10.68 10.68 0 0 1 1.893 1.37.667.667 0 0 1-.452 1.157zm-90.807 1.016l-.333-.089-2.316-1.338a.665.665 0 1 1 .667-1.153l2.316 1.337a.663.663 0 0 1 .242.909.657.657 0 0 1-.576.334zm5.788 3.342l-.333-.09-2.316-1.336a.665.665 0 0 1-.243-.91.665.665 0 0 1 .91-.243l2.316 1.336c.318.183.428.59.242.909a.664.664 0 0 1-.576.334zm85.824 1.529a.656.656 0 0 1-.441-.168.663.663 0 0 1-.057-.94c.537-.609.809-1.274.809-1.981a.667.667 0 1 1 1.333 0c0 1.027-.396 2.018-1.145 2.863a.664.664 0 0 1-.499.226zm-80.037 1.813l-.333-.089-2.315-1.337a.667.667 0 0 1 .667-1.154l2.314 1.336a.666.666 0 1 1-.333 1.244zm74.421 1.763a.665.665 0 0 1-.333-1.243l2.315-1.338a.666.666 0 0 1 .666 1.154l-2.314 1.337-.334.09zm-68.633 1.578l-.333-.089-2.315-1.336a.667.667 0 0 1 .667-1.155l2.314 1.337c.32.183.43.591.244.91a.664.664 0 0 1-.577.333zm62.845 1.763a.665.665 0 0 1-.333-1.243l2.315-1.336a.662.662 0 0 1 .91.243.664.664 0 0 1-.244.911l-2.314 1.336-.334.089zm-57.056 1.58l-.333-.091-2.315-1.337a.663.663 0 0 1-.244-.909.668.668 0 0 1 .911-.244l2.315 1.337a.668.668 0 0 1-.334 1.244zm51.267 1.763a.662.662 0 0 1-.576-.334.665.665 0 0 1 .243-.91l2.316-1.336a.662.662 0 0 1 .909.243.665.665 0 0 1-.243.91l-2.316 1.338-.333.089zm-45.479 1.578l-.333-.09-2.315-1.336a.666.666 0 0 1 .667-1.153l2.315 1.335a.665.665 0 0 1 .242.911.661.661 0 0 1-.576.333zm39.691 1.763a.667.667 0 0 1-.333-1.244l2.316-1.338a.665.665 0 0 1 .909.245.665.665 0 0 1-.243.91l-2.316 1.338-.333.089zm-33.903 1.58l-.333-.091-2.316-1.337a.664.664 0 0 1-.243-.909.664.664 0 0 1 .91-.244l2.316 1.337a.665.665 0 0 1 .242.911.662.662 0 0 1-.576.333zm28.116 1.763a.665.665 0 0 1-.333-1.244l2.315-1.338a.666.666 0 0 1 .666 1.154l-2.314 1.337-.334.091zm-22.328 1.577l-.333-.089-2.316-1.337a.666.666 0 0 1 .667-1.153l2.316 1.336a.664.664 0 0 1 .242.91.664.664 0 0 1-.576.333zm16.523 1.768a.667.667 0 0 1-.583-.324c-.185-.317-.101-.712.218-.896l.084-.048 2.28-1.317a.663.663 0 0 1 .91.244.665.665 0 0 1-.244.909l-2.314 1.337-.351.095zm-10.459.961l-.153-.017a16.911 16.911 0 0 1-2.645-.855.666.666 0 1 1 .514-1.229c.76.317 1.58.584 2.439.787a.667.667 0 0 1-.155 1.314zm4.164.486l-.204-.001a.669.669 0 0 1-.653-.681c.008-.369.284-.652.68-.653l.177.001c.815 0 1.612-.058 2.372-.176a.667.667 0 0 1 .203 1.318c-.827.128-1.692.192-2.575.192z" fill="#AED2F0"/><path d="M157.743 360.194l30.84-17.806c1.554-.898 2.328-2.095 2.348-3.351l-.012-2.64c-.128-1.456-1.247-.654-3.311-1.845l-72.52-41.871c-4.017-2.318-10.093-2.57-13.572-.562l-30.841 17.806c-1.554.898-2.327-.681-2.348.574l.01 3.104c.126 1.457 1.244 2.965 3.312 4.158l72.52 41.87c4.018 2.32 10.094 2.571 13.574.563z" fill="#386FB2"/><path d="M157.743 357.551l30.84-17.806c3.478-2.008 3.042-5.517-.975-7.836l-72.52-41.869c-4.017-2.32-10.093-2.572-13.572-.563l-30.841 17.806c-3.479 2.008-3.043 5.517.974 7.836l72.52 41.869c4.018 2.32 10.094 2.572 13.574.563z" fill="#D6EEFB"/><path d="M188.583 339.399l-30.84 17.805c-3.48 2.009-9.556 1.757-13.574-.563l-72.52-41.869c-2.114-1.221-3.236-2.771-3.317-4.259-.088 1.591 1.037 3.29 3.317 4.606l72.52 41.869c4.018 2.32 10.094 2.572 13.574.563l30.84-17.806c1.648-.952 2.416-2.238 2.342-3.577-.066 1.212-.837 2.361-2.342 3.231z" fill="#fff"/><path d="M185.385 333.034l-72.246-41.712c-2.948-1.701-7.407-1.886-9.959-.413l-30.024 17.335c-2.552 1.473-2.232 4.048.716 5.749l72.247 41.712c2.948 1.701 7.406 1.887 9.96.413l30.022-17.334c2.552-1.474 2.232-4.048-.716-5.75z" fill="#1B294C"/><path d="M103.442 291.463c2.406-1.39 6.294-1.396 8.685-.016l73.044 42.172c2.391 1.38 2.379 3.625-.027 5.014l-29.328 16.932c-2.405 1.39-6.294 1.396-8.685.016l-73.044-42.172c-2.39-1.38-2.379-3.625.027-5.014l29.328-16.932z" fill="#254A98"/><path d="M272.905 147.916v34.502l5.204-2.866v-34.771l-5.204 3.135z" fill="#3AA59F"/><path d="M272.944 147.916v34.502l-71.841-42.077v-34.769l71.841 42.344z" fill="#45C0B5"/><path d="M201.103 105.571l71.841 42.345 5.166-3.135-71.908-42.249-5.099 3.039z" fill="#61CAC2"/><path d="M272.944 147.916l-17.26-10.173-.388-.23-.581-.342-3.957-2.332-.908-.535-48.747-28.733 71.892 41.581 5.115-2.371-5.166 3.135z" fill="#CBEDEA"/><path d="M238.034 136.156v3.292l28.913 16.711v-3.292l-28.913-16.711zm12.826 21.121l-12.826-7.441v3.291l12.826 7.441v-3.291zm-12.826-10.989l28.913 16.711v-3.292l-28.913-16.711v3.292zm-11.078-9.166c-.638.364-1.676-.233-2.314-1.336-.639-1.101-.639-2.29 0-2.654.638-.366 1.676.233 2.314 1.336.639 1.101.639 2.29 0 2.654zm-5.318-3.069c-.639.364-1.675-.235-2.314-1.336-.64-1.103-.64-2.292 0-2.656.639-.364 1.675.233 2.314 1.336.64 1.103.64 2.291 0 2.656zm-5.318-3.071c-.638.364-1.674-.234-2.314-1.336-.639-1.102-.639-2.29 0-2.656.64-.364 1.676.235 2.314 1.336.639 1.103.639 2.292 0 2.656zm14.115-2.332L210.8 117.314c-1.205-.696-2.182-.138-2.182 1.244v13.299c0 1.383.977 3.068 2.182 3.764l1.227.708v7.041l6.136-3.498 12.272 7.085c1.205.696 2.181.139 2.181-1.244v-13.3c0-1.383-.976-3.067-2.181-3.763z" fill="#fff"/><path d="M164.736 132.276v63.162l5.053-2.957v-63.295l-5.053 3.09z" fill="#386FB2"/><path d="M164.755 132.276v63.162l-76.027-43.681V88.463l76.027 43.813z" fill="#5191D4"/><path d="M88.728 88.463l76.027 43.813 5.034-3.089-76.06-43.767-5.001 3.043z" fill="#7FB7E7"/><path d="M164.755 132.276L88.728 88.463l76.013 43.11 5.048-2.386-5.034 3.089z" fill="#D8EDFA"/><path d="M152.54 172.74v-2.199l-43.144-24.719v2.199l43.144 24.719zm-37.48-37.358l-21.11-12.188v2.2l21.11 12.187v-2.199zm14.285 17.388v2.2l16.198 9.161v-2.199l-16.198-9.162zm-1.353-19.06l-34.041-19.655v2.2l34.041 19.653v-2.198zm0-14.992L93.951 99.064v4.769l34.041 19.655v-4.77zm-21.573 7.106l-12.468-7.199v2.199l12.468 7.198v-2.198zm-3.169 14.079l23.93 13.816v-2.199l-23.93-13.817v2.2zm5.334-12.828v2.199l41.076 23.525v-2.2l-41.076-23.524zm8.642 9.557v2.2l16.797 9.699v-2.2l-16.797-9.699zm-16.142-.179l-7.133-4.118v2.198l7.133 4.119v-2.199zm2.166 12.294l23.93 13.817v-2.2l-23.93-13.816v2.199zm-2.166-3.45l-7.133-4.119v2.2l7.133 4.119v-2.2zm29.074-8.138l31.222 17.836v-2.199l-31.222-17.837v2.2zm21.668 16.889l9.554 5.517v-2.2l-9.554-5.516v2.199zM93.95 111.684l67.43 38.741v-2.2l-67.43-38.74v2.199zm42.238 38.096l25.192 14.355v-2.199l-25.192-14.355v2.199zm-28.957-5.208l-13.28-7.668v2.2l13.28 7.667v-2.199zm47.475 29.418l6.674 3.854v-2.199l-6.674-3.855v2.2zm-6.998-8.609l13.672 7.893v-2.2l-13.672-7.893v2.2zM93.95 129.964l67.43 38.74v-2.199l-67.43-38.74v2.199zm61.448 51.754v.978l-4.455-.234v-1.125l3.445.299v-.02l-3.445-3.679v-1.125l4.455 4.906z" fill="#fff"/><path d="M150.766 176.35v.462l.046 1.248 3.196 3.364-3.242-.282v1.49l4.809.252v-.188l-.045-1.098-4.764-5.248zm10.325 8.462l-4.761-5.25v.462l.046 1.247 3.195 3.365-3.241-.282v1.488l4.806.255v-.188l-.045-1.097z" fill="#fff"/><path d="M160.959 184.932v.977l-4.452-.234v-1.126l3.442.299v-.021l-3.442-3.678v-1.125l4.452 4.908z" fill="#fff"/><path d="M333.205 260.388l-.337-.092-.815-.477-.82.472a.663.663 0 0 1-.909-.243.664.664 0 0 1 .243-.91l1.491-.862 1.485.87a.666.666 0 0 1-.338 1.242zm-8.046 3.306a.665.665 0 0 1-.334-1.244l2.296-1.326a.667.667 0 0 1 .667 1.154l-2.296 1.326-.333.09zm13.797.065l-.337-.092-2.287-1.34a.667.667 0 0 1 .673-1.152l2.288 1.341a.668.668 0 0 1-.337 1.243zm-19.54 3.248a.666.666 0 0 1-.333-1.243l2.297-1.326a.661.661 0 0 1 .909.244.665.665 0 0 1-.242.91l-2.298 1.326-.333.089zm25.26.103l-.337-.091-2.287-1.341a.666.666 0 1 1 .673-1.151l2.288 1.341a.665.665 0 0 1-.337 1.242zm-31.001 3.212a.661.661 0 0 1-.576-.334.664.664 0 0 1 .242-.91l2.298-1.326a.666.666 0 1 1 .666 1.154l-2.297 1.325-.333.091zm36.721.138l-.337-.09-2.288-1.34a.667.667 0 1 1 .673-1.151l2.289 1.34a.665.665 0 0 1-.337 1.241zm-42.463 3.174a.665.665 0 0 1-.577-.334.664.664 0 0 1 .244-.91l2.296-1.326a.664.664 0 0 1 .911.244.665.665 0 0 1-.244.911l-2.296 1.325-.334.09zm48.182.178l-.338-.09-2.286-1.34a.667.667 0 1 1 .674-1.152l2.287 1.34a.666.666 0 0 1-.337 1.242zm-53.924 3.135a.664.664 0 0 1-.334-1.243l2.298-1.325a.662.662 0 0 1 .909.243.664.664 0 0 1-.243.91l-2.297 1.326-.333.089zm59.644.216l-.338-.091-2.286-1.34a.664.664 0 0 1-.239-.912.669.669 0 0 1 .913-.238l2.287 1.34a.666.666 0 0 1-.337 1.241zm-65.386 3.099a.665.665 0 0 1-.576-.334.664.664 0 0 1 .243-.91l2.297-1.326a.662.662 0 0 1 .911.244.666.666 0 0 1-.244.91l-2.297 1.325-.334.091zm71.106.253l-.338-.091-2.286-1.341a.666.666 0 1 1 .674-1.151l2.287 1.342a.665.665 0 0 1-.337 1.241zm-76.847 3.06a.666.666 0 0 1-.333-1.244l2.297-1.325a.663.663 0 0 1 .909.244.663.663 0 0 1-.244.91l-2.296 1.326-.333.089zm82.568.292l-.337-.091-2.288-1.341a.666.666 0 1 1 .674-1.152l2.287 1.341a.668.668 0 0 1-.336 1.243zm-88.311 3.021a.66.66 0 0 1-.576-.333.663.663 0 0 1 .243-.909l2.297-1.326a.663.663 0 0 1 .91.243.666.666 0 0 1-.243.911l-2.297 1.325-.334.089zm94.031.33l-.337-.091-2.29-1.341a.666.666 0 1 1 .675-1.151l2.289 1.341a.667.667 0 0 1-.337 1.242zm-99.772 2.984a.665.665 0 0 1-.576-.334.665.665 0 0 1 .243-.91l2.297-1.326a.666.666 0 1 1 .667 1.154l-2.296 1.325-.335.091zm103.111 1.774l-.316-.08a.664.664 0 0 1-.272-.901 1.878 1.878 0 0 0-.064-1.861.667.667 0 1 1 1.13-.708c.316.505.484 1.09.484 1.693 0 .527-.129 1.047-.376 1.505a.666.666 0 0 1-.586.352zm-108.852 1.539a.667.667 0 0 1-.334-1.243l2.296-1.326a.664.664 0 0 1 .911.244.664.664 0 0 1-.244.91l-2.296 1.326-.333.089zm103.353 2.057a.668.668 0 0 1-.335-1.244l2.298-1.324a.67.67 0 0 1 .912.246.67.67 0 0 1-.246.912l-2.296 1.322-.333.088zM267.74 296.83a.66.66 0 0 1-.576-.334.664.664 0 0 1 .243-.91l2.297-1.326a.662.662 0 0 1 .909.243.665.665 0 0 1-.242.911l-2.298 1.325-.333.091zm103.351 2.053a.667.667 0 0 1-.332-1.245l2.297-1.323a.668.668 0 0 1 .665 1.156l-2.298 1.323-.332.089zm-109.054 1.228a.668.668 0 0 1-.578-.309c-.187-.311-.122-.698.188-.89l2.316-1.338a.663.663 0 0 1 .91.244.665.665 0 0 1-.244.909l-2.234 1.289a.714.714 0 0 1-.358.095zm103.31 2.081a.665.665 0 0 1-.332-1.245l2.298-1.323a.669.669 0 0 1 .91.247.665.665 0 0 1-.246.909l-2.298 1.324-.332.088zm-101.616 2.831l-.338-.091-1.681-.986a2.88 2.88 0 0 1-.704-.57.666.666 0 1 1 .993-.89c.108.121.236.225.382.306l1.685.988a.668.668 0 0 1-.337 1.243zm95.873.479a.666.666 0 0 1-.333-1.244l2.296-1.323a.668.668 0 0 1 .912.244.67.67 0 0 1-.246.912l-2.296 1.323-.333.088zm-90.155 2.873l-.337-.092-2.287-1.34a.667.667 0 1 1 .675-1.152l2.287 1.341a.668.668 0 0 1-.338 1.243zm84.41.437a.668.668 0 0 1-.579-.334.669.669 0 0 1 .247-.911l2.298-1.323a.666.666 0 1 1 .664 1.156l-2.298 1.323-.332.089zm-78.69 2.914l-.337-.091-2.287-1.341a.667.667 0 1 1 .675-1.151l2.287 1.341a.665.665 0 0 1-.338 1.242zm72.946.396a.668.668 0 0 1-.334-1.244l2.299-1.324a.669.669 0 0 1 .912.244.67.67 0 0 1-.245.912l-2.299 1.324-.333.088zm-67.226 2.954l-.336-.09-2.288-1.34a.668.668 0 0 1 .675-1.151l2.287 1.339a.667.667 0 0 1-.338 1.242zm61.483.356a.67.67 0 0 1-.579-.333.67.67 0 0 1 .246-.912l2.297-1.324a.668.668 0 0 1 .667 1.156l-2.298 1.324-.333.089zm-55.761 2.996l-.338-.092-2.288-1.34a.666.666 0 1 1 .675-1.15l2.287 1.34a.666.666 0 0 1-.336 1.242zm50.016.314a.665.665 0 0 1-.334-1.244l2.299-1.326a.667.667 0 1 1 .667 1.156l-2.299 1.326-.333.088zm-44.298 3.037l-.337-.091-2.288-1.34a.668.668 0 0 1 .675-1.15l2.288 1.34a.666.666 0 0 1-.338 1.241zm38.555.273a.668.668 0 0 1-.333-1.245l2.297-1.324a.67.67 0 0 1 .912.244.67.67 0 0 1-.245.912l-2.298 1.324-.333.089zm-32.835 3.079l-.337-.091-2.288-1.34a.67.67 0 0 1-.239-.913.67.67 0 0 1 .914-.237l2.288 1.34a.666.666 0 0 1-.338 1.241zm27.091.231a.668.668 0 0 1-.333-1.246l2.297-1.324a.667.667 0 1 1 .667 1.156l-2.298 1.324-.333.09zm-21.371 3.121l-.337-.092-2.288-1.341a.668.668 0 0 1-.239-.912.67.67 0 0 1 .914-.239l2.288 1.341a.668.668 0 0 1-.338 1.243zm15.626.188a.668.668 0 0 1-.334-1.244l2.299-1.324a.67.67 0 0 1 .912.244.67.67 0 0 1-.245.912l-2.299 1.324-.333.088zm-9.803 2.948l-.185-.025a8.36 8.36 0 0 1-1.906-.819l-.637-.373a.669.669 0 0 1-.239-.912c.19-.322.6-.42.914-.239l.636.373a7.01 7.01 0 0 0 1.601.688.667.667 0 0 1-.184 1.307zm3.932.081a.668.668 0 0 1-.157-1.316 6.915 6.915 0 0 0 1.838-.734l.411-.238a.67.67 0 0 1 .912.246.665.665 0 0 1-.245.91l-.411.238a8.364 8.364 0 0 1-2.191.876l-.157.018z" fill="#AED2F0"/><path d="M311.456 317.899v7.66l64.839-37.348v-7.66l-64.839 37.348z" fill="#7FB7E7"/><path d="M311.48 317.899v7.66l-43.664-25.455v-7.633l43.664 25.428z" fill="#AED2F0"/><path d="M267.816 292.47l43.664 25.428 64.815-37.348-43.712-25.456-64.767 37.376z" fill="#D6EEFB"/><path d="M267.816 167.744V291.1l64.837-37.348V130.396l-64.837 37.348z" fill="#7FB7E7"/><path d="M311.305 315.761L267.816 291.1l64.837-37.348 43.49 24.661-64.838 37.348z" fill="#D6EEFB"/><path d="M276.574 203.642v84.979l33.992-19.593a2.071 2.071 0 0 0 1.034-1.792v-81.619a1.25 1.25 0 0 0-1.874-1.084l-33.152 19.109z" fill="#23366A"/><path d="M276.767 203.965l33.152-19.109a1.231 1.231 0 0 1 1.583.302 1.241 1.241 0 0 0-1.776-.625l-33.152 19.109v84.979l.193-.112v-84.544z" fill="#5191D4"/><path d="M284.823 208.771v79.506l-6.915-3.948v-79.473l6.915 3.915z" fill="#D6EEFB"/><path d="M277.908 204.856l6.915 3.915 31.677-18.276-6.972-3.948-31.62 18.309z" fill="#fff"/><path d="M284.12 207.819v84.978l33.991-19.593a2.069 2.069 0 0 0 1.036-1.793v-81.618a1.252 1.252 0 0 0-1.876-1.084l-33.151 19.11z" fill="#5191D4"/><path d="M284.56 207.84v84.979s-6.2-1.164-7.837-4.455l-.02-.04v-84.657l.225.012c1.639 3.299 7.632 4.161 7.632 4.161z" fill="#5191D4"/><path d="M284.399 208.034v84.978l33.992-19.594a2.068 2.068 0 0 0 1.035-1.792v-81.618a1.25 1.25 0 0 0-1.875-1.084l-33.152 19.11z" fill="#23366A"/><path d="M284.432 208.034v84.978s-6.201-1.163-7.838-4.455l-.02-.04v-84.943c1.638 3.299 7.858 4.46 7.858 4.46z" fill="#254A98"/><path d="M286.999 208.533v84.979l33.992-19.594a2.07 2.07 0 0 0 1.034-1.793v-81.617a1.25 1.25 0 0 0-1.874-1.084l-33.152 19.109z" fill="#3AA59F"/><path d="M287.193 208.856l33.151-19.11a1.232 1.232 0 0 1 1.583.303c-.266-.676-1.087-1.023-1.776-.625l-33.152 19.109v84.979l.194-.112v-84.544z" fill="#61CAC2"/><path d="M299.133 215.983v79.506l-10.8-6.269v-79.473l10.8 6.236z" fill="#D6EEFB"/><path d="M288.333 209.746l10.8 6.236 31.679-18.277-10.859-6.268-31.62 18.309z" fill="#fff"/><path d="M298.431 215.031v84.978l33.992-19.594a2.069 2.069 0 0 0 1.034-1.792v-81.619a1.25 1.25 0 0 0-1.874-1.083l-33.152 19.11z" fill="#61CAC2"/><path d="M298.872 215.052v84.979l-3.347-.566a11.488 11.488 0 0 1-8.377-6.21l-.02-.042v-84.656l.225.012c1.639 3.299 4.535 5.314 8.168 5.922l3.351.561z" fill="#61CAC2"/><path d="M298.711 215.245v84.979l33.991-19.593a2.07 2.07 0 0 0 1.036-1.792V197.22a1.25 1.25 0 0 0-1.875-1.084l-33.152 19.109z" fill="#3AA59F"/><path d="M298.743 215.245v84.979l-3.347-.564a11.495 11.495 0 0 1-8.377-6.212l-.02-.04v-84.943a11.49 11.49 0 0 0 8.393 6.22l3.351.56z" fill="#45C0B5"/><path d="M300.423 217.005v84.979l33.991-19.595a2.067 2.067 0 0 0 1.036-1.792v-81.618a1.25 1.25 0 0 0-1.875-1.083l-33.152 19.109z" fill="#FAB40A"/><path d="M300.616 217.328l33.152-19.109a1.231 1.231 0 0 1 1.583.302 1.241 1.241 0 0 0-1.776-.625l-33.152 19.109v84.979l.193-.112v-84.544z" fill="#DFA10A"/><path d="M306.066 221.169v79.507l-4.31-2.984v-79.474l4.31 2.951z" fill="#D6EEFB"/><path d="M301.756 218.219l4.31 2.95 31.677-18.277-4.367-2.983-31.62 18.31z" fill="#fff"/><path d="M305.363 220.217v84.979l33.99-19.594a2.068 2.068 0 0 0 1.036-1.793v-81.617a1.25 1.25 0 0 0-1.874-1.084l-33.152 19.109z" fill="#DFA10A"/><path d="M305.804 220.239v84.978s-3.594-.2-5.232-3.492l-.02-.04v-84.656l.224.012c1.64 3.299 5.028 3.198 5.028 3.198z" fill="#DFA10A"/><path d="M305.643 220.432v84.979l33.991-19.594a2.068 2.068 0 0 0 1.036-1.792v-81.618a1.251 1.251 0 0 0-1.876-1.084l-33.151 19.109z" fill="#FAB40A"/><path d="M305.675 220.432v84.979s-3.595-.2-5.232-3.491l-.02-.041v-84.942c1.639 3.299 5.252 3.495 5.252 3.495z" fill="#FBC907"/><path d="M311.456 193.199v123.356l64.839-37.348V155.851l-64.839 37.348z" fill="#7FB7E7"/><path d="M320.503 266.972a1.755 1.755 0 0 1-1.753-1.753v-60.325a4.54 4.54 0 0 1 2.268-3.924l45.357-26.127c.268-.154.569-.236.873-.236.967 0 1.754.788 1.754 1.755v60.325c0 1.615-.87 3.117-2.269 3.924l-45.357 26.127a1.765 1.765 0 0 1-.873.234zm46.745-91.392a.772.772 0 0 0-.387.106l-45.358 26.128a3.561 3.561 0 0 0-1.781 3.08v60.325c.001.49.398.773.789.773a.736.736 0 0 0 .378-.098l45.359-26.127a3.564 3.564 0 0 0 1.782-3.08v-60.325a.784.784 0 0 0-.782-.782z" fill="#5A91D3"/><path d="M320.501 266.973c-.301 0-.602-.08-.877-.239l.488-.841a.767.767 0 0 0 .777 0l45.359-26.127a3.561 3.561 0 0 0 1.781-3.08v-60.325a.77.77 0 0 0-.493-.725l.361-.903c.67.268 1.104.907 1.104 1.628v60.325a4.54 4.54 0 0 1-2.268 3.924l-45.357 26.127a1.761 1.761 0 0 1-.875.236z" fill="#AED2F0"/><path d="M267.816 167.772l43.664 25.427 64.815-37.348-43.712-25.455-64.767 37.376z" fill="#D6EEFB"/><path d="M307.591 309.785l-35.886-20.92V174.537l35.886 20.898v114.35zm-39.775-142.013V291.1l43.664 25.455V193.199l-43.664-25.427z" fill="#AED2F0"/><path d="M340.215 263.219l-19.968 11.503a2.015 2.015 0 0 0-1.011 1.748v.453a.824.824 0 0 0 1.235.715l19.968-11.503a2.018 2.018 0 0 0 1.01-1.749v-.454a.823.823 0 0 0-1.234-.713zm6.179-2.392v.453a.822.822 0 0 0 1.233.713l19.877-11.449a2.016 2.016 0 0 0 1.011-1.748v-.453a.824.824 0 0 0-1.235-.715l-19.876 11.449a2.022 2.022 0 0 0-1.01 1.75z" fill="#254A98"/><path d="M340.581 263.115c.086.128.139.28.139.453v.454c0 .721-.385 1.388-1.011 1.748l-19.968 11.502a.799.799 0 0 1-.366.104.822.822 0 0 0 1.096.262l19.968-11.503a2.02 2.02 0 0 0 1.01-1.749v-.454a.82.82 0 0 0-.868-.817zm27.066-15.591a.81.81 0 0 1 .139.454v.453a2.02 2.02 0 0 1-1.011 1.749l-19.877 11.45a.815.815 0 0 1-.366.104.82.82 0 0 0 1.095.26l19.877-11.45a2.015 2.015 0 0 0 1.011-1.748v-.453a.82.82 0 0 0-.868-.819z" fill="#D6EEFB"/><path d="M340.215 268.445l-19.968 11.503a2.016 2.016 0 0 0-1.011 1.748v.455a.824.824 0 0 0 1.235.713l19.968-11.503a2.017 2.017 0 0 0 1.01-1.749v-.453a.823.823 0 0 0-1.234-.714zm6.179-2.392v.454a.822.822 0 0 0 1.233.713l19.877-11.449a2.016 2.016 0 0 0 1.011-1.748v-.454a.824.824 0 0 0-1.235-.714l-19.876 11.449a2.02 2.02 0 0 0-1.01 1.749z" fill="#254A98"/><path d="M340.581 268.341c.086.128.139.28.139.454v.453c0 .721-.385 1.388-1.011 1.748l-19.968 11.503a.811.811 0 0 1-.366.104.823.823 0 0 0 1.096.261l19.968-11.503a2.017 2.017 0 0 0 1.01-1.749v-.453a.82.82 0 0 0-.868-.818zm27.066-15.59a.81.81 0 0 1 .139.453v.453a2.02 2.02 0 0 1-1.011 1.75l-19.877 11.449a.815.815 0 0 1-.366.104.82.82 0 0 0 1.095.26l19.877-11.449a2.016 2.016 0 0 0 1.011-1.748v-.454a.82.82 0 0 0-.868-.818z" fill="#D6EEFB"/><path d="M340.215 273.672l-19.968 11.503a2.015 2.015 0 0 0-1.011 1.748v.454a.824.824 0 0 0 1.235.714l19.968-11.503a2.018 2.018 0 0 0 1.01-1.749v-.454a.823.823 0 0 0-1.234-.713zm6.179-2.392v.453a.822.822 0 0 0 1.233.713l19.877-11.449a2.015 2.015 0 0 0 1.011-1.748v-.453a.824.824 0 0 0-1.235-.715l-19.876 11.449a2.022 2.022 0 0 0-1.01 1.75z" fill="#254A98"/><path d="M340.581 273.568c.086.128.139.28.139.453v.454c0 .721-.385 1.388-1.011 1.748l-19.968 11.502a.799.799 0 0 1-.366.104.822.822 0 0 0 1.096.262l19.968-11.503a2.018 2.018 0 0 0 1.01-1.749v-.454a.82.82 0 0 0-.868-.817zm27.066-15.591a.81.81 0 0 1 .139.454v.453a2.02 2.02 0 0 1-1.011 1.749l-19.877 11.45a.815.815 0 0 1-.366.104.82.82 0 0 0 1.095.26l19.877-11.45a2.015 2.015 0 0 0 1.011-1.748v-.453a.82.82 0 0 0-.868-.819z" fill="#D6EEFB"/><path d="M340.215 278.899l-19.968 11.502a2.016 2.016 0 0 0-1.011 1.748v.455a.824.824 0 0 0 1.235.713l19.968-11.502a2.018 2.018 0 0 0 1.01-1.75v-.453a.823.823 0 0 0-1.234-.713zm6.179-2.393v.454a.822.822 0 0 0 1.233.713l19.877-11.449a2.016 2.016 0 0 0 1.011-1.748v-.454a.824.824 0 0 0-1.235-.714l-19.876 11.449a2.02 2.02 0 0 0-1.01 1.749z" fill="#254A98"/><path d="M340.581 278.795c.086.128.139.28.139.453v.453c0 .722-.385 1.388-1.011 1.748l-19.968 11.503a.811.811 0 0 1-.366.104.822.822 0 0 0 1.096.261l19.968-11.502a2.018 2.018 0 0 0 1.01-1.75v-.453a.82.82 0 0 0-.868-.817zm27.066-15.591a.81.81 0 0 1 .139.453v.454a2.02 2.02 0 0 1-1.011 1.749l-19.877 11.449a.802.802 0 0 1-.366.104.819.819 0 0 0 1.095.26l19.877-11.449a2.016 2.016 0 0 0 1.011-1.748v-.453a.82.82 0 0 0-.868-.819z" fill="#D6EEFB"/><path d="M340.215 284.125l-19.968 11.503a2.015 2.015 0 0 0-1.011 1.748v.454a.824.824 0 0 0 1.235.714l19.968-11.503a2.018 2.018 0 0 0 1.01-1.749v-.454a.823.823 0 0 0-1.234-.713zm6.179-2.392v.454a.822.822 0 0 0 1.233.713l19.877-11.449a2.016 2.016 0 0 0 1.011-1.748v-.454a.824.824 0 0 0-1.235-.714l-19.876 11.449a2.02 2.02 0 0 0-1.01 1.749z" fill="#254A98"/><path d="M340.581 284.021c.086.128.139.28.139.453v.454c0 .721-.385 1.388-1.011 1.748l-19.968 11.502a.799.799 0 0 1-.366.104.822.822 0 0 0 1.096.262l19.968-11.503a2.018 2.018 0 0 0 1.01-1.749v-.454a.82.82 0 0 0-.868-.817zm27.066-15.591a.81.81 0 0 1 .139.454v.453a2.02 2.02 0 0 1-1.011 1.749l-19.877 11.45a.815.815 0 0 1-.366.104.82.82 0 0 0 1.095.26l19.877-11.45a2.015 2.015 0 0 0 1.011-1.748v-.453a.82.82 0 0 0-.868-.819z" fill="#D6EEFB"/><path d="M340.215 289.352l-19.968 11.503a2.016 2.016 0 0 0-1.011 1.749v.453a.824.824 0 0 0 1.235.714l19.968-11.503a2.018 2.018 0 0 0 1.01-1.749v-.454a.823.823 0 0 0-1.234-.713zm6.179-2.392v.453a.823.823 0 0 0 1.233.715l19.877-11.451a2.015 2.015 0 0 0 1.011-1.748v-.453a.824.824 0 0 0-1.235-.715l-19.876 11.45a2.02 2.02 0 0 0-1.01 1.749z" fill="#254A98"/><path d="M340.581 289.248c.086.128.139.28.139.453v.454a2.02 2.02 0 0 1-1.011 1.749l-19.968 11.501a.799.799 0 0 1-.366.104.822.822 0 0 0 1.096.262l19.968-11.503a2.018 2.018 0 0 0 1.01-1.749v-.454a.82.82 0 0 0-.868-.817zm27.066-15.591a.812.812 0 0 1 .139.453v.454a2.02 2.02 0 0 1-1.011 1.749l-19.877 11.449a.802.802 0 0 1-.366.104.821.821 0 0 0 1.095.262l19.877-11.451a2.016 2.016 0 0 0 1.011-1.748v-.453a.82.82 0 0 0-.868-.819z" fill="#D6EEFB"/><path d="M267.816 292.47l43.664 25.428 64.815-37.348-64.828 36.751-43.651-24.831zm0-124.698l43.664 25.427 64.815-37.348-64.787 36.873-43.692-24.952z" fill="#fff"/><path d="M151.397 350.954v3.515l61.582-35.583v-3.517l-61.582 35.585z" fill="#7FB7E7"/><path d="M151.408 350.954v3.515l-20.042-11.684v-3.503l20.042 11.672z" fill="#AED2F0"/><path d="M131.366 339.281l20.042 11.673 61.571-35.585-20.065-11.685-61.548 35.597z" fill="#D6EEFB"/><path d="M184.687 325.668l-14.529 8.388 1.709.986 14.528-8.388-1.708-.986zm-12.071 2.742l-6.118 3.532 1.708.987 6.118-3.532-1.708-.987zm18.947-18.602l-31.361 18.106 3.19 1.667 31.363-18.107-3.192-1.666zm3.087 10.061l-4.131 2.445 1.708.986 4.131-2.446-1.708-.985zm-18.852 8.677l13.812-7.974-1.708-.987-13.812 7.975 1.708.986zm13.248-5.381l-2.887 1.652 1.709.987 2.886-1.654-1.708-.985zm.329-4.431l1.708.987 8.439-4.931-1.708-.986-8.439 4.93z" fill="#7FB7E7"/><path d="M190.112 319.161l7.701-4.5.971.56.737-.431-1.708-.986-8.438 4.93.737.427zm-2.211.424l-13.812 7.975.742.428 13.07-7.546.967.558.741-.428-1.708-.987zm-15.285 8.826l-6.118 3.532.742.429 5.376-3.105.967.558.741-.428-1.708-.986zm18.947-17.747l2.412 1.26.78-.449-3.192-1.667-31.361 18.107.778.406 30.583-17.657zm-1.044 11.651l.733.422 3.398-2.012.974.564.732-.434-1.706-.986-4.131 2.446zm-4.36 2.502l.745.431 2.141-1.227.964.556.744-.426-1.708-.986-2.886 1.652zm-16.001 9.239l.742.428 13.787-7.959.965.558.743-.428-1.708-.987-14.529 8.388z" fill="#5191D4"/><path d="M153.405 334.004l-9.212 5.32 9.146 5.28 9.212-5.32-9.146-5.28zm-.398 11.943l-10.475-6.048a.665.665 0 0 1 0-1.151l10.541-6.087c.206-.12.46-.12.664 0l10.476 6.048a.664.664 0 0 1 0 1.151l-10.541 6.087-.333.089-.332-.089z" fill="#386FB2"/><path d="M142.331 339.699l.201-.202 10.541-6.086a.662.662 0 0 1 .664 0l10.476 6.048.2.2a.639.639 0 0 0 .132-.374.664.664 0 0 0-.332-.576l-10.476-6.048a.657.657 0 0 0-.664 0l-10.541 6.087a.666.666 0 0 0-.333.576c0 .139.054.264.132.375z" fill="#254A98"/><path d="M153.339 345.354l9.212-5.319-.65-.375-8.562 4.944-8.496-4.905-.648.374 9.144 5.281z" fill="#254A98"/><path d="M89.264 311.217l-5.612 3.24 5.57 3.217 5.613-3.24-5.57-3.217zm-.244 7.275l-6.38-3.684a.405.405 0 0 1 0-.702l6.421-3.706a.395.395 0 0 1 .404 0l6.382 3.684a.403.403 0 0 1 0 .7l-6.421 3.708-.203.054-.203-.054z" fill="#386FB2"/><path d="M108.243 306.121l-8.85 5.11 1.04.6 8.85-5.11-1.04-.6zm-7.352 1.67l-3.727 2.152 1.04.601 3.727-2.152-1.04-.601zm11.541-11.331l-19.104 11.029 1.944 1.015 19.104-11.029-1.944-1.015zm1.88 6.128l-2.516 1.489 1.04.602 2.516-1.49-1.04-.601zm-11.484 5.285l8.413-4.857-1.04-.6-8.413 4.857 1.04.6zm8.071-3.277l-1.759 1.007 1.04.601 1.759-1.008-1.04-.6zm.2-2.699l1.04.602 5.14-3.004-1.04-.6-5.14 3.002zm9.109 10.808l-8.849 5.11 1.041.601 8.849-5.109-1.041-.602zm-7.352 1.671l-3.727 2.152 1.04.601 3.727-2.152-1.04-.601zm11.541-11.332l-19.104 11.029 1.944 1.016 19.104-11.029-1.944-1.016zm1.88 6.129l-2.516 1.49 1.04.601 2.516-1.489-1.04-.602zm-11.482 5.286l8.413-4.858-1.041-.6-8.414 4.858 1.042.6zm8.069-3.278l-1.759 1.007 1.042.6 1.757-1.007-1.04-.6zm.2-2.698l1.041.601 5.14-3.004-1.041-.601-5.14 3.004zm9.271 10.969l-8.85 5.109 1.04.6 8.85-5.109-1.04-.6zm-7.352 1.67l-3.727 2.151 1.04.601 3.727-2.152-1.04-.6zm11.541-11.332l-19.104 11.03 1.944 1.014 19.104-11.029-1.944-1.015zm1.88 6.128l-2.516 1.491 1.04.6 2.516-1.489-1.04-.602zm-11.484 5.287l8.413-4.857-1.04-.602-8.413 4.858 1.04.601zm8.071-3.279l-1.759 1.007 1.041.601 1.758-1.006-1.04-.602zm.2-2.698l1.04.601 5.141-3.004-1.041-.6-5.14 3.003zm9.19 10.889l-8.849 5.11 1.04.6 8.849-5.108-1.04-.602zm-7.353 1.671l-3.727 2.152 1.042.6 3.726-2.152-1.041-.6zm11.541-11.332l-19.102 11.029 1.944 1.015 19.102-11.029-1.944-1.015zm1.88 6.128l-2.516 1.491 1.042.6 2.516-1.49-1.042-.601zm-11.482 5.287l8.413-4.858-1.04-.601-8.413 4.857 1.04.602zm8.069-3.279l-1.757 1.007 1.04.601 1.758-1.007-1.041-.601zm.201-2.697l1.04.6 5.14-3.004-1.04-.6-5.14 3.004z" fill="#7FB7E7"/><path d="M101.179 317.889l-5.61 3.24 5.57 3.216 5.611-3.24-5.571-3.216zm-.243 7.275l-6.38-3.684a.406.406 0 0 1 0-.701l6.42-3.708a.409.409 0 0 1 .406 0l6.381 3.684a.407.407 0 0 1 .203.35.407.407 0 0 1-.203.351l-6.421 3.708-.203.055-.203-.055zm12.345-.635l-5.612 3.24 5.571 3.217 5.612-3.241-5.571-3.216zm-.244 7.275l-6.38-3.684a.405.405 0 0 1 0-.702l6.422-3.706a.395.395 0 0 1 .404 0l6.381 3.684a.404.404 0 0 1 0 .7l-6.421 3.708-.203.054-.203-.054zm12.159-.603l-5.611 3.24 5.571 3.216 5.611-3.24-5.571-3.216zm-.243 7.275l-6.381-3.684a.407.407 0 0 1 0-.701l6.421-3.708a.409.409 0 0 1 .406 0l6.381 3.684a.404.404 0 0 1 0 .701l-6.421 3.708-.203.055-.203-.055z" fill="#386FB2"/><path d="M84.696 314.819l7.447.721-2.332-7.653-3.265 1.032 2.89 5.058-3.601-.48-1.139 1.322zm11.886 6.745l7.446.721-2.33-7.653-3.267 1.033 2.891 5.057-3.602-.478-1.138 1.32z" fill="#45C0B5"/><path d="M156.448 337.341l-6.912-22.688-9.681 3.062-1.392-1.647v2.088l9.798 17.149-12.21-1.624-2.198 2.55-1.661-.16v2.088l25.249 2.446v-2.088l-.993-1.176z" fill="#3AA59F"/><path d="M132.192 336.07l25.249 2.447-7.905-25.952-11.073 3.503 9.798 17.149-12.21-1.623-3.859 4.476z" fill="#61CAC2"/><path d="M218.087 58.159a.669.669 0 0 1-.655-.548 89.46 89.46 0 0 1-.229-1.324.666.666 0 1 1 1.314-.219c.074.435.148.87.227 1.304a.669.669 0 0 1-.537.776l-.12.01zM250.876 1.41l-.044-.002a36.884 36.884 0 0 0-2.32-.075l-.373.003h-.007a.667.667 0 0 1-.007-1.333l.383-.003c.796 0 1.599.026 2.409.077a.668.668 0 0 1-.041 1.333zm-9.54.7a.667.667 0 0 1-.148-1.317 31.28 31.28 0 0 1 2.756-.494.667.667 0 0 1 .176 1.323c-.891.12-1.779.278-2.637.473l-.147.015zm16.316.306l-.149-.017a44.477 44.477 0 0 0-2.652-.526.666.666 0 0 1-.548-.766.66.66 0 0 1 .766-.549c.9.15 1.811.329 2.732.54.359.083.583.44.5.8a.666.666 0 0 1-.649.518zm6.565 1.976l-.232-.042a54.947 54.947 0 0 0-2.564-.882.665.665 0 1 1 .402-1.27c.868.274 1.742.575 2.625.902a.667.667 0 0 1-.231 1.292zm-29.326.005a.667.667 0 0 1-.299-1.262 28.248 28.248 0 0 1 2.569-1.128.667.667 0 0 1 .476 1.245c-.836.318-1.66.681-2.449 1.075l-.297.07zm35.608 2.735l-.299-.07a64.81 64.81 0 0 0-2.455-1.165.666.666 0 0 1-.334-.881c.149-.335.546-.486.881-.335.829.373 1.664.77 2.504 1.188a.666.666 0 0 1-.297 1.263zm-41.294 1.054a.666.666 0 0 1-.434-1.17 28.277 28.277 0 0 1 2.21-1.727.668.668 0 0 1 .768 1.09 27.32 27.32 0 0 0-2.109 1.646.663.663 0 0 1-.435.161zm47.282 2.284l-.351-.098a80.382 80.382 0 0 0-1.971-1.178l-.366-.21a.665.665 0 0 1-.25-.908.663.663 0 0 1 .908-.25l.379.216c.667.386 1.333.785 2 1.195a.669.669 0 0 1 .219.918.67.67 0 0 1-.568.316zm-51.906 2.755a.666.666 0 0 1-.538-1.06 31.98 31.98 0 0 1 1.748-2.187.666.666 0 1 1 1.002.88c-.576.66-1.14 1.363-1.673 2.094a.666.666 0 0 1-.539.273zm57.595 1.072a.665.665 0 0 1-.393-.13 82.895 82.895 0 0 0-2.223-1.57.667.667 0 0 1 .753-1.1 87.09 87.09 0 0 1 2.256 1.595.667.667 0 0 1-.393 1.205zm-61.057 4.835l-.282-.063a.666.666 0 0 1-.322-.885c.397-.854.822-1.688 1.268-2.486a.666.666 0 1 1 1.164.651c-.428.768-.84 1.575-1.223 2.398a.666.666 0 0 1-.605.385zm-2.372 6.424l-.183-.026a.666.666 0 0 1-.459-.822c.258-.908.539-1.793.842-2.653a.666.666 0 1 1 1.257.443 42.659 42.659 0 0 0-.815 2.574.669.669 0 0 1-.642.484zm-1.431 6.701l-.1-.008a.665.665 0 0 1-.56-.757c.139-.93.296-1.841.476-2.735a.667.667 0 1 1 1.308.263 57.1 57.1 0 0 0-.467 2.67.665.665 0 0 1-.657.567zm-.644 6.824l-.028-.001a.67.67 0 0 1-.639-.695c.043-.937.1-1.858.175-2.762.031-.37.389-.635.719-.611.368.03.641.353.609.72a72.644 72.644 0 0 0-.169 2.71.667.667 0 0 1-.667.64zm.013 6.856a.667.667 0 0 1-.665-.636 77.975 77.975 0 0 1-.079-2.765.666.666 0 0 1 .659-.675h.008c.364 0 .663.294.667.659.009.902.036 1.81.076 2.721a.666.666 0 0 1-.635.696h-.031zm.582 6.834a.665.665 0 0 1-.66-.586 90.544 90.544 0 0 1-.299-2.747.668.668 0 0 1 1.328-.123c.084.9.183 1.802.293 2.708a.665.665 0 0 1-.581.742l-.081.005zm69.276-35.092a.66.66 0 0 1-.423-.152c-.342-.28-.685-.559-1.03-.834a.666.666 0 1 1 .833-1.04c.348.278.695.56 1.041.843a.666.666 0 0 1-.421 1.183zM276.389 327.94a.665.665 0 0 1-.333-1.244l2.308-1.335a.666.666 0 1 1 .667 1.154l-2.308 1.334-.334.091zm-5.773 3.335a.666.666 0 0 1-.333-1.244l2.309-1.334a.667.667 0 0 1 .667 1.154l-2.31 1.333-.333.091zm-5.772 3.334a.662.662 0 0 1-.576-.333.663.663 0 0 1 .243-.909l2.309-1.334a.663.663 0 0 1 .909.243.665.665 0 0 1-.242.911l-2.31 1.333-.333.089zm-5.772 3.336a.662.662 0 0 1-.576-.333.663.663 0 0 1 .243-.909l2.309-1.335a.664.664 0 0 1 .909.243.664.664 0 0 1-.242.91l-2.31 1.335-.333.089zm-5.772 3.336a.662.662 0 0 1-.576-.333.663.663 0 0 1 .243-.909l2.309-1.335a.664.664 0 0 1 .909.243.664.664 0 0 1-.242.91l-2.31 1.335-.333.089zm-5.772 3.336a.664.664 0 0 1-.333-1.242l2.308-1.335a.664.664 0 0 1 .91.243.663.663 0 0 1-.244.91l-2.308 1.335-.333.089zm-5.772 3.335a.665.665 0 0 1-.333-1.243l2.308-1.333a.663.663 0 0 1 .91.242.664.664 0 0 1-.244.911l-2.308 1.334-.333.089zm-5.772 3.336a.667.667 0 0 1-.333-1.243l2.308-1.334a.665.665 0 1 1 .666 1.153l-2.308 1.335-.333.089zm-5.772 3.336a.667.667 0 0 1-.333-1.243l2.308-1.334a.667.667 0 0 1 .666 1.153l-2.308 1.335-.333.089zm-5.773 3.336a.668.668 0 0 1-.578-.334.663.663 0 0 1 .244-.909l2.31-1.334a.667.667 0 0 1 .666 1.153l-2.309 1.335-.333.089zm-34.299 2.357l-.339-.093-2.298-1.353a.666.666 0 0 1-.235-.914.669.669 0 0 1 .912-.236l2.299 1.355a.668.668 0 0 1-.339 1.241zm28.527.978a.667.667 0 0 1-.334-1.243l2.31-1.334a.667.667 0 0 1 .666 1.154L219 361.205l-.333.09zm-22.743 2.333l-.283-.063a20.272 20.272 0 0 1-1.502-.782l-.892-.526a.666.666 0 1 1 .677-1.148l.885.521a18.4 18.4 0 0 0 1.398.727.668.668 0 0 1-.283 1.271zm16.883.832a.669.669 0 0 1-.623-.425.671.671 0 0 1 .381-.864c.732-.282 1.43-.614 2.074-.986l.232-.132a.662.662 0 0 1 .909.243.665.665 0 0 1-.243.91l-.232.134c-.704.407-1.464.769-2.257 1.076l-.241.044zm-10.506 1.029l-.093-.006a24.96 24.96 0 0 1-2.689-.531.666.666 0 0 1 .33-1.291c.834.214 1.69.381 2.543.502a.665.665 0 0 1-.091 1.326zm3.99.219a.667.667 0 0 1-.019-1.333 21.357 21.357 0 0 0 2.572-.231.672.672 0 0 1 .76.558.667.667 0 0 1-.559.759c-.881.136-1.801.217-2.734.247h-.02zm10.253-304.004c0 1.679 1.191 3.732 2.653 4.577.402.231.798.354 1.146.354.828 0 1.341-.679 1.341-1.77 0-1.678-1.191-3.732-2.653-4.577-.402-.232-.798-.353-1.146-.353-.828 0-1.341.677-1.341 1.77z" fill="#45C0B5"/><path d="M286.259 13.995l3.025 5.244-5.445-1.008 2.42-4.236zM183.416 357.493c0 1.03 1.433 1.864 3.201 1.864s3.2-.834 3.2-1.864c0-1.029-1.432-1.864-3.2-1.864-1.768 0-3.201.835-3.201 1.864z" fill="#45C0B5"/><path d="M65.653 290.178c0 1.031 1.434 1.864 3.202 1.864 1.766 0 3.2-.833 3.2-1.864 0-1.029-1.434-1.864-3.2-1.864-1.768 0-3.202.835-3.202 1.864z" fill="#FBC907"/><path d="M277.682 323.54l4.03 2.687 2.687-4.567-6.717 1.88z" fill="#45C0B5"/><path d="M85.168 262.437l4.03 2.687 2.687-4.568-6.717 1.881zm286.181-118.054l-.333-.091-2.307-1.335a.666.666 0 1 1 .667-1.154l2.307 1.336a.668.668 0 1 1-.334 1.244zm5.771 3.337l-.333-.089-2.308-1.335a.667.667 0 0 1 .666-1.154l2.308 1.335a.664.664 0 0 1-.333 1.243zm4.807 4.428a.662.662 0 0 1-.591-.359 9.336 9.336 0 0 0-1.415-2.037.665.665 0 1 1 .974-.909 10.41 10.41 0 0 1 1.622 2.332.665.665 0 0 1-.284.899l-.306.074zm1.198 6.471a.666.666 0 0 1-.666-.667v-1.881c0-.237-.012-.476-.036-.718a.668.668 0 0 1 .598-.729.673.673 0 0 1 .73.597c.028.286.041.57.041.85v1.881a.666.666 0 0 1-.667.667zm0 6.666a.665.665 0 0 1-.666-.666v-2.667a.667.667 0 1 1 1.333 0v2.667a.665.665 0 0 1-.667.666zm0 6.667a.665.665 0 0 1-.666-.667v-2.666a.667.667 0 1 1 1.333 0v2.666c0 .37-.297.667-.667.667z" fill="#FBC907"/><path d="M30.245 79.645l-.169-.02c-.836-.22-1.648-.293-2.41-.22a.655.655 0 0 1-.727-.6.666.666 0 0 1 .6-.726 8.397 8.397 0 0 1 2.873.255.667.667 0 1 1-.167 1.312zm5.932 2.991l-.333-.09-2.308-1.335a.665.665 0 0 1-.243-.91.664.664 0 0 1 .911-.243l2.308 1.334a.666.666 0 0 1-.335 1.244zm-13.765.486l-.313-.08a.665.665 0 0 1-.274-.902c.48-.897 1.067-1.668 1.744-2.287a.667.667 0 0 1 .902.983c-.567.519-1.06 1.168-1.47 1.933a.667.667 0 0 1-.589.352zm19.536 2.852l-.333-.09-2.308-1.335a.666.666 0 1 1 .668-1.155l2.308 1.337a.665.665 0 0 1-.335 1.243zM20.947 89.56h-.014a.668.668 0 0 1-.653-.68c.02-.958.103-1.883.247-2.748a.666.666 0 1 1 1.315.219 17.94 17.94 0 0 0-.229 2.557.666.666 0 0 1-.666.652zm-.003 6.667a.665.665 0 0 1-.667-.666v-2.667a.666.666 0 1 1 1.334 0v2.666c0 .37-.299.667-.667.667zm0 6.667a.665.665 0 0 1-.667-.667v-2.666a.666.666 0 1 1 1.334 0v2.666c0 .37-.299.667-.667.667zm0 6.667a.666.666 0 0 1-.667-.667v-2.667a.666.666 0 1 1 1.334 0v2.667a.667.667 0 0 1-.667.667z" fill="#45C0B5"/><path d="M24.78 73.664a.668.668 0 0 1-.115-1.324c.9-.157 1.85-.196 2.83-.108a.667.667 0 0 1 .605.723.658.658 0 0 1-.723.605 9.562 9.562 0 0 0-2.482.095l-.115.01zm8.913 2.039l-.332-.09a18.328 18.328 0 0 0-2.308-1.133.666.666 0 1 1 .498-1.236 19.69 19.69 0 0 1 2.477 1.215.667.667 0 0 1-.335 1.244zM19.165 76.98a.666.666 0 0 1-.51-1.095 10.76 10.76 0 0 1 2.08-1.92.667.667 0 0 1 .765 1.092 9.463 9.463 0 0 0-1.824 1.685.664.664 0 0 1-.51.239zm-2.89 5.943l-.167-.02a.67.67 0 0 1-.48-.813c.239-.921.533-1.803.876-2.619a.667.667 0 1 1 1.23.519 17.594 17.594 0 0 0-.814 2.433.667.667 0 0 1-.645.5zm-.762 6.564c-.368 0-.666-.257-.666-.626 0-.98.037-1.867.109-2.72a.652.652 0 0 1 .721-.607c.367.03.639.353.607.72a30.535 30.535 0 0 0-.104 2.525c0 .368-.297.708-.667.708zm0 6.707a.666.666 0 0 1-.666-.667v-2.666a.667.667 0 0 1 1.333 0v2.666c0 .37-.297.667-.667.667z" fill="#AED2F0"/><path d="M65.107 288.276l-.334-.089a9.974 9.974 0 0 1-1.183-.794.664.664 0 0 1-.118-.934.663.663 0 0 1 .935-.118c.315.244.661.476 1.033.692a.665.665 0 0 1-.333 1.243zm14.149-18.903a.666.666 0 0 1-.336-1.242l2.123-1.238a.664.664 0 0 1 .91.24.666.666 0 0 1-.238.912l-2.123 1.236-.336.092zm-5.308 3.09a.666.666 0 0 1-.335-1.243l2.122-1.236a.667.667 0 0 1 .672 1.151l-2.123 1.237-.336.091zm-5.307 3.09a.665.665 0 0 1-.336-1.242l2.123-1.236a.663.663 0 0 1 .91.24.663.663 0 0 1-.238.91l-2.123 1.236-.336.092zm-5.033 3.475a.668.668 0 0 1-.485-1.125 12.557 12.557 0 0 1 1.98-1.674.668.668 0 0 1 .756 1.1c-.676.466-1.271.967-1.767 1.491a.673.673 0 0 1-.484.208zm-1.752 5.581a.665.665 0 0 1-.637-.473 5.212 5.212 0 0 1-.224-1.52c0-.415.049-.837.145-1.252a.668.668 0 0 1 1.3.304 4.133 4.133 0 0 0-.112.948c0 .387.056.768.167 1.132a.668.668 0 0 1-.444.832l-.195.029zm22.719-18.333a.668.668 0 0 1-.336-1.243l1.152-.67a.668.668 0 0 1 .672 1.153l-1.152.671-.336.089z" fill="#FBC907"/></svg>