<svg width="1410" height="546" viewBox="0 0 1410 546" fill="none" xmlns="http://www.w3.org/2000/svg"><path d="M1405.58 405l-20.82 10.526c4.56 9.157.87 20.334-8.21 24.929-9.09 4.595-20.17.88-24.73-8.277L1331 442.703c10.31 20.726 35.43 29.133 55.99 18.738 20.56-10.395 28.9-35.716 18.59-56.441zM61 4.425L50.474 25.242c-9.157-4.558-20.334-.872-24.929 8.211-4.595 9.084-.88 20.171 8.277 24.73L23.297 79C2.57 68.688-5.836 43.571 4.559 23.012 14.954 2.452 40.275-5.888 61 4.425z" fill="#fff"/><path opacity=".4" fill-rule="evenodd" clip-rule="evenodd" d="M1264 215c0 1.105-.9 2-2 2s-2-.895-2-2 .9-2 2-2 2 .895 2 2zm19 0c0 1.105-.9 2-2 2s-2-.895-2-2 .9-2 2-2 2 .895 2 2zm17 2c1.1 0 2-.895 2-2s-.9-2-2-2-2 .895-2 2 .9 2 2 2zm21-2c0 1.105-.9 2-2 2s-2-.895-2-2 .9-2 2-2 2 .895 2 2zm17 2c1.1 0 2-.895 2-2s-.9-2-2-2-2 .895-2 2 .9 2 2 2zm-74 17c0 1.105-.9 2-2 2s-2-.895-2-2 .9-2 2-2 2 .895 2 2zm17 2c1.1 0 2-.895 2-2s-.9-2-2-2-2 .895-2 2 .9 2 2 2zm21-2c0 1.105-.9 2-2 2s-2-.895-2-2 .9-2 2-2 2 .895 2 2zm17 2c1.1 0 2-.895 2-2s-.9-2-2-2-2 .895-2 2 .9 2 2 2zm21-2c0 1.105-.9 2-2 2s-2-.895-2-2 .9-2 2-2 2 .895 2 2zm-78 21c1.1 0 2-.895 2-2s-.9-2-2-2-2 .895-2 2 .9 2 2 2zm21-2c0 1.105-.9 2-2 2s-2-.895-2-2 .9-2 2-2 2 .895 2 2zm17 2c1.1 0 2-.895 2-2s-.9-2-2-2-2 .895-2 2 .9 2 2 2zm21-2c0 1.105-.9 2-2 2s-2-.895-2-2 .9-2 2-2 2 .895 2 2zm17 2c1.1 0 2-.895 2-2s-.9-2-2-2-2 .895-2 2 .9 2 2 2zm-74 17c0 1.105-.9 2-2 2s-2-.895-2-2 .9-2 2-2 2 .895 2 2zm17 2c1.1 0 2-.895 2-2s-.9-2-2-2-2 .895-2 2 .9 2 2 2zm21-2c0 1.105-.9 2-2 2s-2-.895-2-2 .9-2 2-2 2 .895 2 2zm17 2c1.1 0 2-.895 2-2s-.9-2-2-2-2 .895-2 2 .9 2 2 2zm21-2c0 1.105-.9 2-2 2s-2-.895-2-2 .9-2 2-2 2 .895 2 2zm-78 21c1.1 0 2-.895 2-2s-.9-2-2-2-2 .895-2 2 .9 2 2 2zm21-2c0 1.105-.9 2-2 2s-2-.895-2-2 .9-2 2-2 2 .895 2 2zm17 2c1.1 0 2-.895 2-2s-.9-2-2-2-2 .895-2 2 .9 2 2 2zm21-2c0 1.105-.9 2-2 2s-2-.895-2-2 .9-2 2-2 2 .895 2 2zm17 2c1.1 0 2-.895 2-2s-.9-2-2-2-2 .895-2 2 .9 2 2 2zM56 468a2 2 0 1 1-4 0 2 2 0 0 1 4 0zm19 0a2 2 0 1 1-4 0 2 2 0 0 1 4 0zm17 2a2 2 0 1 0 0-4 2 2 0 0 0 0 4zm21-2a2 2 0 1 1-3.999.001A2 2 0 0 1 113 468zm17 2a2 2 0 1 0 .001-3.999A2 2 0 0 0 130 470zm-74 17a2 2 0 1 1-4 0 2 2 0 0 1 4 0zm17 2a2 2 0 1 0 0-4 2 2 0 0 0 0 4zm21-2a2 2 0 1 1-4 0 2 2 0 0 1 4 0zm17 2a2 2 0 1 0 .001-3.999A2 2 0 0 0 111 489zm21-2a2 2 0 1 1-3.999.001A2 2 0 0 1 132 487zm-78 21a2 2 0 1 0 0-4 2 2 0 0 0 0 4zm21-2a2 2 0 1 1-4 0 2 2 0 0 1 4 0zm17 2a2 2 0 1 0 0-4 2 2 0 0 0 0 4zm21-2a2 2 0 1 1-3.999.001A2 2 0 0 1 113 506zm17 2a2 2 0 1 0 .001-3.999A2 2 0 0 0 130 508zm-74 17a2 2 0 1 1-4 0 2 2 0 0 1 4 0zm17 2a2 2 0 1 0 0-4 2 2 0 0 0 0 4zm21-2a2 2 0 1 1-4 0 2 2 0 0 1 4 0zm17 2a2 2 0 1 0 .001-3.999A2 2 0 0 0 111 527zm21-2a2 2 0 1 1-3.999.001A2 2 0 0 1 132 525zm-78 21a2 2 0 1 0 0-4 2 2 0 0 0 0 4zm21-2a2 2 0 1 1-4 0 2 2 0 0 1 4 0zm17 2a2 2 0 1 0 0-4 2 2 0 0 0 0 4zm21-2a2 2 0 1 1-3.999.001A2 2 0 0 1 113 544zm17 2a2 2 0 1 0 .001-3.999A2 2 0 0 0 130 546z" fill="#fff"/></svg>