<svg width="1920" height="1482" viewBox="0 0 1920 1482" fill="none" xmlns="http://www.w3.org/2000/svg"><g clip-path="url(#a)"><path d="M1920 1482H.001v-356L1920 32v1450z" fill="url(#b)"/><path opacity=".25" d="M1513 264l695-396v59.073l-644 367.115L1513 264z" fill="#34D1C5"/><path d="M1571 199l695-396v59.073l-644 367.115L1571 199z" fill="#26B2EB"/><path d="M-260 1274.19l-51-30.19 645-367 50 30.073-644 367.117z" fill="#EAF5FA"/><path d="M-355 1359.19l-51-30.19 645-367 50 30.073-644 367.117z" fill="#34D1C5"/><path fill-rule="evenodd" clip-rule="evenodd" d="M3551.5-447.86v186.33L1530.97 889.578l-160.96-95.217L3551.5-447.86zM1372 794.377l158.98 94.045L3550.5-262.111V-446.14L1372 794.377z" fill="#F9FAFB" fill-opacity=".2"/></g><defs><linearGradient id="b" x1="2057.14" y1="1504.97" x2="1915.49" y2="215.237" gradientUnits="userSpaceOnUse"><stop offset=".002" stop-color="#2390CE"/><stop offset="1" stop-color="#5702AB"/></linearGradient><clipPath id="a"><path fill="#fff" d="M0 0h1920v1482H0z"/></clipPath></defs></svg>