<svg width="80" height="80" viewBox="0 0 80 80" fill="none" xmlns="http://www.w3.org/2000/svg"><circle cx="40" cy="40" r="40" fill="#F1ECFF"/><path d="M24 39.5h-3a2 2 0 0 0-2 2V55m0 0l-2.5 3.5M19 55l2.5-3.5m37-12h2m0 0V55m0-15.5h3a2 2 0 0 0 2-2v-11a2 2 0 0 0-2-2H56M60.5 55l2 3.5m-2-3.5l-2-3.5M19 24.5h-3a2 2 0 0 0-2 2v11a2 2 0 0 0 2 2h.5m7.5-15V23a2 2 0 0 1 2-2h28a2 2 0 0 1 2 2v1.5m0 0H31.5m-5 20l-1.998 9.592A2 2 0 0 0 26.46 56.5H54c1.105 0 1.995-.883 1.957-1.987C55.751 48.514 54.544 31 47.5 31H30.637c-.953 0-1.772.673-1.959 1.608L27.5 38.5m7 0h13m-8 6h8m-13 6h13" stroke="#4A27B4" stroke-width="2" stroke-linecap="round"/></svg>