<svg width="80" height="80" viewBox="0 0 80 80" fill="none" xmlns="http://www.w3.org/2000/svg"><circle cx="40" cy="40" r="40" fill="#FFF7E6"/><path d="M30.984 54.099H25a2 2 0 0 1-2-2V27.556m7.984 26.543V34.457m0 19.642V59a2 2 0 0 0 2 2H54a2 2 0 0 0 2-2v-4.37M23 27.556C23 26.494 29.92 18 30.984 18M23 27.556h5.984a2 2 0 0 0 2-2V18m0 0h14.5a2 2 0 0 1 2 2v1.716m-16.5 12.74c0-1.06 6.92-9.024 7.984-9.024m-7.984 9.025h5.984a2 2 0 0 0 2-2v-7.025m0 0H54a2 2 0 0 1 2 2v18.704m-20.226-6.901h14.903m-14.903 5.308h11.71m-11.71 5.309h14.903M35.774 55.16h6.92" stroke="#FFB827" stroke-width="2" stroke-linecap="round"/></svg>