<svg width="80" height="80" viewBox="0 0 80 80" fill="none" xmlns="http://www.w3.org/2000/svg"><circle cx="40" cy="40" r="40" fill="#fff"/><path d="M57.442 37.724l6.753 10.841c.414.904.692 2.702-1.513 2.657-2.204-.046-31.354-.02-45.654 0-.99-.132-2.496-1.187-.594-4.352 1.902-3.164 11.166-18.346 15.56-25.542.559-.904 2.032-2.17 3.458 0 1.426 2.17 7.876 12.779 8.05 12.771.175-.007 3.998-6.442 3.998-6.442.48-.917 2.276-1.98 3.62 0 1.345 1.98 1.897 2.864 2.044 3.146" stroke="#34D1C5" stroke-width="2" stroke-linecap="round"/></svg>