<svg width="80" height="80" viewBox="0 0 80 80" fill="none" xmlns="http://www.w3.org/2000/svg"><circle cx="40" cy="40" r="40" fill="#fff"/><path d="M28.36 19.232H20a2 2 0 0 0-2 2v23.929a2 2 0 0 0 2 2h12.09m21.55-27.929H62a2 2 0 0 1 2 2v23.929a2 2 0 0 1-2 2H45.351m-14.09-27.929h6.216m3.316 0h9.117M28.36 18v4.107m0 0h-1.657m1.657 0h1.658M40.793 18v4.107m0 0h-1.658m1.658 0h1.657M53.64 18v4.107m0 0h-1.658m1.658 0h1.657M36.65 57.017v-7.856a2 2 0 0 1 2-2h6.702M36.65 59.893V64m0 0h-3.73m3.73 0h11.603m-2.9-4.107V47.16M22.972 26.625h14.505M22.972 41.821l5.877-6.147a2 2 0 0 1 3.01.136l2.734 3.432c.936 1.175 2.783.938 3.393-.434l1.921-4.329c.6-1.351 2.42-1.593 3.371-.461m6.63 7.803l-3.48-4.107m-23.456-7.393h7.045" stroke="#34D1C5" stroke-width="2" stroke-linecap="round"/></svg>