<svg width="80" height="80" viewBox="0 0 80 80" fill="none" xmlns="http://www.w3.org/2000/svg"><circle cx="40" cy="40" r="40" fill="#CDF1FD"/><path d="M40.947 26.11c7.7-4.33 15.74-1.728 19.431.448.458.27.757.736.856 1.257l4.313 22.63a2 2 0 0 1-1.963 2.375H44.738c-.43 0-.84.149-1.21.37-2.325 1.385-4.716.729-6.049-.012-.376-.21-.79-.358-1.222-.358H17.425a2 2 0 0 1-1.963-2.38l4.271-22.025a2 2 0 0 1 1.072-1.41l.905-.45m19.237-.445c-.868-.864-3.421-5.92-15.017-4.998-.678.054-1.277.475-1.394 1.145a10.26 10.26 0 0 0-.141 1.627m16.552 2.226c-.298 5.194-.894 17.273-.894 24.04M23.5 29.67l-2.068 12.004c-.267 1.553 1.327 2.886 2.886 2.662 4.343-.623 10.675.106 15.735 5.812m0 0c.447 0 11.631-6.677 22.815-.445m-22.815.445c-.448 0-13.421-4.452-22.369 0" stroke="#26B2EB" stroke-width="2" stroke-linecap="round"/></svg>