<svg width="80" height="80" viewBox="0 0 80 80" fill="none" xmlns="http://www.w3.org/2000/svg"><circle cx="40" cy="40" r="40" fill="#F1ECFF"/><path d="M33.945 42.688V25.96m0 16.728H28.48m5.465 0l7.65 1.35m-7.65-18.078h-7.29a2 2 0 0 0-2 2v1.211c0 .688-.366 1.314-.889 1.76-1.598 1.362-2.95 3.658-.127 5.727.594.435 1.016 1.092 1.016 1.828v2.203a2 2 0 0 0 2 2h1.825m5.465-16.73l4.918-.539m5.465-.54l3.346-.734a2 2 0 0 0 1.572-1.954v-.55c0-4.856 6.557-4.856 6.557 0v23.744c0 4.228-4.97 4.776-6.256 1.642-.369-.898-.998-1.764-1.954-1.933l-5.998-1.058m16.94-14.3L64 28.118m-5.465 5.936H64m-5.465 4.857L64 40.53m-35.52 2.158l2.654 16.772c.052.326.178.639.4.883 1.59 1.745 4.31 2.53 6.738.24.4-.376.557-.935.492-1.48-.312-2.617-.76-5.801-1.121-8.245-.2-1.36 1.044-2.472 2.362-2.861 1.367-.404 2.377-1.498 1.59-3.96" stroke="#4A27B4" stroke-width="2" stroke-linecap="round"/></svg>