<svg width="80" height="80" viewBox="0 0 80 80" fill="none" xmlns="http://www.w3.org/2000/svg"><circle cx="40" cy="40" r="40" fill="#FFF7E6"/><path d="M62.5 28.38l-20.833-7.268a2 2 0 0 0-1.332.005l-19.008 6.788A2 2 0 0 0 20 29.788V50.97a2 2 0 0 0 1.327 1.883L41 59.88m21.5-31.5v10m0-10L41 36.88m0 0v11.5m0-11.5l-16.5-6m16.5 29l12-4m-12 4v-5m16.656-6.5l1.716 2.696a1 1 0 0 0 1.792-.22l1.773-5.32M67 48.38a6.5 6.5 0 1 0-13 0 6.5 6.5 0 0 0 13 0z" stroke="#FFB827" stroke-width="2" stroke-miterlimit="7.661" stroke-linecap="round"/></svg>