<svg width="176" height="31" viewBox="0 0 176 31" fill="none" xmlns="http://www.w3.org/2000/svg"><path fill-rule="evenodd" clip-rule="evenodd" d="M15.635 8.962c3.613 0 6.637 2.939 6.637 6.612 0 3.6-2.95 6.611-6.637 6.611-3.614 0-6.638-2.938-6.638-6.611 0-3.673 3.024-6.612 6.638-6.612z" fill="#20A5FB"/><path fill-rule="evenodd" clip-rule="evenodd" d="M15.634 0c8.629 0 15.561 6.979 15.561 15.5 0 8.595-7.006 15.5-15.56 15.5a15.57 15.57 0 0 1-6.343-1.322l-.295-.147v-6.244l.738.514a10.328 10.328 0 0 0 5.826 1.836c5.678 0 10.25-4.554 10.25-10.21 0-5.657-4.572-10.211-10.25-10.211-5.679 0-10.251 4.554-10.251 10.21V27.18l-.811-.808C1.622 23.434 0 19.54 0 15.427.074 6.979 7.006 0 15.634 0z" fill="#FB8B07"/><path fill-rule="evenodd" clip-rule="evenodd" d="M147.273 11.607c0 1.323.59 2.571 1.402 3.453.811.881 2.065 1.47 3.392 1.47 2.286 0 4.056-1.47 4.572-3.674h-1.401c-.516 1.47-1.77 2.277-3.245 2.277-.958 0-1.77-.367-2.36-1.028-.59-.661-1.032-1.47-1.032-2.498 0-1.028.369-1.836 1.032-2.497.59-.661 1.475-1.029 2.36-1.029 1.401 0 2.655.735 3.171 2.204h1.402c-.59-2.204-2.287-3.6-4.499-3.6-1.327 0-2.507.588-3.392 1.47-.812.808-1.402 2.057-1.402 3.452zm12.611.515l3.54 4.26h1.844l-3.098-3.673c1.697-.294 2.508-1.616 2.508-2.938 0-1.543-1.033-3.085-3.171-3.085h-3.54v9.696h1.401v-8.3h2.139c1.18 0 1.77.807 1.77 1.689 0 .808-.59 1.69-1.77 1.69h-1.623v.66zm7.817-2.572l2.508 3.747h.811l2.507-3.747v6.832h1.402V6.686h-1.107l-3.244 4.701-3.245-4.701h-1.107v9.696h1.402V9.55h.073z" fill="#fff"/><path fill-rule="evenodd" clip-rule="evenodd" d="M39.97 6.61v17.851h2.582v-5.95h3.909c3.835 0 5.826-2.938 5.826-5.95s-1.918-5.95-5.826-5.95h-6.49zm2.656 9.403V9.255h3.909c2.212 0 3.244 1.69 3.244 3.38 0 1.689-1.106 3.378-3.245 3.378h-3.908zm14.897.882h8.112v-2.571h-8.112V9.255h8.26V6.684H54.867v17.85h10.914v-2.57h-8.26v-5.07zm14.823-.22l6.563 7.86h3.32l-5.68-6.685c3.098-.514 4.647-2.939 4.647-5.436 0-2.865-1.918-5.657-5.826-5.657h-6.564v17.851h2.581V9.255h3.983c2.212 0 3.245 1.543 3.245 3.085 0 1.543-1.107 3.086-3.245 3.086h-3.024v1.249zm14.012.22h7.153V14.47h-7.153V9.108h8.112V6.611H83.777v17.85h2.581v-7.566zm12.684 0h8.113v-2.571h-8.112V9.255h8.259V6.684H96.388v17.85h10.914v-2.57h-8.333v-5.07h.074zm10.473-1.249c0 2.498 1.032 4.701 2.581 6.318a8.586 8.586 0 0 0 6.195 2.644c4.203 0 7.448-2.791 8.48-6.832h-2.507c-.959 2.718-3.245 4.261-5.973 4.261-1.697 0-3.245-.735-4.425-1.91-1.106-1.175-1.844-2.718-1.844-4.554 0-1.837.738-3.453 1.844-4.555a6.018 6.018 0 0 1 4.425-1.91c2.654 0 4.867 1.322 5.752 4.04h2.581c-1.032-4.04-4.277-6.61-8.333-6.61a8.586 8.586 0 0 0-6.195 2.644c-1.549 1.69-2.581 3.893-2.581 6.464zm26.106 8.815V9.035h5.384V6.61h-13.422v2.424h5.457V24.46h2.581z" fill="#20A5FB"/></svg>