<svg width="1920" height="1304" viewBox="0 0 1920 1304" fill="none" xmlns="http://www.w3.org/2000/svg"><g clip-path="url(#a)"><path d="M0 0h1920v178L0 1272V0z" fill="url(#b)"/><path d="M1167 607l695-396v59.073l-644 367.115L1167 607z" fill="#EBF5FA"/><path d="M1225 542l695-396v59.073l-644 367.115L1225 542z" fill="#26B2EB"/><path d="M-80 1349.19l-51-30.19 645-367 50 30.073-644 367.117z" fill="#34D1C5"/><path opacity=".25" d="M15 1264.19L-36 1234l645-367 50 30.073L15 1264.19z" fill="#34D1C5"/><path fill-rule="evenodd" clip-rule="evenodd" d="M3114.5-1028.86v186.33L1093.97 308.578l-160.966-95.217L3114.5-1028.86zM934.996 213.377l158.984 94.045L3113.5-843.111v-184.029L934.996 213.377zM388.46 636.421l97.529 58.663-1244.516 709.496-99.469-58.88L388.46 636.421zM-856.004 1345.71l97.486 57.71L484.011 695.061l-95.565-57.482-1244.45 708.131z" fill="#F9FAFB" fill-opacity=".2"/><path opacity=".03" d="M0 .073h287L0 163.678V.073z" fill="#EBF3FB"/></g><defs><linearGradient id="b" x1="120.001" y1="-19" x2="230.874" y2="1049.03" gradientUnits="userSpaceOnUse"><stop offset=".044" stop-color="#5702AB"/><stop offset="1" stop-color="#2390CE"/></linearGradient><clipPath id="a"><path fill="#fff" d="M0 0h1920v1304H0z"/></clipPath></defs></svg>