<svg width="32" height="32" viewBox="0 0 32 32" fill="none" xmlns="http://www.w3.org/2000/svg"><path fill-rule="evenodd" clip-rule="evenodd" d="M32 16c0 8.837-7.163 16-16 16S0 24.837 0 16 7.163 0 16 0s16 7.163 16 16zM8.216 7.25h15.568c.534 0 .966.432.966.966v15.568a.966.966 0 0 1-.966.966h-4.46v-6.777H21.6l.341-2.641h-2.615v-1.686c0-.765.212-1.286 1.309-1.286h1.398V9.996a18.682 18.682 0 0 0-2.038-.104c-2.016 0-3.397 1.23-3.397 3.491v1.948h-2.28v2.641h2.28v6.777H8.216a.966.966 0 0 1-.966-.966V8.216c0-.534.432-.966.966-.966z" fill="#fff"/></svg>