<svg width="32" height="32" viewBox="0 0 32 32" fill="none" xmlns="http://www.w3.org/2000/svg"><path fill-rule="evenodd" clip-rule="evenodd" d="M32 16c0 8.837-7.163 16-16 16S0 24.837 0 16 7.163 0 16 0s16 7.163 16 16zm-8.016-3.296c-.037-.85-.175-1.435-.372-1.941a3.905 3.905 0 0 0-.925-1.419 3.937 3.937 0 0 0-1.416-.922c-.51-.197-1.09-.334-1.94-.372-.857-.04-1.13-.05-3.302-.05s-2.444.01-3.297.047c-.85.037-1.435.175-1.941.372a3.904 3.904 0 0 0-1.42.925 3.94 3.94 0 0 0-.921 1.416c-.197.51-.335 1.09-.372 1.94-.04.857-.05 1.13-.05 3.302s.01 2.444.047 3.297c.037.85.175 1.435.372 1.941.203.538.519 1.019.925 1.42.4.405.884.721 1.416.921.51.197 1.09.335 1.94.372.854.038 1.126.047 3.298.047 2.173 0 2.445-.01 3.298-.047.85-.037 1.434-.175 1.94-.372a4.092 4.092 0 0 0 2.342-2.34c.197-.51.334-1.092.372-1.942.037-.853.047-1.125.047-3.297 0-2.173-.003-2.445-.04-3.298zM11.92 16.002a4.111 4.111 0 0 1 8.22 0 4.111 4.111 0 0 1-8.22 0zm1.444 0A2.667 2.667 0 1 0 18.697 16a2.667 2.667 0 0 0-5.334 0zm7.899-4.273a.96.96 0 1 1-1.92 0 .96.96 0 0 1 1.92 0z" fill="#fff"/></svg>