<svg width="176" height="31" viewBox="0 0 176 31" fill="none" xmlns="http://www.w3.org/2000/svg">
<path fill-rule="evenodd" clip-rule="evenodd" d="M15.6346 8.9624C19.2482 8.9624 22.2718 11.9008 22.2718 15.5738C22.2718 19.1733 19.3219 22.1851 15.6346 22.1851C12.021 22.1851 8.99731 19.2468 8.99731 15.5738C8.99731 11.9008 12.021 8.9624 15.6346 8.9624Z" fill="#20A5FB"/>
<path fill-rule="evenodd" clip-rule="evenodd" d="M15.6344 0C24.2628 0 31.1951 6.97868 31.1951 15.5C31.1951 24.0948 24.1891 31 15.6344 31C13.422 31 11.2833 30.5592 9.29216 29.6777L8.99716 29.5308V23.2867L9.73464 23.8009C11.4308 24.9763 13.4958 25.6374 15.5607 25.6374C21.2392 25.6374 25.8115 21.0829 25.8115 15.4265C25.8115 9.77014 21.2392 5.21564 15.5607 5.21564C9.88214 5.21564 5.3098 9.77014 5.3098 15.4265C5.3098 15.5735 5.3098 15.7204 5.3098 15.8673V27.1801L4.49859 26.372C1.62244 23.4336 0 19.5403 0 15.4265C0.0737473 6.97867 7.00599 0 15.6344 0Z" fill="#FB8B07"/>
<path fill-rule="evenodd" clip-rule="evenodd" d="M147.273 11.6073C147.273 12.9296 147.863 14.1784 148.675 15.0599C149.486 15.9415 150.74 16.5291 152.067 16.5291C154.353 16.5291 156.123 15.0599 156.639 12.8562H155.238C154.722 14.3253 153.468 15.1334 151.993 15.1334C151.035 15.1334 150.223 14.7661 149.633 14.105C149.043 13.4438 148.601 12.6358 148.601 11.6073C148.601 10.5789 148.97 9.77086 149.633 9.10972C150.223 8.44858 151.108 8.08128 151.993 8.08128C153.394 8.08128 154.648 8.81587 155.164 10.2851H156.566C155.976 8.08128 154.279 6.68555 152.067 6.68555C150.74 6.68555 149.56 7.27322 148.675 8.15474C147.863 8.9628 147.273 10.2116 147.273 11.6073ZM159.884 12.1216L163.424 16.3822H165.268L162.17 12.7092C163.867 12.4154 164.678 11.0931 164.678 9.77085C164.678 8.2282 163.645 6.68555 161.507 6.68555H157.967V16.3822H159.368V8.08128H161.507C162.687 8.08128 163.277 8.88934 163.277 9.77085C163.277 10.5789 162.687 11.4604 161.507 11.4604H159.884V12.1216ZM167.701 9.55047L170.209 13.2969H171.02L173.527 9.55047V16.3822H174.929V6.68555H173.822L170.578 11.387L167.333 6.68555H166.226V16.3822H167.628V9.55047H167.701Z" fill="white"/>
<path fill-rule="evenodd" clip-rule="evenodd" d="M39.9709 6.61056V24.4613H42.5521V18.511H46.4607C50.2956 18.511 52.2867 15.5727 52.2867 12.5608C52.2867 9.54896 50.3693 6.61056 46.4607 6.61056H39.9709ZM42.6259 16.0134V9.25512H46.5345C48.7469 9.25512 49.7793 10.9447 49.7793 12.6343C49.7793 14.3238 48.6731 16.0134 46.5345 16.0134H42.6259ZM57.5228 16.8949H65.635V14.3238H57.5228V9.25512H65.7825V6.68403H54.8679V24.5347H65.7825V21.9636H57.5228V16.8949ZM72.346 16.6746L78.9095 24.5347H82.2281L76.5496 17.8499C79.647 17.3357 81.1957 14.9115 81.1957 12.4139C81.1957 9.54896 79.2783 6.75749 75.3697 6.75749H68.8061V24.6082H71.3873V9.25512H75.3697C77.5821 9.25512 78.6145 10.7978 78.6145 12.3404C78.6145 13.8831 77.5083 15.4257 75.3697 15.4257H72.346V16.6746ZM86.358 16.8949H93.5115V14.4708H86.358V9.1082H94.4702V6.61056H83.7768V24.4613H86.358V16.8949ZM99.0425 16.8949H107.155V14.3238H99.0425V9.25512H107.302V6.68403H96.3876V24.5347H107.302V21.9636H98.9688V16.8949H99.0425ZM109.515 15.6461C109.515 18.1437 110.547 20.3475 112.096 21.9636C113.644 23.5798 115.857 24.6082 118.291 24.6082C122.494 24.6082 125.739 21.8167 126.771 17.7764H124.264C123.305 20.4945 121.019 22.0371 118.291 22.0371C116.594 22.0371 115.046 21.3025 113.866 20.1272C112.76 18.9518 112.022 17.4091 112.022 15.5727C112.022 13.7362 112.76 12.12 113.866 11.0181C114.972 9.84279 116.521 9.1082 118.291 9.1082C120.945 9.1082 123.158 10.4305 124.043 13.1485H126.624C125.592 9.1082 122.347 6.53711 118.291 6.53711C115.857 6.53711 113.644 7.56554 112.096 9.18165C110.547 10.8712 109.515 13.075 109.515 15.6461ZM135.621 24.4613V9.03474H141.005V6.61056H127.583V9.03474H133.04V24.4613H135.621Z" fill="#20A5FB"/>
</svg>
