<svg width="50" height="50" viewBox="0 0 50 50" fill="none" xmlns="http://www.w3.org/2000/svg">
<circle opacity="0.2" cx="25" cy="25" r="25" fill="#3C91EF"/>
<g clip-path="url(#clip0)">
<path d="M37.0001 24.0625C37.0001 26.1929 36.342 28.2615 35.0969 30.0444C34.8004 30.469 34.2161 30.5728 33.7915 30.2764C33.3669 29.9799 33.2631 29.3954 33.5595 28.971C34.5838 27.5043 35.1251 25.8069 35.1251 24.0625C35.1251 18.9965 30.5829 14.875 25.0001 14.875C19.4172 14.875 14.8751 18.9965 14.8751 24.0625C14.8751 26.1147 15.6053 28.0562 16.9866 29.6769C17.2133 29.9426 17.2732 30.3124 17.1423 30.6364L15.6721 34.2734L19.9539 32.3857C20.1912 32.2812 20.4612 32.2795 20.6998 32.3813C22.0508 32.9578 23.4975 33.25 25.0001 33.25C26.7295 33.25 28.436 32.8475 29.9353 32.086C30.3971 31.8516 30.9612 32.0356 31.1958 32.4973C31.4302 32.959 31.246 33.5232 30.7844 33.7578C29.0233 34.6522 27.023 35.125 25.0001 35.125C23.3838 35.125 21.8204 34.8348 20.3466 34.2618L14.3159 36.9203C14.1943 36.974 14.0655 37 13.9377 37C13.6988 37 13.4637 36.9086 13.285 36.7356C13.011 36.4699 12.9254 36.0649 13.0684 35.7111L15.1971 30.4456C13.7577 28.5744 13.0001 26.3793 13.0001 24.0625C13.0001 21.0918 14.2589 18.3036 16.5448 16.2115C18.8074 14.1406 21.8104 13 25.0001 13C28.1899 13 31.1927 14.1406 33.4555 16.2115C35.7412 18.3036 37.0001 21.0918 37.0001 24.0625ZM29.9419 19.0738C31.0385 20.1704 31.0385 21.9546 29.9419 23.0512L24.8058 28.1778C24.6913 28.2921 24.5494 28.3746 24.3936 28.4177L20.6097 29.4659C20.5272 29.4888 20.4429 29.5 20.3594 29.5C20.1102 29.5 19.8672 29.4006 19.6884 29.2171C19.4496 28.9725 19.3632 28.6171 19.4624 28.29L20.5834 24.5997C20.6282 24.4521 20.709 24.3177 20.8183 24.2086L25.9652 19.0731C27.0611 17.9772 28.8455 17.9772 29.9419 19.0738ZM27.108 23.2307L25.7819 21.9046L22.3091 25.3699L21.752 27.2039L23.6555 26.6765L27.108 23.2307ZM28.616 20.3997C28.2505 20.034 27.6558 20.034 27.2903 20.3997L27.1093 20.5802L28.4351 21.9061L28.6168 21.7248C28.9817 21.3599 28.9817 20.7651 28.616 20.3997Z" fill="#3C91EF"/>
</g>
<defs>
<clipPath id="clip0">
<rect width="24" height="24" fill="white" transform="translate(13 13)"/>
</clipPath>
</defs>
</svg>
