<svg width="80" height="80" viewBox="0 0 80 80" fill="none" xmlns="http://www.w3.org/2000/svg">
<circle cx="40" cy="40" r="40" fill="#FFF7E6"/>
<path d="M30.9839 54.0988H25C23.8954 54.0988 23 53.2033 23 52.0988V27.5556M30.9839 54.0988V34.4568M30.9839 54.0988V59C30.9839 60.1046 31.8793 61 32.9839 61H54C55.1046 61 56 60.1046 56 59V54.6296M23 27.5556C23 26.4938 29.9194 18 30.9839 18M23 27.5556H28.9839C30.0884 27.5556 30.9839 26.6601 30.9839 25.5556V18M30.9839 18H45.4839C46.5884 18 47.4839 18.8954 47.4839 20V21.716M30.9839 34.4568C30.9839 33.3951 37.9032 25.4321 38.9677 25.4321M30.9839 34.4568H36.9677C38.0723 34.4568 38.9677 33.5614 38.9677 32.4568V25.4321M38.9677 25.4321H54C55.1046 25.4321 56 26.3275 56 27.4321V46.1358M35.7742 39.2346H50.6774M35.7742 44.5432H47.4839M35.7742 49.8519H50.6774M35.7742 55.1605H42.6935" stroke="#FFB827" stroke-width="2" stroke-linecap="round"/>
</svg>
