<svg width="80" height="80" viewBox="0 0 80 80" fill="none" xmlns="http://www.w3.org/2000/svg">
<circle cx="40" cy="40" r="40" fill="white"/>
<path d="M57.4419 37.7243L64.1952 48.5652C64.6094 49.4695 64.8865 51.2668 62.6822 51.2215C60.4778 51.1763 31.3277 51.2027 17.0282 51.2215C16.0376 51.0897 14.532 50.0348 16.4338 46.8703C18.3356 43.7058 27.5999 28.5236 31.9942 21.3281C32.5525 20.4239 34.0257 19.158 35.4521 21.3281C36.8784 23.4981 43.328 34.1067 43.5023 34.0991C43.6766 34.0915 47.5004 27.6572 47.5004 27.6572C47.9804 26.7404 49.7755 25.6776 51.1203 27.6572C52.4651 29.6369 53.0165 30.5212 53.1636 30.8031" stroke="#34D1C5" stroke-width="2" stroke-linecap="round"/>
</svg>
