<svg width="136" height="136" viewBox="0 0 136 136" fill="none" xmlns="http://www.w3.org/2000/svg"><circle cx="68" cy="58" r="48" fill="#3F7FDF" filter="url(#a)"/><g clip-path="url(#b)"><path d="M68.291 41h2.378v3.18c4.253.024 8.503-.044 12.753.024.906-.092 1.618.612 1.534 1.519.068 7.831-.016 15.666.04 23.498-.04.803.08 1.693-.386 2.405-.58.413-1.332.362-2.007.393-3.98-.02-7.955-.011-11.934-.011v3.18h-2.485c-6.05-1.105-12.117-2.119-18.179-3.18-.004-9.275 0-18.55 0-27.82 6.094-1.065 12.192-2.103 18.287-3.188z" fill="#fff"/><path d="M70.669 45.373h13.119v25.442h-13.12v-3.18h10.337v-1.59H70.669v-1.988h10.336v-1.59H70.669v-1.988h10.336v-1.59H70.669v-1.988h10.336v-1.59H70.669v-1.987h10.336v-1.59H70.669v-1.988h10.336v-1.59H70.669v-2.783zm-12.45 7.024c.754-.043 1.51-.075 2.265-.115.529 2.684 1.07 5.363 1.642 8.034.45-2.759.946-5.51 1.427-8.264a93.96 93.96 0 0 0 2.381-.12c-.898 3.852-1.685 7.736-2.667 11.564-.665.346-1.658-.016-2.446.04-.528-2.631-1.144-5.247-1.618-7.89-.465 2.567-1.069 5.112-1.602 7.664-.763-.04-1.53-.087-2.298-.14-.66-3.498-1.434-6.972-2.05-10.478.68-.032 1.363-.06 2.043-.084.41 2.532.874 5.053 1.232 7.589.561-2.6 1.134-5.2 1.69-7.8z" fill="#3F7FDF"/></g><defs><filter id="a" x="0" y="0" width="136" height="136" filterUnits="userSpaceOnUse" color-interpolation-filters="sRGB"><feFlood flood-opacity="0" result="BackgroundImageFix"/><feColorMatrix in="SourceAlpha" values="0 0 0 0 0 0 0 0 0 0 0 0 0 0 0 0 0 0 127 0"/><feOffset dy="10"/><feGaussianBlur stdDeviation="10"/><feColorMatrix values="0 0 0 0 0.247059 0 0 0 0 0.498039 0 0 0 0 0.87451 0 0 0 0.2 0"/><feBlend in2="BackgroundImageFix" result="effect1_dropShadow"/><feBlend in="SourceGraphic" in2="effect1_dropShadow" result="shape"/></filter><clipPath id="b"><path fill="#fff" transform="translate(50 41)" d="M0 0h35v34H0z"/></clipPath></defs></svg>