<svg width="136" height="136" viewBox="0 0 136 136" fill="none" xmlns="http://www.w3.org/2000/svg"><circle cx="68" cy="58" r="48" fill="#D91920" filter="url(#a)"/><g clip-path="url(#b)" fill="#fff"><path fill-rule="evenodd" clip-rule="evenodd" d="M43 50.873v3.123h3.565v16.376h3.122v-19.5H43zm11.56 19.499h-3.247V49.25h-4.748v-3.248h7.995v24.37zm16.255-8.277c-.233 0-1.46-.008-1.688-.027-.383-.033-.94-.09-1.298-.172-.404-.109-.783-.251-.954-.345a3.836 3.836 0 0 1-2.016-3.376 3.844 3.844 0 1 1 7.685-.124h3.1a6.94 6.94 0 0 0-6.939-6.821 6.947 6.947 0 0 0-6.948 6.945 6.93 6.93 0 0 0 3.81 6.187c.347.202 1 .416 1.187.465.637.167 1.494.282 2.189.332.258.021 1.514.031 1.78.033v.005h22.272v-3.102h-22.18zm-1.872 5.045c-.966-.063-2.08-.233-2.96-.488a14.742 14.742 0 0 1-1.019-.377c-3.059-1.417-5.19-4.512-5.19-8.1 0-4.923 4.005-8.932 8.931-8.932 4.882 0 8.86 3.941 8.927 8.807h3.226c-.067-6.644-5.491-12.03-12.153-12.03-6.703 0-12.157 5.453-12.157 12.155 0 4.621 2.598 8.64 6.405 10.693.686.365 1.673.739 2.008.84 1.084.324 2.415.538 3.6.629.403.03 1.807.045 2.217.048h22.219V67.17H70.815c-.295 0-1.583-.011-1.872-.03z"/><path d="M87.257 50.127c-.966 0-1.799-.76-1.799-1.795 0-.983.833-1.763 1.8-1.763.965 0 1.793.78 1.793 1.763a1.783 1.783 0 0 1-1.794 1.795zm0-3.898c-1.17 0-2.14.932-2.14 2.103 0 1.17.97 2.14 2.14 2.14a2.13 2.13 0 0 0 2.138-2.14c0-1.171-.932-2.103-2.138-2.103z"/><path d="M87.358 48.214H86.9v-.663h.393c.272 0 .457.085.457.34 0 .135-.066.323-.39.323zm.714.694c0-.236-.035-.455-.305-.541.338-.119.372-.34.372-.475 0-.543-.493-.612-.696-.612h-.933v2.104h.39v-.864h.306c.44 0 .477.202.477.388 0 .36 0 .426.084.476h.39c-.085-.085-.052-.153-.085-.476z"/></g><defs><filter id="a" x="0" y="0" width="136" height="136" filterUnits="userSpaceOnUse" color-interpolation-filters="sRGB"><feFlood flood-opacity="0" result="BackgroundImageFix"/><feColorMatrix in="SourceAlpha" values="0 0 0 0 0 0 0 0 0 0 0 0 0 0 0 0 0 0 127 0"/><feOffset dy="10"/><feGaussianBlur stdDeviation="10"/><feColorMatrix values="0 0 0 0 0.85098 0 0 0 0 0.0980392 0 0 0 0 0.12549 0 0 0 0.2 0"/><feBlend in2="BackgroundImageFix" result="effect1_dropShadow"/><feBlend in="SourceGraphic" in2="effect1_dropShadow" result="shape"/></filter><clipPath id="b"><path fill="#fff" transform="translate(43 46)" d="M0 0h50v24.385H0z"/></clipPath></defs></svg>