<svg width="136" height="136" viewBox="0 0 136 136" fill="none" xmlns="http://www.w3.org/2000/svg"><circle cx="68" cy="58" r="48" fill="#3DAE70" filter="url(#a)"/><g clip-path="url(#b)"><path d="M68.305 41h2.361v3.18c3.98 0 7.959.008 11.938-.012.672.028 1.412-.02 1.996.382.409.588.362 1.336.39 2.011-.02 6.902-.012 13.799-.008 20.696-.02 1.157.107 2.337-.135 3.479-.16.826-1.153.846-1.817.874-4.119.012-8.241-.008-12.364 0v3.578h-2.468c-6.059-1.101-12.13-2.119-18.196-3.18V44.184c6.103-1.061 12.205-2.106 18.303-3.184z" fill="#fff"/><path d="M70.666 45.373h13.119v25.045H70.667v-2.386h3.18V65.25h-3.18v-1.59h3.18v-2.783h-3.18v-1.59h3.18v-2.783h-3.18v-1.59h3.18V52.13h-3.18v-1.59h3.18v-2.783h-3.18v-2.385z" fill="#3DAE70"/><path d="M75.436 47.759h5.566v2.782h-5.566V47.76z" fill="#fff"/><path d="M61.778 51.483c.898-.063 1.8-.12 2.703-.163a829.341 829.341 0 0 1-3.208 6.516c1.093 2.226 2.21 4.436 3.307 6.662-.957-.055-1.914-.116-2.87-.183-.676-1.657-1.499-3.26-1.984-4.992-.54 1.614-1.312 3.136-1.931 4.718a95.267 95.267 0 0 1-2.612-.083c1.021-2 2.007-4.015 3.06-6.003-.894-2.047-1.876-4.055-2.798-6.09.874-.052 1.749-.104 2.623-.151.593 1.554 1.24 3.088 1.73 4.683.524-1.69 1.308-3.28 1.98-4.914z" fill="#3DAE70"/><path d="M75.436 52.13h5.566v2.784h-5.566V52.13zm0 4.374h5.566v2.782h-5.566v-2.782zm0 4.373h5.566v2.782h-5.566v-2.782zm0 4.373h5.566v2.782h-5.566V65.25z" fill="#fff"/></g><defs><filter id="a" x="0" y="0" width="136" height="136" filterUnits="userSpaceOnUse" color-interpolation-filters="sRGB"><feFlood flood-opacity="0" result="BackgroundImageFix"/><feColorMatrix in="SourceAlpha" values="0 0 0 0 0 0 0 0 0 0 0 0 0 0 0 0 0 0 127 0"/><feOffset dy="10"/><feGaussianBlur stdDeviation="10"/><feColorMatrix values="0 0 0 0 0.239216 0 0 0 0 0.682353 0 0 0 0 0.439216 0 0 0 0.2 0"/><feBlend in2="BackgroundImageFix" result="effect1_dropShadow"/><feBlend in="SourceGraphic" in2="effect1_dropShadow" result="shape"/></filter><clipPath id="b"><path fill="#fff" transform="translate(50 41)" d="M0 0h35v34H0z"/></clipPath></defs></svg>