<svg width="136" height="136" viewBox="0 0 136 136" fill="none" xmlns="http://www.w3.org/2000/svg"><circle cx="68" cy="58" r="48" fill="#FFC653" filter="url(#a)"/><path d="M77.642 40h-3.108c-.276 0-.447.135-.487.331-.04.197-4.661 14.288-4.997 15.461-.238.832-1.014 3.766-1.2 4.47l-1.608-4.388c-.39-1.207-4.134-11.665-4.244-12.082-.06-.23-.166-.516-.568-.516h-3.034c-.297 0-.465.326-.37.528.077.161 5.558 14.742 7.773 20.313v12.247c0 .224.089.357.312.357h2.873c.179 0 .313-.133.313-.357V64.213c1.845-5.155 8.587-23.492 8.66-23.698.09-.251.063-.515-.315-.515z" fill="#fff"/><defs><filter id="a" x="0" y="0" width="136" height="136" filterUnits="userSpaceOnUse" color-interpolation-filters="sRGB"><feFlood flood-opacity="0" result="BackgroundImageFix"/><feColorMatrix in="SourceAlpha" values="0 0 0 0 0 0 0 0 0 0 0 0 0 0 0 0 0 0 127 0"/><feOffset dy="10"/><feGaussianBlur stdDeviation="10"/><feColorMatrix values="0 0 0 0 1 0 0 0 0 0.776471 0 0 0 0 0.32549 0 0 0 0.2 0"/><feBlend in2="BackgroundImageFix" result="effect1_dropShadow"/><feBlend in="SourceGraphic" in2="effect1_dropShadow" result="shape"/></filter></defs></svg>