<svg width="18" height="18" viewBox="0 0 18 18" fill="none" xmlns="http://www.w3.org/2000/svg"><g clip-path="url(#a)" fill="#474CD0"><path d="M14.898 1.228L12.768 0l-2.131 1.228L8.507 0 6.375 1.228 4.778.308v14.465h9.51v2.123a1.105 1.105 0 0 0 2.208 0V.307l-1.598.92zM6.076 9.635V8.57h4.561v1.066H6.076zm9.122-2.327H6.076V6.242h9.122v1.066zm0-2.328H6.076V3.914h9.122V4.98z"/><path d="M13.222 16.896V15.84H1.504v1.056c0 .61.495 1.104 1.104 1.104h10.916a2.156 2.156 0 0 1-.302-1.104z"/></g><defs><clipPath id="a"><path fill="#fff" d="M0 0h18v18H0z"/></clipPath></defs></svg>