<svg width="15" height="20" viewBox="0 0 15 20" fill="none" xmlns="http://www.w3.org/2000/svg"><path d="M8.75 5.313V0H.937A.935.935 0 0 0 0 .938v18.125c0 .519.418.937.938.937h13.124c.52 0 .938-.418.938-.938V6.25H9.687a.94.94 0 0 1-.937-.938zm2.5 9.218a.47.47 0 0 1-.469.469H4.22a.47.47 0 0 1-.469-.469v-.312a.47.47 0 0 1 .469-.469h6.562a.47.47 0 0 1 .469.469v.312zm0-2.5a.47.47 0 0 1-.469.469H4.22a.47.47 0 0 1-.469-.469v-.312a.47.47 0 0 1 .469-.469h6.562a.47.47 0 0 1 .469.469v.312zm0-2.812v.312a.47.47 0 0 1-.469.469H4.22a.47.47 0 0 1-.469-.469V9.22a.47.47 0 0 1 .469-.469h6.562a.47.47 0 0 1 .469.469zM15 4.762V5h-5V0h.238c.25 0 .489.098.664.273l3.825 3.829a.935.935 0 0 1 .273.66z" fill="#40CAC1"/></svg>