<svg width="18" height="18" viewBox="0 0 18 18" fill="none" xmlns="http://www.w3.org/2000/svg"><path d="M14.854 3.48v-.843A2.64 2.64 0 0 0 12.216 0H5.748a2.64 2.64 0 0 0-2.637 2.637v.843h11.742zM4.166 11.215v5.73c0 .583.472 1.055 1.055 1.055h7.523c.583 0 1.055-.472 1.055-1.055v-5.731H4.166zm6.223 4.5H7.576a.527.527 0 0 1 0-1.055h2.813a.527.527 0 0 1 0 1.055zm0-2.25H7.576a.527.527 0 0 1 0-1.055h2.813a.527.527 0 0 1 0 1.055z" fill="#8247FF"/><path d="M15.346 4.535H2.654A2.64 2.64 0 0 0 .018 7.172v4.219a2.64 2.64 0 0 0 2.636 2.636h.457v-2.812h-.316a.527.527 0 0 1 0-1.055H15.17a.527.527 0 1 1 0 1.055h-.316v2.812h.492a2.64 2.64 0 0 0 2.636-2.636V7.17a2.64 2.64 0 0 0-2.636-2.636zM4.482 7.84H2.795a.527.527 0 0 1 0-1.055h1.687a.527.527 0 0 1 0 1.055z" fill="#8247FF"/></svg>