<svg width="18" height="18" viewBox="0 0 18 18" fill="none" xmlns="http://www.w3.org/2000/svg"><path d="M15.946 8.343a6.889 6.889 0 0 0-.433-1.917l1.622-1.299-2.636-3.291-1.613 1.29a6.885 6.885 0 0 0-1.797-.863V.213H6.872v2.063a6.878 6.878 0 0 0-1.87.933l-1.63-1.267-2.588 3.33L2.442 6.56a6.9 6.9 0 0 0-.394 1.915L0 8.965l.981 4.101 1.441-.345 2.194-2.193c-1.12-3.04 1.132-6.29 4.387-6.29a4.674 4.674 0 0 1 4.674 4.674c0 3.188-3.128 5.44-6.145 4.438l-3.125 3.124 2.781 1.311.925-1.962a6.978 6.978 0 0 0 1.903-.016l.947 1.936 3.789-1.853-.946-1.931c.469-.446.87-.95 1.198-1.506l2.075.464L18 8.802l-2.054-.46z" fill="#47C8FF"/><path d="M11.999 7.701l-.296-.744-1.78 1.78-.8-.8 1.78-1.78-.744-.296C7.245 4.702 4.552 7.889 6.08 10.555L.784 15.85l1.378 1.378 5.346-5.345c2.689 1.304 5.6-1.396 4.49-4.183z" fill="#47C8FF"/></svg>