<svg width="18" height="18" viewBox="0 0 18 18" fill="none" xmlns="http://www.w3.org/2000/svg"><path d="M14.063 0a3.942 3.942 0 0 0-3.938 3.938c0 2.02 3.159 5.599 3.519 6a.565.565 0 0 0 .837 0c.36-.401 3.519-3.98 3.519-6A3.942 3.942 0 0 0 14.062 0zm0 5.625a1.688 1.688 0 1 1 0-3.376 1.688 1.688 0 0 1 0 3.376zm-13.71.983A.564.564 0 0 0 0 7.131v10.306a.564.564 0 0 0 .772.522l4.853-1.941V4.5L.353 6.608z" fill="#FB9536"/><path d="M15.318 10.69c-.32.355-.777.56-1.255.56-.479 0-.937-.205-1.256-.56a23.95 23.95 0 0 1-.432-.494V18l5.272-2.108A.561.561 0 0 0 18 15.37V7.1c-.921 1.56-2.153 3-2.682 3.59zM9.354 5.542L6.75 4.5v11.518l4.5 1.8V8.784c-.719-.969-1.47-2.135-1.896-3.242z" fill="#FB9536"/></svg>