<svg width="18" height="18" viewBox="0 0 18 18" fill="none" xmlns="http://www.w3.org/2000/svg"><g clip-path="url(#a)" fill="#7ED321"><path d="M16.736 5.661h-.493v5.419c0 .843-.491 1.606-1.476 1.606H5.119v.258c0 .746.848 1.499 1.72 1.499h7.376l2.822 1.659-.41-1.66h.109c.87 0 1.264-.75 1.264-1.498V6.947c0-.745-.393-1.286-1.264-1.286z"/><path d="M13.327 1.896H2.12c-.985 0-2.12.876-2.12 1.72v6.792c0 .778.961 1.34 1.883 1.426l-.6 2.278L5.13 11.85h8.198c.986 0 1.896-.598 1.896-1.442V3.617c0-.845-.91-1.72-1.896-1.72zM3.83 7.63a1.012 1.012 0 1 1 0-2.025 1.012 1.012 0 0 1 0 2.025zm3.781 0a1.012 1.012 0 1 1 0-2.025 1.012 1.012 0 0 1 0 2.025zm3.782 0a1.013 1.013 0 1 1 0-2.026 1.013 1.013 0 0 1 0 2.026z"/></g><defs><clipPath id="a"><path fill="#fff" d="M0 0h17.999v18H0z"/></clipPath></defs></svg>