<svg width="24" height="24" viewBox="0 0 24 24" fill="none" xmlns="http://www.w3.org/2000/svg"><circle cx="12" cy="12" r="12" fill="#FFD147"/><path d="M13.94 5h-1.99C9.935 5 7.901 6.488 7.901 9.813c0 1.722.73 3.063 2.068 3.826L7.52 18.07a.636.636 0 0 0-.008.635.605.605 0 0 0 .53.294h1.239c.281 0 .5-.136.606-.374l2.296-4.491h.167v4.305c0 .304.256.56.56.56h1.082c.34 0 .577-.237.577-.577V5.613c0-.361-.26-.613-.63-.613zm-1.59 7.14h-.295c-1.146 0-1.83-.935-1.83-2.502 0-1.949.864-2.643 1.673-2.643h.452v5.145z" fill="#fff"/></svg>