<svg width="24" height="24" viewBox="0 0 24 24" fill="none" xmlns="http://www.w3.org/2000/svg"><circle cx="12" cy="12" r="12" fill="#F8E71C"/><g clip-path="url(#a)"><path d="M8.018 6.142c-.397.182-.75.557-.9.953C7.043 7.3 7 9.205 7 12.698v5.292h2.464v-3.32h3.278l.857 1.66.846 1.66h1.425c.772 0 1.414-.032 1.414-.064 0-.043-.439-.921-.985-1.95l-.975-1.885.257-.161c1.446-.953 2.09-2.828 1.703-4.97-.246-1.308-.878-2.23-1.853-2.658-.546-.246-.643-.257-3.824-.278-2.572-.022-3.332 0-3.59.118zm6.213 2.42c.172.065.343.258.44.504.203.482.224 1.714.042 2.079-.46.889-1.028 1.06-3.45 1.06H9.465v-3.75h2.239c1.232 0 2.367.044 2.528.108z" fill="#fff"/></g><defs><clipPath id="a"><path fill="#fff" transform="translate(7 6)" d="M0 0h10.4v12H0z"/></clipPath></defs></svg>