<svg width="50" height="50" viewBox="0 0 50 50" fill="none" xmlns="http://www.w3.org/2000/svg"><circle cx="25" cy="25" r="25" fill="#DAEBFF"/><path d="M16.111 20.283h1.056a2 2 0 0 1 2 2v9.052a2 2 0 0 1-2 2h-1.278a2 2 0 0 1-2-2V20.433c0-.1.007-.2.023-.298.865-5.48 3.928-9.576 10.81-10.127 6.945-.277 11.667 6.387 11.667 10.553v11.055a1.997 1.997 0 0 1-2 1.997h-.639m.417-13.052H33.11a2 2 0 0 0-2 2v9.052a2 2 0 0 0 2 2h.639M11.944 21.95c-1.073 0-1.944.87-1.944 1.944v5.83c0 1.074.87 1.945 1.944 1.945m26.112-9.72c1.073 0 1.944.871 1.944 1.945v5.83c0 1.074-.87 1.945-1.944 1.945m-4.306 1.944v1.61a2 2 0 0 1-2 2h-3.139m0 0v-.5a2 2 0 0 0-2-2h-2.944a2 2 0 0 0-2 2v.5m6.944 0V38a2 2 0 0 1-2 2h-4.944" stroke="#3C91EF" stroke-width="2" stroke-linecap="round"/></svg>