<svg width="50" height="50" viewBox="0 0 50 50" fill="none" xmlns="http://www.w3.org/2000/svg"><circle cx="25" cy="25" r="25" fill="#DFF9F8"/><path d="M11.063 15.4l.004-.75h-.004v.75zm3.434 7.044l.012-.75h-.012v.75zm6.801 7.307l-.75-.03.75.03zm-3.372 0l.01-.75h-.01v.75zm3.372 8.543h.75v-.001l-.75.001zm9.711-18.506a.75.75 0 0 0 0-1.5v1.5zm-1.537-5.035l.002-.75-.002.75zm5.786-.008l.008.75-.008-.75zm0 3.543a.75.75 0 1 0 0 1.5v-1.5zm-1.71 9.065a.75.75 0 0 0 0-1.5v1.5zm-3.85-5.036v-.75.75zm7.883-.007l.002-.75h-.008l.006.75zm0 3.543a.75.75 0 0 0 0 1.5v-1.5zm-6.29 9.307a.75.75 0 1 0 0-1.5v1.5zm7.443-5.036v-.75h-.005l.005.75zm1.051 4.286l.043.748-.043-.748zm-4.17-.75a.75.75 0 0 0 0 1.5v-1.5zM20.548 15.305a.745.745 0 0 1 .434-.677c.067-.03.12-.04.126-.042.023-.005.029-.004-.002-.001a5.42 5.42 0 0 1-.282.018c-.268.012-.66.022-1.138.03-.953.016-2.228.023-3.507.026a734.289 734.289 0 0 1-4.997-.008h-.115l-.004.75-.004.75h.117l.325.002a748.998 748.998 0 0 0 4.682.006c1.28-.003 2.564-.01 3.53-.026.48-.008.89-.019 1.18-.032.144-.006.271-.014.368-.024a1.55 1.55 0 0 0 .17-.026.77.77 0 0 0 .373-.189.754.754 0 0 0 .245-.557h-1.5zm-9.485-.654c-.91 0-1.66.31-2.182.841a2.623 2.623 0 0 0-.746 1.901c.016.684.293 1.372.836 1.886.549.52 1.325.823 2.266.823v-1.5c-.611 0-1-.19-1.234-.412a1.174 1.174 0 0 1-.368-.83 1.12 1.12 0 0 1 .316-.816c.207-.21.555-.393 1.112-.393v-1.5zm.174 5.451c1.374 0 3.895-.018 6.062-.027 1.087-.005 2.084-.007 2.81-.004.363.002.653.005.85.01.101.002.169.005.207.008.023.001.02.002.002-.001a.732.732 0 0 1-.273-.104.748.748 0 0 1-.347-.631h1.5a.752.752 0 0 0-.533-.72c-.06-.019-.112-.027-.13-.03a1.552 1.552 0 0 0-.12-.011 7.251 7.251 0 0 0-.268-.01 48.271 48.271 0 0 0-.881-.01c-.733-.004-1.737-.002-2.823.003-2.177.009-4.686.027-6.056.027v1.5zm9.311-.75v3.092h1.5v-3.091h-1.5zm0 3.092a.746.746 0 0 1 .421-.671.683.683 0 0 1 .143-.051c.033-.008.051-.008.034-.007a2.37 2.37 0 0 1-.17.01c-.173.007-.43.011-.746.014-.632.005-1.477.002-2.326-.005a467.496 467.496 0 0 1-3.319-.039h-.057l-.014-.001h-.005l-.012.75-.011.75h.019l.057.001.216.003a568.613 568.613 0 0 0 3.114.036c.85.007 1.706.01 2.35.005.32-.003.595-.007.793-.015a4.42 4.42 0 0 0 .263-.016c.032-.004.088-.01.147-.023a.763.763 0 0 0 .377-.203.753.753 0 0 0 .226-.538h-1.5zm-6.05-.75c-2.068 0-3.34 1.306-3.34 2.83 0 1.523 1.272 2.83 3.34 2.83v-1.5c-1.387 0-1.84-.775-1.84-1.33 0-.556.453-1.33 1.84-1.33v-1.5zm0 5.66c1.396 0 3.102-.017 4.45-.026.676-.004 1.26-.006 1.674-.003a15.837 15.837 0 0 1 .552.013h-.003l-.01-.002a.546.546 0 0 1-.047-.009.743.743 0 0 1-.566-.724h1.5a.753.753 0 0 0-.588-.735.992.992 0 0 0-.13-.022 2.827 2.827 0 0 0-.18-.011 17.763 17.763 0 0 0-.517-.01c-.425-.003-1.019 0-1.694.003-1.357.009-3.05.025-4.442.025v1.5zm6.05-.75v3.117l1.5.06c.002-.063 0-3.132 0-3.178h-1.5zm0 3.117a.748.748 0 0 1 .482-.67.62.62 0 0 1 .125-.034c.03-.006.05-.007.044-.007l-.07.003c-.082.003-.207.005-.363.006-.311.002-.73 0-1.15-.002l-1.156-.01-.38-.004-.107-.002h-.037l-.01.75-.01.75h.039c.024 0 .06 0 .107.002l.383.004 1.162.01c.422.002.847.004 1.168.002.16-.001.3-.003.401-.006.05-.002.1-.004.145-.008a.792.792 0 0 0 .431-.157.751.751 0 0 0 .296-.568l-1.5-.059zm-2.622-.72c-.91 0-1.652.338-2.16.893a2.865 2.865 0 0 0-.734 1.936c0 .686.235 1.394.733 1.937.51.555 1.25.893 2.16.893v-1.5c-.518 0-.848-.182-1.054-.406a1.366 1.366 0 0 1-.339-.924c0-.353.122-.686.34-.923.205-.224.535-.406 1.054-.406V29zm0 5.66c1.134 0 1.989-.025 2.548-.037.286-.006.476-.009.592-.005.065.002.068.005.042 0a.593.593 0 0 1-.179-.065.733.733 0 0 1-.38-.695l1.497.102c.031-.454-.309-.675-.403-.726a.88.88 0 0 0-.256-.09 1.823 1.823 0 0 0-.273-.025 14.31 14.31 0 0 0-.672.004c-.567.012-1.402.036-2.516.036v1.5zm2.624-.802c-.004.058-.004.389-.005.776a1112.417 1112.417 0 0 0 .003 3.476v.184h.75l.75-.002v-.184a748.351 748.351 0 0 1-.002-1.971v-2.177l-1.496-.102zm-.002 4.435c0 .798.359 1.428.894 1.839.514.395 1.164.57 1.777.57.613.002 1.263-.172 1.778-.568a2.262 2.262 0 0 0 .894-1.84h-1.5c0 .309-.122.509-.307.65-.205.158-.516.26-.863.259-.348 0-.66-.103-.866-.261a.763.763 0 0 1-.307-.649h-1.5zm5.343-25.742c0-.792-.367-1.41-.904-1.808-.514-.382-1.161-.548-1.769-.547-.607.001-1.253.17-1.767.55a2.193 2.193 0 0 0-.903 1.805h1.5c0-.277.112-.462.298-.6.207-.153.522-.254.875-.255.353 0 .667.1.873.252a.698.698 0 0 1 .297.603h1.5zm-5.343 0v2.753h1.5v-2.753h-1.5zm10.461 5.736h-1.537v1.5h1.537v-1.5zm-1.537 0c-.535 0-.882-.19-1.102-.428a1.45 1.45 0 0 1-.362-.972 1.41 1.41 0 0 1 .35-.962c.214-.234.562-.425 1.112-.423l.004-1.5c-.938-.003-1.7.34-2.222.909a2.908 2.908 0 0 0-.744 1.985 2.95 2.95 0 0 0 .758 1.978c.52.566 1.277.913 2.206.913v-1.5zm-.002-2.785c2.047.005 4.343.008 5.796-.008l-.017-1.5c-1.44.016-3.725.013-5.775.008l-.004 1.5zm5.797-.008c.639-.008 1.055.196 1.31.443a1.334 1.334 0 0 1 .018 1.89c-.25.248-.672.46-1.337.46v1.5c1.002 0 1.822-.33 2.392-.892a2.8 2.8 0 0 0 .828-2.026 2.832 2.832 0 0 0-.856-2.009c-.572-.554-1.386-.878-2.373-.866l.018 1.5zm-1.72 10.358h-3.85v1.5h3.85v-1.5zm-3.85 0c-.651 0-1.066-.208-1.316-.454a1.302 1.302 0 0 1-.383-.938c.001-.348.135-.688.393-.942.252-.247.665-.453 1.304-.451l.004-1.5c-.985-.003-1.793.325-2.36.88a2.825 2.825 0 0 0-.841 2.006c-.004.725.27 1.46.83 2.012.566.559 1.378.887 2.37.887v-1.5zm-.002-2.786c2.791.007 5.916.009 7.892-.007l-.012-1.5c-1.968.016-5.085.014-7.876.008l-.004 1.5zm7.884-.007c.63.001 1.033.207 1.277.453.251.252.381.593.38.945 0 .351-.132.693-.384.946-.245.245-.647.45-1.271.45v1.5c.975 0 1.775-.332 2.332-.89.55-.552.822-1.282.824-2.003a2.83 2.83 0 0 0-.817-2.006c-.558-.56-1.358-.893-2.337-.895l-.004 1.5zm-6.288 10.6h-1.659v1.5h1.66v-1.5zm-1.659 0c-.59 0-.974-.2-1.212-.443a1.379 1.379 0 0 1-.38-.955 1.34 1.34 0 0 1 .366-.946c.233-.24.618-.442 1.226-.442v-1.5c-.967 0-1.757.334-2.303.898a2.84 2.84 0 0 0-.79 2c.005.714.27 1.44.807 1.991.545.56 1.329.897 2.286.897v-1.5zm0-2.786c3.152 0 6.873.016 9.108 0l-.011-1.5c-2.228.016-5.932 0-9.097 0v1.5zm9.102 0c1 0 1.59.234 1.917.49.313.245.437.551.442.861.01.685-.556 1.39-1.35 1.436l.085 1.497c1.66-.094 2.785-1.531 2.765-2.954a2.58 2.58 0 0 0-1.016-2.02c-.67-.526-1.625-.81-2.843-.81v1.5zm1.009 2.787c-1.645.093-2.893-.001-4.128-.001v1.5c1.099 0 2.522.095 4.213-.002l-.085-1.497zM25.89 38.294V12.552h-1.5v25.742h1.5z" fill="#3FC2C0"/></svg>