<svg width="50" height="50" viewBox="0 0 50 50" fill="none" xmlns="http://www.w3.org/2000/svg"><circle opacity=".2" cx="25" cy="25" r="25" fill="#5DE0DE"/><g clip-path="url(#a)"><path d="M35.68 30.6l.929-.666a.937.937 0 0 0 .27-1.224l-.479-.844a.937.937 0 0 0-1.147-.415l-1.07.405a3.764 3.764 0 0 0-.647-.388l-.053-.026-.2-1.108a.937.937 0 0 0-.922-.771h-.891a.937.937 0 0 0-.929.807l-.15 1.072a3.72 3.72 0 0 0-.774.472l-1.088-.34a.937.937 0 0 0-1.122.485l-.4.822a.938.938 0 0 0 .31 1.181l.876.606a3.794 3.794 0 0 0 0 .363l.003.06.004.06-.889.712a.938.938 0 0 0-.229 1.195l.426.75a.938.938 0 0 0 1.138.416l1.027-.376c.224.17.466.314.722.43l.2 1.107c.08.446.468.771.922.771h.844c.46 0 .852-.334.925-.79l.173-1.08.068-.03.048-.023a4.006 4.006 0 0 0 .22-.118l.008-.004c.184-.106.358-.226.52-.36l1.096.315a.937.937 0 0 0 1.098-.482l.377-.754a.937.937 0 0 0-.295-1.183l-.913-.65a3.306 3.306 0 0 0-.002-.307l-.002-.049-.002-.041zm-2.38 1.514a1.562 1.562 0 0 1-.505.412l-.018.01a1.827 1.827 0 0 1-.109.05l-.028.011a2.05 2.05 0 0 1-.241.08 1.874 1.874 0 0 1-1.043-.035l-.045-.016a1.916 1.916 0 0 1-.137-.055l-.06-.028a1.6 1.6 0 0 1-.174-.097 1.861 1.861 0 0 1-.15-.106c-.015-.01-.029-.022-.043-.033a1.804 1.804 0 0 1-.075-.066l-.035-.033a1.87 1.87 0 0 1-.54-.992l-.006-.032a1.99 1.99 0 0 1-.011-.076l-.005-.032a2.371 2.371 0 0 1-.007-.08l-.002-.029a1.936 1.936 0 0 1 0-.211v-.013a1.95 1.95 0 0 1 .009-.094v-.008a1.91 1.91 0 0 1 .035-.201c.079-.342.251-.65.49-.892l.017-.018.058-.055.012-.011a1.914 1.914 0 0 1 .434-.292l.025-.012c.038-.017.076-.034.115-.049l.049-.018a2.074 2.074 0 0 1 .135-.043 1.867 1.867 0 0 1 1.315.125l.05.025.052.03.045.025c.029.017.056.035.084.054l.04.029.055.04.035.029c.028.022.054.045.08.069l.026.024.06.06a1.872 1.872 0 0 1 .49.941l.007.034a2.086 2.086 0 0 1 .028.324c0 .065-.003.13-.01.195v.008a1.906 1.906 0 0 1-.012.086l-.006.035-.01.058a1.866 1.866 0 0 1-.32.719.934.934 0 0 0-.154.154zm-3.989-8.239c0-.663-.341-1.256-.913-1.588l-4.025-2.335a1.81 1.81 0 0 0-1.83-.004 1.817 1.817 0 0 0-.919 1.592v4.67c0 .665.343 1.26.919 1.591.286.165.6.247.913.247.315 0 .63-.083.917-.25l4.025-2.335c.572-.332.913-.925.913-1.588zM23.5 26.138v-4.526l3.9 2.263-3.9 2.263zM37 17.641v6.984a.937.937 0 1 1-1.875 0v-6.984a1.877 1.877 0 0 0-1.875-1.875h-16.5a1.877 1.877 0 0 0-1.875 1.875v12.28c0 1.035.841 1.876 1.875 1.876h7.406a.937.937 0 1 1 0 1.875H16.75a3.754 3.754 0 0 1-3.75-3.75V17.64a3.754 3.754 0 0 1 3.75-3.75h16.5A3.754 3.754 0 0 1 37 17.64z" fill="#3FC3C0"/></g><defs><clipPath id="a"><path fill="#fff" transform="translate(13 13)" d="M0 0h24v24H0z"/></clipPath></defs></svg>