<svg width="50" height="50" viewBox="0 0 50 50" fill="none" xmlns="http://www.w3.org/2000/svg"><circle opacity=".2" cx="25" cy="25" r="25" fill="#5DE0DE"/><path d="M36.063 29.74c.517 0 .937-.42.937-.937v-6.61a3.473 3.473 0 0 0-3.469-3.468 3.473 3.473 0 0 0-3.468 3.468v11.338a3.473 3.473 0 0 0 3.468 3.47A3.473 3.473 0 0 0 37 33.53a.937.937 0 1 0-1.875 0c0 .88-.715 1.594-1.594 1.594a1.595 1.595 0 0 1-1.593-1.594V22.193a1.594 1.594 0 0 1 3.187 0v6.61c0 .517.42.937.938.937zm-19.594-8.156A3.473 3.473 0 0 0 13 25.053v8.478a3.473 3.473 0 0 0 3.469 3.47 3.473 3.473 0 0 0 3.468-3.47v-8.478a3.473 3.473 0 0 0-3.468-3.469zm1.593 11.947c0 .88-.714 1.594-1.593 1.594a1.595 1.595 0 0 1-1.594-1.594v-8.478c0-.88.715-1.594 1.594-1.594.879 0 1.593.715 1.593 1.594v8.478zM25 13a3.473 3.473 0 0 0-3.469 3.469V33.53A3.473 3.473 0 0 0 25 37a3.473 3.473 0 0 0 3.469-3.469V16.47A3.473 3.473 0 0 0 25 13zm1.594 20.531c0 .88-.715 1.594-1.594 1.594a1.596 1.596 0 0 1-1.594-1.594V16.47a1.595 1.595 0 0 1 3.188 0v17.06z" fill="#3FC2C0"/></svg>