<svg width="50" height="50" viewBox="0 0 50 50" fill="none" xmlns="http://www.w3.org/2000/svg"><circle cx="25" cy="25" r="25" fill="#48CEB8"/><g clip-path="url(#a)" fill="#fff"><path d="M35.416 23.595c-.819-1.256-1.95-2.446-3.365-3.536a22.114 22.114 0 0 0-4-2.429l1.26-3.264a.937.937 0 0 0 .063-.338v-.093a.936.936 0 0 0-1.266-.876c-2.108.798-4.156.798-6.262 0a.936.936 0 0 0-1.267.876v.093c0 .116.021.23.063.338l1.262 3.266a21.98 21.98 0 0 0-3.98 2.428c-1.407 1.09-2.534 2.28-3.348 3.537C13.53 25.211 13 26.934 13 28.718c0 2.448.741 4.52 2.143 5.995 1.369 1.439 3.275 2.228 5.513 2.283h.023l8.437.003h.02c2.726-.058 4.994-1.18 6.387-3.16a.936.936 0 0 0-1.531-1.076c-1.04 1.478-2.774 2.317-4.885 2.365l-8.416-.003c-3.59-.093-5.82-2.547-5.82-6.407 0-2.594 1.401-5 4.164-7.15a20.112 20.112 0 0 1 4.21-2.487h3.01l.044.038c3.313 2.882 4.993 5.813 4.993 8.71a.936.936 0 1 0 1.872 0c0-2.036-.66-4.07-1.963-6.056 2.017 1.626 3.928 3.954 3.928 6.945a.936.936 0 0 0 1.871 0c0-1.785-.533-3.508-1.584-5.123zm-9.21-6.385h-2.46l-.723-1.875a10.2 10.2 0 0 0 3.907 0l-.724 1.875z"/><path d="M24.976 33.632a.936.936 0 0 0 .935-.936v-.542c1.287-.18 2.247-1.238 2.247-2.558v-.23a2.58 2.58 0 0 0-.78-1.859 2.638 2.638 0 0 0-1.857-.753h-.858c-.412 0-.76-.364-.76-.795v-.341c0-.42.327-.735.76-.735h.811c.238 0 .485.16.485.427a.936.936 0 0 0 1.871 0c0-1.122-.828-2.057-1.919-2.258v-.602a.936.936 0 0 0-1.871 0v.634c-.463.11-.887.34-1.231.677a2.576 2.576 0 0 0-.777 1.857v.341c0 1.47 1.18 2.667 2.631 2.667h.858c.43 0 .765.325.765.74v.23c0 .407-.329.714-.765.714h-1.394c-.23 0-.462-.145-.462-.421a.936.936 0 0 0-1.872 0c0 1.257.98 2.246 2.247 2.29v.517c0 .517.419.936.936.936z"/></g><defs><clipPath id="a"><path fill="#fff" transform="translate(13 13)" d="M0 0h24v24H0z"/></clipPath></defs></svg>