<svg width="50" height="50" viewBox="0 0 50 50" fill="none" xmlns="http://www.w3.org/2000/svg"><circle opacity=".2" cx="25" cy="25" r="25" fill="#5DE0DE"/><g clip-path="url(#a)" fill="#3FC2C0"><path d="M19.06 17.641l-2.156-2.203a.937.937 0 1 0-1.34 1.311l2.156 2.203a.934.934 0 0 0 1.326.015.937.937 0 0 0 .014-1.326zM21.672 13a.937.937 0 0 0-.938.938v3.14a.937.937 0 1 0 1.875 0v-3.14a.937.937 0 0 0-.937-.938zm-4.594 7.594h-3.14a.937.937 0 1 0 0 1.875h3.14a.937.937 0 0 0 0-1.875zM34.436 33.25l-2.156-2.203a.937.937 0 1 0-1.34 1.312l2.156 2.203a.935.935 0 0 0 1.325.014.937.937 0 0 0 .015-1.326zm-6.107-1.266a.937.937 0 0 0-.938.938v3.14a.937.937 0 0 0 1.875 0v-3.14a.937.937 0 0 0-.937-.938zm7.734-4.452h-3.14a.937.937 0 1 0 0 1.875h3.14a.937.937 0 1 0 0-1.875zM35.25 14.77c-.22-.22-.45-.423-.686-.603l-.045-.034a.933.933 0 0 0-.09-.076C33.476 13.355 32.43 13 31.323 13c-1.73 0-3.528.883-5.202 2.553a.98.98 0 0 0-.047.05l-.073.086-.086.073a.928.928 0 0 0-.05.047c-1.67 1.673-2.553 3.472-2.553 5.202 0 .74.173 1.476.513 2.19a.938.938 0 0 0 1.692-.809 3.195 3.195 0 0 1-.33-1.38c0-1.216.685-2.548 1.981-3.854l.11-.096a.94.94 0 0 0 .097-.096l.095-.11c1.307-1.296 2.639-1.981 3.853-1.981.676 0 1.325.217 1.93.645.02.018.04.035.06.05l.11.085c.17.13.34.28.502.441.795.795 1.199 1.663 1.199 2.58 0 1.215-.685 2.547-1.982 3.853l-.11.096a.924.924 0 0 0-.095.095l-.095.11c-1.205 1.195-2.477 1.864-3.68 1.937a.937.937 0 1 0 .113 1.871c1.674-.1 3.374-.967 4.915-2.504a.886.886 0 0 0 .046-.05l.074-.086.086-.074a.995.995 0 0 0 .05-.046c1.67-1.673 2.553-3.472 2.553-5.202 0-1.433-.589-2.747-1.75-3.907zm-9.077 12.029a.938.938 0 0 0-1.691.808 3.2 3.2 0 0 1 .33 1.381c0 1.216-.685 2.547-1.981 3.854l-.11.095a.94.94 0 0 0-.097.096l-.095.11c-1.307 1.297-2.639 1.981-3.854 1.981-.675 0-1.324-.217-1.93-.645a.96.96 0 0 0-.06-.05l-.11-.085a5.12 5.12 0 0 1-.5-.44c-.797-.795-1.2-1.663-1.2-2.58 0-1.216.685-2.548 1.981-3.854l.11-.095a.946.946 0 0 0 .096-.096l.095-.11c1.24-1.229 2.495-1.915 3.633-1.983a.937.937 0 1 0-.113-1.872c-1.632.099-3.27.957-4.868 2.552a1.01 1.01 0 0 0-.047.05l-.074.085-.085.074a.995.995 0 0 0-.05.047C13.883 27.794 13 29.593 13 31.324c0 1.433.588 2.747 1.75 3.906.22.22.45.422.685.602l.044.035a.949.949 0 0 0 .091.076c.953.7 1.997 1.056 3.106 1.056 1.729 0 3.528-.883 5.202-2.553a.979.979 0 0 0 .047-.05l.073-.085.085-.074a.967.967 0 0 0 .05-.047c1.67-1.673 2.554-3.471 2.554-5.202 0-.74-.173-1.476-.514-2.19z"/></g><defs><clipPath id="a"><path fill="#fff" transform="translate(13 13)" d="M0 0h24v24H0z"/></clipPath></defs></svg>