<svg width="50" height="50" viewBox="0 0 50 50" fill="none" xmlns="http://www.w3.org/2000/svg"><circle opacity=".2" cx="25" cy="25" r="25" fill="#3C91EF"/><g clip-path="url(#a)"><path d="M37 24.063c0 2.13-.658 4.199-1.903 5.981a.937.937 0 1 1-1.538-1.073 8.544 8.544 0 0 0 1.566-4.909c0-5.066-4.542-9.187-10.125-9.187s-10.125 4.122-10.125 9.188c0 2.052.73 3.993 2.112 5.614a.937.937 0 0 1 .155.96l-1.47 3.636 4.282-1.887a.938.938 0 0 1 .746-.005c1.35.577 2.797.869 4.3.869 1.73 0 3.436-.403 4.935-1.164a.938.938 0 1 1 .85 1.672A12.827 12.827 0 0 1 25 35.125c-1.616 0-3.18-.29-4.653-.863l-6.031 2.658a.935.935 0 0 1-1.031-.184.937.937 0 0 1-.217-1.025l2.13-5.265C13.757 28.574 13 26.379 13 24.062c0-2.97 1.259-5.758 3.545-7.85C18.807 14.14 21.81 13 25 13c3.19 0 6.193 1.14 8.456 3.212C35.74 18.303 37 21.091 37 24.062zm-7.058-4.99a2.816 2.816 0 0 1 0 3.978l-5.136 5.127a.937.937 0 0 1-.412.24l-3.784 1.048a.936.936 0 0 1-1.148-1.176l1.121-3.69a.938.938 0 0 1 .235-.391l5.147-5.136a2.815 2.815 0 0 1 3.977 0zm-2.834 4.158l-1.326-1.326-3.473 3.465-.557 1.834 1.904-.527 3.452-3.446zm1.508-2.831a.938.938 0 0 0-1.326 0l-.18.18 1.325 1.326.182-.181a.938.938 0 0 0-.001-1.325z" fill="#3C91EF"/></g><defs><clipPath id="a"><path fill="#fff" transform="translate(13 13)" d="M0 0h24v24H0z"/></clipPath></defs></svg>