<svg width="1662" height="1478" viewBox="0 0 1662 1478" fill="none" xmlns="http://www.w3.org/2000/svg"><path d="M0 1093l695-396v59.073L51 1123.19 0 1093z" fill="#EBF5FA"/><path d="M58 1028l695-396v59.073L109 1058.19 58 1028z" fill="#26B2EB"/><path d="M923 482.188L872 452l645-367 50 30.073-644 367.115z" fill="#34D1C5"/><path opacity=".25" d="M1018 397.188L967 367 1612 0l50 30.073-644 367.115z" fill="#34D1C5"/><path d="M456 1477.19L405 1447l645-367 50 30.07-644 367.12z" fill="#34D1C5"/><path opacity=".25" d="M551 1392.19L500 1362l645-367 50 30.07-644 367.12z" fill="#34D1C5"/></svg>