<svg width="80" height="80" viewBox="0 0 80 80" fill="none" xmlns="http://www.w3.org/2000/svg"><circle cx="40" cy="40" r="40" fill="#F1ECFF"/><path d="M38.712 32.81H58.57c1.468 0 2.305 1.461 1.696 2.797-.188.412-.393.885-.615 1.43-.395.97-1.451 1.494-2.48 1.304-9.635-1.78-13.977 5.606-15.301 10.902-.241.965-1.075 1.7-2.07 1.7H23.55a2 2 0 0 1-1.984-1.75l-3.281-25.942A2 2 0 0 1 20.269 21h7.91a2 2 0 0 1 1.832 1.199l.753 1.721a2 2 0 0 0 1.832 1.2h13.708a1.895 1.895 0 0 1 0 3.79H26.87a2 2 0 0 0-1.841 1.218l-4.525 10.66m14.108-7.978H30.69a2 2 0 0 0-1.767 1.062l-7.506 14.143m29.06.605l-2.224.902a2 2 0 0 0-1.249 1.854v4.382c0 .876.572 1.652 1.41 1.909 5.818 1.78 6.72 1.775 12.18.002a1.979 1.979 0 0 0 1.37-1.84c.026-1.302.053-3.24.022-4.627-.017-.726-.467-1.356-1.131-1.65l-2.1-.932m-8.278 0v-4.523a2 2 0 0 1 2-2h4.278a2 2 0 0 1 2 2v4.523m-8.278 0h8.278m-3.986 4.152v2.015" stroke="#4A27B4" stroke-width="2" stroke-linecap="round"/></svg>