<svg width="62" height="56" viewBox="0 0 62 56" fill="none" xmlns="http://www.w3.org/2000/svg"><path d="M7.75 12.316h26.278M7.75 22.381h20.767M7.75 32.285h13.658M7.75 42.508h9.505m23.18-.801v8.379a4.16 4.16 0 0 1-4.16 4.16H5.16A4.16 4.16 0 0 1 1 50.086V5.16A4.16 4.16 0 0 1 5.16 1h31.897a4.16 4.16 0 0 1 4.16 4.16v3.322m-7.189 30.592c6.909-7.038 20.908-22.238 25.504-27.663.248-.293.41-.65.446-1.032.397-4.23-1.898-6.242-5.804-6.5-.57-.038-1.119.206-1.511.622L48.85 8.533m-14.822 30.54l-7.011 3.438c-1.694.83-3.53-.842-2.86-2.606l2.922-7.7m6.95 6.869l-6.95-6.87m0 0l21.77-23.67m0 0l3.95 3.782" stroke="#34D1C5" stroke-width="2" stroke-linecap="round"/></svg>