<svg width="78" height="68" viewBox="0 0 78 68" fill="none" xmlns="http://www.w3.org/2000/svg"><path d="M36.775 21.512H73.38c1.466 0 2.31 1.458 1.637 2.76-.661 1.282-1.516 3.113-2.573 5.844-.379.979-1.44 1.513-2.461 1.278-18.36-4.223-26.09 10.446-28.036 19.905-.2.976-1.038 1.706-2.033 1.706H9.306a2 2 0 0 1-1.984-1.75L1.283 3.25A2 2 0 0 1 3.267 1H19.53a2 2 0 0 1 1.834 1.203l2.065 4.749a2 2 0 0 0 1.834 1.202h26.011a2 2 0 0 1 1.993 2.166l-.214 2.583a2 2 0 0 1-1.993 1.834H15.359a2 2 0 0 0-1.843 1.223L5.323 35.368m24.369-13.856h-7.645a2 2 0 0 0-1.768 1.066L6.903 47.921m50.194 1.051l-4.754 1.938a2 2 0 0 0-1.245 1.852v9.695c0 .876.574 1.651 1.41 1.91 11.336 3.515 12.396 3.505 23.035.003a1.99 1.99 0 0 0 1.372-1.84c.054-2.369.141-7.184.034-9.943-.028-.725-.479-1.352-1.141-1.648l-4.413-1.967m-14.298 0v-9.33a2 2 0 0 1 2-2h10.298a2 2 0 0 1 2 2v9.33m-14.298 0h14.298m-6.885 7.211v3.499" stroke="#4A27B4" stroke-width="2" stroke-linecap="round"/></svg>