<svg width="81" height="80" viewBox="0 0 81 80" fill="none" xmlns="http://www.w3.org/2000/svg"><circle cx="40.5" cy="40" r="40" fill="#CDF1FD"/><path d="M19.764 34.518l20.278 5.667a2 2 0 0 0 1.123-.014l21.184-6.479c1.96-.599 1.858-3.405-.139-3.862l-21.16-4.838a2 2 0 0 0-.889 0l-27.12 6.155a2 2 0 0 0-1.557 1.95v6.753a2 2 0 0 0 1.41 1.91l.83.257a2 2 0 0 1 1.41 1.911v3.693m0 0l1.802 1.066m-1.802-1.066l-1.832 1.066m1.832-1.066v1.85m25.471-21.196L25.996 31.5m30.902 8.858L41.182 45.15a2 2 0 0 1-1.154.003l-14.536-4.326a2 2 0 0 0-2.57 1.916v7.841c0 .7.364 1.352.974 1.695 10.54 5.932 23.59 6.251 34.616.002a1.94 1.94 0 0 0 .97-1.694v-8.315a2 2 0 0 0-2.584-1.913z" stroke="#26B2EB" stroke-width="2" stroke-linecap="round"/></svg>