<svg width="80" height="80" viewBox="0 0 80 80" fill="none" xmlns="http://www.w3.org/2000/svg"><circle cx="40" cy="40" r="40" fill="#FFF7E7"/><path d="M29.428 30.43c2.29-.82 3.799-1.224 6.754-.723m-6.754.723l-1.44-2.684a2 2 0 0 0-2.856-.73l-2.857 1.866a2 2 0 0 0-.489 2.898l2.002 2.588m5.64-3.938a13.156 13.156 0 0 0-5.64 3.938m0 0a14.355 14.355 0 0 0-3.126 6.589m0 0a12.04 12.04 0 0 0-.202 2.16c0 2.011.414 3.926 1.162 5.663m-.96-7.823l-3.132.255a2 2 0 0 0-1.829 2.181l.366 3.874a2 2 0 0 0 2.162 1.804l3.393-.291m0 0a14.39 14.39 0 0 0 4.223 5.538m0 0l-1.626 2.956a2 2 0 0 0 .909 2.778l3.886 1.807a2 2 0 0 0 2.672-1.005l1.54-3.48m-7.381-3.056a14.274 14.274 0 0 0 7.382 3.056m0 0c.517.057 1.044.086 1.576.086 2.145 0 4.18-.471 6.007-1.315m0 0l2.65 2.712a2 2 0 0 0 2.835.026l3-2.96a2 2 0 0 0-.18-3.005l-2.378-1.842m-5.927 5.07a14.402 14.402 0 0 0 5.927-5.07m2.29-6.444c-.347 2.882-.768 4.167-2.29 6.444m16.28-3.028c.172 1.046.027 1.58-.266 2.389a4.657 4.657 0 0 1-1.402 1.99m0 0l1.173 1.182m-1.173-1.182a5.08 5.08 0 0 1-2.336 1.096c-.26.047-.518.07-.765.069a5.06 5.06 0 0 1-2.002-.42m0 0l-.6 1.06m.6-1.06a5.093 5.093 0 0 1-1.954-1.502 5.053 5.053 0 0 1-1.07-2.617m0 0a5.12 5.12 0 0 1 .445-2.682 5.097 5.097 0 0 1 1.802-2.09m-2.248 4.772l-1.318.188m6.387-5.8a5.052 5.052 0 0 0-2.82.84m0 0l-.857-1.032m-4.97-20.974v-3.374m0 3.374a9.035 9.035 0 0 0-5.82 2.112m5.82-2.112c2.214 0 4.243.794 5.818 2.112m-5.819-5.486h-4.564m4.564 0h4.472m-10.29 5.486a9.072 9.072 0 1 0 11.638 0m-11.638 0l-1.45-1.45m13.087 1.45l1.45-1.45m-7.269 8.41l-4.004-3.62M40 52.553c-5.099 2.944-11.619 1.197-14.563-3.902-2.944-5.1-1.197-11.62 3.902-14.563" stroke="#FFB827" stroke-width="2" stroke-linecap="round"/></svg>