<svg width="80" height="80" viewBox="0 0 80 80" fill="none" xmlns="http://www.w3.org/2000/svg"><circle cx="40" cy="40" r="40" fill="#F0FFFE"/><path d="M27.545 28.225h20.214m-20.214 7.742H43.52m-15.975 7.619H38.05M27.545 51.45h7.311m17.83-.617v6.446a3.2 3.2 0 0 1-3.2 3.2H25.553a3.2 3.2 0 0 1-3.2-3.2V22.72a3.2 3.2 0 0 1 3.2-3.2h24.536a3.2 3.2 0 0 1 3.2 3.2v2.556m-5.53 23.532c5.314-5.414 16.083-17.106 19.618-21.279.191-.226.315-.5.343-.794.306-3.253-1.46-4.802-4.465-5-.438-.03-.86.159-1.162.478l-2.933 3.102m-11.4 23.493l-5.394 2.644c-1.303.639-2.715-.648-2.2-2.004l2.249-5.924m5.345 5.284l-5.345-5.284m0 0L59.16 25.315m0 0l3.038 2.91" stroke="#34D1C5" stroke-width="2" stroke-linecap="round"/></svg>