<svg width="73" height="67" viewBox="0 0 73 67" fill="none" xmlns="http://www.w3.org/2000/svg"><path d="M21.767 18.103c3.419-1.217 5.67-1.816 10.079-1.074m-10.079 1.074L19.11 13.18a2 2 0 0 0-2.848-.728l-6.048 3.925a2 2 0 0 0-.49 2.906l3.627 4.662m8.416-5.842c-3.477 1.238-6.286 3.333-8.416 5.842m0 0c-2.486 2.929-4.047 6.422-4.664 9.774m0 0a17.759 17.759 0 0 0-.301 3.204 21.1 21.1 0 0 0 1.733 8.401M8.687 33.719l-5.666.459a2 2 0 0 0-1.83 2.182l.73 7.676a2 2 0 0 0 2.16 1.803l6.038-.515m0 0a21.358 21.358 0 0 0 6.301 8.216m0 0l-2.924 5.285a2 2 0 0 0 .91 2.784l7.66 3.54a2 2 0 0 0 2.666-1.002l2.704-6.074M16.42 53.54a21.368 21.368 0 0 0 11.016 4.533m0 0c.773.084 1.558.127 2.353.127 3.2 0 6.237-.698 8.963-1.95m0 0l4.65 4.73a2 2 0 0 0 2.827.026l5.973-5.856a2 2 0 0 0-.18-3.013l-4.426-3.406m-8.843 7.519c3.6-1.653 6.66-4.27 8.843-7.52m3.418-9.56c-.518 4.276-1.146 6.182-3.418 9.56m24.293-4.492c.258 1.552.042 2.343-.397 3.544a6.907 6.907 0 0 1-2.091 2.952m0 0l1.75 1.754m-1.75-1.754a7.6 7.6 0 0 1-3.486 1.627c-.39.069-.772.103-1.141.101a7.587 7.587 0 0 1-2.989-.622m0 0l-.893 1.572m.893-1.572a7.594 7.594 0 0 1-2.915-2.229 7.471 7.471 0 0 1-1.598-3.881m0 0a7.465 7.465 0 0 1 .665-3.979 7.575 7.575 0 0 1 2.69-3.1m-3.355 7.078l-1.967.279m9.53-8.605a7.57 7.57 0 0 0-4.208 1.248m0 0L59.35 37.12M51.932 6.005V1m0 5.005a13.53 13.53 0 0 0-8.683 3.133m8.683-3.133a13.53 13.53 0 0 1 8.683 3.133M51.932 1h-6.811m6.811 0h6.673M43.25 9.138c-2.967 2.468-4.854 6.178-4.854 10.325 0 7.432 6.06 13.457 13.537 13.457 7.477 0 13.537-6.025 13.537-13.457 0-4.148-1.887-7.857-4.854-10.325m-17.366 0l-2.164-2.152m19.53 2.152l2.164-2.152M51.932 19.463l-5.975-5.37M37.543 50.92c-7.608 4.367-17.337 1.776-21.73-5.788-4.393-7.564-1.786-17.237 5.822-21.604" stroke="#FFB827" stroke-width="2" stroke-linecap="round"/></svg>