<svg width="88" height="52" viewBox="0 0 88 52" fill="none" xmlns="http://www.w3.org/2000/svg"><path d="M13.984 16.063l32.118 8.955a2 2 0 0 0 1.121-.013l37.593-11.472c1.96-.598 1.859-3.407-.14-3.862L47.109 1.1a2 2 0 0 0-.886 0L2.558 10.987A2 2 0 0 0 1 12.938v12.298a2 2 0 0 0 1.41 1.911l2.903.895a2 2 0 0 1 1.41 1.91v6.61m0 0L9.55 38.23m-2.827-1.668L3.851 38.23m2.872-1.668v2.896M46.665 6.295l-22.908 5.046m49.925 13.412L47.24 32.796a2 2 0 0 1-1.151.004l-24.584-7.3a2 2 0 0 0-2.57 1.916v14.418c0 .7.366 1.351.973 1.701 16.798 9.685 37.79 10.218 55.387.002a1.96 1.96 0 0 0 .97-1.7v-15.17a2 2 0 0 0-2.583-1.914z" stroke="#26B2EB" stroke-width="2" stroke-linecap="round"/></svg>