<svg width="1170" height="10" viewBox="0 0 1170 10" fill="none" xmlns="http://www.w3.org/2000/svg"><circle cx="5" cy="5" r="5" transform="rotate(90 5 5)" fill="#34D1C5"/><rect x="420" y="2.5" width="5" height="405" rx="2.5" transform="rotate(90 420 2.5)" fill="url(#a)"/><circle cx="435" cy="5" r="5" transform="rotate(-90 435 5)" fill="#FFB827"/><rect x="445" y="7.5" width="5" height="273" rx="2.5" transform="rotate(-90 445 7.5)" fill="url(#b)"/><circle cx="733" cy="5" r="5" transform="rotate(90 733 5)" fill="#0DB5EC"/><rect x="1155" y="2.5" width="5" height="412" rx="2.5" transform="rotate(90 1155 2.5)" fill="url(#c)"/><circle cx="1165" cy="5" r="5" transform="rotate(90 1165 5)" fill="#4A27B4"/><defs><linearGradient id="a" x1="422.5" y1="2.5" x2="422.5" y2="407.5" gradientUnits="userSpaceOnUse"><stop stop-color="#FFB827"/><stop offset="1" stop-color="#34D1C5"/></linearGradient><linearGradient id="b" x1="447.5" y1="7.5" x2="447.5" y2="280.5" gradientUnits="userSpaceOnUse"><stop stop-color="#FFB827"/><stop offset="1" stop-color="#0DB5EC"/></linearGradient><linearGradient id="c" x1="1157.5" y1="2.5" x2="1157.5" y2="414.5" gradientUnits="userSpaceOnUse"><stop stop-color="#4A27B4"/><stop offset="1" stop-color="#0DB5EC"/></linearGradient></defs></svg>