<svg width="50" height="50" viewBox="0 0 50 50" fill="none" xmlns="http://www.w3.org/2000/svg">
<circle cx="25" cy="25" r="25" fill="#48CEB8"/>
<g clip-path="url(#clip0)">
<path d="M35.4157 23.5952C34.5974 22.3386 33.4653 21.1489 32.0506 20.059C30.4988 18.8635 28.9579 18.0562 28.0501 17.6301L29.3114 14.3655C29.3529 14.2579 29.3742 14.1436 29.3742 14.0283V13.9347C29.3742 13.6273 29.2232 13.3396 28.9704 13.1649C28.7176 12.9902 28.395 12.9508 28.1075 13.0595C26 13.8566 23.9517 13.8568 21.8458 13.0596C21.5583 12.9508 21.2358 12.9901 20.9828 13.1648C20.7299 13.3395 20.5789 13.6273 20.5789 13.9347V14.0283C20.5789 14.1436 20.6003 14.2579 20.6418 14.3655L21.9037 17.6316C21 18.0581 19.4674 18.8653 17.9242 20.0604C16.5165 21.1505 15.3899 22.3404 14.5758 23.597C13.5302 25.2111 13 26.9342 13 28.7184C13 31.1657 13.7411 33.2386 15.1433 34.713C16.5116 36.1518 18.418 36.9414 20.656 36.9963C20.6636 36.9964 20.6711 36.9965 20.6787 36.9965L29.1164 36.9991C29.1232 36.9991 29.1299 36.999 29.1366 36.9989C31.862 36.9407 34.1298 35.8188 35.5225 33.8398C35.8198 33.4172 35.7183 32.8335 35.2957 32.5361C34.873 32.2387 34.2894 32.3402 33.992 32.7628C32.9521 34.2406 31.2175 35.0802 29.1066 35.1277L20.6909 35.1252C17.101 35.0322 14.8713 32.5782 14.8713 28.7184C14.8713 26.1241 16.2722 23.7181 19.0349 21.5673C20.8553 20.1501 22.7079 19.3097 23.2443 19.081H26.2558C26.2697 19.0931 26.284 19.1056 26.2988 19.1185C29.6123 22.001 31.2924 24.9319 31.2924 27.8295C31.2924 28.3463 31.7113 28.7652 32.2281 28.7652C32.7448 28.7652 33.1637 28.3463 33.1637 27.8295C33.1637 25.7934 32.5039 23.759 31.2013 21.7731C33.2184 23.3986 35.1287 25.7275 35.1287 28.7184C35.1287 29.2351 35.5476 29.654 36.0643 29.654C36.5811 29.654 37 29.2351 37 28.7184C37 26.9334 36.4669 25.2097 35.4157 23.5952ZM26.2064 17.2096H23.7468L23.0227 15.3353C24.3235 15.5871 25.6294 15.587 26.9305 15.3351L26.2064 17.2096Z" fill="white"/>
<path d="M24.9756 33.6316C25.4923 33.6316 25.9112 33.2126 25.9112 32.6959V32.154C27.1983 31.9742 28.1578 30.9156 28.1578 29.5965V29.3668C28.1578 28.6598 27.8811 27.9993 27.3785 27.5071C26.883 27.0218 26.2232 26.7544 25.5208 26.7544H24.6634C24.2512 26.7544 23.903 26.3902 23.903 25.9591V25.6179C23.903 25.1989 24.2299 24.8831 24.6634 24.8831H25.4742C25.7124 24.8831 25.9589 25.0426 25.9589 25.3096C25.9589 25.8263 26.3779 26.2452 26.8946 26.2452C27.4114 26.2452 27.8303 25.8263 27.8303 25.3096C27.8303 24.1882 27.0022 23.2525 25.9112 23.052V22.4503C25.9112 21.9336 25.4923 21.5146 24.9756 21.5146C24.4588 21.5146 24.0399 21.9336 24.0399 22.4503V23.0842C23.5768 23.1935 23.1526 23.4244 22.8086 23.761C22.3075 24.2513 22.0316 24.9107 22.0316 25.6179V25.9591C22.0316 27.4296 23.2122 28.6258 24.6633 28.6258H25.5207C25.9501 28.6258 26.2864 28.9513 26.2864 29.3669V29.5965C26.2864 30.0032 25.9572 30.31 25.5207 30.31H24.1273C23.8973 30.31 23.6646 30.1654 23.6646 29.889C23.6646 29.3722 23.2456 28.9533 22.7289 28.9533C22.2121 28.9533 21.7932 29.3722 21.7932 29.889C21.7932 31.1456 22.7731 32.1354 24.0397 32.1793V32.696C24.0399 33.2127 24.4588 33.6316 24.9756 33.6316Z" fill="white"/>
</g>
<defs>
<clipPath id="clip0">
<rect width="24" height="24" fill="white" transform="translate(13 13)"/>
</clipPath>
</defs>
</svg>
