<svg width="50" height="50" viewBox="0 0 50 50" fill="none" xmlns="http://www.w3.org/2000/svg"><circle opacity=".2" cx="25" cy="25" r="25" fill="#3C91EF"/><path d="M17.406 13h-1.125A3.285 3.285 0 0 0 13 16.281V33.72A3.285 3.285 0 0 0 16.281 37h1.125a3.285 3.285 0 0 0 3.282-3.281V16.28A3.285 3.285 0 0 0 17.405 13zm1.407 20.719c0 .775-.631 1.406-1.407 1.406h-1.125c-.775 0-1.406-.63-1.406-1.406V16.28c0-.775.63-1.406 1.406-1.406h1.125c.776 0 1.407.63 1.407 1.406v17.44zM33.719 13h-7.782a3.285 3.285 0 0 0-3.28 3.281v1.125a3.285 3.285 0 0 0 3.28 3.282h7.782A3.285 3.285 0 0 0 37 17.405V16.28A3.285 3.285 0 0 0 33.719 13zm1.406 4.406c0 .776-.63 1.407-1.406 1.407h-7.782a1.408 1.408 0 0 1-1.406-1.407v-1.125c0-.775.631-1.406 1.407-1.406h7.78c.776 0 1.407.63 1.407 1.406v1.125zm-1.406 5.297h-7.782a3.285 3.285 0 0 0-3.28 3.281v7.735A3.285 3.285 0 0 0 25.936 37h7.782A3.285 3.285 0 0 0 37 33.719a.938.938 0 1 0-1.875 0c0 .775-.63 1.406-1.406 1.406h-7.782c-.775 0-1.406-.63-1.406-1.406v-7.735c0-.775.631-1.406 1.407-1.406h7.78c.776 0 1.407.631 1.407 1.406v3.047a.938.938 0 1 0 1.875 0v-3.047a3.285 3.285 0 0 0-3.281-3.28z" fill="#3C91EF"/></svg>