<svg width="50" height="50" viewBox="0 0 50 50" fill="none" xmlns="http://www.w3.org/2000/svg"><circle opacity=".2" cx="25" cy="25" r="25" fill="#3C91EF"/><path d="M33.25 13h-3.563a3.754 3.754 0 0 0-3.75 3.75v3.563a3.754 3.754 0 0 0 3.75 3.75h3.563a3.754 3.754 0 0 0 3.75-3.75V16.75A3.754 3.754 0 0 0 33.25 13zm1.875 7.313a1.877 1.877 0 0 1-1.875 1.875h-3.563a1.877 1.877 0 0 1-1.875-1.875V16.75c0-1.034.842-1.875 1.875-1.875h3.563c1.034 0 1.875.841 1.875 1.875v3.563zM20.313 13H16.75A3.754 3.754 0 0 0 13 16.75v3.563a3.754 3.754 0 0 0 3.75 3.75h3.563a3.754 3.754 0 0 0 3.75-3.75V16.75a3.754 3.754 0 0 0-3.75-3.75zm1.875 7.313a1.877 1.877 0 0 1-1.875 1.875H16.75a1.877 1.877 0 0 1-1.875-1.875V16.75c0-1.034.841-1.875 1.875-1.875h3.563c1.033 0 1.875.841 1.875 1.875v3.563zm-1.875 5.625H16.75a3.754 3.754 0 0 0-3.75 3.75v3.562A3.754 3.754 0 0 0 16.75 37h3.563a3.754 3.754 0 0 0 3.75-3.75v-3.563a3.754 3.754 0 0 0-3.75-3.75zm1.875 7.312a1.877 1.877 0 0 1-1.875 1.875H16.75a1.877 1.877 0 0 1-1.875-1.875v-3.563c0-1.033.841-1.875 1.875-1.875h3.563c1.033 0 1.875.842 1.875 1.875v3.563zm13.875-.937a.937.937 0 0 0-.938.937 1.877 1.877 0 0 1-1.875 1.875h-3.563a1.877 1.877 0 0 1-1.875-1.875v-3.563c0-1.033.842-1.875 1.875-1.875h3.563c.745 0 1.42.442 1.72 1.125a.938.938 0 0 0 1.717-.75 3.751 3.751 0 0 0-3.437-2.25h-3.563a3.754 3.754 0 0 0-3.75 3.75v3.563a3.754 3.754 0 0 0 3.75 3.75h3.563A3.754 3.754 0 0 0 37 33.25a.937.937 0 0 0-.938-.938z" fill="#3C91EF"/></svg>