<svg width="80" height="80" viewBox="0 0 80 80" fill="none" xmlns="http://www.w3.org/2000/svg"><g clip-path="url(#a)"><path d="M23.323 26.127H18.76c-.38 0-.739.186-.958.497l-2.806 3.984-2.96-9.715a1.172 1.172 0 0 0-2.153-.213l-2.926 5.447h-2.06a1.171 1.171 0 1 0 0 2.342h2.76c.432 0 .829-.237 1.033-.617l1.925-3.583 2.837 9.315a1.17 1.17 0 0 0 2.08.332l3.836-5.447h3.954a1.171 1.171 0 1 0 0-2.342zm47.795.073H58.774a1.171 1.171 0 1 0 0 2.343h12.344a1.171 1.171 0 1 0 0-2.342z" fill="#43809F"/><path d="M72.888 65.672l-16.162-16.15a.965.965 0 0 1 0-1.365l5.463-5.459a.965.965 0 0 1 1.365 0l16.162 16.15a.966.966 0 0 1 0 1.365l-5.463 5.46a.966.966 0 0 1-1.365 0z" fill="#3C91EF"/><path d="M62.189 42.698l-3.415 3.412a.966.966 0 0 1 1.366 0l16.163 16.15a.964.964 0 0 1 0 1.364l3.414-3.412a.965.965 0 0 0 0-1.364l-16.162-16.15a.966.966 0 0 0-1.366 0z" fill="#2F87E8"/><path d="M50.296 39.67l3.413-3.412 7.438 7.439-3.413 3.412-7.438-7.438z" fill="#3B7191"/><path d="M59.728 52.505l6.825-6.826 3.413 3.413-6.825 6.826-3.413-3.413z" fill="#48CEB8"/><path d="M63.15 49.159l3.414-3.413 3.412 3.413-3.412 3.412-3.413-3.412z" fill="#3EC1AC"/><path d="M41.358 46.804c10.756 0 19.476-8.713 19.476-19.461 0-10.749-8.72-19.462-19.477-19.462-10.756 0-19.476 8.713-19.476 19.462 0 10.748 8.72 19.46 19.477 19.46z" fill="#A9DBF5"/><path d="M55.13 13.581C50.718 9.174 44.7 7.327 38.943 8.04A19.386 19.386 0 0 1 50.3 13.58c7.594 7.588 7.594 19.935 0 27.523a19.385 19.385 0 0 1-11.358 5.541c5.758.713 11.776-1.134 16.187-5.541 7.594-7.588 7.594-19.935 0-27.523z" fill="#88C3E0"/><path d="M41.358 41.979c8.09 0 14.647-6.553 14.647-14.636 0-8.084-6.558-14.636-14.648-14.636S26.71 19.258 26.71 27.343c0 8.083 6.558 14.636 14.648 14.636z" fill="#F9FAFB"/><path d="M34.434 70.938h-9.658v-8.363c0-.71.576-1.287 1.287-1.287h7.084c.71 0 1.287.576 1.287 1.287v8.363z" fill="#48CEB8"/><path d="M33.147 61.288h-3.542v9.65h4.83v-8.363c0-.71-.577-1.287-1.288-1.287z" fill="#3EC1AC"/><path d="M15.118 70.939H5.46V57.75c0-.711.577-1.288 1.288-1.288h7.083c.711 0 1.287.577 1.287 1.288v13.188z" fill="#FFC328"/><path d="M13.83 56.463h-3.54V70.94h4.828V57.75c0-.71-.576-1.287-1.287-1.287z" fill="#EDB31C"/><path d="M24.776 70.938h-9.658V51.317c0-.711.577-1.287 1.288-1.287h7.083c.711 0 1.287.576 1.287 1.287v19.621z" fill="#29CEF6"/><path d="M23.488 50.03h-3.54v20.909h4.828V51.316c0-.71-.576-1.286-1.288-1.286z" fill="#22B5ED"/><path d="M43.17 26.19c-.23-.08-.463-.165-.697-.252v-4.064c.386.132.652.313.773.406a1.172 1.172 0 0 0 1.436-1.85 5.274 5.274 0 0 0-2.209-.97v-.736a1.171 1.171 0 0 0-2.344 0v.82a6.24 6.24 0 0 0-.276.076c-1.443.434-2.52 1.665-2.812 3.212-.267 1.418.192 2.79 1.2 3.578.487.383 1.084.733 1.888 1.099v5.33c-.603-.076-1.045-.265-1.745-.722a1.17 1.17 0 1 0-1.283 1.96c1.184.773 2.014 1.036 3.028 1.116v.826a1.171 1.171 0 0 0 2.344 0v-.935c2.055-.5 3.373-2.243 3.663-3.963.375-2.227-.79-4.162-2.966-4.93zm-3.483-1.623c-.311-.243-.445-.754-.342-1.301.08-.426.327-.923.785-1.219v2.823a4.744 4.744 0 0 1-.443-.303zm4.138 6.166c-.121.717-.58 1.473-1.352 1.87V28.43c1.513.583 1.419 1.905 1.352 2.303z" fill="#FFC328"/><path d="M70.511 69.768H1.171a1.171 1.171 0 1 0 0 2.341h69.34a1.171 1.171 0 1 0 0-2.341z" fill="#43809F"/></g><defs><clipPath id="a"><path fill="#fff" d="M0 0h80v80H0z"/></clipPath></defs></svg>