<svg width="80" height="80" viewBox="0 0 80 80" fill="none" xmlns="http://www.w3.org/2000/svg"><path d="M63.823 80H16.177a4.829 4.829 0 0 1-4.829-4.829V9.658a4.829 4.829 0 0 1 4.83-4.829h47.645a4.829 4.829 0 0 1 4.83 4.829v65.513A4.829 4.829 0 0 1 63.822 80z" fill="#3C91EF"/><path d="M63.823 4.829v75.17a4.829 4.829 0 0 0 4.829-4.828V9.658a4.829 4.829 0 0 0-4.829-4.83z" fill="#2F87E8"/><path d="M16.177 74.546V10.283c0-.345.28-.625.625-.625h46.396c.345 0 .625.28.625.625v64.263c0 .345-.28.625-.625.625H16.802a.625.625 0 0 1-.625-.625z" fill="#F1F3F5"/><path d="M58.994 9.658v65.513h4.204c.345 0 .625-.28.625-.625V10.283a.625.625 0 0 0-.625-.625h-4.204z" fill="#E8ECEF"/><path d="M55.936 4.829H24.064a.966.966 0 0 1-.965-.966V.966c0-.534.432-.966.965-.966h31.872c.533 0 .965.432.965.966v2.897a.966.966 0 0 1-.965.966z" fill="#A9DBF5"/><path d="M55.936 0h-4.83c.534 0 .967.432.967.966v2.897a.966.966 0 0 1-.966.966h4.829a.966.966 0 0 0 .966-.966V.966A.966.966 0 0 0 55.936 0z" fill="#88C3E0"/><path d="M52.394 3.657c-.647 0-1.172.524-1.172 1.172 0 4.146-3.373 7.52-7.52 7.52h-7.404c-4.147 0-7.52-3.374-7.52-7.52a1.172 1.172 0 1 0-2.344 0c0 5.439 4.425 9.864 9.864 9.864h7.404c5.44 0 9.864-4.425 9.864-9.864 0-.648-.524-1.172-1.172-1.172zM46.18 31.46c-.648 0-1.173.525-1.173 1.173V55.97h-14.43a1.172 1.172 0 1 0 0 2.344H46.18c.648 0 1.172-.525 1.172-1.172v-24.51c0-.648-.525-1.172-1.172-1.172z" fill="#43809F"/><path d="M47.095 21.347l2.077 4.21c.149.3.437.51.769.558l4.646.674a1.02 1.02 0 0 1 .566 1.742l-3.362 3.276a1.02 1.02 0 0 0-.294.903l.794 4.626a1.021 1.021 0 0 1-1.482 1.076l-4.155-2.184a1.021 1.021 0 0 0-.95 0l-4.155 2.184a1.021 1.021 0 0 1-1.482-1.076l.794-4.626a1.02 1.02 0 0 0-.294-.903l-3.361-3.276a1.02 1.02 0 0 1 .566-1.742l4.645-.674c.333-.049.62-.258.769-.559l2.078-4.209a1.021 1.021 0 0 1 1.83 0z" fill="#FFC328"/><path d="M21.972 22.822h6.439a1.172 1.172 0 1 0 0-2.344h-6.439a1.172 1.172 0 1 0 0 2.344zm6.438 2.968h-6.438a1.172 1.172 0 1 0 0 2.343h6.439a1.172 1.172 0 1 0 0-2.343zm0 5.312h-6.438a1.172 1.172 0 1 0 0 2.343h6.439a1.172 1.172 0 1 0 0-2.343z" fill="#43809F"/><path d="M20.53 67.276c-.09.636-.304 1.546-.496 2.285a1.567 1.567 0 0 1-1.517 1.174h-2.189a1.567 1.567 0 0 1-1.517-1.174c-.191-.74-.406-1.65-.496-2.285a1.552 1.552 0 0 0-.767-1.127l-2.023-1.163a1.561 1.561 0 0 0-1.36-.098c-.599.241-1.502.512-2.243.717a1.568 1.568 0 0 1-1.775-.722l-1.093-1.885a1.558 1.558 0 0 1 .26-1.897c.549-.536 1.234-1.177 1.742-1.572a1.55 1.55 0 0 0 .596-1.225v-2.323a1.55 1.55 0 0 0-.596-1.224c-.508-.396-1.194-1.037-1.741-1.572a1.558 1.558 0 0 1-.261-1.897l1.093-1.885a1.568 1.568 0 0 1 1.775-.722c.741.205 1.644.476 2.243.717.444.178.946.14 1.36-.099l2.023-1.163c.415-.238.7-.653.767-1.126.09-.636.305-1.546.496-2.286a1.566 1.566 0 0 1 1.517-1.174h2.19c.714 0 1.337.483 1.516 1.174.192.74.406 1.65.496 2.286.067.473.352.888.767 1.127l2.023 1.162c.415.239.916.278 1.36.099.6-.241 1.502-.512 2.243-.718a1.568 1.568 0 0 1 1.775.723l1.093 1.885a1.56 1.56 0 0 1-.26 1.897c-.548.535-1.234 1.176-1.742 1.572a1.55 1.55 0 0 0-.595 1.224v2.323c0 .478.217.931.595 1.225.508.395 1.194 1.036 1.742 1.572.51.499.619 1.28.26 1.897l-1.093 1.885a1.568 1.568 0 0 1-1.775.722c-.741-.205-1.644-.476-2.243-.717a1.561 1.561 0 0 0-1.36.098l-2.023 1.163c-.415.239-.7.653-.767 1.127zm2.283-10.133c0-2.964-2.413-5.367-5.39-5.367s-5.39 2.403-5.39 5.367 2.413 5.367 5.39 5.367 5.39-2.403 5.39-5.367z" fill="#48CEB8"/><path d="M74.512 69.94H60.964a.645.645 0 0 1-.644-.645V51.268c0-.356.288-.645.644-.645h13.548c.356 0 .644.29.644.645v18.027a.644.644 0 0 1-.644.644z" fill="#29CEF6"/><path d="M74.511 50.623h-4.837c.356 0 .645.289.645.644v18.029a.644.644 0 0 1-.645.643h4.837a.644.644 0 0 0 .645-.643V51.267a.644.644 0 0 0-.645-.644z" fill="#22B5ED"/><path d="M64.516 60.126a1.17 1.17 0 0 0 1.172-1.171v-1.959a1.172 1.172 0 1 0-2.344 0v1.959c0 .647.525 1.171 1.172 1.171zm3.17 0c.647 0 1.172-.524 1.172-1.171v-4.298a1.172 1.172 0 1 0-2.344 0v4.298c0 .647.525 1.171 1.172 1.171zm3.17-3.322c-.647 0-1.172.524-1.172 1.172v.979a1.172 1.172 0 1 0 2.344 0v-.98c0-.647-.525-1.171-1.172-1.171zm0 4.476h-6.34a1.172 1.172 0 1 0 0 2.344h6.34a1.172 1.172 0 1 0 0-2.344z" fill="#F3F3F3"/></svg>