<svg width="537" height="225" viewBox="0 0 537 225" fill="none" xmlns="http://www.w3.org/2000/svg"><g clip-path="url(#a)" fill="#D6EEFB"><path d="M-.564 39.502c.14-.008.247.02.387.013.354.049.716.238.976.469.37.33.572.774.601 1.264.008.14-.02.247-.012.387-.153.993-1.096 1.68-2.121 1.565a1.77 1.77 0 0 1-1.203-.737 1.867 1.867 0 0 1-.325-1.35c.103-.639.494-1.154 1.042-1.396.164-.186.407-.235.655-.215zM25.323 7.91c-.029.107-.02.247-.12.359-.147.465-.514.803-.959 1.004-.341.161-.691.182-1.078.17a1.951 1.951 0 0 1-.977-.47 1.826 1.826 0 0 1-.589-1.651c.153-.993 1.096-1.68 2.121-1.565 1.067.218 1.755 1.16 1.602 2.153zM15.484-1.1c-.992-.152-1.68-1.095-1.565-2.12.153-.992 1.096-1.68 2.121-1.565.992.152 1.68 1.095 1.565 2.12-.148 1.063-1.091 1.751-2.12 1.566zM35.865.23c-.153.992-1.095 1.68-2.12 1.564-.993-.152-1.681-1.095-1.566-2.12.152-.993 1.095-1.68 2.12-1.565 1.063.148 1.751 1.09 1.566 2.12zm6.186 8.416c.247.02.498.111.684.276.218.127.403.292.519.46.193.306.354.647.375.997.008.14-.021.248-.013.388a1.77 1.77 0 0 1-.737 1.202 1.86 1.86 0 0 1-1.35.325c-.993-.152-1.68-1.095-1.566-2.12a1.95 1.95 0 0 1 .47-.976c.164-.186.366-.338.572-.42.309-.124.659-.144 1.046-.132zM18.078 42.338c.355.05.717.239.977.47.444.395.692 1.013.589 1.65-.03.108-.021.248-.12.36-.148.465-.515.802-.96 1.004-.341.16-.691.181-1.078.169a1.951 1.951 0 0 1-.976-.47 1.826 1.826 0 0 1-.59-1.65c.03-.108.021-.248.12-.359.09-.251.185-.432.387-.585.165-.185.367-.338.573-.42.341-.16.691-.181 1.078-.169zm4.389-16.135c-.152.992-1.095 1.68-2.12 1.565-.993-.152-1.68-1.095-1.566-2.12.153-.993 1.096-1.681 2.121-1.566 1.03.185 1.717 1.128 1.565 2.12zM2.086 24.875c-.992-.152-1.68-1.096-1.565-2.12.03-.108.02-.248.12-.36.148-.465.514-.802.96-1.004.34-.16.69-.181 1.078-.169.745.132 1.338.659 1.487 1.388.05.243.099.486.008.737a1.838 1.838 0 0 1-2.088 1.528zm9.806 9.046c-.152.993-1.095 1.68-2.12 1.565-.993-.152-1.68-1.095-1.565-2.12.152-.993 1.095-1.68 2.12-1.566 1.063.149 1.75 1.092 1.565 2.121zm18.293 2.857c-.152.992-1.095 1.68-2.12 1.565-.993-.153-1.68-1.096-1.565-2.121.152-.992 1.095-1.68 2.12-1.565.993.152 1.718 1.128 1.565 2.12zM14.749 15.629c-.153.992-1.096 1.68-2.121 1.565-.992-.153-1.68-1.095-1.565-2.121.152-.992 1.095-1.68 2.12-1.565 1.03.185 1.718 1.128 1.566 2.12zm18.293 2.856c-.153.992-1.096 1.68-2.121 1.565-.993-.153-1.68-1.096-1.565-2.121.152-.992 1.095-1.68 2.12-1.565 1.03.185 1.718 1.128 1.566 2.12zM13.894 81.011c-.124.886-.894 1.528-1.734 1.578-.14.008-.247-.02-.387-.012-.107-.03-.247-.021-.358-.12-.79-.304-1.33-1.116-1.174-2.038.02-.247.111-.498.276-.684a1.966 1.966 0 0 1 1.882-.848c.96.189 1.647 1.132 1.495 2.124zm2.893-18.259c-.152.992-1.095 1.68-2.12 1.565-.993-.152-1.68-1.095-1.565-2.12.152-.993 1.095-1.681 2.12-1.566.993.152 1.68 1.095 1.565 2.12zM6.213 70.47c-.153.992-1.096 1.68-2.121 1.565-.992-.152-1.68-1.095-1.565-2.12.152-.993 1.095-1.68 2.12-1.566.993.153 1.68 1.096 1.566 2.121zm18.256 2.823c-.153.993-1.096 1.68-2.121 1.565-.993-.152-1.68-1.095-1.565-2.12.152-.993 1.095-1.68 2.12-1.566 1.03.186 1.718 1.129 1.566 2.121zm-15.4-21.116c-.152.992-1.095 1.68-2.12 1.565-.993-.152-1.681-1.095-1.566-2.12.152-.993 1.095-1.68 2.12-1.566 1.03.186 1.718 1.129 1.566 2.121zm18.223 2.86c-.152.993-1.095 1.68-2.12 1.565-.993-.152-1.681-1.095-1.566-2.12.152-.993 1.095-1.68 2.12-1.565 1.063.148 1.751 1.09 1.566 2.12zM7.385 98.712c.152-.993 1.095-1.68 2.12-1.565.993.152 1.68 1.095 1.566 2.12-.153.993-1.096 1.681-2.121 1.565-.993-.152-1.717-1.128-1.565-2.12zM-3.19 106.43c.152-.992 1.095-1.68 2.12-1.565.993.152 1.681 1.095 1.566 2.121-.152.992-1.095 1.68-2.12 1.565-.993-.153-1.718-1.129-1.566-2.121zm18.293 2.856c.152-.992 1.095-1.68 2.12-1.565.993.153 1.681 1.096 1.566 2.121-.152.993-1.095 1.68-2.12 1.565-1.03-.185-1.718-1.128-1.566-2.121zM-.296 88.17c.152-.992 1.095-1.68 2.12-1.565.993.152 1.68 1.095 1.565 2.12-.152.993-1.095 1.681-2.12 1.566-1.03-.185-1.718-1.128-1.565-2.12zm18.256 2.824c.152-.993 1.095-1.68 2.12-1.566.992.153 1.68 1.096 1.565 2.121-.152.993-1.095 1.68-2.12 1.565-1.063-.148-1.75-1.09-1.566-2.12zm8.892 12.612c-.577-.247-.989-.679-1.129-1.268-.05-.243-.099-.486-.008-.737.103-.638.494-1.153 1.041-1.396a4.13 4.13 0 0 1 .692-.181c.14-.009.247.02.387.012.247.021.499.111.684.276.437.255.704.626.803 1.112.05.243.099.486.009.737-.153.992-1.096 1.68-2.121 1.565-.144-.062-.251-.091-.358-.12zM1.705 135.26c.152-.992 1.095-1.68 2.12-1.565.993.152 1.681 1.095 1.566 2.121-.152.992-1.095 1.68-2.12 1.565-1.063-.148-1.751-1.091-1.566-2.121zm7.718 10.575c.153-.993 1.096-1.681 2.121-1.565.993.152 1.68 1.095 1.565 2.12-.152.993-1.095 1.681-2.12 1.565-1.03-.185-1.718-1.128-1.566-2.12zm2.857-18.293c.152-.993 1.095-1.68 2.12-1.565.993.152 1.68 1.095 1.566 2.121-.153.992-1.096 1.68-2.121 1.565-1.063-.149-1.75-1.092-1.565-2.121zm8.53 12.423a1.625 1.625 0 0 1-.52-.461 1.543 1.543 0 0 1-.284-.65c-.049-.243-.098-.486-.008-.738.02-.247.111-.498.276-.683a1.967 1.967 0 0 1 1.882-.849c.745.132 1.338.659 1.487 1.388.05.243.098.486.008.737-.152.993-1.095 1.68-2.12 1.565a4.28 4.28 0 0 1-.721-.309zM4.891 118.388a1.866 1.866 0 0 1-.325-1.351c.152-.992 1.095-1.68 2.12-1.565.392.083.717.239.976.47a1.8 1.8 0 0 1 .602 1.264c.008.14-.02.247-.013.387-.152.993-1.095 1.68-2.12 1.565-.536-.144-.972-.399-1.24-.77zm-8.903 53.388c.153-.993 1.096-1.68 2.121-1.565.993.152 1.68 1.095 1.565 2.12-.152.993-1.095 1.681-2.12 1.565a1.81 1.81 0 0 1-1.566-2.12zm7.719 10.575c.152-.993 1.095-1.681 2.12-1.566.993.153 1.68 1.096 1.566 2.121-.153.993-1.096 1.68-2.121 1.565-1.063-.148-1.75-1.091-1.565-2.12zm2.823-18.256c.152-.992 1.095-1.68 2.12-1.565.993.152 1.681 1.095 1.566 2.121-.152.992-1.095 1.68-2.12 1.565-.993-.153-1.718-1.129-1.566-2.121zm8.307 12.226a1.802 1.802 0 0 1-.601-1.265c-.008-.14.02-.247.012-.387.153-.992 1.096-1.68 2.121-1.565.745.132 1.338.659 1.487 1.388.05.243.099.486.008.737a1.771 1.771 0 0 1-.737 1.203 1.87 1.87 0 0 1-1.35.325 1.79 1.79 0 0 1-.94-.436zm-15.988-22.768a1.95 1.95 0 0 1 .47-.976c.164-.185.366-.338.572-.42.341-.161.691-.182 1.078-.169.532.074.935.366 1.203.737.268.37.404.889.325 1.351a1.77 1.77 0 0 1-.737 1.202c-.37.268-.889.404-1.35.326a1.784 1.784 0 0 1-1.561-2.051zm1.266 63.818c.992.152 1.68 1.095 1.565 2.121-.152.992-1.095 1.68-2.12 1.565-.993-.152-1.681-1.095-1.566-2.121.148-1.062 1.091-1.75 2.12-1.565zm.735-16.728c.153-.992 1.096-1.68 2.121-1.565.993.153 1.68 1.096 1.565 2.121-.152.992-1.095 1.68-2.12 1.565-1.03-.185-1.718-1.128-1.566-2.121zm8.76 9.179c.206-.083.45-.132.692-.181.14-.009.248.02.388.012.992.152 1.68 1.095 1.565 2.121-.153.992-1.096 1.68-2.121 1.565-.993-.153-1.68-1.096-1.565-2.121.103-.638.494-1.153 1.042-1.396zm2.626-15.048a1.637 1.637 0 0 1-.803-1.112c-.05-.243-.099-.486-.008-.737a1.95 1.95 0 0 1 .47-.976c.164-.185.366-.338.572-.42.342-.161.692-.181 1.079-.169.39.082.716.239.976.469.074.066.185.165.226.268.041.103.153.202.194.305l.123.309c.042.102.05.242.058.382s-.02.248-.012.388c-.152.992-1.096 1.68-2.12 1.565a2.34 2.34 0 0 1-.755-.272zM61.876 13.66c-.124.885-.894 1.528-1.734 1.577-.14.009-.247-.02-.387-.012-.107-.029-.247-.02-.358-.12-.79-.304-1.33-1.115-1.174-2.038.02-.247.111-.498.276-.683a1.966 1.966 0 0 1 1.882-.849c.955.12 1.61 1.1 1.495 2.125zM54.158 3.085c-.153.993-1.096 1.68-2.12 1.565-.993-.152-1.681-1.095-1.566-2.12.152-.993 1.095-1.68 2.12-1.565 1.03.185 1.718 1.128 1.566 2.12zm18.255 2.823c-.152.993-1.095 1.68-2.12 1.566-.993-.153-1.68-1.096-1.565-2.121.152-.993 1.095-1.68 2.12-1.565 1.03.185 1.718 1.128 1.565 2.12zm6.191 8.488c.745.131 1.338.658 1.487 1.387.049.243.098.486.008.737-.03.107-.02.247-.12.359-.148.465-.514.803-.96 1.005-.34.16-.69.18-1.078.168a1.185 1.185 0 0 1-.684-.275c-.074-.066-.218-.128-.292-.194-.074-.066-.185-.165-.227-.268a1.537 1.537 0 0 1-.284-.65c-.05-.243-.099-.486-.008-.737.103-.639.494-1.154 1.042-1.397.341-.16.725-.218 1.116-.136zM55.57 48.524c.37.33.573.774.602 1.264.008.14-.02.248-.013.388-.029.107-.02.247-.12.358-.147.465-.514.803-.959 1.005-.341.16-.691.181-1.078.169a1.769 1.769 0 0 1-1.203-.737 1.867 1.867 0 0 1-.325-1.351c.152-.992 1.095-1.68 2.12-1.565.392.082.717.239.976.47zM37.055 45.47c.437.256.671.663.803 1.112.05.243.099.486.008.737-.028.108-.02.248-.119.359-.148.465-.515.803-.96 1.005-.341.16-.691.18-1.078.169-.107-.03-.247-.021-.359-.12-.25-.09-.432-.185-.584-.387a1.788 1.788 0 0 1-.544-.881c-.05-.243-.099-.486-.008-.737.02-.247.11-.498.276-.684a1.966 1.966 0 0 1 1.881-.848c.215.057.466.148.684.276zm21.96-13.587c-.152.992-1.095 1.68-2.12 1.565-.993-.153-1.68-1.096-1.565-2.121.152-.993 1.095-1.68 2.12-1.565 1.03.185 1.718 1.128 1.565 2.12zM40.76 29.06a1.18 1.18 0 0 1-.276.683 1.966 1.966 0 0 1-1.882.848 1.185 1.185 0 0 1-.684-.276 1.634 1.634 0 0 1-.519-.46 1.537 1.537 0 0 1-.284-.651c-.05-.243-.099-.486-.008-.737a1.18 1.18 0 0 1 .276-.684c.127-.218.292-.404.461-.519a1.86 1.86 0 0 1 1.35-.325c.993.152 1.68 1.095 1.566 2.12zm7.681 10.54c-.152.993-1.095 1.681-2.12 1.566-.993-.152-1.681-1.095-1.566-2.12.152-.993 1.095-1.681 2.12-1.566 1.03.185 1.718 1.128 1.566 2.12zm18.293 2.857c-.152.993-1.095 1.68-2.12 1.565-.993-.152-1.681-1.095-1.566-2.12.152-.993 1.096-1.68 2.12-1.565 1.03.185 1.718 1.128 1.566 2.12zM51.301 21.378c-.152.993-1.095 1.68-2.12 1.565-.993-.152-1.68-1.095-1.565-2.12.152-.993 1.095-1.68 2.12-1.566 1.026.116 1.714 1.059 1.565 2.121zm18.256 2.823c-.152.993-1.095 1.68-2.12 1.566-.993-.153-1.68-1.096-1.566-2.121.153-.993 1.096-1.68 2.121-1.565 1.063.148 1.75 1.09 1.565 2.12zm3.33 26.71c.247.02.498.111.684.276.074.066.218.128.292.194.26.23.453.535.544.88.05.244.099.487.008.738-.029.107-.02.247-.12.358-.148.465-.514.803-.959 1.005-.341.16-.692.181-1.079.169a1.952 1.952 0 0 1-.976-.47 1.8 1.8 0 0 1-.601-1.264c-.008-.14.02-.247.012-.387.03-.107.02-.247.12-.358.09-.251.185-.432.387-.585.164-.185.366-.337.572-.42.379-.128.762-.185 1.116-.136zm2.469-18.305c.14-.008.247.02.387.012.993.152 1.68 1.096 1.565 2.12-.152.993-1.095 1.681-2.12 1.566-.993-.152-1.68-1.095-1.566-2.12.103-.639.495-1.154 1.042-1.397a4.16 4.16 0 0 1 .692-.181zM30.622 81.747c.992.153 1.68 1.096 1.565 2.121-.03.107-.02.247-.12.358a.918.918 0 0 1-.156.326 1.634 1.634 0 0 1-.461.519c-.103.04-.202.152-.305.193l-.309.124c-.243.05-.486.099-.737.008a1.185 1.185 0 0 1-.684-.276c-.074-.066-.218-.127-.292-.193-.074-.066-.185-.165-.227-.268a1.539 1.539 0 0 1-.284-.65c-.05-.244-.099-.487-.008-.738.02-.247.111-.498.276-.683.127-.219.292-.404.461-.52.3-.263.787-.362 1.28-.32zm22.681-13.278c-.152.992-1.095 1.68-2.12 1.565-.993-.153-1.681-1.096-1.566-2.121.152-.993 1.095-1.68 2.12-1.565 1.063.148 1.751 1.091 1.566 2.12zM34.162 63.73c.51.321.823.865.86 1.495.009.14-.02.247-.012.387a1.77 1.77 0 0 1-.737 1.203 1.87 1.87 0 0 1-1.35.325c-.993-.152-1.68-1.095-1.566-2.12.153-.993 1.096-1.68 2.121-1.566.251.09.502.181.684.276zm8.599 12.42c-.152.992-1.095 1.68-2.12 1.565-.993-.153-1.68-1.096-1.565-2.121.152-.992 1.095-1.68 2.12-1.565 1.03.185 1.718 1.128 1.565 2.12zm18.223 2.86c-.152.992-1.095 1.68-2.12 1.565-.993-.152-1.68-1.095-1.566-2.12.153-.993 1.096-1.68 2.121-1.566 1.063.148 1.75 1.092 1.565 2.121zM45.585 57.894c-.153.992-1.096 1.68-2.12 1.565-.993-.152-1.681-1.095-1.566-2.12.152-.993 1.095-1.681 2.12-1.566 1.063.148 1.751 1.091 1.566 2.12zm18.292 2.856c-.152.993-1.095 1.68-2.12 1.565-.993-.152-1.68-1.095-1.565-2.12.152-.993 1.095-1.68 2.12-1.565 1.03.185 1.718 1.128 1.566 2.12zm6.153 8.454c.746.132 1.34.659 1.487 1.388.05.243.1.486.009.737-.152.992-1.095 1.68-2.12 1.565-.993-.153-1.681-1.095-1.566-2.12.029-.108.02-.248.12-.36.148-.465.514-.802.959-1.004.375-.198.72-.288 1.112-.206zm-26.06 35.22c.153-.992 1.096-1.68 2.121-1.565.993.152 1.68 1.095 1.565 2.121-.152.992-1.095 1.68-2.12 1.565-1.063-.148-1.75-1.091-1.566-2.121zm-10.574 7.718c.152-.992 1.095-1.68 2.12-1.565.993.153 1.68 1.096 1.566 2.121-.153.992-1.096 1.68-2.121 1.565-1.03-.185-1.717-1.128-1.565-2.121zm18.256 2.824c.152-.993 1.095-1.681 2.12-1.565.993.152 1.68 1.095 1.565 2.12-.152.993-1.095 1.681-2.12 1.565a1.81 1.81 0 0 1-1.565-2.12zm-15.4-21.116c.152-.993 1.095-1.68 2.12-1.566.993.153 1.681 1.096 1.566 2.121-.152.993-1.095 1.68-2.12 1.565-1.063-.148-1.751-1.09-1.566-2.12zm18.26 2.893c.152-.992 1.095-1.68 2.12-1.565.993.152 1.681 1.095 1.566 2.12-.153.993-1.095 1.68-2.12 1.566-1.03-.186-1.718-1.129-1.566-2.121zm-7.718-10.574a1.95 1.95 0 0 1 .47-.976c.164-.186.366-.338.572-.42.341-.161.691-.182 1.078-.17.532.075.935.367 1.203.738.268.37.404.889.326 1.35a1.769 1.769 0 0 1-.737 1.203c-.371.267-.89.403-1.351.325a1.783 1.783 0 0 1-1.561-2.05zm-8.574 54.808c.153-.993 1.096-1.68 2.122-1.565.992.152 1.68 1.095 1.565 2.12-.153.993-1.096 1.681-2.121 1.566-1.03-.186-1.718-1.129-1.565-2.121zm-10.54 7.681c.151-.992 1.095-1.68 2.12-1.565.992.152 1.68 1.095 1.565 2.121-.152.992-1.095 1.68-2.12 1.565-1.063-.148-1.751-1.091-1.566-2.121zm18.26 2.894c.151-.993 1.094-1.681 2.12-1.565.992.152 1.68 1.095 1.565 2.12-.152.993-1.095 1.68-2.12 1.565-1.03-.185-1.718-1.128-1.566-2.12zm-15.437-21.149c.152-.993 1.095-1.681 2.12-1.565.993.152 1.68 1.095 1.565 2.12-.152.993-1.095 1.681-2.12 1.565-.993-.152-1.68-1.095-1.565-2.12zm18.292 2.856c.153-.993 1.096-1.681 2.121-1.565.992.152 1.68 1.095 1.565 2.12-.152.993-1.095 1.68-2.12 1.565-1.03-.185-1.718-1.128-1.566-2.12zm7.719 10.575c.074-.532.366-.935.737-1.203a1.86 1.86 0 0 1 1.35-.325c.993.152 1.68 1.095 1.565 2.12-.152.993-1.095 1.68-2.12 1.565-.997-.222-1.685-1.165-1.532-2.157zm-13.872-19.029a1.955 1.955 0 0 1-.976-.47 1.826 1.826 0 0 1-.589-1.651c.152-.992 1.095-1.68 2.12-1.565.993.152 1.68 1.095 1.566 2.121-.03.107-.02.247-.12.358-.148.465-.514.803-.96 1.005-.304.193-.687.251-1.041.202zm-18.292-2.857a1.945 1.945 0 0 1-.977-.469 1.585 1.585 0 0 1-.42-.572 4.135 4.135 0 0 1-.181-.692c-.008-.14.02-.247.012-.387.03-.107.02-.247.12-.359.09-.251.185-.432.387-.584.164-.186.366-.338.572-.42.342-.161.692-.182 1.079-.169.247.02.498.111.684.276.074.065.218.127.292.193.26.231.453.535.544.881.05.243.099.486.008.737-.029.107-.02.247-.12.359-.148.465-.514.803-.959 1.005-.267.226-.65.284-1.042.201zm36.585 5.713c-.992-.152-1.68-1.095-1.565-2.12.029-.108.02-.248.12-.359.09-.251.185-.432.386-.585.165-.185.367-.337.573-.42.342-.16.692-.181 1.079-.169.354.05.716.239.976.47a1.8 1.8 0 0 1 .601 1.264c.008.14-.02.247-.012.387-.222.997-1.165 1.684-2.158 1.532zm-28.394 49.865c.152-.993 1.095-1.681 2.12-1.565.993.152 1.681 1.095 1.566 2.12-.152.993-1.095 1.681-2.12 1.565-1.03-.185-1.718-1.128-1.566-2.12zm-10.574 7.718c.152-.993 1.095-1.68 2.12-1.565.993.152 1.68 1.095 1.565 2.121-.152.992-1.095 1.68-2.12 1.565-1.03-.186-1.718-1.129-1.565-2.121zm18.255 2.823c.153-.992 1.096-1.68 2.121-1.565.992.152 1.68 1.095 1.565 2.121-.152.992-1.095 1.68-2.12 1.565-.993-.152-1.718-1.128-1.566-2.121zm-15.399-21.116c.152-.992 1.095-1.68 2.12-1.565.993.152 1.68 1.095 1.566 2.121-.153.992-1.096 1.68-2.121 1.565-1.03-.186-1.717-1.129-1.565-2.121zm18.293 2.857c.152-.993 1.095-1.681 2.12-1.566.993.153 1.68 1.096 1.566 2.121-.153.993-1.096 1.68-2.121 1.565-1.063-.148-1.75-1.091-1.565-2.12zm7.681 10.541c.029-.107.02-.247.12-.358.148-.465.514-.803.959-1.005.342-.161.692-.181 1.079-.169.354.049.716.239.976.469.37.33.572.775.601 1.265.009.14-.02.247-.012.387a1.767 1.767 0 0 1-.737 1.202c-.37.268-.89.404-1.35.326-1.133-.144-1.821-1.087-1.636-2.117zm-13.905-18.992a1.945 1.945 0 0 1-.976-.469 1.826 1.826 0 0 1-.588-1.651c.152-.993 1.095-1.681 2.12-1.565.993.152 1.68 1.095 1.565 2.12-.029.107-.02.247-.12.359-.147.465-.514.803-.959 1.005-.234.189-.617.247-1.041.201zm-18.222-2.86a1.768 1.768 0 0 1-1.203-.737 1.868 1.868 0 0 1-.325-1.351c.02-.247.11-.498.276-.683.193-.293.46-.519.766-.713a4.13 4.13 0 0 1 .691-.181c.14-.008.247.02.387.012.248.021.499.111.684.276.437.255.671.663.803 1.112.05.243.1.486.009.737-.124.885-.894 1.528-1.734 1.577-.107-.028-.247-.02-.354-.049zm36.157 5.598c-.577-.248-.988-.68-1.128-1.269-.05-.243-.1-.486-.009-.737.02-.247.111-.498.276-.684a1.966 1.966 0 0 1 1.882-.848c.247.021.498.111.684.276.436.255.704.626.803 1.112.05.243.099.486.008.737-.029.107-.02.247-.12.358a1.76 1.76 0 0 1-.35.618 1.825 1.825 0 0 1-1.65.589c-.145-.062-.252-.091-.396-.152zm-25.915 48.418c.993.153 1.68 1.096 1.565 2.121-.152.993-1.095 1.68-2.12 1.565-.993-.152-1.68-1.095-1.565-2.121.185-1.029 1.128-1.717 2.12-1.565zm-10.542 7.682c.816.127 1.417.794 1.533 1.56-1.223.108-2.447.215-3.674.252.03-.107-.012-.21.017-.317.156-.923 1.1-1.611 2.125-1.495zm.736-16.728c.153-.993 1.095-1.681 2.12-1.565.993.152 1.681 1.095 1.566 2.12-.152.993-1.095 1.681-2.12 1.565-1.026-.115-1.714-1.058-1.566-2.12zm20.381 1.328c.992.152 1.68 1.095 1.565 2.121-.152.992-1.095 1.68-2.12 1.565-.993-.152-1.681-1.095-1.566-2.121.185-1.029 1.128-1.717 2.12-1.565zm7.718 10.574c.247.021.498.111.684.276.436.255.67.663.803 1.112.05.243.099.486.008.737-.029.107-.02.247-.12.358-.09.252-.185.433-.386.585l-.033.037c-.523.066-1.01.165-1.565.268-.21.012-.383.058-.626.107-.47-.218-.811-.655-.947-1.173-.05-.243-.1-.486-.009-.738.256-1.033 1.198-1.721 2.191-1.569zm-15.992-17.463c-.107-.029-.247-.021-.358-.119-.252-.091-.433-.186-.585-.387a1.828 1.828 0 0 1-.59-1.652c.03-.107.021-.247.12-.358.09-.251.185-.432.387-.585.165-.185.367-.338.573-.42.341-.161.691-.181 1.078-.169.392.082.717.239.977.47.444.395.692 1.013.589 1.651-.124.885-.894 1.528-1.734 1.577-.21.013-.317-.016-.457-.008zM96.86 17.219a1.77 1.77 0 0 1 1.202.737c.268.37.404.89.326 1.35a1.769 1.769 0 0 1-.737 1.203c-.371.268-.89.404-1.351.325-.993-.152-1.68-1.095-1.565-2.12.05-.354.239-.717.47-.976.164-.186.366-.338.572-.42.346-.09.728-.149 1.083-.1zm4.388-16.135c-.152.992-1.095 1.68-2.12 1.565-.993-.152-1.681-1.095-1.566-2.12.152-.993 1.095-1.681 2.12-1.566 1.063.148 1.751 1.091 1.566 2.12zM82.144-3.622c.436.256.671.663.803 1.112.05.243.099.486.008.737a1.77 1.77 0 0 1-.737 1.203 1.86 1.86 0 0 1-1.35.325 1.951 1.951 0 0 1-.977-.469 1.8 1.8 0 0 1-.601-1.264c-.008-.14.02-.247.012-.387.153-.993 1.096-1.68 2.121-1.565.284.053.502.18.72.308zm8.562 12.387c-.152.992-1.095 1.68-2.12 1.565-.993-.152-1.68-1.095-1.565-2.12.152-.993 1.095-1.681 2.12-1.566 1.03.185 1.718 1.128 1.565 2.12zm18.26 2.893c-.152.993-1.095 1.68-2.121 1.566-.992-.153-1.68-1.096-1.565-2.121.153-.993 1.096-1.68 2.121-1.565 1.063.148 1.75 1.09 1.565 2.12zm9.01-9.838c.354.049.716.238.976.469.37.33.572.774.601 1.264.008.14-.02.247-.012.387a1.77 1.77 0 0 1-.737 1.203c-.371.267-.89.403-1.351.325-.992-.152-1.68-1.095-1.565-2.12.029-.108.021-.248.119-.359.149-.465.515-.803.96-1.005.272-.156.655-.214 1.009-.165zM92.675 55.892c-.029.107-.02.247-.12.358-.148.466-.514.804-.959 1.005-.342.161-.692.182-1.079.17a1.95 1.95 0 0 1-.976-.47 1.826 1.826 0 0 1-.589-1.651c.153-.993 1.096-1.68 2.12-1.565 1.1.18 1.788 1.124 1.603 2.153zm2.893-18.259c-.152.992-1.095 1.68-2.12 1.565-.993-.153-1.68-1.096-1.565-2.121.152-.992 1.095-1.68 2.12-1.565.993.152 1.68 1.095 1.565 2.12zM84.994 45.35c-.153.993-1.096 1.681-2.12 1.566-.993-.152-1.681-1.095-1.566-2.12.152-.993 1.095-1.681 2.12-1.566 1.026.115 1.714 1.058 1.566 2.12zm18.255 2.824c-.152.992-1.095 1.68-2.12 1.565-.993-.152-1.68-1.095-1.565-2.12.152-.993 1.095-1.68 2.12-1.566 1.03.186 1.718 1.129 1.565 2.121zM87.85 27.058c-.152.992-1.095 1.68-2.12 1.565-.993-.152-1.68-1.095-1.566-2.12.153-.993 1.096-1.681 2.121-1.566 1.03.185 1.717 1.128 1.565 2.12zm18.256 2.823c-.152.993-1.095 1.68-2.121 1.565-.992-.152-1.68-1.095-1.565-2.12.152-.993 1.095-1.68 2.121-1.566 1.029.186 1.717 1.129 1.565 2.121zm3.297 26.747c.247.02.498.11.683.276.074.065.219.127.293.193.37.33.572.774.601 1.264.008.14-.021.247-.012.387a1.77 1.77 0 0 1-.737 1.203c-.371.268-.89.404-1.351.325-.992-.152-1.68-1.095-1.565-2.12.049-.354.239-.717.469-.976.165-.186.367-.338.573-.42a2.122 2.122 0 0 1 1.046-.132zm-19.551 17.52c-.153.993-1.096 1.68-2.121 1.565-.992-.152-1.68-1.095-1.565-2.12.152-.993 1.095-1.68 2.12-1.566 1.03.186 1.718 1.129 1.566 2.121zm-14.228 7.126c.152-.993 1.095-1.68 2.12-1.565.993.152 1.681 1.095 1.566 2.12-.153.993-1.095 1.68-2.12 1.566-1.026-.116-1.714-1.059-1.566-2.121zm18.26 2.893c.152-.993 1.095-1.68 2.12-1.565.993.152 1.681 1.095 1.566 2.12-.152.993-1.095 1.68-2.12 1.566-1.03-.186-1.718-1.129-1.566-2.121zM82.133 63.574c-.152.992-1.095 1.68-2.12 1.565-.993-.153-1.68-1.096-1.565-2.121.152-.993 1.095-1.68 2.12-1.565 1.03.185 1.718 1.128 1.565 2.12zm18.26 2.893c-.152.993-1.095 1.68-2.12 1.565-.993-.152-1.68-1.095-1.566-2.12.153-.993 1.096-1.68 2.121-1.566 1.063.148 1.75 1.091 1.565 2.121zm-19.907 43.674c.152-.993 1.096-1.68 2.12-1.565.993.152 1.681 1.095 1.566 2.121-.152.992-1.095 1.68-2.12 1.565-1.03-.186-1.718-1.129-1.566-2.121zm-16.728-.736a1.944 1.944 0 0 1-.976-.469 1.8 1.8 0 0 1-.6-1.264c-.01-.14.02-.247.011-.387.153-.993 1.096-1.681 2.121-1.565.746.131 1.339.658 1.487 1.387.05.243.099.486.008.737-.029.107-.02.247-.12.359-.147.465-.514.803-.959 1.005-.234.189-.617.247-.972.197zm6.154 8.454c.152-.992 1.095-1.68 2.12-1.565.993.152 1.68 1.095 1.565 2.121-.152.992-1.095 1.68-2.12 1.565-1.03-.185-1.718-1.128-1.566-2.121zm18.292 2.857c.153-.993 1.096-1.681 2.121-1.565.993.152 1.68 1.095 1.565 2.12-.152.993-1.095 1.681-2.12 1.565-1.03-.185-1.718-1.128-1.566-2.12zm-15.436-21.15c.152-.992 1.095-1.68 2.12-1.565.993.152 1.68 1.095 1.566 2.121-.153.992-1.096 1.68-2.121 1.565-1.03-.185-1.717-1.128-1.565-2.12zm18.292 2.857c.153-.993 1.096-1.681 2.121-1.565.993.152 1.68 1.095 1.565 2.12-.152.993-1.095 1.681-2.12 1.565-1.03-.185-1.718-1.128-1.565-2.12zm7.719 10.574c.152-.992 1.095-1.68 2.121-1.565.247.021.498.111.683.276.511.321.824.865.861 1.495.008.14-.021.247-.012.387a1.773 1.773 0 0 1-.737 1.203c-.371.267-.89.403-1.351.325-1.03-.185-1.717-1.128-1.565-2.121zM84.908 93.969a1.952 1.952 0 0 1-.976-.47 1.826 1.826 0 0 1-.59-1.65c.153-.993 1.096-1.681 2.121-1.566.993.152 1.68 1.095 1.565 2.12-.029.108-.02.248-.119.359-.148.465-.515.803-.96 1.005-.304.194-.687.251-1.041.202zm-18.293-2.856a1.77 1.77 0 0 1-1.203-.737 1.867 1.867 0 0 1-.325-1.351c.02-.247.11-.498.275-.684.194-.292.495-.556.766-.712a4.14 4.14 0 0 1 .692-.181c.14-.009.247.02.387.012.993.152 1.68 1.095 1.565 2.12-.123.886-.893 1.529-1.733 1.578-.177-.025-.317-.017-.424-.045zm36.194 5.63c-.576-.247-.988-.68-1.165-1.301-.05-.243-.099-.486-.009-.738.021-.247.111-.498.276-.683a1.966 1.966 0 0 1 1.882-.849c.247.02.498.111.684.276.436.255.704.626.803 1.112.049.243.099.486.008.737-.029.107-.021.247-.119.358-.305.791-1.116 1.33-2.039 1.174l-.321-.086zM74.77 146.657c.152-.993 1.095-1.681 2.12-1.566.993.153 1.68 1.096 1.565 2.121-.152.993-1.095 1.68-2.12 1.565-.993-.152-1.68-1.095-1.566-2.12zm-10.575 7.718c.152-.993 1.095-1.68 2.12-1.565.993.152 1.68 1.095 1.566 2.12-.153.993-1.096 1.681-2.121 1.565-.993-.152-1.68-1.095-1.565-2.12zm18.293 2.856c.152-.992 1.095-1.68 2.12-1.565.993.152 1.68 1.095 1.565 2.121-.152.992-1.095 1.68-2.12 1.565-1.03-.185-1.718-1.128-1.565-2.121zm-15.4-21.116c.153-.992 1.096-1.68 2.12-1.565.993.152 1.681 1.095 1.566 2.121-.152.992-1.095 1.68-2.12 1.565-1.063-.148-1.751-1.091-1.566-2.121zm18.256 2.823c.152-.992 1.095-1.68 2.12-1.565.993.153 1.68 1.096 1.566 2.121-.153.992-1.096 1.68-2.121 1.565-1.026-.115-1.75-1.091-1.565-2.121zm8.892 12.613c-.577-.247-.988-.679-1.129-1.268-.049-.243-.098-.486-.008-.737.103-.638.494-1.153 1.042-1.396.206-.083.449-.132.692-.182.14-.008.247.021.387.013.247.02.498.111.683.276.437.255.672.663.804 1.111.05.243.099.486.008.738-.152.992-1.095 1.68-2.12 1.565-.145-.062-.252-.091-.359-.12zm-15.078-21.029c-.107-.029-.247-.021-.358-.12-.251-.09-.433-.185-.585-.387a1.826 1.826 0 0 1-.59-1.651c.03-.107.021-.247.12-.358.09-.251.185-.433.387-.585.165-.185.367-.338.573-.42.341-.161.692-.181 1.079-.169.39.082.716.239.976.469.444.396.691 1.013.589 1.652-.124.885-.894 1.527-1.734 1.577-.21.012-.317-.016-.457-.008zm-11.883 69.58c.342-.161.692-.181 1.08-.169.53.074.934.366 1.202.737.04.103.152.202.193.305.083.206.132.449.181.692.009.14-.02.247-.012.387-.152.992-1.095 1.68-2.12 1.565-.993-.153-1.68-1.096-1.566-2.121a1.95 1.95 0 0 1 .47-.976c.165-.185.333-.301.572-.42zm1.815-16.897c.152-.992 1.095-1.68 2.12-1.565.993.153 1.68 1.096 1.565 2.121-.152.993-1.095 1.68-2.12 1.565-1.063-.148-1.75-1.091-1.565-2.121zm-10.575 7.719c.152-.993 1.096-1.681 2.12-1.565.993.152 1.681 1.095 1.566 2.12-.152.993-1.095 1.681-2.12 1.565-1.03-.185-1.718-1.128-1.566-2.12zm18.293 2.856c.152-.993 1.095-1.681 2.12-1.565.993.152 1.681 1.095 1.566 2.12-.152.993-1.095 1.681-2.12 1.565-1.063-.148-1.751-1.091-1.566-2.12zm-15.437-21.149c.153-.993 1.096-1.681 2.121-1.565.993.152 1.68 1.095 1.565 2.12-.152.993-1.095 1.681-2.12 1.565-1.063-.148-1.75-1.091-1.566-2.12zm18.261 2.893c.152-.992 1.095-1.68 2.12-1.565.993.152 1.68 1.095 1.565 2.121-.152.992-1.095 1.68-2.12 1.565-1.03-.185-1.718-1.128-1.566-2.121zm5.899 27.402c.206-.083.449-.132.692-.182.14-.008.247.021.387.013.247.02.498.111.684.275.074.066.218.128.292.194.26.231.453.535.544.881.05.243.099.486.008.737-.124.886-.894 1.528-1.734 1.578-.14.008-.247-.021-.387-.013-.107-.028-.247-.02-.358-.119-.251-.091-.432-.185-.585-.387a1.826 1.826 0 0 1-.589-1.651c.029-.107.02-.247.12-.359.152-.395.518-.733.926-.967zm2.663-15.016a1.624 1.624 0 0 1-.519-.461 1.53 1.53 0 0 1-.284-.65c-.05-.243-.099-.486-.008-.737.152-.993 1.095-1.681 2.12-1.566.746.132 1.339.659 1.487 1.388.05.243.099.486.008.737-.152.993-1.095 1.681-2.12 1.565-.247-.02-.466-.148-.684-.276zm-15.918-21.577a1.866 1.866 0 0 1-.326-1.351c.02-.247.111-.498.276-.683a1.967 1.967 0 0 1 1.882-.849c.992.153 1.68 1.096 1.565 2.121-.152.993-1.095 1.68-2.12 1.565-.606-.14-1.01-.432-1.277-.803zM57.78 207.652c.992.152 1.68 1.095 1.565 2.12-.152.993-1.096 1.68-2.12 1.565-.993-.152-1.681-1.095-1.566-2.12.185-1.03 1.128-1.718 2.12-1.565zm18.292 2.856c.639.103 1.19.527 1.4 1.111-1.136.384-2.31.734-3.483 1.084l-.037-.63c.115-1.026 1.058-1.713 2.12-1.565zm-26.566-9.746a1.953 1.953 0 0 1-.976-.469 1.826 1.826 0 0 1-.59-1.651c.075-.532.367-.935.738-1.203a1.86 1.86 0 0 1 1.35-.325c.993.152 1.68 1.095 1.566 2.12-.03.107-.021.247-.12.359-.148.465-.515.803-.96 1.004-.271.157-.654.215-1.008.165zM134.94 25.056c-.029.107-.02.247-.119.359-.148.465-.515.803-.96 1.005-.341.16-.691.18-1.079.168a1.954 1.954 0 0 1-.976-.469 1.828 1.828 0 0 1-.589-1.651c.153-.993 1.096-1.68 2.121-1.565 1.1.18 1.787 1.124 1.602 2.153zm-19.788-4.981c.993.153 1.681 1.096 1.565 2.121-.123.885-.893 1.528-1.733 1.577-.14.009-.247-.02-.387-.012-.107-.029-.247-.02-.359-.12-.358-.119-.617-.35-.844-.617a1.866 1.866 0 0 1-.325-1.35 1.18 1.18 0 0 1 .276-.684c.127-.219.292-.404.461-.52.366-.337.815-.469 1.346-.395zm22.645-13.312c-.153.993-1.096 1.68-2.121 1.565-.992-.152-1.68-1.095-1.565-2.12.152-.993 1.095-1.68 2.121-1.565 1.029.185 1.717 1.128 1.565 2.12zm-10.575 7.719c-.152.992-1.095 1.68-2.121 1.565-.992-.152-1.68-1.096-1.565-2.12.153-.993 1.096-1.681 2.121-1.566 1.062.148 1.717 1.128 1.565 2.12zm18.293 2.856c-.153.993-1.096 1.68-2.121 1.565-.992-.152-1.68-1.095-1.565-2.12.152-.993 1.095-1.68 2.121-1.566 1.029.186 1.717 1.129 1.565 2.121zm2.856-18.293c-.152.993-1.095 1.68-2.121 1.565-.992-.152-1.68-1.095-1.565-2.12.153-.993 1.096-1.68 2.121-1.566 1.03.186 1.717 1.129 1.565 2.121zm2.91 26.735c.14-.009.247.02.387.012.247.02.498.111.684.276.436.255.704.626.803 1.111.049.244.099.487.008.738-.029.107-.02.247-.119.358-.305.79-1.116 1.33-2.039 1.174-.992-.152-1.68-1.096-1.565-2.12.021-.248.111-.5.276-.684.194-.293.494-.556.766-.713.346-.09.589-.14.799-.152zm-19.164 17.532c-.153.993-1.095 1.68-2.121 1.565-.992-.152-1.68-1.095-1.565-2.12.152-.993 1.095-1.68 2.121-1.565 1.029.185 1.717 1.128 1.565 2.12zm-18.334-3.557c.049.243.099.486.008.738-.029.107-.02.247-.119.358-.091.251-.185.432-.387.585a1.826 1.826 0 0 1-1.651.589c-.108-.03-.248-.02-.359-.12-.576-.247-.988-.679-1.128-1.268-.05-.243-.099-.486-.009-.737.153-.992 1.096-1.68 2.121-1.565.783.164 1.376.692 1.524 1.42zm7.759 11.275c-.152.992-1.095 1.68-2.12 1.565-.993-.152-1.681-1.095-1.565-2.12.152-.993 1.095-1.68 2.12-1.566 1.03.186 1.718 1.129 1.565 2.121zm14.608 2.3c.152-.992 1.095-1.68 2.12-1.564.993.152 1.68 1.095 1.565 2.12-.152.993-1.095 1.68-2.12 1.566-1.03-.186-1.718-1.129-1.565-2.121zm-11.751-20.593c-.153.993-1.096 1.68-2.121 1.566-.993-.153-1.68-1.096-1.565-2.121.152-.993 1.095-1.68 2.12-1.565 1.03.185 1.718 1.128 1.566 2.12zm18.26 2.893c-.153.993-1.096 1.68-2.121 1.566-.993-.153-1.68-1.096-1.565-2.121.152-.992 1.095-1.68 2.12-1.565 1.063.148 1.751 1.091 1.566 2.12zm4.617 11.601a1.795 1.795 0 0 1-.601-1.264c-.009-.14.02-.247.012-.387.152-.992 1.095-1.68 2.121-1.565.247.02.498.111.683.276.437.255.671.663.803 1.112.05.243.099.486.009.737a1.77 1.77 0 0 1-.737 1.202c-.371.268-.89.404-1.351.326-.317-.017-.643-.173-.939-.437zm-24.525 32.074c.153-.993 1.096-1.68 2.121-1.565.992.152 1.68 1.095 1.565 2.12-.152.993-1.095 1.68-2.121 1.566-1.029-.186-1.717-1.129-1.565-2.121zm-16.727-.735a1.186 1.186 0 0 1-.684-.276 1.633 1.633 0 0 1-.519-.462 1.536 1.536 0 0 1-.284-.65c-.05-.243-.099-.486-.008-.737.02-.247.111-.499.275-.684.128-.218.293-.404.462-.519a1.86 1.86 0 0 1 1.35-.325c.993.152 1.681 1.095 1.565 2.12-.02.247-.111.499-.275.684a1.637 1.637 0 0 1-.462.519 1.53 1.53 0 0 1-.65.284 2.826 2.826 0 0 1-.77.045zm6.153 8.453c.152-.992 1.095-1.68 2.121-1.565.992.153 1.68 1.095 1.565 2.12-.153.993-1.096 1.681-2.121 1.566-1.03-.185-1.717-1.128-1.565-2.12zm18.256 2.824c.152-.993 1.095-1.68 2.12-1.566.993.153 1.681 1.096 1.565 2.121-.152.993-1.095 1.68-2.12 1.565-.993-.152-1.718-1.128-1.565-2.12zm-15.4-21.117c.153-.992 1.096-1.68 2.121-1.565.992.152 1.68 1.095 1.565 2.12-.152.993-1.095 1.681-2.121 1.566-1.029-.185-1.717-1.128-1.565-2.12zm18.293 2.857c.152-.993 1.095-1.68 2.121-1.565.992.152 1.68 1.095 1.565 2.12-.153.993-1.096 1.68-2.121 1.566-1.062-.149-1.75-1.092-1.565-2.121zm7.681 10.541c.103-.638.494-1.153 1.042-1.396.206-.082.449-.132.692-.181.14-.008.247.02.387.012.992.153 1.68 1.096 1.565 2.12-.152.993-1.095 1.681-2.121 1.566-1.025-.115-1.75-1.091-1.565-2.12zm-13.904-18.991c-.107-.029-.247-.02-.359-.12-.251-.09-.432-.185-.584-.386a1.825 1.825 0 0 1-.589-1.652c.028-.107.02-.247.119-.358.091-.251.185-.432.387-.585.165-.185.367-.337.572-.42.342-.16.692-.181 1.079-.169.355.05.717.239.976.47.445.395.692 1.012.589 1.65-.123.886-.893 1.529-1.733 1.578-.173.045-.28.017-.457-.008zm-10.068 52.684c.152-.993 1.095-1.681 2.12-1.565.993.152 1.681 1.095 1.565 2.12-.152.993-1.095 1.681-2.12 1.565-1.063-.148-1.75-1.091-1.565-2.12zm-10.575 7.718c.153-.993 1.096-1.68 2.121-1.565.992.152 1.68 1.095 1.565 2.12-.152.993-1.095 1.681-2.121 1.566-1.029-.186-1.717-1.129-1.565-2.121zm18.293 2.856c.152-.992 1.095-1.68 2.121-1.565.992.153 1.68 1.096 1.565 2.121-.153.993-1.096 1.68-2.121 1.565-1.062-.148-1.75-1.091-1.565-2.121zm-15.437-21.149c.153-.992 1.096-1.68 2.121-1.565.993.152 1.68 1.095 1.565 2.121-.152.992-1.095 1.68-2.12 1.565-1.026-.116-1.714-1.058-1.566-2.121zm18.26 2.893c.153-.992 1.096-1.68 2.121-1.565.992.153 1.68 1.096 1.565 2.121-.152.993-1.095 1.68-2.121 1.565-1.029-.185-1.717-1.128-1.565-2.121zm7.719 10.575c.028-.107.02-.247.119-.358.305-.791 1.116-1.33 2.038-1.174.746.132 1.339.659 1.487 1.388.05.243.099.486.008.737-.152.992-1.095 1.68-2.12 1.565-.997-.222-1.685-1.165-1.532-2.158zm-13.872-19.028a1.767 1.767 0 0 1-1.202-.738 1.867 1.867 0 0 1-.326-1.35c.021-.247.111-.499.276-.684a1.966 1.966 0 0 1 1.882-.848c.992.152 1.68 1.095 1.565 2.12-.029.107-.021.247-.119.358-.149.466-.515.804-.96 1.005-.379.128-.762.186-1.116.136zm-10.101 52.721c.152-.993 1.095-1.681 2.121-1.566.992.153 1.68 1.096 1.565 2.121-.152.993-1.095 1.68-2.121 1.565-1.029-.185-1.717-1.128-1.565-2.12zm-10.541 7.681c.152-.993 1.095-1.68 2.12-1.565.993.152 1.681 1.095 1.565 2.12-.152.993-1.095 1.681-2.12 1.565-1.063-.148-1.751-1.091-1.565-2.12zm18.223 2.86c.152-.992 1.095-1.68 2.12-1.565.993.152 1.68 1.095 1.565 2.121-.152.992-1.095 1.68-2.12 1.565-.993-.153-1.681-1.096-1.565-2.121zm-15.4-21.116c.152-.993 1.095-1.68 2.121-1.565.992.152 1.68 1.095 1.565 2.12-.153.993-1.096 1.681-2.121 1.566-1.03-.186-1.717-1.129-1.565-2.121zm18.293 2.856c.152-.992 1.095-1.68 2.12-1.565.993.152 1.681 1.095 1.565 2.121-.152.992-1.095 1.68-2.12 1.565-1.03-.185-1.718-1.128-1.565-2.121zm5.866 27.439c.342-.161.692-.182 1.079-.169.354.049.717.238.976.469a1.8 1.8 0 0 1 .602 1.264c.008.14-.021.247-.013.387-.152.993-1.095 1.681-2.12 1.565a1.767 1.767 0 0 1-1.203-.737 1.86 1.86 0 0 1-.325-1.35c.028-.107.02-.247.119-.359.111-.498.474-.906.885-1.07zm-13.585-38.014c.05-.354.239-.716.47-.976.165-.185.366-.337.572-.42.342-.16.692-.181 1.079-.169.531.074.935.367 1.203.737a.92.92 0 0 1 .193.305c.083.206.132.449.182.692.008.14-.021.247-.013.387-.152.992-1.095 1.68-2.12 1.565-1.03-.185-1.718-1.128-1.566-2.121zm-16.028-.777c-.242.05-.485.099-.736.009a1.186 1.186 0 0 1-.684-.276c-.074-.066-.218-.128-.292-.194-.075-.065-.186-.164-.227-.267a1.54 1.54 0 0 1-.284-.651c-.05-.243-.099-.486-.008-.737.02-.247.11-.498.276-.684.127-.218.292-.403.46-.519a1.87 1.87 0 0 1 1.351-.325c.993.152 1.68 1.095 1.565 2.121-.028.107-.02.247-.119.358a.917.917 0 0 1-.156.325 1.624 1.624 0 0 1-.462.519c-.103.041-.201.153-.304.194-.103.041-.24.119-.38.127zm9.576 54.021c.992.152 1.68 1.095 1.565 2.121-.152.992-1.095 1.68-2.121 1.565-.992-.152-1.68-1.095-1.565-2.121.153-.992 1.129-1.717 2.121-1.565zm-10.574 7.718c.992.153 1.68 1.096 1.565 2.121-.153.993-1.096 1.68-2.121 1.565-.993-.152-1.68-1.095-1.565-2.121.185-1.029 1.128-1.717 2.12-1.565zm.735-16.728c.153-.992 1.096-1.68 2.121-1.565.992.153 1.68 1.096 1.565 2.121-.152.993-1.095 1.68-2.12 1.565-.993-.152-1.68-1.095-1.566-2.121zm20.381 1.329c.992.152 1.68 1.095 1.565 2.121-.152.992-1.095 1.68-2.121 1.565-.992-.153-1.68-1.096-1.565-2.121.185-1.03 1.128-1.717 2.121-1.565zm-9.806-9.047c.02-.247.111-.498.276-.684a1.965 1.965 0 0 1 1.881-.848c.993.152 1.681 1.095 1.566 2.121-.029.107-.021.247-.12.358-.305.791-1.116 1.33-2.038 1.174-1.026-.116-1.713-1.059-1.565-2.121zm-16.728-.735a1.954 1.954 0 0 1-.976-.47 1.583 1.583 0 0 1-.42-.572 4.135 4.135 0 0 1-.181-.692c-.009-.14.02-.247.012-.387.152-.993 1.095-1.68 2.12-1.565.248.02.499.111.684.276.437.255.672.663.803 1.111.05.243.1.486.009.738-.03.107-.02.247-.12.358-.119.358-.35.618-.617.844a.92.92 0 0 1-.305.194c-.235.189-.618.247-1.009.165zm82.615-157.381c-.152.992-1.095 1.68-2.12 1.565-.993-.152-1.681-1.095-1.566-2.12.153-.993 1.096-1.681 2.121-1.566 1.026.116 1.713 1.059 1.565 2.12zM156.048 8.92c.05.243.099.486.008.737-.152.992-1.095 1.68-2.12 1.565a1.187 1.187 0 0 1-.684-.276 1.646 1.646 0 0 1-.803-1.112c-.049-.242-.099-.485-.008-.737a1.18 1.18 0 0 1 .276-.683 1.964 1.964 0 0 1 1.881-.849c.672.066 1.269.663 1.45 1.355zm7.76 11.275c-.153.992-1.096 1.68-2.121 1.565-.992-.153-1.68-1.096-1.565-2.121.152-.992 1.095-1.68 2.121-1.565.992.152 1.717 1.128 1.565 2.12zm14.607 2.3c.152-.993 1.095-1.68 2.12-1.565.993.152 1.681 1.095 1.565 2.12-.152.993-1.095 1.68-2.12 1.566-1.03-.186-1.718-1.129-1.565-2.121zM166.631 1.939c-.152.992-1.095 1.68-2.121 1.565-.992-.152-1.68-1.095-1.565-2.12.152-.993 1.095-1.681 2.121-1.566 1.062.148 1.75 1.091 1.565 2.12zm14.64 2.263c.152-.992 1.095-1.68 2.121-1.565.992.152 1.68 1.095 1.565 2.12-.152.993-1.095 1.681-2.121 1.566-1.062-.148-1.75-1.091-1.565-2.12zm7.718 10.575a1.77 1.77 0 0 1 .737-1.203c.371-.267.89-.403 1.351-.325.992.152 1.68 1.095 1.565 2.12-.152.993-1.095 1.68-2.121 1.566-1.029-.185-1.717-1.128-1.532-2.158zM164.98 48.436c.152-.992 1.095-1.68 2.12-1.565.993.152 1.681 1.095 1.566 2.12-.153.993-1.096 1.68-2.121 1.566-1.026-.116-1.713-1.059-1.565-2.121zm-10.575 7.719c.152-.993 1.095-1.68 2.121-1.566.992.153 1.68 1.096 1.565 2.121-.152.993-1.095 1.68-2.121 1.565-.992-.152-1.68-1.095-1.565-2.12zm18.293 2.855c.152-.992 1.095-1.68 2.121-1.564.992.152 1.68 1.095 1.565 2.12-.152.993-1.095 1.68-2.121 1.565-1.062-.148-1.75-1.09-1.565-2.12zm-15.399-21.115c.152-.993 1.095-1.68 2.12-1.566.993.153 1.681 1.096 1.565 2.121-.152.992-1.095 1.68-2.12 1.565-1.063-.148-1.751-1.091-1.565-2.12zm18.222 2.86c.153-.993 1.096-1.68 2.121-1.565.993.152 1.68 1.095 1.565 2.12-.152.993-1.095 1.68-2.121 1.565-.992-.152-1.717-1.128-1.565-2.12zm7.751 10.537c.029-.107.021-.247.12-.358.305-.79 1.116-1.33 2.038-1.174.391.083.717.24.976.47a1.8 1.8 0 0 1 .602 1.264c.008.14-.021.247-.013.387a1.767 1.767 0 0 1-.737 1.203c-.37.267-.889.403-1.35.325-1.133-.144-1.821-1.087-1.636-2.117zm-15.106-19.728a1.867 1.867 0 0 1-.326-1.35c.021-.248.111-.499.276-.684a1.966 1.966 0 0 1 1.882-.849c.992.152 1.68 1.095 1.565 2.12-.152.993-1.095 1.681-2.121 1.566-.535-.144-1.009-.432-1.276-.803zm-8.899 53.458c.152-.993 1.095-1.68 2.121-1.565.992.152 1.68 1.095 1.565 2.12-.152.993-1.095 1.68-2.121 1.566-1.029-.186-1.717-1.129-1.565-2.121zm-10.542 7.681c.153-.992 1.096-1.68 2.121-1.565.993.152 1.68 1.095 1.565 2.12-.152.993-1.095 1.68-2.121 1.566-1.062-.148-1.75-1.091-1.565-2.121zm18.293 2.857c.153-.993 1.096-1.68 2.121-1.566.993.153 1.68 1.096 1.565 2.121-.152.993-1.095 1.68-2.121 1.565-1.062-.148-1.75-1.091-1.565-2.12zm-15.469-21.113c.152-.992 1.095-1.68 2.121-1.565.992.152 1.68 1.095 1.565 2.12-.153.993-1.096 1.681-2.121 1.566-1.03-.186-1.717-1.129-1.565-2.12zm18.293 2.856c.152-.992 1.095-1.68 2.12-1.565.993.153 1.681 1.096 1.565 2.121-.152.993-1.095 1.68-2.12 1.565-1.03-.185-1.718-1.128-1.565-2.12zm8.888 12.543c-.577-.247-.989-.68-1.129-1.268-.049-.243-.099-.486-.008-.737.152-.993 1.095-1.68 2.12-1.565.248.02.499.111.684.276.437.255.671.663.803 1.111.05.243.099.486.009.738-.029.107-.021.247-.12.358-.09.251-.185.432-.387.585a1.826 1.826 0 0 1-1.651.589c-.07.004-.21.012-.321-.087zm-16.606-23.117c.049-.354.238-.717.469-.976.165-.185.366-.338.572-.42.342-.16.692-.181 1.079-.17.531.075.935.367 1.203.738.041.103.152.202.193.305.083.206.132.449.182.691.008.14-.021.248-.013.388-.152.992-1.095 1.68-2.12 1.565-1.03-.185-1.718-1.128-1.565-2.121zm-16.728-.736a1.186 1.186 0 0 1-.684-.275c-.074-.066-.218-.128-.292-.194-.075-.066-.186-.165-.227-.268a1.535 1.535 0 0 1-.284-.65c-.05-.243-.099-.486-.008-.737.102-.639.494-1.154 1.041-1.397.342-.16.692-.18 1.079-.169.746.132 1.339.66 1.487 1.388.049.243.099.486.008.737-.029.107-.02.247-.119.359-.148.465-.515.803-.96 1.004-.304.194-.65.285-1.041.202zm8.154 55.544c.153-.992 1.096-1.68 2.121-1.565.993.153 1.68 1.096 1.565 2.121-.152.992-1.095 1.68-2.121 1.565-.992-.152-1.68-1.095-1.565-2.121zm-10.574 7.719c.152-.993 1.095-1.681 2.121-1.565.992.152 1.68 1.095 1.565 2.12-.153.993-1.096 1.681-2.121 1.565-.992-.152-1.68-1.095-1.565-2.12zm20.413 1.291c.993.152 1.681 1.095 1.565 2.121-.152.992-1.095 1.68-2.12 1.565-.993-.152-1.681-1.095-1.565-2.121.185-1.029 1.128-1.717 2.12-1.565zm-17.52-19.551c.153-.993 1.096-1.68 2.121-1.565.992.152 1.68 1.095 1.565 2.121-.152.992-1.095 1.68-2.121 1.565-1.029-.186-1.717-1.129-1.565-2.121zm18.256 2.823c.152-.992 1.095-1.68 2.121-1.565.992.152 1.68 1.095 1.565 2.121-.152.992-1.095 1.68-2.121 1.565-.992-.152-1.68-1.095-1.565-2.121zm8.455 9.372c.371-.268.89-.403 1.351-.325.992.152 1.68 1.095 1.565 2.12a1.184 1.184 0 0 1-.276.684 1.624 1.624 0 0 1-.461.519 1.538 1.538 0 0 1-.651.284c-.243.05-.486.099-.737.008a1.182 1.182 0 0 1-.683-.275 1.627 1.627 0 0 1-.519-.462 1.517 1.517 0 0 1-.284-.65c-.05-.243-.099-.486-.009-.737.021-.247.111-.499.276-.684a1.43 1.43 0 0 1 .428-.482zm-16.136-19.914c.02-.247.111-.498.276-.683a1.966 1.966 0 0 1 1.882-.849c.992.153 1.68 1.096 1.565 2.121-.029.107-.021.247-.12.358-.304.791-1.116 1.331-2.038 1.174-1.063-.148-1.75-1.091-1.565-2.121zm-16.728-.735a1.951 1.951 0 0 1-.976-.469 1.802 1.802 0 0 1-.601-1.265c-.009-.14.02-.247.012-.387.152-.992 1.095-1.68 2.121-1.565.247.02.498.111.683.276.437.255.705.626.803 1.112.05.243.099.486.009.737-.029.107-.021.247-.12.358-.148.466-.514.803-.959 1.005-.235.19-.618.247-.972.198zm36.516 5.717a1.774 1.774 0 0 1-1.203-.738 1.869 1.869 0 0 1-.325-1.35c.152-.993 1.095-1.681 2.12-1.565.248.02.499.111.684.276.074.065.218.127.292.193a1.8 1.8 0 0 1 .602 1.264c.008.14-.021.247-.012.387a1.772 1.772 0 0 1-.738 1.203c-.407.235-.889.404-1.42.33zm-26.273 48.299c.778.095 1.342.729 1.523 1.42l-1.976 2.224c-.037-.032-.07.005-.107-.028-.993-.153-1.681-1.096-1.565-2.121.189-.96 1.132-1.647 2.125-1.495zm-18.816.792a1.951 1.951 0 0 1-.976-.469 1.8 1.8 0 0 1-.601-1.264c-.009-.14.02-.248.012-.388.152-.992 1.095-1.68 2.121-1.565.247.021.498.112.683.276.437.256.672.663.803 1.112.05.243.099.486.009.737-.029.107-.021.247-.12.358-.148.466-.514.804-.959 1.005-.235.19-.618.248-.972.198zm8.274 6.889c.992.152 1.68 1.095 1.565 2.121-.152.992-1.095 1.68-2.121 1.565-.992-.153-1.68-1.096-1.565-2.121.153-.992 1.128-1.717 2.121-1.565zm.736-16.728c.152-.992 1.095-1.68 2.12-1.565.993.153 1.681 1.096 1.565 2.121-.152.992-1.095 1.68-2.12 1.565-1.03-.185-1.751-1.091-1.565-2.121zm18.469 2.284c.161-.255.322-.51.593-.667l-.593.667zm-7.339-8.313a1.825 1.825 0 0 1-.589-1.651c.152-.993 1.095-1.681 2.121-1.566.992.153 1.68 1.096 1.565 2.121-.029.107-.021.247-.119.358-.149.466-.515.803-.96 1.005-.342.161-.692.182-1.079.169a1.792 1.792 0 0 1-.939-.436zm-17.284-2.424c-.107-.029-.247-.021-.358-.12-.251-.09-.432-.185-.585-.387a1.825 1.825 0 0 1-.589-1.651c.029-.107.021-.247.12-.358.148-.466.514-.804.959-1.005.206-.083.449-.132.692-.182.14-.008.247.021.387.013.354.049.717.239.976.469.445.395.692 1.013.589 1.651-.123.886-.893 1.528-1.734 1.578-.21.012-.35.02-.457-.008zM207.245 17.6c.152-.992 1.095-1.68 2.121-1.565.992.152 1.68 1.095 1.565 2.12-.152.993-1.095 1.68-2.121 1.566-1.062-.148-1.75-1.091-1.565-2.121zm-10.574 7.718c.152-.992 1.095-1.68 2.12-1.565.993.152 1.68 1.095 1.565 2.12-.152.993-1.095 1.681-2.12 1.566-1.03-.185-1.718-1.128-1.565-2.12zm18.292 2.857c.152-.993 1.095-1.68 2.121-1.565.992.152 1.68 1.095 1.565 2.12-.152.993-1.095 1.68-2.121 1.565-1.062-.148-1.75-1.09-1.565-2.12zM199.494 7.063c.152-.993 1.095-1.68 2.12-1.565.993.152 1.681 1.095 1.566 2.12-.153.993-1.096 1.68-2.121 1.565-.993-.152-1.68-1.095-1.565-2.12zm18.293 2.856c.152-.993 1.095-1.68 2.12-1.565.993.152 1.681 1.095 1.565 2.12-.152.993-1.095 1.68-2.12 1.565-1.03-.185-1.718-1.128-1.565-2.12zm8.925 12.576c-.577-.247-.989-.68-1.129-1.268-.049-.244-.099-.486-.008-.738.152-.992 1.095-1.68 2.121-1.565.247.02.498.111.683.276.437.255.672.663.803 1.112.05.243.099.486.009.737-.153.992-1.096 1.68-2.121 1.565a2.418 2.418 0 0 0-.358-.12zM210.068-.656c.05-.354.239-.716.47-.976.164-.185.366-.338.572-.42.342-.16.692-.181 1.079-.169.531.074.935.367 1.203.737.041.103.152.202.193.305.083.206.132.449.181.692.009.14-.02.247-.012.387-.152.992-1.095 1.68-2.121 1.565-.992-.152-1.68-1.095-1.565-2.12zm-8.535 54.842c.152-.993 1.095-1.68 2.12-1.565.993.152 1.681 1.095 1.565 2.12-.152.993-1.095 1.68-2.12 1.566-1.03-.186-1.718-1.129-1.565-2.121zm-10.542 7.681c.152-.992 1.095-1.68 2.12-1.565.993.152 1.681 1.095 1.566 2.12-.153.993-1.096 1.681-2.121 1.566-1.063-.148-1.75-1.091-1.565-2.12zm18.223 2.86c.152-.992 1.095-1.68 2.12-1.565.993.153 1.681 1.095 1.565 2.121-.152.992-1.095 1.68-2.12 1.565-.993-.152-1.68-1.095-1.565-2.12zm-15.4-21.116c.152-.992 1.095-1.68 2.121-1.565.992.152 1.68 1.095 1.565 2.12-.152.993-1.095 1.681-2.121 1.566-1.029-.185-1.717-1.128-1.565-2.12zm18.293 2.857c.152-.993 1.095-1.68 2.121-1.566.992.153 1.68 1.096 1.565 2.121-.152.993-1.095 1.68-2.121 1.565-1.029-.185-1.717-1.128-1.565-2.12zm-7.166-8.957a1.571 1.571 0 0 1-.42-.572c-.161-.342-.182-.692-.169-1.079.02-.247.111-.498.275-.684a1.966 1.966 0 0 1 1.882-.848c.993.152 1.681 1.095 1.565 2.12-.028.108-.02.248-.119.359-.305.79-1.116 1.33-2.038 1.174a1.829 1.829 0 0 1-.976-.47zm-17.28-2.353c-.107-.03-.247-.021-.358-.12-.252-.09-.433-.185-.585-.387a1.787 1.787 0 0 1-.544-.881c-.049-.243-.099-.486-.008-.737.152-.993 1.095-1.68 2.121-1.565.247.02.498.11.683.276.437.255.704.625.803 1.111.05.243.099.486.009.738-.029.107-.021.247-.12.358-.09.251-.185.432-.387.585a1.585 1.585 0 0 1-.572.42c-.305.193-.688.251-1.042.202zm36.516 5.716a1.77 1.77 0 0 1-1.203-.737c-.041-.103-.152-.202-.194-.305-.082-.206-.131-.449-.181-.692-.008-.14.021-.247.012-.387.153-.992 1.096-1.68 2.121-1.565.247.02.498.111.684.276.074.066.218.128.292.194.26.23.453.535.544.88.041.104.049.244.058.384.008.14-.021.247-.013.387a1.768 1.768 0 0 1-.737 1.203c-.37.267-.852.436-1.383.362zm-30.748 67.144c.164-.185.366-.337.572-.42.342-.16.692-.181 1.079-.169.354.05.717.239.976.47.445.395.655.98.552 1.618l-.033.037c-.601.527-1.169 1.017-1.771 1.544-.107-.028-.21.013-.317-.016a1.955 1.955 0 0 1-.976-.469 1.83 1.83 0 0 1-.589-1.652c.029-.107.021-.247.12-.358.127-.218.255-.436.387-.585zm2.387-17.317c.152-.992 1.095-1.68 2.12-1.565.993.153 1.681 1.096 1.566 2.121-.153.993-1.096 1.68-2.121 1.565-1.03-.185-1.717-1.128-1.565-2.12zm-10.575 7.719c.152-.993 1.095-1.68 2.121-1.565.992.152 1.68 1.095 1.565 2.12-.152.993-1.095 1.681-2.121 1.565-1.029-.185-1.717-1.128-1.565-2.12zm20.414 1.29c.745.133 1.338.66 1.519 1.351-.337.231-.638.495-.943.688-.605.457-1.21.915-1.746 1.368-.617-.35-1.013-1.1-.881-1.845.082-.989 1.025-1.676 2.051-1.561zm-17.52-19.55c.152-.992 1.095-1.68 2.12-1.565.993.152 1.681 1.095 1.565 2.12-.152.993-1.095 1.68-2.12 1.566-1.03-.186-1.718-1.129-1.565-2.121zm18.255 2.823c.152-.992 1.095-1.68 2.121-1.565.992.152 1.68 1.095 1.565 2.12-.152.993-1.095 1.681-2.121 1.566-1.062-.148-1.75-1.091-1.565-2.12zm9.806 9.047c.247.02.499.11.684.276.436.255.704.626.803 1.111.045.173.058.383.033.56-.712.429-1.355.853-2.067 1.281-.169.116-.305.194-.474.31a2.898 2.898 0 0 1-.547-.355 1.8 1.8 0 0 1-.602-1.264c-.008-.14.021-.247.012-.387.223-.997 1.166-1.684 2.158-1.532zm-15.992-17.464a1.955 1.955 0 0 1-.976-.469 1.826 1.826 0 0 1-.589-1.651c.153-.993 1.095-1.68 2.121-1.565.992.152 1.68 1.095 1.565 2.12-.029.107-.021.247-.119.359-.149.465-.515.803-.96 1.005-.305.193-.655.214-1.042.201zm-18.26-2.893c-.107-.029-.247-.02-.358-.12-.251-.09-.433-.185-.585-.386a1.825 1.825 0 0 1-.589-1.652c.029-.107.021-.247.119-.358.12-.358.35-.618.618-.844.371-.268.89-.404 1.351-.326.354.05.716.24.976.47.445.395.692 1.013.589 1.651-.124.885-.894 1.528-1.734 1.577-.14.009-.243.05-.387-.012zm34.988 3.629c.049-.354.239-.717.469-.976.165-.186.367-.338.573-.42.206-.083.448-.132.691-.182.14-.008.248.02.388.013.247.02.498.11.683.276a1.633 1.633 0 0 1 .803 1.111c.05.243.099.486.009.738a1.77 1.77 0 0 1-.737 1.202c-.371.268-.89.404-1.351.326a1.837 1.837 0 0 1-1.528-2.088zm-32.426 39.846c.992.152 1.68 1.095 1.565 2.12-.153.993-1.096 1.681-2.121 1.565-.993-.152-1.68-1.095-1.565-2.12.185-1.03 1.128-1.718 2.121-1.565zm72.69-117.772c.152-.993 1.095-1.68 2.12-1.565.993.152 1.681 1.095 1.565 2.12-.152.993-1.095 1.68-2.12 1.565-1.03-.185-1.718-1.128-1.565-2.12zm-13.435 25.941c.152-.993 1.095-1.68 2.12-1.565.993.152 1.681 1.095 1.565 2.12-.152.993-1.095 1.68-2.12 1.565-.993-.152-1.681-1.095-1.565-2.12zm-10.538 7.751c.153-.992 1.096-1.68 2.121-1.565.992.152 1.68 1.095 1.565 2.12-.152.993-1.095 1.681-2.121 1.566-1.029-.185-1.717-1.128-1.565-2.12zm18.256 2.823c.152-.992 1.095-1.68 2.121-1.565.992.153 1.68 1.096 1.565 2.121-.152.992-1.095 1.68-2.121 1.565-1.029-.185-1.717-1.128-1.565-2.12zm-15.4-21.116c.153-.992 1.096-1.68 2.121-1.565.993.152 1.68 1.095 1.565 2.12-.152.993-1.095 1.681-2.12 1.566-1.03-.185-1.718-1.128-1.566-2.12zm18.256 2.824c.153-.993 1.096-1.68 2.121-1.566.992.153 1.68 1.096 1.565 2.121-.152.993-1.095 1.68-2.121 1.565-1.025-.115-1.713-1.058-1.565-2.12zm9.284 12.695a1.946 1.946 0 0 1-.976-.47 1.8 1.8 0 0 1-.602-1.264c-.008-.14.021-.247.013-.387.152-.992 1.095-1.68 2.12-1.565.247.02.499.111.684.276.436.255.671.663.803 1.112.049.243.099.486.008.737-.029.107-.02.247-.119.358a1.671 1.671 0 0 1-1.931 1.203zM248.182 7.145a1.954 1.954 0 0 1-.976-.47 1.825 1.825 0 0 1-.589-1.651c.152-.993 1.095-1.68 2.121-1.565.992.152 1.68 1.095 1.565 2.12-.029.108-.021.248-.12.359-.148.465-.514.803-.959 1.005a1.36 1.36 0 0 1-1.042.202zM230.281 4.37c-.14.009-.248-.02-.388-.012-.107-.028-.247-.02-.358-.119a.917.917 0 0 1-.325-.156 1.634 1.634 0 0 1-.519-.462 1.536 1.536 0 0 1-.284-.65c-.05-.243-.099-.486-.009-.737.029-.107.021-.247.12-.359a.92.92 0 0 1 .156-.325c.128-.218.293-.404.461-.519.371-.268.89-.404 1.351-.325.354.049.717.238.976.469.445.395.692 1.013.589 1.651a1.18 1.18 0 0 1-.276.684 1.624 1.624 0 0 1-.461.519 1.535 1.535 0 0 1-.65.284c-.14.008-.28.017-.383.058zm34.596 3.547c.049-.354.239-.716.469-.976.165-.185.367-.338.573-.42.206-.082.448-.132.691-.181.14-.009.248.02.388.012a1.77 1.77 0 0 1 1.202.737c.268.37.404.89.326 1.35a1.774 1.774 0 0 1-.737 1.203c-.371.268-.89.404-1.351.326-.989-.082-1.713-1.058-1.561-2.05zm-27.532 68.676c.993.153 1.681 1.096 1.566 2.121-.124.885-.894 1.528-1.734 1.577-.14.009-.247-.02-.387-.012-.107-.029-.247-.02-.358-.12-.791-.304-1.331-1.115-1.174-2.038a1.18 1.18 0 0 1 .276-.683c.317-.58 1.033-.94 1.811-.845zm.736-16.727c.152-.993 1.095-1.68 2.121-1.565.992.152 1.68 1.095 1.565 2.12-.152.993-1.095 1.68-2.121 1.565-1.062-.148-1.75-1.09-1.565-2.12zm-16.728-.736a1.182 1.182 0 0 1-.683-.276 1.622 1.622 0 0 1-.519-.461 1.524 1.524 0 0 1-.284-.65c-.05-.244-.099-.487-.009-.738a1.19 1.19 0 0 1 .276-.684 1.966 1.966 0 0 1 1.882-.848c.992.152 1.68 1.095 1.565 2.12a1.186 1.186 0 0 1-.276.684 1.623 1.623 0 0 1-.461.52 1.54 1.54 0 0 1-.651.283c-.346.091-.593.07-.84.05zm6.153 8.454c.153-.993 1.096-1.68 2.121-1.565.993.152 1.68 1.095 1.565 2.12-.152.993-1.095 1.68-2.12 1.566-1.03-.186-1.718-1.129-1.566-2.121zm20.381 1.328c.993.152 1.68 1.095 1.565 2.12-.152.993-1.095 1.68-2.12 1.566-.993-.153-1.681-1.096-1.566-2.121.186-1.03 1.129-1.718 2.121-1.565zM230.363 49.29c.152-.992 1.095-1.68 2.121-1.564.992.152 1.68 1.095 1.565 2.12-.153.993-1.096 1.68-2.121 1.566a1.812 1.812 0 0 1-1.565-2.121zm18.26 2.894c.152-.992 1.095-1.68 2.12-1.565.993.153 1.681 1.096 1.565 2.121-.152.992-1.095 1.68-2.12 1.565-1.03-.185-1.718-1.128-1.565-2.12zm9.839 9.01c.992.152 1.68 1.095 1.565 2.12-.153.993-1.096 1.68-2.121 1.565-.993-.152-1.68-1.095-1.565-2.12.074-.532.366-.935.737-1.203.403-.305.885-.474 1.384-.362zM242.469 43.73a1.954 1.954 0 0 1-.976-.47 1.83 1.83 0 0 1-.589-1.65c.029-.108.021-.248.12-.359.09-.251.185-.432.387-.585.165-.185.366-.337.572-.42.342-.16.692-.18 1.079-.169.886.124 1.528.894 1.578 1.734.008.14-.021.247-.013.387-.029.107-.02.247-.119.358-.148.466-.515.803-.96 1.005-.341.16-.724.219-1.079.17zm-15.698 40.581c.992.152 1.68 1.095 1.565 2.12-.152.993-1.095 1.681-2.121 1.566-.992-.152-1.68-1.095-1.565-2.12.185-1.03 1.128-1.718 2.121-1.566zM275.452.199c.152-.992 1.095-1.68 2.12-1.565.993.152 1.68 1.095 1.565 2.12-.152.993-1.095 1.68-2.12 1.566-.993-.153-1.718-1.128-1.565-2.121zm18.292 2.856c.153-.992 1.096-1.68 2.121-1.565.992.153 1.68 1.096 1.565 2.121-.152.993-1.095 1.68-2.121 1.565-1.029-.185-1.717-1.128-1.565-2.12zM280.347 29.03c.152-.993 1.095-1.681 2.12-1.566.993.152 1.68 1.095 1.565 2.12-.152.993-1.095 1.681-2.12 1.566-1.063-.148-1.751-1.091-1.565-2.12zm-10.575 7.718c.152-.993 1.095-1.68 2.121-1.565.992.152 1.68 1.095 1.565 2.12-.153.993-1.096 1.68-2.121 1.566-1.03-.186-1.717-1.129-1.565-2.121zm18.256 2.823c.152-.992 1.095-1.68 2.12-1.565.993.152 1.681 1.095 1.565 2.12-.152.993-1.095 1.681-2.12 1.566-1.026-.115-1.714-1.058-1.565-2.12zm-15.4-21.116c.152-.992 1.095-1.68 2.121-1.565.992.152 1.68 1.095 1.565 2.12-.153.993-1.096 1.68-2.121 1.566-1.062-.149-1.75-1.091-1.565-2.121zm18.26 2.893c.152-.992 1.095-1.68 2.121-1.565.992.152 1.68 1.095 1.565 2.12-.152.993-1.095 1.68-2.121 1.566-1.029-.186-1.717-1.129-1.565-2.121zm7.681 10.542c.152-.992 1.095-1.68 2.121-1.565.247.02.498.111.684.276.51.32.823.864.86 1.495.009.14-.02.247-.012.387a1.767 1.767 0 0 1-.737 1.202 1.867 1.867 0 0 1-1.351.326c-.992-.153-1.68-1.096-1.565-2.121zm-13.834-18.996c-.107-.028-.247-.02-.359-.119-.79-.305-1.33-1.116-1.173-2.038.02-.247.111-.499.275-.684a1.966 1.966 0 0 1 1.882-.848c.993.152 1.681 1.095 1.565 2.12-.123.886-.893 1.528-1.733 1.578-.21.012-.35.02-.457-.009zm-8.018 51.123c.993.153 1.681 1.096 1.566 2.12-.153.993-1.096 1.681-2.121 1.566-.993-.152-1.68-1.095-1.565-2.12.185-1.03 1.128-1.718 2.12-1.566zm-10.574 7.718a1.788 1.788 0 0 1 1.524 1.421c-1.211.317-2.352.63-3.525.98-.087-.275-.103-.555-.087-.873a1.837 1.837 0 0 1 2.088-1.528zm.772-16.695c.153-.992 1.096-1.68 2.121-1.565.993.152 1.68 1.096 1.565 2.12-.152.993-1.095 1.681-2.121 1.566-1.029-.185-1.717-1.128-1.565-2.12zm20.377 1.259c.992.152 1.68 1.095 1.565 2.12-.152.993-1.095 1.681-2.121 1.566-.992-.152-1.68-1.096-1.565-2.12.153-.993 1.096-1.681 2.121-1.566zm7.718 10.574c.247.021.466.149.647.243-.243.05-.486.1-.696.112-.556.103-1.112.206-1.635.272.395-.445 1.013-.692 1.684-.627zm-17.194-18.2a1.867 1.867 0 0 1-.326-1.35c.152-.993 1.095-1.681 2.121-1.566.354.05.716.239.976.47a1.8 1.8 0 0 1 .601 1.264c.008.14-.02.247-.012.387-.152.992-1.095 1.68-2.121 1.565a1.918 1.918 0 0 1-1.239-.77zm-17.091-2.12a1.953 1.953 0 0 1-.976-.469 1.828 1.828 0 0 1-.589-1.651c.029-.107.021-.247.12-.358a.904.904 0 0 1 .156-.326c.194-.292.494-.556.766-.712.342-.161.692-.182 1.079-.17.354.05.717.24.976.47a1.8 1.8 0 0 1 .601 1.264c.009.14-.02.247-.012.387-.029.107-.021.248-.119.359-.149.465-.515.803-.96 1.005-.267.226-.65.284-1.042.201zm35.61 5.244c-.074-.066-.185-.165-.227-.268a1.549 1.549 0 0 1-.284-.65c-.049-.243-.099-.486-.008-.738.029-.107.02-.247.119-.358a.92.92 0 0 1 .157-.325c.066-.075.127-.219.193-.293.066-.074.165-.185.268-.226.103-.041.202-.153.305-.194.341-.16.691-.181 1.079-.169.354.05.716.239.976.47a1.83 1.83 0 0 1 .589 1.65c-.029.108-.021.248-.12.36-.148.465-.515.802-.959 1.004l-.309.124c-.243.05-.486.099-.737.008a1.186 1.186 0 0 1-.684-.276c-.173.045-.284-.053-.358-.12zM322.579-1.77c.152-.992 1.095-1.68 2.12-1.565.993.152 1.681 1.095 1.565 2.12-.152.993-1.095 1.681-2.12 1.566-1.03-.185-1.718-1.128-1.565-2.12zm-10.542 7.682c.152-.993 1.095-1.68 2.121-1.566.992.153 1.68 1.096 1.565 2.121-.152.993-1.095 1.68-2.121 1.565-1.062-.148-1.75-1.09-1.565-2.12zm18.223 2.86c.152-.992 1.095-1.68 2.121-1.565.992.152 1.68 1.095 1.565 2.12-.153.993-1.096 1.681-2.121 1.566-1.03-.185-1.717-1.128-1.565-2.12zm10.574-7.718c.103-.638.495-1.153 1.042-1.396.206-.083.449-.132.692-.181.14-.009.247.02.387.012.993.152 1.68 1.095 1.565 2.12-.152.993-1.095 1.68-2.12 1.566-1.03-.186-1.718-1.129-1.566-2.121zm-24.708 50.42c.993.152 1.681 1.095 1.565 2.12-.028.108-.02.248-.119.36-.148.464-.515.802-.959 1.004-.342.16-.692.181-1.079.169a1.95 1.95 0 0 1-.976-.47 1.825 1.825 0 0 1-.589-1.65c.222-.997 1.165-1.685 2.157-1.533zm.736-16.728c.152-.992 1.095-1.68 2.121-1.565.992.153 1.68 1.096 1.565 2.121-.153.992-1.096 1.68-2.121 1.565-1.03-.185-1.717-1.128-1.565-2.12zm-10.575 7.718c.153-.992 1.096-1.68 2.121-1.565.993.152 1.68 1.095 1.565 2.12-.152.993-1.095 1.681-2.12 1.566-1.03-.185-1.718-1.128-1.566-2.12zm18.293 2.856c.153-.992 1.096-1.68 2.121-1.565.993.153 1.68 1.096 1.565 2.121-.152.993-1.095 1.68-2.12 1.565-1.03-.185-1.718-1.128-1.566-2.12zm-15.436-21.148c.152-.993 1.095-1.68 2.12-1.565.993.152 1.681 1.095 1.565 2.12-.152.993-1.095 1.68-2.12 1.565-.993-.152-1.718-1.128-1.565-2.12zm18.293 2.856c.152-.993 1.095-1.68 2.12-1.565.993.152 1.681 1.095 1.565 2.12-.152.993-1.095 1.68-2.12 1.565-1.063-.148-1.751-1.09-1.565-2.12zm5.903 27.471c.206-.083.449-.132.692-.181.14-.009.247.02.387.012.354.05.717.239.976.47.074.065.186.164.227.267.041.103.152.202.193.305.083.206.132.449.182.691.008.14-.021.248-.013.388-.152.992-1.095 1.68-2.12 1.565-.993-.153-1.681-1.096-1.565-2.121.049-.354.238-.717.469-.976.165-.185.366-.338.572-.42zm1.815-16.897c.029-.107.021-.247.119-.358.149-.465.515-.803.96-1.005.342-.16.692-.181 1.079-.169.638.103 1.153.494 1.396 1.042l.123.309c.05.243.099.486.009.737-.152.992-1.095 1.68-2.121 1.565-1.029-.185-1.717-1.128-1.565-2.12zm-15.437-21.149c.05-.354.239-.716.47-.976.164-.185.366-.338.572-.42.342-.16.692-.181 1.079-.169.531.074.935.367 1.202.737.268.37.404.89.326 1.35-.029.108-.021.248-.12.36-.304.79-1.115 1.33-2.038 1.173-.988-.082-1.676-1.025-1.491-2.055zm-16.728-.735c-.107-.03-.247-.02-.358-.12-.251-.09-.432-.185-.585-.387a1.786 1.786 0 0 1-.543-.881c-.05-.243-.099-.486-.009-.737.153-.993 1.096-1.68 2.121-1.565.247.02.498.11.684.276.436.255.704.626.803 1.111.049.243.099.486.008.738-.029.107-.02.247-.119.358a1.767 1.767 0 0 1-.35.618 1.588 1.588 0 0 1-.573.42c-.341.16-.687.251-1.079.169zm2.562 43.474c.992.152 1.68 1.095 1.565 2.12-.153.993-1.095 1.681-2.121 1.566-.992-.153-1.68-1.096-1.565-2.12.185-1.03 1.128-1.718 2.121-1.566zm18.293 2.856c.638.103 1.19.527 1.4 1.112-1.186.14-2.339.243-3.525.384.222-.997 1.132-1.648 2.125-1.495zM359.127 3.91c.153-.993 1.096-1.68 2.121-1.565.992.152 1.68 1.095 1.565 2.12-.152.993-1.095 1.68-2.121 1.566-1.029-.186-1.717-1.129-1.565-2.121zm-10.574 7.718c.152-.992 1.095-1.68 2.121-1.565.992.152 1.68 1.095 1.565 2.12-.153.993-1.096 1.681-2.121 1.566-1.03-.185-1.717-1.128-1.565-2.12zm18.255 2.824c.153-.992 1.096-1.68 2.121-1.565.993.152 1.68 1.095 1.565 2.12-.152.993-1.095 1.68-2.12 1.566-.993-.153-1.681-1.096-1.566-2.121zm11.749-5.68c-.577-.247-.988-.68-1.129-1.268-.049-.243-.098-.486-.008-.737.152-.993 1.095-1.68 2.121-1.565.247.02.498.11.684.275.436.256.671.663.803 1.112.049.243.099.486.008.737-.029.107-.021.247-.119.359-.091.25-.186.432-.388.584a1.825 1.825 0 0 1-1.651.59c-.07.004-.177-.025-.321-.087zm-27.533 48.97c.164-.185.366-.337.572-.42.342-.16.692-.18 1.079-.169.354.05.717.24.976.47.445.395.692 1.013.589 1.651a2.006 2.006 0 0 1-.906 1.318c-.523.066-1.05.062-1.573.128-.251-.09-.432-.185-.585-.387a1.828 1.828 0 0 1-.589-1.652c.029-.107.021-.247.12-.358.024-.177.152-.395.317-.58zm2.387-17.316c.152-.993 1.095-1.68 2.12-1.565.993.152 1.681 1.095 1.565 2.12-.152.993-1.095 1.68-2.12 1.565a1.81 1.81 0 0 1-1.565-2.12zm-8.45 6.223c.992.152 1.68 1.095 1.565 2.12-.152.993-1.095 1.681-2.121 1.566-.992-.153-1.68-1.096-1.565-2.12.148-1.063 1.091-1.751 2.121-1.566zm18.256 2.823c.992.153 1.68 1.096 1.565 2.121-.152.992-1.095 1.68-2.121 1.565-.992-.152-1.68-1.095-1.565-2.12.185-1.03 1.128-1.718 2.121-1.566zM345.73 29.884c.152-.992 1.095-1.68 2.12-1.565.993.152 1.681 1.095 1.565 2.12-.152.993-1.095 1.681-2.12 1.566-1.063-.148-1.751-1.091-1.565-2.12zm18.222 2.86c.153-.992 1.096-1.68 2.121-1.565.992.153 1.68 1.096 1.565 2.121-.152.992-1.095 1.68-2.121 1.565-1.029-.185-1.717-1.128-1.565-2.12zm8.456 9.373c.37-.268.889-.404 1.35-.326.993.152 1.681 1.095 1.565 2.12-.02.248-.111.499-.275.684a1.639 1.639 0 0 1-.462.52 1.53 1.53 0 0 1-.65.283c-.243.05-.486.1-.737.009a1.186 1.186 0 0 1-.684-.276 1.633 1.633 0 0 1-.519-.461 1.536 1.536 0 0 1-.284-.65c-.05-.244-.099-.487-.008-.738.02-.247.111-.498.275-.684.095-.18.26-.366.429-.481zM357.799 24.29a1.95 1.95 0 0 1-.976-.469 1.825 1.825 0 0 1-.589-1.651c.152-.993 1.095-1.68 2.121-1.565.992.152 1.68 1.095 1.565 2.12-.029.108-.021.248-.12.359-.148.465-.514.803-.959 1.005a1.36 1.36 0 0 1-1.042.202zm-18.293-2.856a1.954 1.954 0 0 1-.976-.47c-.074-.065-.185-.164-.226-.267-.194-.305-.355-.646-.375-.996-.008-.14.02-.247.012-.387.021-.247.111-.499.276-.684a1.966 1.966 0 0 1 1.882-.848c.247.02.498.11.684.275.436.256.671.663.803 1.112.049.243.099.486.008.737-.123.886-.893 1.528-1.734 1.578-.07.004-.177-.025-.354-.05zm36.586 5.713c-.992-.152-1.68-1.095-1.565-2.12.021-.248.111-.499.276-.684a1.965 1.965 0 0 1 1.882-.849c.247.02.498.111.683.276.511.321.824.865.861 1.495.008.14-.02.247-.012.387-.029.107-.021.247-.12.358-.119.358-.35.618-.617.845-.408.234-.927.37-1.388.292zm19.551-17.52c.152-.993 1.095-1.68 2.121-1.565.992.152 1.68 1.095 1.565 2.12-.153.993-1.096 1.68-2.121 1.565-1.03-.185-1.717-1.128-1.565-2.12zm-10.542 7.681c.153-.992 1.096-1.68 2.121-1.565.993.152 1.68 1.095 1.565 2.12-.152.993-1.095 1.68-2.121 1.566-1.062-.148-1.75-1.091-1.565-2.121zm18.26 2.893c.153-.992 1.096-1.68 2.121-1.565.993.153 1.68 1.096 1.565 2.121-.152.993-1.095 1.68-2.12 1.565-1.03-.185-1.718-1.128-1.566-2.12zM387.925-.947c.152-.993 1.095-1.68 2.12-1.566.993.153 1.681 1.096 1.565 2.121-.152.993-1.095 1.68-2.12 1.565-.993-.152-1.681-1.095-1.565-2.12zm18.293 2.856c.152-.993 1.095-1.68 2.12-1.566.993.153 1.681 1.096 1.565 2.121-.152.993-1.095 1.68-2.12 1.565-1.03-.185-1.718-1.128-1.565-2.12zm8.27 12.192a1.8 1.8 0 0 1-.602-1.264c-.008-.14.021-.247.013-.387.152-.992 1.095-1.68 2.12-1.565.248.02.499.111.684.276.437.255.704.626.803 1.112.05.243.099.486.008.737a1.767 1.767 0 0 1-.737 1.202c-.37.268-.889.404-1.35.326-.317-.017-.68-.206-.939-.437zM392.084 44.61c.993.153 1.68 1.096 1.565 2.121-.152.993-1.095 1.68-2.121 1.565-.992-.152-1.68-1.095-1.565-2.12a1.812 1.812 0 0 1 2.121-1.566zm-10.575 7.719c.993.152 1.681 1.095 1.566 2.12-.153.993-1.096 1.68-2.121 1.566-.993-.153-1.68-1.096-1.565-2.121.185-1.03 1.128-1.718 2.12-1.565zm18.256 2.823c.746.132 1.376.692 1.524 1.42-1.186.14-2.442.285-3.665.392-.004-.07.025-.177.021-.247.185-1.03 1.128-1.717 2.12-1.565zM382.245 35.6c.152-.992 1.095-1.68 2.121-1.564.992.152 1.68 1.095 1.565 2.12-.153.993-1.096 1.68-2.121 1.566-1.029-.186-1.717-1.129-1.565-2.121zm18.293 2.857c.152-.992 1.095-1.68 2.121-1.565.992.152 1.68 1.095 1.565 2.12-.153.993-1.096 1.681-2.121 1.566-1.03-.185-1.717-1.128-1.565-2.12zm8.723 9.146c.206-.083.449-.132.692-.181.14-.009.247.02.387.012.992.152 1.68 1.095 1.565 2.12-.152.993-1.095 1.68-2.121 1.566-.992-.153-1.68-1.096-1.565-2.121.103-.638.531-1.12 1.042-1.396zm-16.116-18.37a1.861 1.861 0 0 1-.325-1.35c.02-.247.111-.499.275-.684a1.967 1.967 0 0 1 1.882-.849c.993.153 1.681 1.096 1.565 2.121-.152.993-1.095 1.68-2.12 1.565-.569-.107-1.005-.362-1.277-.803zm39.047-13.927c.152-.992 1.095-1.68 2.12-1.565.993.153 1.68 1.096 1.565 2.121-.152.993-1.095 1.68-2.12 1.565-.993-.152-1.681-1.095-1.565-2.12zm-10.575 7.719c.152-.993 1.095-1.68 2.121-1.565.992.152 1.68 1.095 1.565 2.12-.152.993-1.095 1.68-2.121 1.565-.992-.152-1.68-1.095-1.565-2.12zm18.293 2.856c.152-.992 1.095-1.68 2.12-1.565.993.152 1.681 1.095 1.566 2.12-.153.993-1.096 1.681-2.121 1.566-1.03-.185-1.717-1.128-1.565-2.12zm-15.4-21.116c.153-.993 1.096-1.68 2.121-1.565.993.152 1.68 1.095 1.565 2.12-.152.993-1.095 1.68-2.121 1.566-1.029-.186-1.717-1.129-1.565-2.121zm18.256 2.823c.152-.992 1.095-1.68 2.121-1.565.992.153 1.68 1.096 1.565 2.12-.152.993-1.095 1.681-2.121 1.566-1.025-.115-1.75-1.091-1.565-2.12zm6.983 27.302a2.1 2.1 0 0 1 .976.47c.37.33.572.774.601 1.264.008.14-.02.247-.012.387-.152.993-1.095 1.68-2.121 1.565a1.767 1.767 0 0 1-1.202-.737 1.867 1.867 0 0 1-.326-1.35 1.77 1.77 0 0 1 .737-1.203c.334-.3.815-.47 1.347-.395zm.735-16.727c.029-.107.021-.247.12-.359.148-.465.514-.803.959-1.005.342-.16.692-.18 1.079-.168.354.049.717.238.976.469.371.33.573.774.601 1.264.009.14-.02.247-.012.387a1.767 1.767 0 0 1-.737 1.203 1.87 1.87 0 0 1-1.351.325c-1.132-.144-1.82-1.087-1.635-2.116zM435.085-2.953c.049-.355.239-.717.469-.977.165-.185.367-.337.573-.42.341-.16.691-.18 1.079-.169a1.77 1.77 0 0 1 1.202.737c.041.103.152.202.194.305.082.206.132.449.181.692.008.14-.021.247-.012.387-.153.993-1.096 1.68-2.121 1.565-1.063-.148-1.75-1.09-1.565-2.12zm-6.485 53.28c.992.153 1.68 1.096 1.565 2.12 0 0-.033.038.004.07-1.112.207-2.261.38-3.373.586a2.112 2.112 0 0 1-.247-1.215 1.783 1.783 0 0 1 2.051-1.56zm-7.718-10.574c.992.152 1.68 1.095 1.565 2.12-.153.993-1.096 1.68-2.121 1.565-.993-.152-1.68-1.095-1.565-2.12.185-1.03 1.128-1.718 2.121-1.565zm18.292 2.857c.993.151 1.681 1.094 1.565 2.12-.152.992-1.095 1.68-2.12 1.565-.993-.153-1.681-1.096-1.565-2.12.185-1.03 1.128-1.718 2.12-1.566zm-9.839-9.01c.021-.248.111-.5.276-.684a1.966 1.966 0 0 1 1.882-.849c.993.152 1.68 1.095 1.565 2.12-.029.108-.02.248-.119.359-.305.79-1.116 1.33-2.039 1.174-1.029-.185-1.717-1.128-1.565-2.12zm-16.727-.736a1.183 1.183 0 0 1-.684-.276c-.074-.066-.218-.127-.293-.193-.074-.066-.185-.165-.226-.268a1.535 1.535 0 0 1-.284-.65c-.05-.244-.099-.487-.009-.738.103-.638.495-1.153 1.042-1.396.342-.16.692-.181 1.079-.169.746.132 1.339.659 1.487 1.388.049.243.099.486.008.737-.029.107-.02.247-.119.358-.148.466-.515.803-.96 1.005-.304.194-.617.247-1.041.202zm53.745 5.439c.165-.185.367-.338.572-.42.342-.16.692-.181 1.079-.17.355.05.717.24.976.47.445.396.692 1.013.589 1.652-.028.107-.02.247-.119.358-.148.465-.515.803-.959 1.005-.342.16-.692.181-1.079.169a1.95 1.95 0 0 1-.976-.47 1.825 1.825 0 0 1-.589-1.651c.028-.107.02-.247.119-.358.095-.181.222-.4.387-.585zm2.391-17.247c.153-.992 1.096-1.68 2.121-1.565.992.152 1.68 1.095 1.565 2.12-.152.993-1.095 1.68-2.121 1.566-1.029-.186-1.717-1.129-1.565-2.121zm-10.541 7.681c.152-.992 1.095-1.68 2.12-1.565.993.152 1.681 1.095 1.565 2.12-.152.993-1.095 1.681-2.12 1.566-1.063-.148-1.751-1.091-1.565-2.12zm20.38 1.329c.993.152 1.68 1.095 1.565 2.12-.152.993-1.095 1.68-2.121 1.565-.992-.152-1.68-1.095-1.565-2.12.149-1.063 1.092-1.75 2.121-1.566zm-17.557-19.584c.153-.993 1.096-1.68 2.121-1.565.992.152 1.68 1.095 1.565 2.12-.152.993-1.095 1.68-2.121 1.565-1.029-.185-1.717-1.128-1.565-2.12zm18.293 2.856c.152-.992 1.095-1.68 2.121-1.565.992.152 1.68 1.095 1.565 2.12-.153.993-1.096 1.681-2.121 1.566-1.03-.185-1.717-1.128-1.565-2.12zm9.802 8.976c.992.153 1.68 1.096 1.565 2.121a1.186 1.186 0 0 1-.276.684 1.635 1.635 0 0 1-.461.518 1.539 1.539 0 0 1-.651.285c-.243.05-.486.099-.737.008a1.187 1.187 0 0 1-.684-.276 1.628 1.628 0 0 1-.518-.461 1.537 1.537 0 0 1-.285-.65c-.049-.244-.099-.486-.008-.738.021-.247.111-.498.276-.683.284-.544 1-.902 1.779-.808zM473.129 4.851a1.946 1.946 0 0 1-.976-.47 1.825 1.825 0 0 1-.589-1.65c.152-.993 1.095-1.68 2.12-1.566.993.153 1.681 1.096 1.565 2.121-.029.107-.02.247-.119.358-.148.466-.515.803-.96 1.005-.267.227-.65.284-1.041.202zm-18.256-2.823c-.107-.03-.247-.021-.359-.12-.576-.247-.988-.68-1.128-1.268-.05-.243-.099-.486-.008-.737.028-.107.02-.247.119-.359.305-.79 1.116-1.33 2.038-1.173.247.02.499.11.684.275.074.066.218.128.292.194.26.23.453.535.544.881.05.243.099.486.008.737-.028.107-.02.247-.119.359-.091.25-.185.432-.387.584a1.8 1.8 0 0 1-1.264.602c-.173.045-.28.016-.42.025zm36.548 5.679c-.638-.102-1.153-.494-1.396-1.041a4.131 4.131 0 0 1-.181-.692c-.008-.14.021-.247.012-.387.05-.354.239-.717.47-.976.164-.186.366-.338.572-.42.342-.16.692-.182 1.079-.17.247.021.498.112.684.277a1.645 1.645 0 0 1 .803 1.111c.049.243.099.486.008.738a1.767 1.767 0 0 1-.737 1.202c-.333.3-.815.47-1.314.358zm-33.954 37.758c.461.078.898.334 1.165.704-1.07.31-2.178.585-3.286.861l-.004-.07c.12-.955 1.095-1.68 2.125-1.495zm42.964-47.596c.152-.993 1.095-1.68 2.121-1.565.992.152 1.68 1.095 1.565 2.12-.153.993-1.096 1.68-2.121 1.565-1.025-.115-1.713-1.058-1.565-2.12zm18.26 2.893c.152-.992 1.095-1.68 2.12-1.565.993.152 1.681 1.095 1.566 2.12-.153.993-1.096 1.68-2.121 1.566-1.03-.186-1.717-1.129-1.565-2.121zm8.76 9.178c.341-.16.691-.181 1.079-.169a1.8 1.8 0 0 1 .939.436c-.367.338-.766.713-1.17 1.018-.099.111-.235.19-.333.3-.4.375-.836.717-1.273 1.059-.268-.37-.329-.824-.288-1.318.029-.107.02-.247.119-.358.152-.396.482-.766.927-.968zm-20.037 15.23c.354.05.679.206.939.437a65.316 65.316 0 0 1-3.023 1.759 2.351 2.351 0 0 1-.041-.7c.156-.923 1.099-1.61 2.125-1.495zm-7.752-10.537c.993.153 1.681 1.096 1.565 2.121-.152.993-1.095 1.68-2.12 1.565-.993-.152-1.681-1.095-1.565-2.12.185-1.03 1.128-1.718 2.12-1.566zm18.293 2.857a2.006 2.006 0 0 1 1.318.905c-.976.725-1.989 1.417-3.002 2.11a1.732 1.732 0 0 1-.441-1.52c.19-.96 1.133-1.648 2.125-1.495zm-8.632-7.009c-.791-.305-1.33-1.116-1.174-2.038.021-.247.111-.499.276-.684a1.966 1.966 0 0 1 1.882-.848c.354.049.717.238.976.469.371.33.573.774.601 1.264.009.14-.02.247-.012.387-.123.886-.893 1.528-1.733 1.578-.141.008-.248-.02-.388-.013-.177-.024-.321-.086-.428-.115z"/></g><defs><clipPath id="a"><path fill="#fff" d="M0 0h537v225H0z"/></clipPath></defs></svg>