<svg width="538" height="227" viewBox="0 0 538 227" fill="none" xmlns="http://www.w3.org/2000/svg"><g clip-path="url(#a)" fill="#D6EEFB"><path d="M538.566 187.147c-.14.008-.248-.021-.388-.013a1.949 1.949 0 0 1-.978-.474 1.823 1.823 0 0 1-.603-1.276c-.008-.141.021-.249.012-.39.152-1.001 1.097-1.695 2.124-1.578.533.075.937.37 1.205.744.269.374.405.897.327 1.363-.103.644-.494 1.163-1.043 1.408-.165.187-.408.236-.656.216zm-25.937 31.872c.029-.108.021-.25.12-.362.148-.469.515-.81.96-1.013.343-.162.694-.183 1.081-.17.355.05.718.241.978.474a1.85 1.85 0 0 1 .591 1.666c-.152 1.001-1.096 1.695-2.124 1.578-1.069-.221-1.758-1.172-1.606-2.173zm9.857 9.09c.994.154 1.684 1.106 1.569 2.14-.152 1.002-1.097 1.695-2.124 1.578-.995-.154-1.684-1.105-1.569-2.14.148-1.072 1.092-1.765 2.124-1.578zm-20.418-1.341c.153-1.001 1.097-1.694 2.124-1.578.995.154 1.684 1.106 1.569 2.14-.152 1.002-1.096 1.695-2.124 1.578-1.064-.149-1.754-1.101-1.569-2.14zm-6.196-8.49a1.183 1.183 0 0 1-.685-.279 1.644 1.644 0 0 1-.521-.466c-.194-.307-.355-.652-.376-1.005-.008-.141.021-.249.013-.391a1.78 1.78 0 0 1 .738-1.212 1.86 1.86 0 0 1 1.353-.328c.994.154 1.684 1.105 1.569 2.14-.05.357-.239.723-.47.984a1.582 1.582 0 0 1-.574.424c-.309.124-.66.145-1.047.133zm24.017-33.992a1.957 1.957 0 0 1-.978-.474 1.85 1.85 0 0 1-.591-1.666c.029-.108.02-.25.119-.362.149-.469.516-.81.961-1.013.343-.162.693-.183 1.081-.17.355.05.718.241.978.474a1.85 1.85 0 0 1 .591 1.666c-.029.108-.021.249-.12.361-.09.254-.185.436-.387.59a1.587 1.587 0 0 1-.573.424c-.343.162-.693.182-1.081.17zm-4.398 16.277c.152-1.001 1.097-1.694 2.124-1.578.995.154 1.684 1.106 1.569 2.14-.152 1.001-1.097 1.695-2.124 1.578-1.031-.187-1.721-1.139-1.569-2.14zm20.418 1.341c.995.154 1.684 1.106 1.569 2.14-.029.108-.021.25-.119.362-.149.469-.516.81-.961 1.013-.343.162-.693.183-1.081.17-.747-.133-1.341-.665-1.49-1.4-.05-.245-.1-.491-.009-.744a1.841 1.841 0 0 1 2.091-1.541zm-9.824-9.127c.153-1.002 1.097-1.695 2.124-1.578.995.154 1.684 1.105 1.569 2.14-.152 1.001-1.096 1.694-2.124 1.578-1.064-.15-1.754-1.102-1.569-2.14zm-18.327-2.882c.152-1.001 1.097-1.695 2.124-1.578.995.154 1.684 1.105 1.569 2.14-.152 1.001-1.096 1.695-2.124 1.578-.994-.154-1.721-1.139-1.569-2.14zm15.466 21.337c.152-1.001 1.096-1.695 2.124-1.578.994.154 1.684 1.106 1.569 2.14-.153 1.001-1.097 1.695-2.124 1.578-1.032-.187-1.722-1.139-1.569-2.14zm-18.327-2.882c.152-1.001 1.097-1.694 2.124-1.578.994.154 1.684 1.106 1.569 2.14-.152 1.002-1.097 1.695-2.124 1.578-1.032-.187-1.721-1.138-1.569-2.14zm19.183-63.082c.123-.893.895-1.541 1.736-1.591.141-.008.248.021.388.013.107.029.248.021.359.12a1.865 1.865 0 0 1 1.177 2.057c-.02.25-.111.503-.276.69a1.962 1.962 0 0 1-1.885.855 1.915 1.915 0 0 1-1.499-2.144zm-2.899 18.422c.152-1.001 1.097-1.695 2.124-1.578.995.154 1.684 1.106 1.569 2.14-.152 1.001-1.097 1.695-2.124 1.578-.994-.154-1.684-1.105-1.569-2.14zm10.594-7.787c.153-1.001 1.097-1.695 2.124-1.578.995.154 1.684 1.106 1.569 2.14-.152 1.001-1.096 1.695-2.124 1.578-.994-.154-1.684-1.105-1.569-2.14zm-18.289-2.848c.152-1.001 1.096-1.695 2.124-1.578.994.154 1.684 1.106 1.569 2.14-.152 1.001-1.097 1.695-2.124 1.578-1.032-.187-1.721-1.139-1.569-2.14zm15.428 21.304c.152-1.002 1.097-1.695 2.124-1.578.995.154 1.684 1.105 1.569 2.14-.152 1.001-1.097 1.694-2.124 1.578-1.032-.188-1.721-1.139-1.569-2.14zm-18.257-2.886c.152-1.001 1.097-1.695 2.124-1.578.995.154 1.684 1.105 1.569 2.14-.152 1.001-1.096 1.695-2.124 1.578-1.064-.15-1.754-1.102-1.569-2.14zm19.945-44.061c-.153 1.001-1.097 1.695-2.124 1.578-.995-.154-1.684-1.106-1.569-2.14.152-1.001 1.096-1.695 2.124-1.578.994.154 1.721 1.139 1.569 2.14zm10.594-7.787c-.152 1.001-1.097 1.695-2.124 1.578-.995-.154-1.684-1.106-1.569-2.14.152-1.001 1.097-1.695 2.124-1.578.994.154 1.721 1.139 1.569 2.14zm-18.327-2.882c-.152 1.002-1.097 1.695-2.124 1.579-.995-.155-1.684-1.106-1.569-2.141.152-1.001 1.096-1.694 2.124-1.578 1.031.188 1.721 1.139 1.569 2.14zm15.428 21.304c-.152 1.001-1.097 1.695-2.124 1.578-.995-.154-1.684-1.105-1.569-2.14.152-1.001 1.097-1.695 2.124-1.578 1.032.187 1.721 1.139 1.569 2.14zm-18.29-2.848c-.152 1.001-1.096 1.694-2.124 1.578-.994-.154-1.684-1.106-1.569-2.14.153-1.002 1.097-1.695 2.125-1.578 1.064.149 1.754 1.101 1.568 2.14zm-8.909-12.726c.578.25.99.686 1.131 1.28.05.245.099.49.009.744-.103.644-.495 1.163-1.044 1.408a4.027 4.027 0 0 1-.693.182c-.14.009-.247-.02-.387-.012a1.182 1.182 0 0 1-.686-.279 1.626 1.626 0 0 1-.805-1.122c-.049-.245-.099-.49-.008-.743.152-1.002 1.096-1.695 2.124-1.578.144.062.252.091.359.12zm25.194-31.935c-.152 1.002-1.097 1.695-2.124 1.579-.994-.154-1.684-1.106-1.569-2.14.152-1.002 1.097-1.695 2.124-1.579 1.065.15 1.754 1.102 1.569 2.14zm-7.733-10.668c-.152 1.001-1.096 1.695-2.124 1.578-.994-.154-1.684-1.106-1.569-2.14.152-1.001 1.097-1.695 2.124-1.578 1.032.187 1.721 1.139 1.569 2.14zm-2.862 18.455c-.152 1.001-1.096 1.695-2.124 1.578-.994-.154-1.684-1.106-1.569-2.14.153-1.001 1.097-1.695 2.124-1.578 1.065.15 1.755 1.102 1.569 2.14zm-8.546-12.535a1.663 1.663 0 0 1 .805 1.123c.05.245.099.49.009.744a1.207 1.207 0 0 1-.276.69 1.964 1.964 0 0 1-1.885.854c-.747-.133-1.342-.665-1.491-1.4-.049-.245-.099-.49-.008-.744.152-1.001 1.096-1.695 2.124-1.578.252.092.503.183.722.312zm15.948 21.77c.269.374.405.898.327 1.363-.152 1.001-1.097 1.695-2.124 1.578a2.078 2.078 0 0 1-.978-.474 1.82 1.82 0 0 1-.603-1.275c-.008-.142.02-.25.012-.391.152-1.001 1.097-1.695 2.124-1.578.537.146.974.403 1.242.777zm8.92-53.862c-.152 1.001-1.097 1.695-2.124 1.578-.994-.154-1.684-1.105-1.569-2.14.152-1.001 1.097-1.695 2.124-1.578 1.028.117 1.754 1.102 1.569 2.14zm-7.732-10.668c-.152 1-1.097 1.694-2.124 1.578-.995-.154-1.684-1.106-1.569-2.14.152-1.002 1.096-1.695 2.124-1.578 1.064.15 1.754 1.101 1.569 2.14zm-2.829 18.418c-.152 1-1.097 1.694-2.124 1.578-.994-.154-1.684-1.106-1.569-2.14.152-1.002 1.097-1.695 2.124-1.579.995.154 1.721 1.14 1.569 2.14zm-8.323-12.335c.371.332.574.781.603 1.276.008.14-.021.249-.013.39-.152 1.001-1.096 1.695-2.124 1.578-.746-.133-1.341-.665-1.49-1.4-.049-.246-.099-.49-.008-.744.074-.536.366-.943.738-1.213a1.86 1.86 0 0 1 1.353-.328c.355.05.681.208.941.44zm16.019 22.97c-.05.357-.239.723-.47.984-.165.187-.367.34-.574.424-.342.162-.693.183-1.08.17a1.774 1.774 0 0 1-1.206-.744 1.896 1.896 0 0 1-.326-1.363c.074-.536.367-.943.738-1.213a1.86 1.86 0 0 1 1.353-.328c1.027.117 1.717 1.069 1.565 2.07zm-1.268-64.386c-.995-.154-1.684-1.106-1.569-2.14.152-1.001 1.097-1.695 2.124-1.578.994.154 1.684 1.105 1.569 2.14-.148 1.072-1.093 1.765-2.124 1.578zm-.738 16.877c-.152 1.001-1.097 1.695-2.124 1.578-.994-.154-1.684-1.106-1.569-2.14.152-1.001 1.097-1.695 2.124-1.578 1.032.187 1.721 1.139 1.569 2.14zm-8.776-9.26a4.101 4.101 0 0 1-.693.182c-.14.008-.247-.02-.388-.012-.994-.154-1.683-1.106-1.568-2.14.152-1.002 1.096-1.695 2.124-1.579.994.154 1.683 1.106 1.568 2.14-.102.645-.494 1.164-1.043 1.409zm-2.632 15.181c.219.13.405.295.52.466.153.203.236.411.285.656.05.245.1.49.009.744a1.97 1.97 0 0 1-.47.985c-.165.186-.367.34-.573.423-.343.162-.693.183-1.081.17a2.082 2.082 0 0 1-.978-.474c-.075-.066-.186-.166-.227-.27-.042-.104-.153-.204-.194-.307a40.35 40.35 0 0 1-.124-.312c-.042-.104-.05-.245-.058-.386-.009-.142.02-.25.012-.391.152-1.001 1.097-1.695 2.124-1.578.285.054.536.145.755.274zm-49.731 182.723c.123-.893.894-1.541 1.736-1.591.14-.008.248.021.388.013.107.029.247.021.359.121a1.864 1.864 0 0 1 1.177 2.056c-.021.25-.111.503-.276.69a1.963 1.963 0 0 1-1.885.855c-.958-.121-1.614-1.11-1.499-2.144zm7.732 10.668c.152-1.001 1.097-1.694 2.124-1.578.995.154 1.684 1.106 1.569 2.141-.152 1.001-1.096 1.694-2.124 1.578-1.031-.188-1.721-1.139-1.569-2.141zm-18.289-2.848c.152-1.001 1.096-1.694 2.124-1.578.994.154 1.684 1.106 1.569 2.14-.153 1.002-1.097 1.695-2.124 1.578-1.032-.187-1.721-1.138-1.569-2.14zm-6.201-8.562c-.747-.133-1.341-.665-1.49-1.4-.05-.245-.1-.49-.009-.744.029-.108.021-.249.12-.361.148-.47.515-.81.96-1.014.343-.162.693-.182 1.081-.17.248.021.5.113.685.279.075.066.219.129.293.195.075.067.186.167.227.27.153.204.236.412.285.657.05.245.1.49.009.744-.103.644-.494 1.163-1.043 1.408-.342.162-.726.22-1.118.136zm23.076-34.432a1.82 1.82 0 0 1-.603-1.275c-.009-.142.02-.25.012-.391.029-.108.02-.249.119-.361.149-.47.516-.81.961-1.014.342-.162.693-.182 1.081-.17.532.075.937.37 1.205.744s.405.898.327 1.363c-.152 1.001-1.097 1.695-2.124 1.578a2.078 2.078 0 0 1-.978-.474zm18.55 3.081c-.438-.257-.673-.669-.805-1.122-.05-.245-.1-.49-.009-.743.029-.108.021-.25.12-.362.148-.469.515-.81.96-1.013.343-.162.693-.183 1.081-.17.108.029.248.021.359.12.252.092.434.187.586.391.26.233.455.54.545.889.05.246.1.491.009.744-.02.249-.111.503-.276.69a1.964 1.964 0 0 1-1.885.855 2.848 2.848 0 0 1-.685-.279zm-22.002 13.708c.152-1.001 1.096-1.694 2.124-1.578.994.154 1.683 1.106 1.568 2.14-.152 1.002-1.096 1.695-2.124 1.578-1.031-.187-1.721-1.139-1.568-2.14zm18.289 2.849c.021-.249.112-.503.277-.69a1.963 1.963 0 0 1 1.885-.855c.247.021.499.112.685.279a1.66 1.66 0 0 1 .805 1.122c.049.245.099.49.008.743-.02.25-.111.503-.276.69a1.62 1.62 0 0 1-.462.523 1.86 1.86 0 0 1-1.353.328c-.994-.154-1.684-1.106-1.569-2.14zm-7.695-10.635c.152-1.002 1.096-1.695 2.124-1.578.994.154 1.684 1.105 1.569 2.14-.152 1.001-1.097 1.694-2.124 1.578-1.032-.188-1.721-1.139-1.569-2.14zm-18.327-2.882c.152-1.001 1.096-1.695 2.124-1.578.994.154 1.684 1.105 1.569 2.14-.153 1.001-1.097 1.695-2.125 1.578-1.031-.187-1.721-1.139-1.568-2.14zm15.461 21.266c.152-1.001 1.097-1.694 2.124-1.578.994.154 1.684 1.106 1.569 2.14-.152 1.002-1.097 1.695-2.124 1.579-1.027-.117-1.717-1.069-1.569-2.141zm-18.29-2.848c.152-1.001 1.097-1.695 2.124-1.578.994.154 1.684 1.105 1.569 2.14-.152 1.001-1.097 1.695-2.124 1.578-1.065-.15-1.754-1.102-1.569-2.14zm-3.335-26.947a1.185 1.185 0 0 1-.685-.278c-.074-.067-.219-.129-.293-.196a1.804 1.804 0 0 1-.545-.889c-.05-.245-.099-.49-.009-.744.029-.108.021-.249.12-.361.148-.469.515-.81.961-1.013.342-.162.693-.183 1.08-.17.355.049.719.241.979.473.371.333.573.782.603 1.276.008.141-.021.249-.013.391-.028.108-.02.249-.119.361-.091.253-.186.436-.388.59-.165.187-.367.34-.573.423-.379.129-.763.187-1.118.137zm-2.474 18.468c-.14.008-.247-.021-.387-.012-.995-.155-1.684-1.106-1.569-2.141.152-1.001 1.096-1.694 2.124-1.578.994.154 1.684 1.106 1.569 2.14-.103.644-.495 1.164-1.043 1.409-.207.083-.45.132-.694.182zm44.818-49.578c-.994-.154-1.684-1.106-1.569-2.14.029-.108.021-.249.12-.361a.92.92 0 0 1 .156-.329c.128-.22.293-.407.462-.523.103-.042.202-.154.305-.195l.31-.125c.243-.049.487-.099.738-.008.248.021.5.113.685.279.075.066.219.129.293.195.075.067.186.166.227.27.153.204.236.412.285.657.05.245.1.49.009.743-.021.25-.111.503-.276.69-.128.22-.293.407-.462.523-.301.266-.788.366-1.283.324zm-22.724 13.397c.152-1.002 1.096-1.695 2.124-1.578.994.154 1.684 1.105 1.569 2.14-.153 1.001-1.097 1.694-2.124 1.578-1.065-.15-1.754-1.102-1.569-2.14zm19.177 4.78c-.511-.324-.825-.873-.863-1.508-.008-.142.021-.25.013-.391.074-.536.366-.943.738-1.213a1.86 1.86 0 0 1 1.353-.328c.994.155 1.684 1.106 1.569 2.141-.153 1.001-1.097 1.694-2.125 1.578-.251-.092-.503-.183-.685-.279zm-8.616-12.53c.152-1.001 1.096-1.695 2.124-1.578.994.154 1.684 1.106 1.569 2.14-.153 1.001-1.097 1.695-2.124 1.578-1.032-.187-1.721-1.139-1.569-2.14zm-18.257-2.886c.152-1.001 1.097-1.695 2.124-1.578.994.154 1.684 1.105 1.569 2.14-.152 1.001-1.097 1.695-2.124 1.578-1.065-.15-1.754-1.102-1.569-2.14zm15.428 21.304c.152-1.001 1.097-1.695 2.124-1.578.995.154 1.684 1.106 1.569 2.14-.152 1.001-1.097 1.695-2.124 1.578-1.065-.15-1.754-1.101-1.569-2.14zm-18.327-2.882c.153-1.001 1.097-1.694 2.124-1.578.995.154 1.684 1.106 1.569 2.14-.152 1.001-1.096 1.695-2.124 1.578-1.031-.187-1.721-1.139-1.569-2.14zm-6.164-8.528c-.746-.133-1.341-.665-1.49-1.401-.049-.245-.099-.49-.008-.743.152-1.002 1.096-1.695 2.124-1.578.994.154 1.684 1.105 1.569 2.14-.029.108-.021.249-.12.361-.148.469-.515.81-.961 1.013-.375.2-.722.291-1.114.208zm26.109-35.533c-.152 1.002-1.097 1.695-2.124 1.578-.995-.154-1.684-1.105-1.569-2.14.152-1.001 1.097-1.694 2.124-1.578 1.064.15 1.754 1.102 1.569 2.14zm10.594-7.786c-.152 1.001-1.097 1.694-2.124 1.578-.994-.154-1.684-1.106-1.569-2.14.152-1.002 1.097-1.695 2.124-1.579 1.032.188 1.721 1.139 1.569 2.141zm-18.289-2.849c-.153 1.001-1.097 1.695-2.125 1.578-.994-.154-1.683-1.106-1.568-2.14.152-1.001 1.096-1.695 2.124-1.578 1.027.117 1.754 1.101 1.569 2.14zm15.427 21.304c-.152 1.001-1.096 1.695-2.124 1.578-.994-.154-1.684-1.106-1.569-2.14.152-1.001 1.097-1.695 2.124-1.578 1.065.15 1.754 1.101 1.569 2.14zm-18.293-2.919c-.152 1.001-1.097 1.694-2.124 1.578-.995-.154-1.684-1.106-1.569-2.14.152-1.002 1.096-1.695 2.124-1.578 1.031.187 1.721 1.139 1.569 2.14zm7.732 10.669a1.973 1.973 0 0 1-.469.984 1.582 1.582 0 0 1-.574.424c-.342.162-.693.182-1.081.17a1.775 1.775 0 0 1-1.205-.744 1.893 1.893 0 0 1-.326-1.363c.074-.536.366-.943.738-1.213a1.86 1.86 0 0 1 1.353-.328c1.027.117 1.717 1.069 1.564 2.07zm8.589-55.297c-.152 1.002-1.097 1.696-2.124 1.579-.994-.154-1.684-1.106-1.569-2.14.152-1.002 1.097-1.695 2.124-1.578 1.032.187 1.721 1.139 1.569 2.14zm10.562-7.749c-.153 1.002-1.097 1.695-2.124 1.579-.995-.155-1.684-1.106-1.569-2.14.152-1.002 1.096-1.695 2.124-1.579 1.064.15 1.754 1.102 1.569 2.14zm-18.294-2.919c-.153 1.001-1.097 1.695-2.124 1.578-.995-.154-1.684-1.105-1.569-2.14.152-1 1.096-1.694 2.124-1.578 1.031.188 1.721 1.14 1.569 2.14zm15.465 21.338c-.152 1-1.097 1.694-2.124 1.577-.994-.154-1.684-1.105-1.569-2.14.152-1.001 1.097-1.694 2.124-1.578.995.154 1.684 1.106 1.569 2.14zm-18.327-2.882c-.152 1.001-1.097 1.695-2.124 1.578-.995-.154-1.684-1.106-1.569-2.14.152-1.001 1.097-1.695 2.124-1.578 1.032.187 1.721 1.139 1.569 2.14zm-7.733-10.668a1.782 1.782 0 0 1-.738 1.212 1.86 1.86 0 0 1-1.353.328c-.994-.154-1.684-1.106-1.569-2.14.153-1.001 1.097-1.695 2.124-1.578.999.224 1.688 1.176 1.536 2.177zm13.897 19.196c.354.05.718.241.978.474.446.399.693 1.022.591 1.666-.153 1.001-1.097 1.695-2.125 1.578-.994-.154-1.683-1.105-1.568-2.14.028-.108.02-.249.119-.361.148-.47.515-.81.961-1.014.305-.195.689-.253 1.044-.203zm18.327 2.882c.354.05.718.241.978.474.185.166.338.37.421.577.082.208.132.453.182.699.008.141-.021.249-.013.39-.028.108-.02.249-.119.361-.091.254-.185.437-.388.59a1.587 1.587 0 0 1-.573.424c-.342.162-.693.182-1.081.17a1.182 1.182 0 0 1-.685-.279c-.074-.066-.219-.129-.293-.195a1.809 1.809 0 0 1-.545-.889c-.049-.245-.099-.491-.008-.744.028-.108.02-.249.119-.361.148-.47.515-.81.961-1.014.268-.228.652-.286 1.044-.203zm-36.654-5.764c.994.154 1.684 1.106 1.569 2.14-.029.108-.021.25-.12.362-.09.253-.185.436-.387.59-.165.187-.367.34-.573.423-.343.162-.694.183-1.081.17a1.949 1.949 0 0 1-.978-.474 1.82 1.82 0 0 1-.603-1.275c-.009-.142.02-.25.012-.39.222-1.006 1.167-1.7 2.161-1.546zm28.448-50.307c-.153 1.002-1.097 1.695-2.125 1.578-.994-.154-1.683-1.105-1.568-2.14.152-1.001 1.096-1.694 2.124-1.578 1.031.187 1.721 1.139 1.569 2.14zm10.594-7.787c-.152 1.002-1.097 1.695-2.124 1.579-.995-.154-1.684-1.106-1.569-2.14.152-1.002 1.096-1.695 2.124-1.578 1.031.187 1.721 1.138 1.569 2.14zm-18.29-2.848c-.152 1.001-1.097 1.695-2.124 1.578-.995-.154-1.684-1.106-1.569-2.14.152-1.001 1.096-1.695 2.124-1.578.994.154 1.721 1.139 1.569 2.14zm15.428 21.304c-.152 1-1.097 1.694-2.124 1.578-.995-.154-1.684-1.106-1.569-2.14.152-1.002 1.097-1.695 2.124-1.578 1.032.187 1.721 1.139 1.569 2.14zm-18.327-2.882c-.152 1.001-1.096 1.695-2.124 1.578-.994-.154-1.684-1.106-1.569-2.14.153-1.001 1.097-1.695 2.124-1.578 1.065.15 1.754 1.101 1.569 2.14zm-7.695-10.635c-.029.108-.021.249-.12.361-.148.47-.515.81-.961 1.013-.342.162-.693.183-1.081.17a1.955 1.955 0 0 1-.978-.474 1.825 1.825 0 0 1-.603-1.275c-.008-.141.021-.25.013-.39.074-.537.366-.944.737-1.214.372-.27.891-.407 1.354-.327 1.134.145 1.824 1.097 1.639 2.136zm13.929 19.159c.355.05.718.241.978.474a1.85 1.85 0 0 1 .591 1.666c-.152 1.002-1.097 1.695-2.124 1.578-.995-.154-1.684-1.105-1.569-2.14.029-.108.02-.249.119-.361.149-.47.516-.81.961-1.013.235-.192.619-.25 1.044-.204zm18.257 2.886c.532.075.936.37 1.205.745.268.374.405.897.326 1.362-.02.25-.111.503-.276.69-.193.295-.461.523-.767.718a4.092 4.092 0 0 1-.693.183c-.14.008-.247-.02-.388-.013a1.186 1.186 0 0 1-.685-.278c-.437-.258-.672-.67-.805-1.122-.049-.245-.099-.49-.008-.744.123-.893.894-1.54 1.736-1.59.107.029.247.02.355.05zm-36.225-5.647c.578.25.99.686 1.131 1.28.05.245.099.49.009.744-.021.25-.111.503-.276.69a1.963 1.963 0 0 1-1.885.855 1.189 1.189 0 0 1-.686-.279 1.63 1.63 0 0 1-.805-1.122c-.049-.245-.099-.49-.008-.744.029-.108.02-.249.119-.361.091-.253.186-.436.351-.623a1.82 1.82 0 0 1 1.654-.594c.144.063.252.092.396.154zm25.965-48.849c-.995-.154-1.684-1.106-1.569-2.14.152-1.001 1.096-1.695 2.124-1.578.994.154 1.684 1.105 1.569 2.14-.185 1.038-1.13 1.732-2.124 1.578zm10.561-7.75c-.817-.129-1.42-.802-1.536-1.575 1.226-.107 2.451-.215 3.68-.252-.028.108.013.212-.016.32-.156.93-1.101 1.624-2.128 1.507zm-.738 16.878c-.152 1-1.096 1.694-2.124 1.578-.994-.154-1.683-1.106-1.568-2.14.152-1.002 1.096-1.695 2.124-1.579 1.027.117 1.716 1.069 1.568 2.14zm-20.418-1.342c-.994-.154-1.683-1.105-1.568-2.14.152-1 1.096-1.694 2.124-1.578.994.154 1.684 1.106 1.569 2.14-.186 1.039-1.13 1.732-2.125 1.578zm-7.732-10.668a1.183 1.183 0 0 1-.685-.279c-.438-.257-.673-.669-.805-1.122-.05-.245-.099-.49-.009-.743.029-.108.021-.25.12-.362.09-.253.185-.436.387-.59l.033-.037c.524-.066 1.011-.166 1.568-.27.21-.012.384-.057.627-.107.47.22.813.66.95 1.184.049.245.099.49.008.744-.255 1.043-1.2 1.736-2.194 1.582zm16.02 17.619c.107.029.248.02.359.12.252.092.433.188.586.391a1.85 1.85 0 0 1 .591 1.666c-.029.108-.02.25-.119.362-.091.253-.186.436-.388.59-.165.187-.367.34-.573.423-.343.162-.693.183-1.081.17a2.082 2.082 0 0 1-.978-.474 1.85 1.85 0 0 1-.591-1.666c.123-.893.895-1.541 1.736-1.59.211-.013.318.016.458.008zm-65.767 182.293a1.772 1.772 0 0 1-1.205-.744 1.892 1.892 0 0 1-.327-1.363c.074-.536.367-.943.738-1.213.371-.27.891-.407 1.353-.327.995.154 1.684 1.105 1.569 2.14a1.97 1.97 0 0 1-.47.984 1.587 1.587 0 0 1-.573.424c-.347.091-.73.149-1.085.099zm-4.398 16.278c.153-1.001 1.097-1.695 2.125-1.578.994.154 1.683 1.106 1.568 2.14-.152 1.001-1.096 1.695-2.124 1.578-1.064-.15-1.754-1.101-1.569-2.14zm19.141 4.747c-.438-.258-.673-.669-.805-1.122-.05-.245-.099-.49-.009-.744.074-.535.367-.942.738-1.212a1.86 1.86 0 0 1 1.353-.328c.355.05.718.241.978.474.372.332.574.781.603 1.275.009.142-.02.25-.012.391-.152 1.001-1.096 1.695-2.124 1.578-.285-.054-.503-.183-.722-.312zm-8.579-12.497c.152-1.001 1.096-1.694 2.124-1.578.994.154 1.683 1.106 1.568 2.141-.152 1.001-1.096 1.694-2.124 1.578-1.031-.188-1.721-1.139-1.568-2.141zm-18.294-2.918c.152-1.002 1.096-1.695 2.124-1.579.994.155 1.684 1.106 1.568 2.141-.152 1.001-1.096 1.694-2.124 1.578-1.064-.15-1.754-1.102-1.568-2.14zm-9.026 9.927a1.953 1.953 0 0 1-.978-.474 1.825 1.825 0 0 1-.603-1.276c-.008-.141.021-.249.013-.39.074-.536.366-.943.737-1.213.372-.27.891-.407 1.354-.328.994.154 1.683 1.106 1.568 2.14-.028.108-.02.249-.119.361-.148.47-.515.81-.961 1.014-.272.158-.656.216-1.011.166zm25.347-54.555c.029-.108.021-.249.12-.361.148-.469.515-.81.96-1.013.343-.162.693-.183 1.081-.17.355.05.718.241.978.474a1.85 1.85 0 0 1 .591 1.666c-.152 1.001-1.096 1.694-2.124 1.578-1.102-.183-1.791-1.135-1.606-2.174zm-2.899 18.422c.153-1.001 1.097-1.694 2.124-1.578.995.154 1.684 1.106 1.569 2.141-.152 1.001-1.096 1.694-2.124 1.578-.994-.154-1.684-1.106-1.569-2.141zm10.595-7.786c.152-1.001 1.097-1.695 2.124-1.578.995.154 1.684 1.105 1.569 2.14-.152 1.001-1.097 1.695-2.124 1.578-1.027-.117-1.717-1.068-1.569-2.14zm-18.29-2.849c.152-1.001 1.097-1.694 2.124-1.578.995.154 1.684 1.106 1.569 2.14-.152 1.001-1.097 1.695-2.124 1.578-1.032-.187-1.721-1.139-1.569-2.14zm15.428 21.304c.153-1.001 1.097-1.695 2.124-1.578.995.154 1.684 1.106 1.569 2.14-.152 1.001-1.096 1.695-2.124 1.578-1.031-.187-1.721-1.139-1.569-2.14zm-18.29-2.848c.152-1.001 1.097-1.695 2.124-1.578.995.154 1.684 1.105 1.569 2.14-.152 1.001-1.096 1.695-2.124 1.578-1.031-.187-1.721-1.139-1.569-2.14zm-3.301-26.984a1.182 1.182 0 0 1-.686-.279c-.074-.066-.218-.129-.293-.195a1.83 1.83 0 0 1-.603-1.276c-.008-.141.021-.249.013-.39.074-.536.366-.943.738-1.213a1.86 1.86 0 0 1 1.353-.328c.994.154 1.684 1.106 1.569 2.14-.05.357-.239.723-.47.985-.165.187-.367.34-.574.423a2.104 2.104 0 0 1-1.047.133zm19.586-17.677c.152-1.001 1.097-1.695 2.124-1.578.994.154 1.684 1.106 1.569 2.14-.152 1.001-1.097 1.695-2.124 1.578-1.032-.187-1.721-1.139-1.569-2.14zm14.254-7.187c-.152 1.001-1.097 1.695-2.124 1.578-.994-.154-1.684-1.106-1.569-2.14.152-1.001 1.097-1.695 2.124-1.578 1.027.116 1.717 1.068 1.569 2.14zm-18.294-2.919c-.152 1.001-1.096 1.694-2.124 1.578-.994-.154-1.683-1.106-1.568-2.14.152-1.002 1.096-1.695 2.124-1.578 1.031.187 1.721 1.139 1.568 2.14zm11.773 20.775c.152-1.002 1.097-1.695 2.124-1.578.994.154 1.684 1.105 1.569 2.14-.152 1.001-1.097 1.694-2.124 1.578-1.032-.188-1.721-1.139-1.569-2.14zm-18.294-2.919c.152-1.002 1.097-1.695 2.124-1.578.994.154 1.684 1.105 1.569 2.14-.152 1.001-1.097 1.694-2.124 1.578-1.065-.15-1.754-1.102-1.569-2.14zm19.944-44.061c-.152 1.001-1.096 1.695-2.124 1.578-.994-.154-1.684-1.105-1.569-2.14.153-1.001 1.097-1.695 2.124-1.578 1.032.187 1.721 1.139 1.569 2.14zm16.758.741c.355.05.718.241.978.474.371.333.574.781.603 1.276.008.141-.021.249-.012.39-.152 1.002-1.097 1.695-2.124 1.578-.747-.133-1.342-.665-1.49-1.4-.05-.245-.1-.49-.009-.744.029-.108.02-.249.119-.361.149-.47.516-.81.961-1.014.235-.191.619-.249.974-.199zm-6.163-8.528c-.153 1.001-1.097 1.695-2.124 1.578-.995-.154-1.684-1.106-1.569-2.14.152-1.001 1.096-1.695 2.124-1.578 1.031.187 1.721 1.139 1.569 2.14zm-18.328-2.882c-.152 1.001-1.096 1.695-2.124 1.578-.994-.154-1.684-1.105-1.568-2.14.152-1.001 1.096-1.695 2.124-1.578 1.031.187 1.721 1.139 1.568 2.14zm15.466 21.338c-.152 1.001-1.097 1.694-2.124 1.578-.995-.154-1.684-1.106-1.569-2.14.152-1.002 1.096-1.695 2.124-1.579 1.031.188 1.721 1.139 1.569 2.141zm-18.327-2.882c-.152 1.001-1.097 1.694-2.124 1.578-.994-.154-1.684-1.106-1.569-2.14.152-1.001 1.097-1.695 2.124-1.578 1.032.187 1.721 1.139 1.569 2.14zm-7.733-10.669c-.152 1.002-1.096 1.695-2.124 1.578a1.181 1.181 0 0 1-.685-.278c-.512-.324-.825-.873-.863-1.509-.008-.141.021-.249.012-.39.074-.536.367-.943.738-1.213a1.86 1.86 0 0 1 1.353-.328c1.032.187 1.721 1.139 1.569 2.14zm13.896 19.197c.355.05.718.241.978.474a1.85 1.85 0 0 1 .591 1.666c-.152 1.001-1.096 1.695-2.124 1.578-.994-.154-1.684-1.105-1.569-2.14.029-.108.021-.249.12-.361.148-.47.515-.81.961-1.014.305-.195.689-.253 1.043-.203zm18.328 2.882c.532.075.936.37 1.205.744.268.374.404.897.326 1.363-.02.249-.111.502-.276.689a2.43 2.43 0 0 1-.767.719c-.206.083-.45.133-.693.182-.14.009-.248-.02-.388-.012-.994-.154-1.684-1.106-1.569-2.14.124-.893.895-1.541 1.737-1.591.177.025.317.017.425.046zm-36.262-5.68c.577.249.99.686 1.168 1.313.05.245.099.49.009.744a1.202 1.202 0 0 1-.277.689 1.963 1.963 0 0 1-1.885.856 1.189 1.189 0 0 1-.685-.279 1.628 1.628 0 0 1-.805-1.122c-.049-.245-.099-.49-.008-.744.028-.108.02-.249.119-.361.305-.798 1.117-1.342 2.042-1.184l.322.088zm28.092-50.358c-.152 1.002-1.096 1.695-2.124 1.579-.994-.154-1.684-1.106-1.569-2.14.153-1.001 1.097-1.695 2.124-1.578.995.154 1.684 1.105 1.569 2.14zm10.595-7.786c-.153 1-1.097 1.694-2.124 1.578-.995-.154-1.684-1.106-1.569-2.14.152-1.002 1.096-1.695 2.124-1.578.994.154 1.684 1.105 1.569 2.14zm-18.327-2.882c-.152 1.001-1.097 1.695-2.124 1.578-.994-.154-1.684-1.106-1.569-2.14.152-1.001 1.097-1.695 2.124-1.578 1.032.187 1.721 1.139 1.569 2.14zm15.428 21.304c-.152 1-1.096 1.694-2.124 1.578-.994-.154-1.684-1.106-1.569-2.14.152-1.002 1.097-1.695 2.124-1.578 1.065.15 1.754 1.101 1.569 2.14zm-18.29-2.848c-.152 1-1.096 1.694-2.124 1.578-.994-.154-1.684-1.106-1.569-2.14.152-1.002 1.097-1.695 2.124-1.579 1.028.117 1.754 1.102 1.569 2.14zm-8.909-12.726c.577.25.99.686 1.131 1.28.049.245.099.49.008.744-.103.644-.494 1.163-1.043 1.408a4.092 4.092 0 0 1-.693.182c-.14.009-.247-.02-.388-.012a1.186 1.186 0 0 1-.685-.279c-.437-.257-.673-.669-.805-1.122-.05-.245-.099-.49-.008-.743.152-1.002 1.096-1.695 2.124-1.579.144.063.251.092.359.121zm15.106 21.217c.107.029.248.02.359.12.252.092.433.187.586.391a1.85 1.85 0 0 1 .591 1.666c-.029.108-.021.25-.12.362-.09.253-.185.436-.387.59-.165.186-.367.34-.573.423-.343.162-.694.183-1.081.17a2.082 2.082 0 0 1-.978-.474 1.85 1.85 0 0 1-.591-1.666c.123-.893.894-1.541 1.736-1.59.21-.013.318.016.458.008zM470.6 25.12c-.342.162-.693.183-1.081.17a1.772 1.772 0 0 1-1.205-.744c-.041-.104-.153-.204-.194-.308-.083-.207-.132-.452-.182-.698-.008-.14.021-.249.012-.39.152-1.001 1.097-1.695 2.124-1.578.995.154 1.684 1.105 1.569 2.14a1.97 1.97 0 0 1-.47.985 1.754 1.754 0 0 1-.573.423zm-1.818 17.047c-.152 1.002-1.097 1.695-2.124 1.578-.995-.154-1.684-1.105-1.569-2.14.152-1 1.097-1.694 2.124-1.578 1.064.15 1.754 1.102 1.569 2.14zm10.594-7.787c-.152 1.001-1.097 1.695-2.124 1.578-.994-.154-1.684-1.105-1.569-2.14.152-1.001 1.097-1.695 2.124-1.578 1.032.187 1.721 1.139 1.569 2.14zm-18.327-2.882c-.152 1.002-1.097 1.695-2.124 1.579-.995-.154-1.684-1.106-1.569-2.14.152-1.002 1.097-1.695 2.124-1.579 1.065.15 1.754 1.102 1.569 2.14zm15.465 21.338c-.152 1.001-1.096 1.695-2.124 1.578-.994-.154-1.684-1.106-1.569-2.14.152-1.001 1.097-1.695 2.124-1.578 1.065.15 1.754 1.101 1.569 2.14zm-18.294-2.919c-.152 1.001-1.096 1.694-2.124 1.578-.994-.154-1.684-1.106-1.569-2.14.153-1.002 1.097-1.695 2.124-1.578 1.032.187 1.721 1.139 1.569 2.14zm-5.909-27.646c-.207.084-.45.133-.693.183-.141.008-.248-.02-.388-.012a1.178 1.178 0 0 1-.685-.28c-.075-.066-.219-.128-.293-.194a1.8 1.8 0 0 1-.545-.89c-.05-.245-.1-.49-.009-.743.123-.894.894-1.541 1.736-1.591.14-.008.248.02.388.012.107.03.248.021.359.121.252.092.433.187.586.39a1.85 1.85 0 0 1 .591 1.667c-.029.108-.021.25-.12.361-.152.4-.519.74-.927.976zm-2.67 15.149a1.649 1.649 0 0 1 .805 1.122c.05.245.099.49.009.744-.153 1-1.097 1.694-2.124 1.578-.747-.134-1.342-.665-1.491-1.4-.049-.246-.099-.491-.008-.745.152-1 1.096-1.694 2.124-1.578.247.021.466.15.685.279zm15.948 21.77c.269.373.405.897.327 1.362-.021.25-.111.503-.276.69a1.963 1.963 0 0 1-1.885.855c-.995-.154-1.684-1.106-1.569-2.14.152-1.002 1.096-1.695 2.124-1.578.606.141 1.011.436 1.279.81zm14.524-41.687c-.994-.154-1.684-1.106-1.569-2.14.153-1.002 1.097-1.695 2.124-1.579.995.154 1.684 1.106 1.569 2.14-.185 1.04-1.129 1.733-2.124 1.579zm-18.326-2.882c-.64-.104-1.193-.532-1.404-1.122a103.19 103.19 0 0 1 3.49-1.091l.038.635c-.115 1.035-1.06 1.728-2.124 1.578zm26.614 9.832c.355.05.718.242.978.474a1.85 1.85 0 0 1 .591 1.666 1.785 1.785 0 0 1-.738 1.213 1.86 1.86 0 0 1-1.353.328c-.994-.154-1.684-1.106-1.569-2.14.029-.108.021-.25.12-.361.148-.47.515-.81.961-1.014.272-.158.655-.216 1.01-.166zM402.808 201.72c.029-.108.021-.249.12-.361.148-.47.515-.81.961-1.014.342-.161.693-.182 1.081-.169.354.049.718.241.978.473.445.399.693 1.023.59 1.667-.152 1.001-1.096 1.694-2.124 1.578-1.101-.183-1.791-1.135-1.606-2.174zm19.826 5.026c-.995-.154-1.684-1.105-1.569-2.14.123-.893.895-1.541 1.736-1.591.14-.008.248.021.388.013.107.029.248.021.359.121.359.12.619.353.846.623.269.374.405.898.327 1.363a1.198 1.198 0 0 1-.276.689 1.648 1.648 0 0 1-.462.524c-.367.34-.817.473-1.349.398zm-22.687 13.43c.152-1.001 1.096-1.695 2.124-1.578.994.154 1.684 1.106 1.569 2.14-.152 1.001-1.097 1.695-2.124 1.578-1.032-.187-1.721-1.139-1.569-2.14zm10.594-7.787c.152-1.001 1.097-1.695 2.124-1.578.994.154 1.684 1.106 1.569 2.14-.152 1.001-1.097 1.695-2.124 1.578-1.065-.15-1.721-1.139-1.569-2.14zm-18.327-2.881c.152-1.002 1.097-1.695 2.124-1.578.994.154 1.684 1.105 1.569 2.14-.152 1.001-1.097 1.694-2.124 1.578-1.032-.188-1.721-1.139-1.569-2.14zm-2.861 18.455c.152-1.002 1.096-1.695 2.124-1.578.994.154 1.683 1.105 1.568 2.14-.152 1.001-1.096 1.694-2.124 1.578-1.031-.188-1.721-1.139-1.568-2.14zm-2.915-26.972c-.14.009-.247-.02-.388-.012a1.182 1.182 0 0 1-.685-.279 1.623 1.623 0 0 1-.805-1.122c-.05-.245-.099-.49-.009-.743.029-.108.021-.25.12-.362.305-.797 1.117-1.341 2.042-1.183.994.154 1.684 1.105 1.569 2.14a1.2 1.2 0 0 1-.277.689 2.41 2.41 0 0 1-.767.719c-.346.091-.59.141-.8.153zm19.199-17.689c.152-1.001 1.096-1.694 2.124-1.578.994.154 1.684 1.106 1.569 2.141-.153 1.001-1.097 1.694-2.124 1.578-1.032-.188-1.721-1.139-1.569-2.141zm18.368 3.589c-.049-.246-.099-.491-.008-.744.029-.108.02-.249.119-.362.091-.253.186-.436.388-.589a1.82 1.82 0 0 1 1.654-.594c.107.029.247.021.359.121.578.249.99.685 1.131 1.28.05.245.099.49.009.743-.153 1.001-1.097 1.695-2.124 1.578-.784-.166-1.379-.698-1.528-1.433zm-7.774-11.376c.152-1.001 1.097-1.694 2.124-1.578.994.154 1.684 1.106 1.569 2.14-.152 1.002-1.097 1.695-2.124 1.579-1.032-.188-1.721-1.139-1.569-2.141zm-14.634-2.319c-.152 1.001-1.096 1.695-2.124 1.578-.994-.154-1.684-1.105-1.569-2.14.152-1.001 1.097-1.695 2.124-1.578 1.032.187 1.721 1.139 1.569 2.14zm11.773 20.775c.152-1.001 1.096-1.695 2.124-1.578.994.154 1.684 1.106 1.569 2.14-.153 1.001-1.097 1.695-2.124 1.578-1.032-.187-1.722-1.139-1.569-2.14zm-18.294-2.919c.152-1.001 1.096-1.695 2.124-1.578.994.154 1.684 1.106 1.569 2.14-.153 1.001-1.097 1.695-2.124 1.578-1.065-.15-1.754-1.101-1.569-2.14zm-4.627-11.702c.372.332.574.781.603 1.275.008.142-.02.25-.012.391-.152 1.001-1.097 1.695-2.124 1.578a1.18 1.18 0 0 1-.685-.279c-.438-.257-.673-.669-.805-1.122-.05-.245-.1-.49-.009-.743.074-.536.367-.943.738-1.213a1.86 1.86 0 0 1 1.353-.328c.318.017.644.175.941.441zm24.571-32.359c-.152 1.001-1.097 1.695-2.124 1.578-.994-.154-1.684-1.106-1.569-2.14.152-1.001 1.097-1.695 2.124-1.578 1.032.187 1.721 1.139 1.569 2.14zm16.758.741c.248.021.5.113.685.279.219.129.405.295.52.465.153.204.236.412.285.657.05.245.1.49.009.744-.02.249-.111.502-.276.689a1.66 1.66 0 0 1-.462.524 1.863 1.863 0 0 1-1.353.327c-.994-.154-1.684-1.105-1.569-2.14.021-.249.111-.502.276-.689.128-.221.293-.407.462-.524a1.54 1.54 0 0 1 .652-.286c.313-.054.524-.066.771-.046zm-6.164-8.528c-.152 1.001-1.096 1.695-2.124 1.578-.994-.154-1.684-1.106-1.569-2.14.153-1.001 1.097-1.695 2.124-1.578 1.032.187 1.721 1.139 1.569 2.14zm-18.29-2.848c-.152 1.001-1.096 1.694-2.124 1.578-.994-.154-1.684-1.106-1.569-2.14.153-1.002 1.097-1.695 2.124-1.578.995.154 1.721 1.139 1.569 2.14zm15.429 21.303c-.153 1.002-1.097 1.695-2.125 1.579-.994-.155-1.683-1.106-1.568-2.141.152-1.001 1.096-1.694 2.124-1.578 1.031.188 1.721 1.139 1.569 2.14zm-18.327-2.881c-.152 1.001-1.097 1.694-2.124 1.578-.995-.154-1.684-1.106-1.569-2.14.152-1.002 1.097-1.695 2.124-1.578 1.065.15 1.754 1.101 1.569 2.14zm-7.696-10.636c-.102.644-.494 1.164-1.043 1.409-.206.083-.449.132-.693.182-.14.008-.247-.021-.388-.012-.994-.154-1.683-1.106-1.568-2.141.152-1.001 1.096-1.694 2.124-1.578 1.027.117 1.754 1.102 1.568 2.14zm13.93 19.16c.107.029.247.021.359.121.251.091.433.187.586.39.446.399.693 1.023.591 1.667-.029.108-.021.249-.12.361-.09.253-.185.436-.387.59-.165.187-.367.34-.574.423-.342.162-.693.183-1.081.17a1.96 1.96 0 0 1-.978-.473 1.854 1.854 0 0 1-.59-1.667c.123-.893.894-1.541 1.736-1.59.173-.046.28-.017.458.008zm10.088-53.151c-.153 1.001-1.097 1.695-2.124 1.578-.995-.154-1.684-1.106-1.569-2.14.152-1.001 1.096-1.695 2.124-1.578 1.064.15 1.754 1.101 1.569 2.14zm10.594-7.787c-.152 1.001-1.097 1.695-2.124 1.578-.995-.154-1.684-1.106-1.569-2.14.152-1.001 1.097-1.695 2.124-1.578 1.032.187 1.721 1.139 1.569 2.14zm-18.327-2.882c-.152 1.002-1.097 1.695-2.124 1.578-.995-.154-1.684-1.105-1.569-2.14.152-1 1.096-1.695 2.124-1.578 1.064.15 1.754 1.102 1.569 2.14zm15.465 21.337c-.152 1.001-1.097 1.695-2.124 1.578-.994-.154-1.684-1.105-1.569-2.14.152-1.001 1.097-1.695 2.124-1.578 1.028.117 1.717 1.068 1.569 2.14zm-18.294-2.919c-.152 1.001-1.097 1.695-2.124 1.578-.994-.154-1.684-1.105-1.569-2.14.152-1.001 1.097-1.695 2.124-1.578 1.032.187 1.721 1.139 1.569 2.14zm-7.733-10.669c-.028.108-.02.25-.119.362-.305.797-1.118 1.341-2.042 1.183-.747-.133-1.341-.665-1.49-1.4-.05-.245-.099-.491-.009-.744.153-1.001 1.097-1.695 2.125-1.578.998.225 1.688 1.176 1.535 2.177zm13.897 19.197c.532.075.937.371 1.205.745s.405.897.327 1.362c-.021.25-.111.503-.276.69a1.963 1.963 0 0 1-1.885.855c-.995-.154-1.684-1.105-1.569-2.14.028-.108.02-.249.119-.361.148-.47.515-.81.961-1.014.379-.128.763-.186 1.118-.137zm10.121-53.188c-.152 1.001-1.097 1.695-2.124 1.578-.995-.154-1.684-1.106-1.569-2.14.152-1.001 1.096-1.695 2.124-1.578 1.031.187 1.721 1.139 1.569 2.14zm10.561-7.75c-.152 1.001-1.097 1.695-2.124 1.578-.995-.154-1.684-1.105-1.569-2.14.152-1.001 1.097-1.695 2.124-1.578 1.064.15 1.754 1.101 1.569 2.14zm-18.257-2.885c-.152 1.001-1.097 1.694-2.124 1.578-.994-.154-1.684-1.106-1.569-2.14.152-1.002 1.097-1.695 2.124-1.578.994.154 1.684 1.105 1.569 2.14zm15.428 21.304c-.152 1-1.096 1.694-2.124 1.578-.994-.154-1.684-1.106-1.569-2.14.152-1.002 1.097-1.695 2.124-1.579 1.032.188 1.721 1.14 1.569 2.14zm-18.326-2.882c-.153 1-1.097 1.694-2.124 1.578-.995-.154-1.684-1.106-1.569-2.14.152-1.002 1.096-1.695 2.124-1.579 1.031.188 1.721 1.14 1.569 2.14zm-5.878-27.683c-.342.162-.693.183-1.081.17a1.955 1.955 0 0 1-.978-.474 1.829 1.829 0 0 1-.603-1.276c-.008-.14.021-.249.013-.39.152-1.001 1.096-1.695 2.124-1.578.532.075.936.37 1.205.744.268.374.405.897.326 1.363-.028.108-.02.249-.119.361-.111.503-.474.914-.887 1.08zm13.61 38.351a1.97 1.97 0 0 1-.47.985c-.165.187-.367.34-.573.423-.342.162-.693.183-1.081.17a1.772 1.772 0 0 1-1.205-.744.93.93 0 0 1-.194-.307c-.083-.208-.132-.453-.182-.698-.008-.141.02-.25.012-.39.152-1.002 1.097-1.695 2.124-1.579 1.032.188 1.721 1.14 1.569 2.14zm16.057.783c.243-.05.487-.1.738-.008.248.021.5.113.685.279.075.066.219.129.293.195.075.067.186.166.227.27.153.204.236.412.285.657.05.245.1.49.009.744a1.2 1.2 0 0 1-.276.69 1.64 1.64 0 0 1-.462.522 1.86 1.86 0 0 1-1.353.328c-.994-.154-1.684-1.106-1.569-2.14.029-.108.021-.25.12-.361a.913.913 0 0 1 .156-.328c.128-.22.293-.408.462-.524.103-.041.202-.154.305-.195.103-.041.239-.12.38-.129zm-9.592-54.5c-.994-.154-1.684-1.106-1.569-2.14.153-1.002 1.097-1.695 2.124-1.578.995.154 1.684 1.105 1.569 2.14-.152 1-1.129 1.732-2.124 1.578zm10.595-7.788c-.995-.153-1.684-1.105-1.569-2.14.152-1 1.096-1.694 2.124-1.578.994.154 1.684 1.106 1.569 2.14-.186 1.04-1.13 1.733-2.124 1.579zm-.738 16.878c-.152 1.001-1.097 1.695-2.124 1.578-.995-.154-1.684-1.105-1.569-2.14.152-1.001 1.096-1.695 2.124-1.578.994.154 1.684 1.106 1.569 2.14zm-20.418-1.341c-.995-.154-1.684-1.105-1.569-2.14.152-1.001 1.097-1.695 2.124-1.578.994.154 1.684 1.106 1.569 2.14-.185 1.039-1.13 1.732-2.124 1.578zm9.823 9.128c-.02.25-.111.503-.276.69a1.962 1.962 0 0 1-1.885.855c-.994-.154-1.684-1.105-1.569-2.14.029-.108.021-.25.12-.361.305-.798 1.117-1.342 2.041-1.184 1.028.117 1.717 1.068 1.569 2.14zm16.759.741c.354.05.718.242.978.474.185.167.338.37.421.578.082.208.132.453.182.698.008.141-.021.25-.013.39-.152 1.002-1.096 1.695-2.124 1.579a1.186 1.186 0 0 1-.685-.279c-.437-.258-.672-.67-.805-1.122-.049-.245-.099-.49-.008-.744.028-.108.02-.249.119-.361.12-.361.351-.623.619-.852a.92.92 0 0 1 .305-.195c.235-.19.619-.249 1.011-.166zm-82.769 158.779c.152-1.001 1.097-1.694 2.124-1.578.995.154 1.684 1.106 1.569 2.14-.152 1.002-1.097 1.695-2.124 1.578-1.027-.116-1.717-1.068-1.569-2.14zm18.336 3.626c-.05-.246-.1-.491-.009-.744.152-1.001 1.097-1.695 2.124-1.578.248.021.499.112.685.278.219.129.404.296.52.466.153.204.235.411.285.656.05.246.099.491.009.744a1.204 1.204 0 0 1-.276.69 1.963 1.963 0 0 1-1.885.855c-.673-.067-1.272-.669-1.453-1.367zm-7.775-11.375c.152-1.001 1.097-1.695 2.124-1.578.995.154 1.684 1.105 1.569 2.14-.152 1.001-1.096 1.695-2.124 1.578-.994-.154-1.721-1.139-1.569-2.14zm-14.634-2.32c-.152 1.001-1.096 1.695-2.124 1.578-.994-.154-1.683-1.106-1.568-2.14.152-1.001 1.096-1.695 2.124-1.578 1.031.187 1.721 1.139 1.568 2.14zm11.806 20.738c.152-1.002 1.096-1.695 2.124-1.578.994.154 1.684 1.105 1.569 2.14-.153 1.001-1.097 1.694-2.125 1.578-1.064-.15-1.754-1.102-1.568-2.14zm-14.667-2.282c-.152 1.001-1.097 1.694-2.124 1.578-.995-.154-1.684-1.106-1.569-2.14.152-1.002 1.096-1.695 2.124-1.579 1.064.15 1.754 1.102 1.569 2.141zm-7.733-10.669a1.786 1.786 0 0 1-.738 1.213 1.86 1.86 0 0 1-1.353.328c-.994-.154-1.684-1.106-1.569-2.14.152-1.002 1.097-1.695 2.124-1.578 1.032.187 1.721 1.138 1.536 2.177zm24.054-33.959c-.152 1.001-1.097 1.695-2.124 1.578-.994-.154-1.684-1.105-1.569-2.14.152-1.001 1.097-1.695 2.124-1.578 1.027.117 1.717 1.068 1.569 2.14zm10.595-7.787c-.152 1.002-1.097 1.695-2.124 1.579-.995-.155-1.684-1.106-1.569-2.141.152-1.001 1.096-1.694 2.124-1.578.994.154 1.684 1.106 1.569 2.14zm-18.327-2.881c-.153 1.001-1.097 1.694-2.124 1.578-.995-.154-1.684-1.106-1.569-2.14.152-1.002 1.096-1.695 2.124-1.578 1.064.15 1.754 1.101 1.569 2.14zm15.428 21.303c-.152 1.002-1.097 1.695-2.124 1.579-.995-.155-1.684-1.106-1.569-2.141.152-1.001 1.096-1.694 2.124-1.578 1.064.15 1.754 1.102 1.569 2.14zm-18.257-2.885c-.152 1.001-1.097 1.694-2.124 1.578-.995-.154-1.684-1.106-1.569-2.14.152-1.002 1.097-1.695 2.124-1.579.994.155 1.721 1.139 1.569 2.141zm-7.766-10.631c-.028.108-.02.249-.119.361-.305.798-1.117 1.342-2.042 1.184a2.097 2.097 0 0 1-.978-.474 1.827 1.827 0 0 1-.603-1.276c-.008-.141.021-.249.012-.39.074-.536.367-.943.738-1.213a1.86 1.86 0 0 1 1.353-.328c1.135.146 1.825 1.097 1.639 2.136zm15.135 19.903c.268.374.404.898.326 1.363-.02.25-.111.503-.276.69a1.96 1.96 0 0 1-1.885.855c-.994-.154-1.684-1.106-1.569-2.14.152-1.001 1.097-1.695 2.124-1.578.537.145 1.011.436 1.28.81zm8.916-53.933c-.153 1.002-1.097 1.695-2.124 1.578-.995-.154-1.684-1.105-1.569-2.14.152-1.001 1.096-1.694 2.124-1.578 1.031.188 1.721 1.139 1.569 2.14zm10.561-7.749c-.153 1.001-1.097 1.695-2.124 1.578-.995-.154-1.684-1.106-1.569-2.14.152-1.001 1.096-1.695 2.124-1.578 1.064.15 1.754 1.101 1.569 2.14zm-18.327-2.882c-.152 1.001-1.097 1.695-2.124 1.578-.994-.154-1.684-1.105-1.569-2.14.152-1.001 1.097-1.695 2.124-1.578 1.065.15 1.754 1.102 1.569 2.14zm15.498 21.3c-.152 1.001-1.097 1.695-2.124 1.578-.994-.154-1.684-1.106-1.569-2.14.152-1.001 1.097-1.695 2.124-1.578 1.032.187 1.721 1.139 1.569 2.14zm-18.327-2.881c-.152 1.001-1.096 1.694-2.124 1.578-.994-.154-1.684-1.106-1.569-2.141.153-1.001 1.097-1.694 2.124-1.578 1.032.188 1.722 1.139 1.569 2.141zm-8.905-12.656c.578.25.99.686 1.131 1.28.05.246.099.491.009.744-.153 1.001-1.097 1.695-2.125 1.578a1.188 1.188 0 0 1-.685-.278c-.437-.258-.672-.67-.805-1.122-.049-.246-.099-.491-.008-.744.029-.108.02-.249.119-.361.091-.254.186-.437.388-.59a1.82 1.82 0 0 1 1.654-.594c.07-.004.21-.012.322.087zm16.638 23.324a1.966 1.966 0 0 1-.47.984 1.587 1.587 0 0 1-.573.424c-.343.162-.693.182-1.081.17a1.772 1.772 0 0 1-1.205-.744c-.042-.104-.153-.204-.194-.308a4.087 4.087 0 0 1-.182-.698c-.009-.141.02-.249.012-.39.152-1.002 1.097-1.695 2.124-1.578 1.032.187 1.721 1.139 1.569 2.14zm16.758.742c.247.021.499.112.685.278.074.067.219.129.293.196.074.066.186.166.227.27.153.203.235.411.285.656.05.245.099.491.008.744-.102.644-.494 1.163-1.043 1.408-.342.162-.693.183-1.081.17-.746-.133-1.341-.665-1.49-1.401-.049-.245-.099-.49-.008-.743.029-.108.02-.25.119-.362.148-.469.515-.81.961-1.013a1.352 1.352 0 0 1 1.044-.203zm-8.169-56.038c-.153 1.001-1.097 1.695-2.124 1.578-.995-.154-1.684-1.105-1.569-2.14.152-1.001 1.096-1.695 2.124-1.578.994.154 1.684 1.106 1.569 2.14zm10.594-7.786c-.152 1-1.097 1.694-2.124 1.578-.995-.154-1.684-1.106-1.569-2.14.152-1.002 1.097-1.695 2.124-1.579.994.154 1.684 1.106 1.569 2.14zm-20.451-1.304c-.994-.154-1.684-1.106-1.569-2.14.152-1.002 1.097-1.695 2.124-1.579.995.155 1.684 1.106 1.569 2.14-.185 1.04-1.129 1.733-2.124 1.579zm17.552 19.725c-.152 1.002-1.096 1.695-2.124 1.578-.994-.154-1.683-1.105-1.568-2.14.152-1.001 1.096-1.694 2.124-1.578 1.031.188 1.721 1.139 1.568 2.14zm-18.29-2.848c-.152 1.001-1.096 1.695-2.124 1.578-.994-.154-1.684-1.105-1.569-2.14.153-1.001 1.097-1.695 2.125-1.578.994.154 1.683 1.106 1.568 2.14zm-8.47-9.456a1.86 1.86 0 0 1-1.353.328c-.995-.154-1.684-1.106-1.569-2.14.02-.249.111-.503.276-.69a1.65 1.65 0 0 1 1.114-.81c.243-.05.486-.099.738-.008.248.021.499.113.685.28.219.128.405.294.52.465.153.203.236.411.285.656.05.245.1.49.009.744a1.201 1.201 0 0 1-.276.689 1.414 1.414 0 0 1-.429.486zm16.166 20.092c-.02.249-.111.502-.276.689a1.962 1.962 0 0 1-1.885.855c-.995-.154-1.684-1.105-1.569-2.14.029-.108.02-.249.119-.361.305-.798 1.118-1.342 2.042-1.184 1.065.15 1.754 1.102 1.569 2.141zm16.758.741c.355.05.718.241.978.474.372.333.574.781.603 1.276.009.141-.02.249-.012.39-.152 1.001-1.096 1.695-2.124 1.578a1.188 1.188 0 0 1-.685-.278 1.628 1.628 0 0 1-.805-1.122c-.05-.245-.099-.491-.009-.744.029-.108.021-.249.12-.361.148-.47.515-.81.961-1.014.235-.191.618-.249.973-.199zm-36.584-5.767c.533.075.937.37 1.206.744.268.374.404.897.326 1.362-.152 1.002-1.096 1.695-2.124 1.579a1.189 1.189 0 0 1-.685-.279c-.074-.067-.219-.129-.293-.195a1.827 1.827 0 0 1-.603-1.276c-.008-.141.021-.249.012-.391.074-.535.367-.943.738-1.212.409-.237.891-.407 1.423-.332zm26.324-48.73c-.78-.095-1.346-.735-1.528-1.433l1.98-2.243c.037.033.07-.004.107.029.994.154 1.684 1.106 1.569 2.14-.189.968-1.134 1.662-2.128 1.508zm18.849-.799c.355.05.718.241.978.474.372.333.574.781.603 1.276.009.141-.02.25-.012.39-.152 1.001-1.097 1.695-2.124 1.578a1.183 1.183 0 0 1-.685-.278c-.438-.258-.673-.67-.805-1.122-.05-.245-.099-.49-.009-.744.029-.108.021-.25.12-.361.148-.47.515-.81.961-1.014.235-.19.618-.249.973-.199zm-8.288-6.95c-.994-.154-1.684-1.106-1.569-2.14.153-1.001 1.097-1.695 2.124-1.578.995.154 1.684 1.105 1.569 2.14-.152 1.001-1.129 1.732-2.124 1.578zm-.737 16.877c-.152 1.002-1.097 1.695-2.124 1.578-.995-.154-1.684-1.105-1.569-2.14.152-1.001 1.097-1.695 2.124-1.578 1.032.187 1.754 1.102 1.569 2.14zm-18.505-2.305c-.161.258-.322.515-.594.673l.594-.673zm7.352 8.389a1.85 1.85 0 0 1 .591 1.666c-.152 1.001-1.096 1.695-2.124 1.578-.994-.154-1.684-1.106-1.569-2.14.029-.108.021-.25.12-.362.148-.469.515-.81.961-1.013.342-.162.693-.183 1.081-.17.354.05.68.208.94.44zm17.316 2.445c.108.029.248.02.359.12.252.092.434.187.586.391a1.85 1.85 0 0 1 .591 1.666c-.029.108-.02.25-.119.362-.149.469-.516.81-.961 1.013-.206.083-.45.133-.693.183-.141.008-.248-.021-.388-.013a1.951 1.951 0 0 1-.978-.474 1.85 1.85 0 0 1-.591-1.666c.123-.893.895-1.541 1.736-1.59.211-.013.351-.021.458.008zm-73.381 122.538c-.152 1.001-1.096 1.694-2.124 1.578-.994-.154-1.684-1.106-1.569-2.141.152-1.001 1.097-1.694 2.124-1.578 1.065.15 1.754 1.102 1.569 2.141zm10.594-7.788c-.152 1.002-1.096 1.695-2.124 1.578-.994-.154-1.683-1.105-1.568-2.14.152-1.001 1.096-1.694 2.124-1.578 1.031.187 1.721 1.139 1.568 2.14zm-18.326-2.881c-.152 1.001-1.097 1.695-2.124 1.578-.995-.154-1.684-1.106-1.569-2.14.152-1.001 1.097-1.695 2.124-1.578 1.064.15 1.754 1.101 1.569 2.14zm15.498 21.299c-.152 1.001-1.097 1.695-2.124 1.578-.995-.154-1.684-1.105-1.569-2.14.152-1.001 1.097-1.694 2.124-1.578.994.154 1.684 1.106 1.569 2.14zm-18.327-2.881c-.152 1.001-1.097 1.695-2.124 1.578-.995-.154-1.684-1.106-1.569-2.14.152-1.001 1.096-1.695 2.124-1.578 1.031.187 1.721 1.139 1.569 2.14zm-8.942-12.688c.577.249.99.685 1.131 1.28.049.245.099.49.008.743-.152 1.002-1.096 1.695-2.124 1.578a1.181 1.181 0 0 1-.685-.278c-.437-.258-.673-.669-.805-1.122-.05-.245-.099-.49-.009-.744.153-1.001 1.097-1.695 2.125-1.578.144.062.251.092.359.121zm16.675 23.357c-.05.357-.239.722-.47.984a1.587 1.587 0 0 1-.573.424c-.343.162-.693.182-1.081.17a1.77 1.77 0 0 1-1.205-.744c-.042-.104-.153-.204-.195-.308a4.208 4.208 0 0 1-.181-.698c-.009-.141.02-.249.012-.39.152-1.002 1.096-1.695 2.124-1.578.994.154 1.684 1.105 1.569 2.14zm8.551-55.329c-.152 1.001-1.096 1.695-2.124 1.578-.994-.154-1.684-1.106-1.569-2.14.153-1.001 1.097-1.695 2.124-1.578 1.032.187 1.722 1.139 1.569 2.14zm10.562-7.75c-.152 1.002-1.097 1.695-2.124 1.578-.995-.154-1.684-1.105-1.569-2.14.152-1.001 1.097-1.694 2.124-1.578 1.065.15 1.754 1.102 1.569 2.14zm-18.257-2.886c-.152 1.001-1.097 1.695-2.124 1.578-.994-.154-1.684-1.106-1.569-2.14.152-1.001 1.097-1.695 2.124-1.578.995.154 1.684 1.106 1.569 2.14zm15.428 21.304c-.152 1.001-1.096 1.695-2.124 1.578-.994-.154-1.684-1.105-1.569-2.14.153-1.001 1.097-1.695 2.124-1.578 1.032.187 1.721 1.139 1.569 2.14zm-18.327-2.882c-.152 1.002-1.097 1.695-2.124 1.578-.994-.154-1.684-1.105-1.569-2.14.152-1.001 1.097-1.694 2.124-1.578 1.032.188 1.721 1.139 1.569 2.14zm7.179 9.036c.186.166.338.37.421.578.161.345.182.698.17 1.088-.021.25-.111.503-.276.69a1.963 1.963 0 0 1-1.885.855c-.995-.154-1.684-1.105-1.569-2.14.029-.108.02-.249.119-.361.305-.798 1.118-1.342 2.042-1.184.355.05.681.208.978.474zm17.312 2.374c.107.029.247.021.359.121.251.091.433.187.586.391.26.232.454.54.545.889.049.245.099.49.008.744-.152 1.001-1.096 1.694-2.124 1.578a1.189 1.189 0 0 1-.685-.279 1.628 1.628 0 0 1-.805-1.122c-.049-.245-.099-.49-.008-.744.028-.108.02-.249.119-.361.091-.253.186-.436.388-.59.165-.187.367-.34.573-.423.305-.196.689-.254 1.044-.204zm-36.584-5.767c.533.075.937.37 1.205.744.042.104.153.204.194.308.083.207.133.452.182.698.009.141-.02.249-.012.39-.152 1.001-1.097 1.695-2.124 1.578a1.188 1.188 0 0 1-.685-.278c-.074-.067-.219-.129-.293-.196a1.809 1.809 0 0 1-.545-.889 1.334 1.334 0 0 1-.058-.386c-.008-.142.021-.25.012-.391.074-.536.367-.943.738-1.213.371-.27.854-.44 1.386-.365zm30.807-67.74a1.59 1.59 0 0 1-.574.423c-.342.162-.693.183-1.08.17a1.956 1.956 0 0 1-.979-.474c-.445-.399-.656-.989-.553-1.633l.033-.037c.602-.532 1.171-1.026 1.773-1.558.107.03.211-.012.318.017.355.05.718.241.978.474a1.85 1.85 0 0 1 .591 1.666c-.029.108-.021.25-.12.362-.128.22-.255.44-.387.59zm-2.392 17.47c-.152 1.002-1.097 1.695-2.124 1.579-.995-.155-1.684-1.106-1.569-2.141.152-1.001 1.097-1.694 2.124-1.578 1.032.188 1.721 1.139 1.569 2.14zm10.594-7.787c-.152 1.002-1.097 1.695-2.124 1.578-.994-.154-1.684-1.105-1.569-2.14.152-1.001 1.097-1.694 2.124-1.578 1.032.188 1.721 1.139 1.569 2.14zm-20.451-1.303c-.747-.133-1.341-.665-1.523-1.364.338-.232.639-.498.944-.693a40.502 40.502 0 0 0 1.749-1.379c.619.353 1.016 1.11.884 1.862-.082.997-1.026 1.69-2.054 1.574zm17.552 19.726c-.152 1.001-1.096 1.694-2.124 1.578-.994-.154-1.684-1.106-1.569-2.14.152-1.002 1.097-1.695 2.124-1.578 1.032.187 1.721 1.138 1.569 2.14zm-18.289-2.849c-.152 1.001-1.097 1.695-2.124 1.578-.995-.154-1.684-1.105-1.569-2.14.152-1.001 1.096-1.695 2.124-1.578 1.064.15 1.754 1.102 1.569 2.14zm-9.824-9.128a1.185 1.185 0 0 1-.685-.278 1.625 1.625 0 0 1-.805-1.122 1.538 1.538 0 0 1-.034-.565c.714-.432 1.357-.86 2.071-1.292.169-.116.305-.195.474-.311.182.095.401.224.549.357.372.333.574.781.603 1.276.009.141-.02.249-.012.39-.222 1.006-1.167 1.699-2.161 1.545zm16.02 17.619c.355.05.718.241.978.474a1.85 1.85 0 0 1 .591 1.666c-.152 1.002-1.097 1.695-2.124 1.578-.994-.154-1.684-1.105-1.569-2.14.029-.108.021-.249.12-.361.148-.47.515-.81.96-1.014.306-.195.656-.215 1.044-.203zm18.294 2.919c.107.029.248.021.359.121.252.091.433.187.586.391a1.85 1.85 0 0 1 .591 1.666c-.029.108-.021.249-.119.361-.12.362-.351.623-.619.852a1.86 1.86 0 0 1-1.353.328 1.957 1.957 0 0 1-.978-.474 1.852 1.852 0 0 1-.591-1.667c.123-.893.895-1.541 1.736-1.59.141-.009.244-.05.388.012zm-35.052-3.661a1.97 1.97 0 0 1-.47.985c-.165.187-.367.34-.573.423-.206.083-.45.133-.693.183-.14.008-.248-.021-.388-.013a1.181 1.181 0 0 1-.685-.278 1.64 1.64 0 0 1-.52-.466 1.554 1.554 0 0 1-.285-.656c-.05-.245-.099-.49-.009-.744.074-.536.367-.943.738-1.213.372-.27.891-.407 1.354-.328.994.155 1.683 1.106 1.531 2.107zm32.488-40.2c-.994-.154-1.684-1.106-1.569-2.14.152-1.001 1.097-1.695 2.124-1.578.994.154 1.684 1.105 1.569 2.14-.185 1.038-1.13 1.732-2.124 1.578zm-72.826 118.82c-.152 1.001-1.097 1.694-2.124 1.578-.995-.154-1.684-1.106-1.569-2.14.152-1.002 1.096-1.695 2.124-1.578 1.031.187 1.721 1.139 1.569 2.14zm13.46-26.172c-.152 1.001-1.097 1.695-2.124 1.578-.995-.154-1.684-1.106-1.569-2.14.152-1.001 1.096-1.695 2.124-1.578.994.154 1.684 1.105 1.569 2.14zm10.557-7.82c-.152 1.001-1.097 1.694-2.124 1.578-.995-.154-1.684-1.106-1.569-2.141.152-1.001 1.097-1.694 2.124-1.578 1.032.188 1.721 1.139 1.569 2.141zm-18.29-2.849c-.152 1.002-1.097 1.695-2.124 1.578-.995-.154-1.684-1.105-1.569-2.14.152-1.001 1.097-1.694 2.124-1.578 1.031.188 1.721 1.139 1.569 2.14zm15.428 21.304c-.152 1.001-1.097 1.695-2.124 1.578-.994-.154-1.684-1.105-1.569-2.14.152-1.001 1.097-1.695 2.124-1.578 1.032.187 1.721 1.139 1.569 2.14zm-18.29-2.848c-.152 1.001-1.096 1.694-2.124 1.578-.994-.154-1.683-1.106-1.568-2.14.152-1.002 1.096-1.695 2.124-1.579 1.027.117 1.716 1.069 1.568 2.141zm-9.301-12.809c.355.05.718.241.978.474.372.332.574.781.603 1.275.008.142-.02.25-.012.391-.152 1.001-1.097 1.695-2.124 1.578a1.18 1.18 0 0 1-.685-.279c-.438-.257-.673-.669-.805-1.122-.05-.245-.1-.49-.009-.743.029-.108.021-.25.12-.362a1.67 1.67 0 0 1 1.934-1.212zm15.465 21.337c.355.05.718.241.978.474a1.85 1.85 0 0 1 .591 1.666c-.152 1.002-1.097 1.695-2.124 1.578-.995-.154-1.684-1.105-1.569-2.14.029-.108.02-.249.119-.361.149-.47.516-.81.961-1.014a1.356 1.356 0 0 1 1.044-.203zm17.935 2.799c.14-.008.247.021.388.012.107.03.247.021.359.121a.934.934 0 0 1 .326.158c.218.129.404.295.52.466.153.203.235.411.285.656.049.245.099.49.008.744-.028.108-.02.249-.119.361a.925.925 0 0 1-.157.328c-.127.22-.292.407-.461.524-.372.27-.891.406-1.354.327a1.953 1.953 0 0 1-.978-.474 1.855 1.855 0 0 1-.591-1.666c.021-.249.112-.502.277-.689.127-.22.292-.407.461-.524.203-.153.409-.236.652-.286a1.32 1.32 0 0 0 .384-.058zm-34.66-3.578a1.974 1.974 0 0 1-.47.985c-.165.186-.367.34-.573.423-.206.083-.45.133-.693.183-.14.008-.248-.021-.388-.013a1.772 1.772 0 0 1-1.205-.744 1.897 1.897 0 0 1-.327-1.363c.074-.536.367-.943.738-1.213.372-.27.891-.407 1.353-.327.991.083 1.717 1.068 1.565 2.069zm27.583-69.287c-.994-.154-1.683-1.105-1.568-2.14.123-.893.894-1.541 1.736-1.591.14-.008.247.021.388.013.107.029.247.021.359.121a1.863 1.863 0 0 1 1.176 2.057c-.02.249-.111.502-.276.689-.317.586-1.035.947-1.815.851zm-.737 16.877c-.152 1.002-1.097 1.695-2.124 1.578-.995-.154-1.684-1.105-1.569-2.14.152-1.001 1.096-1.694 2.124-1.578 1.064.15 1.754 1.102 1.569 2.14zm16.758.742c.248.021.499.112.685.278.219.129.405.296.52.466.153.204.236.411.285.656.05.246.099.491.009.744a1.204 1.204 0 0 1-.276.69 1.963 1.963 0 0 1-1.885.855c-.995-.154-1.684-1.106-1.569-2.14.02-.249.111-.503.276-.69.128-.22.293-.407.462-.523.202-.154.408-.237.651-.287.347-.091.594-.07.842-.049zm-6.164-8.528c-.152 1.001-1.097 1.694-2.124 1.578-.995-.154-1.684-1.106-1.569-2.14.152-1.002 1.097-1.695 2.124-1.578 1.032.187 1.721 1.138 1.569 2.14zm-20.418-1.342c-.995-.154-1.684-1.105-1.569-2.14.152-1.001 1.097-1.695 2.124-1.578.994.154 1.684 1.106 1.569 2.14-.185 1.039-1.13 1.732-2.124 1.578zm17.557 19.797c-.153 1.001-1.097 1.695-2.124 1.578-.995-.154-1.684-1.106-1.569-2.14.152-1.001 1.096-1.695 2.124-1.578 1.027.116 1.754 1.101 1.569 2.14zm-18.294-2.919c-.153 1.001-1.097 1.695-2.124 1.578-.995-.154-1.684-1.106-1.569-2.14.152-1.001 1.096-1.695 2.124-1.578 1.031.187 1.721 1.139 1.569 2.14zm-9.857-9.091c-.995-.154-1.684-1.105-1.569-2.14.152-1.001 1.096-1.694 2.124-1.578.994.154 1.684 1.106 1.569 2.14a1.786 1.786 0 0 1-.738 1.213c-.404.308-.887.478-1.386.365zm16.02 17.619c.355.05.718.242.978.474.446.399.694 1.023.591 1.667-.029.108-.02.249-.119.361-.091.253-.186.436-.388.59-.165.187-.367.34-.573.423-.343.162-.693.183-1.081.17-.887-.124-1.531-.902-1.581-1.749-.009-.141.02-.249.012-.391.029-.108.02-.249.119-.361.149-.47.516-.81.961-1.014a1.946 1.946 0 0 1 1.081-.17zm15.73-40.942c-.995-.154-1.684-1.105-1.569-2.14.152-1.001 1.096-1.695 2.124-1.578.994.154 1.684 1.106 1.569 2.14-.185 1.039-1.13 1.732-2.124 1.578zM262.036 226.8c-.152 1.001-1.097 1.695-2.124 1.578-.995-.154-1.684-1.105-1.569-2.14.152-1.001 1.096-1.695 2.124-1.578.994.154 1.721 1.139 1.569 2.14zm-18.327-2.882c-.152 1.001-1.097 1.695-2.124 1.578-.994-.154-1.684-1.105-1.569-2.14.152-1.001 1.097-1.695 2.124-1.578 1.032.187 1.721 1.139 1.569 2.14zm13.423-26.205c-.152 1.001-1.097 1.695-2.124 1.578-.995-.154-1.684-1.105-1.569-2.14.152-1.001 1.097-1.695 2.124-1.578 1.065.15 1.754 1.102 1.569 2.14zm10.594-7.786c-.152 1.001-1.096 1.694-2.124 1.578-.994-.154-1.684-1.106-1.569-2.14.152-1.002 1.097-1.695 2.124-1.579 1.032.188 1.721 1.139 1.569 2.141zm-18.29-2.849c-.152 1.001-1.097 1.695-2.124 1.578-.994-.154-1.684-1.106-1.569-2.14.152-1.001 1.097-1.695 2.124-1.578 1.028.117 1.717 1.068 1.569 2.14zm15.428 21.304c-.152 1.001-1.096 1.695-2.124 1.578-.994-.154-1.684-1.105-1.569-2.14.153-1.001 1.097-1.695 2.124-1.578 1.065.15 1.754 1.102 1.569 2.14zm-18.294-2.919c-.152 1.001-1.096 1.695-2.124 1.578-.994-.154-1.684-1.105-1.569-2.14.153-1.001 1.097-1.695 2.125-1.578 1.031.187 1.721 1.139 1.568 2.14zm-7.695-10.636c-.152 1.002-1.097 1.695-2.124 1.579a1.186 1.186 0 0 1-.685-.279c-.512-.324-.826-.873-.863-1.508-.008-.142.02-.25.012-.391.074-.536.367-.943.738-1.213a1.86 1.86 0 0 1 1.353-.328c.995.154 1.684 1.106 1.569 2.14zm13.859 19.165c.108.029.248.02.359.12a1.863 1.863 0 0 1 1.177 2.057c-.02.249-.111.503-.276.69a1.963 1.963 0 0 1-1.885.855c-.994-.154-1.684-1.106-1.569-2.14.124-.893.895-1.541 1.736-1.591.211-.012.351-.021.458.009zm8.034-51.578c-.994-.154-1.684-1.106-1.569-2.14.152-1.002 1.097-1.695 2.124-1.578.995.154 1.684 1.105 1.569 2.14-.185 1.038-1.129 1.732-2.124 1.578zm10.594-7.787a1.796 1.796 0 0 1-1.527-1.434c1.213-.319 2.356-.635 3.531-.988.087.279.104.561.087.881a1.84 1.84 0 0 1-2.091 1.541zm-.775 16.844c-.152 1.001-1.096 1.695-2.124 1.578-.994-.154-1.683-1.106-1.568-2.14.152-1.001 1.096-1.695 2.124-1.578 1.031.187 1.721 1.139 1.568 2.14zm-20.413-1.27c-.995-.154-1.684-1.106-1.569-2.14.152-1.001 1.097-1.695 2.124-1.578.994.154 1.684 1.105 1.569 2.14-.152 1.001-1.097 1.695-2.124 1.578zm-7.733-10.669c-.248-.021-.467-.149-.648-.245.243-.05.487-.1.697-.112a29.608 29.608 0 0 1 1.638-.274c-.396.449-1.015.698-1.687.631zm17.226 18.363c.268.374.404.898.326 1.363-.152 1.001-1.096 1.695-2.124 1.578a1.949 1.949 0 0 1-.978-.474 1.823 1.823 0 0 1-.603-1.275c-.008-.142.021-.25.012-.391.152-1.001 1.097-1.695 2.124-1.578.57.108.974.403 1.243.777zm17.122 2.138c.354.05.718.241.978.474.445.399.693 1.022.591 1.666-.029.108-.021.249-.12.361a.939.939 0 0 1-.157.329c-.193.294-.494.56-.767.718-.342.162-.693.183-1.081.17a1.953 1.953 0 0 1-.978-.474 1.828 1.828 0 0 1-.603-1.276c-.008-.141.021-.249.013-.39.028-.108.02-.249.119-.361.148-.47.515-.81.961-1.014.268-.228.652-.286 1.044-.203zm-35.676-5.29c.074.067.186.167.227.271.153.203.235.411.285.656.05.245.099.49.008.744-.028.108-.02.249-.119.361a.925.925 0 0 1-.157.328c-.066.075-.127.221-.193.295-.066.075-.165.187-.268.229-.104.041-.203.153-.306.195-.342.162-.693.182-1.081.17a1.953 1.953 0 0 1-.978-.474 1.852 1.852 0 0 1-.59-1.666c.028-.108.02-.25.119-.362.148-.469.515-.81.961-1.013l.309-.125c.244-.049.487-.099.739-.008.247.021.499.113.685.279.173-.046.285.054.359.12zm-26.292 54.043c-.152 1.002-1.097 1.695-2.124 1.578-.995-.154-1.684-1.105-1.569-2.14.152-1.001 1.097-1.694 2.124-1.578 1.032.188 1.721 1.139 1.569 2.14zm10.561-7.749c-.152 1.001-1.097 1.695-2.124 1.578-.995-.154-1.684-1.106-1.569-2.14.152-1.001 1.097-1.695 2.124-1.578 1.065.15 1.754 1.101 1.569 2.14zm-18.257-2.886c-.152 1.001-1.097 1.694-2.124 1.578-.994-.154-1.684-1.106-1.569-2.14.152-1.002 1.097-1.695 2.124-1.578 1.032.187 1.721 1.138 1.569 2.14zm-10.594 7.787c-.103.644-.494 1.163-1.043 1.408-.206.083-.45.133-.693.182-.14.009-.248-.02-.388-.012-.994-.154-1.684-1.106-1.569-2.14.152-1.001 1.097-1.695 2.124-1.578 1.032.187 1.721 1.139 1.569 2.14zm24.755-50.869c-.995-.154-1.684-1.106-1.569-2.14.029-.108.02-.25.119-.362.149-.469.516-.81.961-1.013.342-.162.693-.183 1.081-.17.355.05.718.241.978.474a1.85 1.85 0 0 1 .591 1.666c-.222 1.005-1.167 1.699-2.161 1.545zm-.738 16.877c-.152 1.001-1.097 1.695-2.124 1.578-.995-.154-1.684-1.106-1.569-2.14.152-1.001 1.097-1.695 2.124-1.578 1.032.187 1.721 1.139 1.569 2.14zm10.594-7.787c-.152 1.001-1.097 1.695-2.124 1.578-.994-.154-1.684-1.106-1.569-2.14.152-1.001 1.097-1.695 2.124-1.578 1.032.187 1.721 1.139 1.569 2.14zm-18.327-2.881c-.152 1.001-1.096 1.694-2.124 1.578-.994-.154-1.683-1.106-1.568-2.14.152-1.002 1.096-1.695 2.124-1.578 1.031.187 1.721 1.138 1.568 2.14zm15.466 21.337c-.152 1.001-1.097 1.694-2.124 1.578-.995-.154-1.684-1.106-1.569-2.141.152-1.001 1.097-1.694 2.124-1.578.994.154 1.721 1.139 1.569 2.141zm-18.327-2.882c-.152 1.001-1.097 1.695-2.124 1.578-.995-.154-1.684-1.106-1.569-2.14.152-1.001 1.096-1.695 2.124-1.578 1.064.15 1.754 1.101 1.569 2.14zm-5.914-27.716c-.207.083-.45.133-.693.183-.141.008-.248-.021-.388-.013a1.949 1.949 0 0 1-.978-.474c-.075-.066-.186-.166-.227-.27-.042-.104-.153-.204-.194-.308a4.062 4.062 0 0 1-.182-.698c-.009-.141.02-.249.012-.39.152-1.001 1.096-1.695 2.124-1.578.994.154 1.684 1.105 1.569 2.14-.05.357-.239.723-.47.984a1.587 1.587 0 0 1-.573.424zm-1.819 17.047c-.029.108-.02.25-.119.362-.149.469-.516.81-.961 1.013-.343.162-.693.183-1.081.17-.64-.104-1.156-.499-1.399-1.051l-.124-.312c-.05-.245-.099-.49-.009-.744.152-1.001 1.097-1.694 2.124-1.578 1.032.188 1.721 1.139 1.569 2.14zm15.466 21.338c-.05.357-.239.722-.47.984a1.587 1.587 0 0 1-.573.424c-.343.162-.693.182-1.081.17a1.77 1.77 0 0 1-1.205-.744 1.893 1.893 0 0 1-.327-1.363c.029-.108.02-.25.119-.362.305-.797 1.118-1.341 2.042-1.183.99.083 1.68 1.035 1.495 2.074zm16.758.741c.107.029.247.021.359.121.251.091.433.187.586.39.26.233.454.541.545.89.049.245.099.49.008.743-.152 1.002-1.096 1.695-2.124 1.578a1.181 1.181 0 0 1-.685-.278 1.63 1.63 0 0 1-.805-1.122c-.049-.245-.099-.49-.008-.744.029-.108.02-.249.119-.361.091-.254.186-.436.351-.623.164-.187.367-.341.573-.424.342-.162.689-.253 1.081-.17zm-2.565-43.861c-.994-.154-1.684-1.106-1.569-2.14.152-1.001 1.097-1.695 2.124-1.578.994.154 1.684 1.105 1.569 2.14-.185 1.038-1.13 1.732-2.124 1.578zm-18.327-2.882c-.64-.104-1.193-.532-1.404-1.122 1.189-.141 2.344-.245 3.532-.386-.222 1.006-1.134 1.662-2.128 1.508zm-35.349 58.656c-.152 1.001-1.096 1.695-2.124 1.578-.994-.154-1.684-1.106-1.569-2.14.152-1.001 1.097-1.695 2.124-1.578 1.032.187 1.721 1.139 1.569 2.14zm10.594-7.787c-.152 1.002-1.096 1.695-2.124 1.578-.994-.154-1.684-1.105-1.569-2.14.153-1.001 1.097-1.694 2.125-1.578 1.031.187 1.721 1.139 1.568 2.14zm-18.289-2.848c-.152 1.001-1.097 1.694-2.124 1.578-.995-.154-1.684-1.106-1.569-2.14.152-1.002 1.097-1.695 2.124-1.578.994.154 1.684 1.105 1.569 2.14zm-11.771 5.73c.577.249.99.686 1.131 1.28.049.245.099.49.008.744-.152 1.001-1.096 1.694-2.124 1.578a1.189 1.189 0 0 1-.685-.279c-.437-.258-.673-.669-.805-1.122-.05-.245-.099-.49-.009-.744.029-.108.021-.249.12-.361.091-.253.185-.436.388-.59a1.822 1.822 0 0 1 1.654-.594c.07-.004.177.025.322.088zm27.585-49.406c-.165.187-.367.34-.573.424-.343.161-.693.182-1.081.17a1.957 1.957 0 0 1-.978-.474 1.852 1.852 0 0 1-.591-1.667 2.024 2.024 0 0 1 .907-1.329c.524-.066 1.052-.062 1.576-.128.252.091.433.187.586.391a1.85 1.85 0 0 1 .591 1.666c-.029.108-.021.249-.119.361-.025.179-.153.399-.318.586zm-2.392 17.471c-.152 1.001-1.096 1.694-2.124 1.578-.994-.154-1.684-1.106-1.569-2.14.152-1.002 1.097-1.695 2.124-1.578 1.028.116 1.754 1.101 1.569 2.14zm8.467-6.28c-.995-.154-1.684-1.106-1.569-2.14.152-1.001 1.096-1.695 2.124-1.578.994.154 1.684 1.106 1.569 2.14-.148 1.072-1.093 1.765-2.124 1.578zm-18.291-2.848c-.994-.154-1.683-1.106-1.568-2.14.152-1.001 1.096-1.695 2.124-1.578.994.154 1.684 1.106 1.569 2.14-.186 1.039-1.13 1.732-2.125 1.578zm17.52 19.763c-.152 1.001-1.097 1.695-2.124 1.578-.994-.154-1.684-1.106-1.569-2.14.152-1.001 1.097-1.695 2.124-1.578 1.065.15 1.754 1.101 1.569 2.14zm-18.257-2.886c-.152 1.001-1.096 1.695-2.124 1.578-.994-.154-1.684-1.105-1.569-2.14.152-1.001 1.097-1.695 2.124-1.578 1.032.187 1.721 1.139 1.569 2.14zm-8.47-9.455c-.371.27-.891.407-1.353.327-.995-.154-1.684-1.105-1.569-2.14.02-.249.111-.502.276-.689a1.66 1.66 0 0 1 .462-.524c.202-.153.408-.236.651-.286.244-.05.487-.1.739-.008.247.021.499.112.685.278.219.129.404.296.52.466.153.204.235.411.285.656.05.246.099.491.009.744a1.204 1.204 0 0 1-.276.69 1.44 1.44 0 0 1-.429.486zm14.634 17.984c.355.05.718.241.978.474a1.85 1.85 0 0 1 .591 1.666c-.152 1.001-1.097 1.695-2.124 1.578-.995-.154-1.684-1.106-1.569-2.14.029-.108.02-.249.119-.361.149-.47.516-.81.961-1.014a1.356 1.356 0 0 1 1.044-.203zm18.327 2.882c.355.05.718.241.978.474.074.066.186.166.227.27.194.307.355.652.376 1.005.008.142-.02.25-.012.391a1.201 1.201 0 0 1-.276.689 1.964 1.964 0 0 1-1.885.856 1.183 1.183 0 0 1-.685-.279c-.438-.258-.673-.669-.805-1.122-.05-.245-.1-.49-.009-.744.123-.893.894-1.541 1.736-1.59.07-.004.178.025.355.05zm-36.654-5.764c.994.154 1.684 1.106 1.569 2.14a1.204 1.204 0 0 1-.276.69 1.963 1.963 0 0 1-1.885.855 1.177 1.177 0 0 1-.685-.279c-.512-.324-.826-.872-.863-1.508-.009-.141.02-.249.012-.39.029-.108.02-.25.119-.362.12-.361.351-.623.619-.851.408-.237.928-.374 1.39-.295zm-19.587 17.676c-.152 1.002-1.096 1.695-2.124 1.578-.994-.154-1.684-1.105-1.569-2.14.152-1.001 1.097-1.694 2.124-1.578 1.032.188 1.721 1.139 1.569 2.14zm10.562-7.749c-.152 1.001-1.097 1.695-2.124 1.578-.995-.154-1.684-1.106-1.569-2.14.152-1.001 1.096-1.695 2.124-1.578 1.064.15 1.754 1.101 1.569 2.14zm-18.294-2.919c-.152 1.001-1.097 1.695-2.124 1.578-.995-.154-1.684-1.106-1.569-2.14.152-1.001 1.096-1.695 2.124-1.578 1.031.187 1.721 1.139 1.569 2.14zm15.465 21.337c-.152 1.001-1.097 1.695-2.124 1.578-.994-.154-1.684-1.106-1.569-2.14.152-1.001 1.097-1.695 2.124-1.578.995.154 1.684 1.105 1.569 2.14zm-18.327-2.882c-.152 1.002-1.097 1.695-2.124 1.579-.995-.154-1.684-1.106-1.569-2.141.152-1.001 1.097-1.694 2.124-1.578 1.032.188 1.721 1.139 1.569 2.14zm-8.286-12.301c.371.332.573.781.603 1.276.008.141-.021.249-.013.39-.152 1.001-1.096 1.695-2.124 1.578a1.188 1.188 0 0 1-.685-.278 1.628 1.628 0 0 1-.805-1.122c-.049-.246-.099-.491-.008-.744.074-.536.366-.943.738-1.213a1.86 1.86 0 0 1 1.353-.328c.317.017.681.208.941.441zm22.447-30.781c-.995-.154-1.684-1.105-1.569-2.14.152-1.001 1.096-1.695 2.124-1.578.994.154 1.684 1.106 1.569 2.14a1.814 1.814 0 0 1-2.124 1.578zm10.594-7.787c-.995-.154-1.684-1.105-1.569-2.14.152-1.001 1.097-1.695 2.124-1.578.994.154 1.684 1.106 1.569 2.14-.185 1.039-1.13 1.732-2.124 1.578zm-18.29-2.848c-.747-.133-1.379-.698-1.528-1.434 1.189-.141 2.447-.286 3.672-.393.004.07-.024.178-.02.249-.185 1.038-1.13 1.732-2.124 1.578zm17.552 19.726c-.152 1.001-1.097 1.695-2.124 1.578-.994-.154-1.684-1.106-1.569-2.14.152-1.001 1.097-1.695 2.124-1.578 1.032.187 1.721 1.139 1.569 2.14zm-18.327-2.882c-.152 1.001-1.096 1.695-2.124 1.578-.994-.154-1.684-1.106-1.569-2.14.153-1.001 1.097-1.695 2.124-1.578 1.032.187 1.722 1.139 1.569 2.14zm-8.738-9.227c-.206.083-.45.132-.693.182-.14.008-.248-.021-.388-.012-.994-.154-1.684-1.106-1.569-2.14.152-1.002 1.097-1.695 2.124-1.579.995.154 1.684 1.106 1.569 2.141-.103.644-.532 1.129-1.043 1.408zm16.145 18.532c.268.374.404.898.326 1.363-.02.25-.111.503-.276.69a1.96 1.96 0 0 1-1.885.855c-.994-.154-1.684-1.106-1.569-2.14.152-1.001 1.097-1.695 2.124-1.578.57.108 1.007.366 1.28.81zm-39.12 14.051c-.152 1.002-1.096 1.695-2.124 1.578-.994-.154-1.683-1.105-1.568-2.14.152-1.001 1.096-1.694 2.124-1.578.994.154 1.683 1.106 1.568 2.14zm10.595-7.786c-.152 1.001-1.096 1.694-2.124 1.578-.994-.154-1.684-1.106-1.569-2.14.152-1.001 1.097-1.695 2.124-1.578.995.154 1.684 1.105 1.569 2.14zm-18.327-2.882c-.152 1.001-1.097 1.695-2.124 1.578-.994-.154-1.684-1.106-1.569-2.14.152-1.001 1.097-1.695 2.124-1.578 1.032.187 1.721 1.139 1.57 2.14zm15.428 21.304c-.152 1.001-1.096 1.694-2.124 1.578-.994-.154-1.684-1.106-1.569-2.14.153-1.002 1.097-1.695 2.124-1.578 1.032.187 1.721 1.138 1.569 2.14zm-18.289-2.849c-.153 1.001-1.097 1.695-2.125 1.578-.994-.154-1.684-1.105-1.569-2.14.153-1.001 1.097-1.695 2.124-1.578 1.028.117 1.754 1.102 1.57 2.14zm-6.996-27.546a2.087 2.087 0 0 1-.978-.473 1.826 1.826 0 0 1-.603-1.276c-.008-.141.02-.249.012-.391.152-1.001 1.097-1.694 2.124-1.578.533.075.937.37 1.205.744.269.374.405.898.327 1.363a1.785 1.785 0 0 1-.738 1.213 1.65 1.65 0 0 1-1.349.398zm-.737 16.878c-.029.108-.02.249-.12.361-.148.47-.515.81-.96 1.014-.343.162-.693.182-1.081.17a1.95 1.95 0 0 1-.978-.474 1.824 1.824 0 0 1-.603-1.276c-.009-.141.02-.249.012-.39.074-.536.367-.943.738-1.213a1.86 1.86 0 0 1 1.353-.328c1.135.146 1.824 1.097 1.639 2.136zm15.428 21.304a1.97 1.97 0 0 1-.47.984 1.587 1.587 0 0 1-.573.424c-.342.162-.693.182-1.08.17a1.773 1.773 0 0 1-1.206-.744c-.041-.104-.153-.204-.194-.308a4.207 4.207 0 0 1-.182-.698c-.008-.141.02-.249.012-.39.152-1.002 1.097-1.695 2.124-1.579 1.065.15 1.754 1.102 1.569 2.141zm6.498-53.755c-.995-.154-1.684-1.106-1.569-2.141 0 0 .033-.037-.004-.07 1.114-.208 2.265-.382 3.379-.589.198.378.293.798.248 1.226a1.788 1.788 0 0 1-2.054 1.574zm7.732 10.668c-.994-.154-1.683-1.105-1.568-2.14.152-1.001 1.096-1.695 2.124-1.578.994.154 1.684 1.106 1.569 2.14-.186 1.039-1.13 1.732-2.125 1.578zm-18.326-2.882c-.995-.154-1.684-1.105-1.57-2.14.153-1.001 1.098-1.694 2.125-1.578.994.154 1.684 1.106 1.569 2.14-.185 1.039-1.13 1.732-2.124 1.578zm9.857 9.091a1.208 1.208 0 0 1-.276.689 1.966 1.966 0 0 1-1.886.856c-.994-.154-1.684-1.106-1.569-2.141.029-.108.021-.249.12-.361.305-.798 1.117-1.342 2.042-1.183 1.031.187 1.721 1.139 1.569 2.14zm16.757.741c.248.021.5.113.685.279.075.067.219.129.293.195.075.067.186.167.227.271.153.203.236.411.285.656.05.245.1.49.009.744-.103.644-.494 1.163-1.043 1.408-.342.162-.693.182-1.081.17-.747-.133-1.341-.665-1.49-1.401-.05-.245-.099-.49-.009-.743.029-.108.021-.25.12-.362.148-.469.515-.81.961-1.013.305-.195.618-.249 1.043-.204zm-53.844-5.487a1.586 1.586 0 0 1-.574.424c-.342.162-.693.183-1.08.17a1.95 1.95 0 0 1-.979-.474 1.85 1.85 0 0 1-.59-1.666c.028-.108.02-.249.12-.361.147-.47.514-.81.96-1.014.342-.162.693-.182 1.08-.17.356.05.719.241.979.474a1.85 1.85 0 0 1 .59 1.666c-.028.108-.02.25-.119.362a2.944 2.944 0 0 1-.387.589zm-2.396 17.401c-.152 1.001-1.097 1.694-2.124 1.578-.995-.154-1.684-1.106-1.569-2.14.152-1.002 1.097-1.695 2.124-1.579 1.032.188 1.721 1.139 1.569 2.141zm10.561-7.75c-.152 1.001-1.096 1.695-2.124 1.578-.994-.154-1.683-1.105-1.569-2.14.153-1.001 1.097-1.695 2.124-1.578 1.065.15 1.755 1.102 1.57 2.14zm-20.418-1.341c-.994-.154-1.683-1.106-1.568-2.14.152-1.001 1.096-1.695 2.124-1.578.994.154 1.684 1.106 1.569 2.14-.149 1.072-1.093 1.765-2.125 1.578zm17.589 19.759c-.152 1.001-1.096 1.695-2.124 1.578-.994-.154-1.684-1.106-1.569-2.14.153-1.001 1.097-1.695 2.124-1.578 1.032.187 1.721 1.139 1.57 2.14zm-18.326-2.882c-.153 1.001-1.097 1.695-2.124 1.578-.995-.154-1.684-1.105-1.57-2.14.153-1.001 1.097-1.695 2.125-1.578 1.031.187 1.72 1.139 1.569 2.14zm-9.819-9.057c-.995-.154-1.685-1.106-1.57-2.14.02-.249.111-.503.276-.69a1.64 1.64 0 0 1 .462-.523c.202-.154.409-.237.652-.286.243-.05.487-.1.738-.009.248.021.5.113.685.279.22.129.405.295.52.466.153.203.236.411.286.656.05.245.099.49.008.744-.02.249-.111.502-.276.689-.284.549-1.002.91-1.782.814zm16.02 17.619c.354.05.718.241.978.474a1.85 1.85 0 0 1 .59 1.666c-.152 1.002-1.096 1.695-2.124 1.578-.994-.154-1.683-1.105-1.569-2.14.03-.108.021-.249.12-.361.148-.47.515-.81.96-1.014.269-.228.653-.286 1.045-.203zm18.29 2.849c.107.029.247.021.358.12.578.25.99.686 1.131 1.28.05.246.1.491.01.744-.03.108-.021.249-.12.362-.305.797-1.118 1.341-2.042 1.183a1.18 1.18 0 0 1-.685-.279c-.075-.066-.219-.128-.293-.195a1.808 1.808 0 0 1-.545-.889c-.05-.245-.1-.491-.009-.744.029-.108.02-.249.12-.361.09-.254.185-.437.387-.59.33-.374.776-.577 1.267-.606.173-.046.28-.017.42-.025zm-36.617-5.731c.64.104 1.155.499 1.399 1.052.083.208.132.453.182.698.008.141-.02.249-.012.39-.05.358-.24.723-.47.985a1.586 1.586 0 0 1-.573.424c-.343.161-.694.182-1.081.17a1.186 1.186 0 0 1-.685-.279 1.638 1.638 0 0 1-.52-.466 1.552 1.552 0 0 1-.285-.656c-.05-.245-.1-.49-.009-.744.074-.536.367-.943.738-1.213a1.48 1.48 0 0 1 1.316-.361zm34.018-38.093a1.833 1.833 0 0 1-1.168-.711 93.356 93.356 0 0 1 3.292-.867l.005.07c-.12.964-1.097 1.695-2.129 1.508zm-43.044 48.021c-.152 1.001-1.096 1.694-2.124 1.578-.994-.154-1.684-1.106-1.569-2.14.152-1.002 1.097-1.695 2.124-1.578 1.028.116 1.717 1.068 1.57 2.14zm-18.294-2.92c-.152 1.001-1.096 1.695-2.124 1.578-.994-.154-1.684-1.105-1.569-2.14.153-1.001 1.097-1.695 2.124-1.578 1.032.187 1.721 1.139 1.57 2.14zm-8.775-9.26c-.343.162-.693.183-1.081.17a1.787 1.787 0 0 1-.941-.441c.367-.34.767-.718 1.171-1.026.099-.112.235-.191.334-.303.4-.378.837-.723 1.275-1.067.268.374.33.831.29 1.329-.03.108-.021.25-.12.362a1.807 1.807 0 0 1-.928.976zm20.074-15.367a1.793 1.793 0 0 1-.941-.44 65.669 65.669 0 0 1 3.028-1.774c.05.246.062.457.041.707-.156.93-1.1 1.624-2.128 1.507zm7.766 10.632c-.995-.154-1.684-1.106-1.57-2.141.153-1.001 1.097-1.694 2.125-1.578.994.154 1.684 1.106 1.569 2.14-.185 1.039-1.13 1.733-2.124 1.579zm-18.328-2.882a2.012 2.012 0 0 1-1.32-.915c.977-.731 1.992-1.428 3.007-2.126.375.403.549.96.442 1.533-.19.968-1.134 1.662-2.128 1.508zm8.648 7.071a1.864 1.864 0 0 1 1.177 2.057c-.02.249-.111.503-.276.69a1.964 1.964 0 0 1-1.886.855 1.95 1.95 0 0 1-.978-.474 1.825 1.825 0 0 1-.603-1.276c-.008-.141.02-.249.013-.39.123-.894.894-1.541 1.736-1.591.14-.008.247.021.388.013.177.025.322.087.429.116z"/></g><defs><clipPath id="a"><path fill="#fff" transform="rotate(-180 269 113.5)" d="M0 0h538v227H0z"/></clipPath></defs></svg>