<svg width="80" height="80" viewBox="0 0 80 80" fill="none" xmlns="http://www.w3.org/2000/svg"><g clip-path="url(#a)"><path d="M77.748 75.938H2.252A2.252 2.252 0 0 1 0 73.685v-5.143a2.252 2.252 0 0 1 2.252-2.252h75.496A2.252 2.252 0 0 1 80 68.542v5.143a2.252 2.252 0 0 1-2.252 2.253z" fill="#F1F3F5"/><path d="M75.17 66.29v9.648h2.576A2.252 2.252 0 0 0 80 73.687V68.54a2.252 2.252 0 0 0-2.254-2.251h-2.575z" fill="#E8ECEF"/><path d="M36.306 75.938H2.252A2.252 2.252 0 0 1 0 73.685v-5.143a2.252 2.252 0 0 1 2.252-2.252h34.054v9.648z" fill="#48CEB8"/><path d="M31.477 66.29h4.829v9.648h-4.83V66.29z" fill="#3FC9B2"/><path d="M19.39 75.938H2.252A2.252 2.252 0 0 1 0 73.685v-5.143a2.252 2.252 0 0 1 2.252-2.252H19.39v9.648z" fill="#29CEF6"/><path d="M14.562 66.29h4.828v9.648h-4.829V66.29z" fill="#22B5ED"/><path d="M33.912 4.063c-16.001 0-28.974 12.958-28.974 28.942 0 15.985 12.973 28.943 28.974 28.943 14.597 0 26.671-10.783 28.68-24.81a.627.627 0 0 0-.544-.713l-28.136-3.42 24.176-14.777c.3-.184.39-.579.198-.875C53.13 9.357 44.14 4.063 33.912 4.063z" fill="#F1F3F5"/><path d="M58.628 17.897l.003.005c0-.002-.002-.003-.003-.005zm-3.605 2.204l3.064-1.873c.3-.184.39-.58.198-.875-5.155-7.995-14.144-13.29-24.373-13.29-.813 0-1.618.035-2.414.1 10.326.852 19.115 7.112 23.525 15.938z" fill="#E4E4E4"/><path d="M33.912 61.948c14.597 0 26.672-10.783 28.679-24.81a.627.627 0 0 0-.543-.713l-4.138-.503c-1.384 13.823-12.506 24.78-26.412 25.925.796.066 1.6.101 2.414.101z" fill="#E8ECEF"/><path d="M58.087 18.228L33.912 33.005V4.062c10.227 0 19.218 5.295 24.373 13.29a.627.627 0 0 1-.198.876z" fill="#48CEB8"/><path d="M33.912 4.467C43.183 6.02 50.96 11.972 55.022 20.1l3.065-1.873c.3-.184.39-.58.198-.875-5.154-7.996-14.146-13.29-24.373-13.29v.404z" fill="#3FC9B2"/><path d="M76.544 29.926c0 1.072-.058 2.13-.172 3.173a.323.323 0 0 1-.36.283l-27.524-3.344a.322.322 0 0 1-.13-.594L72.01 14.987a.323.323 0 0 1 .445.108 28.772 28.772 0 0 1 4.09 14.83z" fill="#29CEF6"/><path d="M68.68 17.021a28.792 28.792 0 0 1 3.035 12.904c0 .985-.05 1.958-.146 2.917l4.443.54a.323.323 0 0 0 .36-.284c.114-1.042.172-2.1.172-3.172 0-5.42-1.492-10.494-4.09-14.831a.323.323 0 0 0-.444-.109l-3.33 2.035z" fill="#22B5ED"/><path d="M62.592 37.14a28.688 28.688 0 0 1-1.994 7.153L33.912 33.005l28.137 3.42c.35.042.593.365.543.714z" fill="#FFC328"/><path d="M56.448 42.538l4.15 1.756a28.687 28.687 0 0 0 1.994-7.154.627.627 0 0 0-.543-.715l-4.139-.503a28.756 28.756 0 0 1-1.462 6.616z" fill="#FFB200"/><path d="M7.793 75.938h-5.54A2.252 2.252 0 0 1 0 73.685v-5.143a2.252 2.252 0 0 1 2.252-2.252h5.54v9.648z" fill="#FFC328"/></g><defs><clipPath id="a"><path fill="#fff" d="M0 0h80v80H0z"/></clipPath></defs></svg>